<svg width="28" height="26" viewBox="0 0 28 26" fill="none" xmlns="http://www.w3.org/2000/svg">
<path fill-rule="evenodd" clip-rule="evenodd" d="M13.9289 14.818C13.0642 14.818 12.2022 14.5324 11.481 13.9611L5.68456 9.28776C5.26711 8.95173 5.20249 8.34042 5.53723 7.92426C5.87455 7.5094 6.48457 7.44349 6.90072 7.77822L12.692 12.4464C13.4197 13.0228 14.4445 13.0228 15.1773 12.4412L20.9105 7.78081C21.3266 7.4409 21.9367 7.50552 22.2753 7.92168C22.6126 8.33654 22.5493 8.94656 22.1344 9.28517L16.3909 13.9534C15.6646 14.5298 14.7961 14.818 13.9289 14.818Z" fill="white"/>
<mask id="mask0_354_1030" style="mask-type:alpha" maskUnits="userSpaceOnUse" x="0" y="0" width="28" height="26">
<path fill-rule="evenodd" clip-rule="evenodd" d="M0 0H27.7867V25.202H0V0Z" fill="white"/>
</mask>
<g mask="url(#mask0_354_1030)">
<path fill-rule="evenodd" clip-rule="evenodd" d="M7.54718 23.264H20.2387C20.2413 23.2614 20.2516 23.264 20.2593 23.264C21.734 23.264 23.0419 22.7367 24.0448 21.735C25.2093 20.5758 25.849 18.9098 25.849 17.0449V8.16859C25.849 4.55888 23.4891 1.93916 20.2387 1.93916H7.54976C4.29935 1.93916 1.9394 4.55888 1.9394 8.16859V17.0449C1.9394 18.9098 2.58044 20.5758 3.74361 21.735C4.74652 22.7367 6.05574 23.264 7.52909 23.264H7.54718ZM7.52443 25.202C5.53023 25.202 3.74929 24.4783 2.37416 23.1083C0.842653 21.5807 0 19.4275 0 17.0443V8.16805C0 3.51149 3.24525 0 7.54898 0H20.2379C24.5416 0 27.7869 3.51149 27.7869 8.16805V17.0443C27.7869 19.4275 26.9442 21.5807 25.4127 23.1083C24.0389 24.477 22.2566 25.202 20.2586 25.202H20.2379H7.54898H7.52443Z" fill="white"/>
</g>
</svg>
