<svg width="430" height="430" viewBox="0 0 430 430" fill="none" xmlns="http://www.w3.org/2000/svg">
<circle cx="215" cy="215" r="215" fill="white"/>
<path d="M110.219 339.884C114.556 338.806 118.827 337.382 123.029 335.836C126.78 334.455 130.35 332.589 134.075 331.136C138.504 329.408 142.113 326.623 145.041 322.974C153.244 312.743 161.375 302.455 169.509 292.168C170.902 290.408 171.007 288.391 169.993 286.433C169.005 284.531 167.362 283.562 165.155 283.628C158.338 283.839 153.027 287.062 148.643 292.013C145.116 295.998 141.675 300.066 138.273 304.16C136.172 306.691 133.788 308.814 130.785 310.201C126.872 312.008 122.957 313.821 119.045 315.63C118.831 315.37 118.86 315.403 118.646 315.142C119.571 313.887 120.494 312.627 121.422 311.378C125.216 306.269 129.099 301.223 132.757 296.018C133.893 294.4 134.634 292.415 135.197 290.494C137.137 283.845 140.437 277.843 143.727 271.824C144.438 270.525 145.251 269.283 145.979 267.991C148.554 263.406 152.012 259.767 156.504 256.919C164.009 252.162 171.284 247.043 178.703 242.142C183.903 238.704 187.035 234.112 187.065 227.724C187.084 223.917 183.554 221.663 180.06 223.248C178.667 223.881 177.435 224.9 176.016 225.437C173.27 226.478 170.474 227.431 167.638 228.196C160.08 230.243 152.49 232.174 144.909 234.145C144.451 234.264 143.977 234.32 143.348 234.435C143.486 233.928 143.579 233.575 143.677 233.226C144.099 231.729 144.148 230.22 143.006 229.059C141.879 227.916 140.493 228.38 139.149 228.812C133.413 230.651 127.656 232.428 121.929 234.294C117.194 235.836 112.218 236.94 107.831 239.185C98.7621 243.826 90.0089 249.084 81.1438 254.12C75.7167 257.202 72.0481 261.985 68.8998 267.196C63.5649 276.02 58.3321 284.907 53.0499 293.763C52.8392 294.119 52.5428 294.423 52.0455 295.062C50.5373 291.957 49.0916 289.149 47.7908 286.271C41.7808 272.964 37.2758 259.153 34.7828 244.772C33.4392 237.013 32.6225 229.138 31.987 221.284C31.516 215.499 31.493 209.648 31.6708 203.84C32.1385 188.536 34.5523 173.515 38.8894 158.821C47.3297 130.246 61.8064 105.149 82.2371 83.48C95.9465 68.9373 111.612 56.9457 129.178 47.4593C145.844 38.4607 163.482 32.1815 182.108 28.6612C194.596 26.3011 207.189 25.1672 219.877 25.454C239.287 25.8924 258.216 29.1721 276.592 35.5535C295.195 42.0173 312.385 51.128 327.968 63.1623C333.82 67.6814 339.293 72.7015 344.875 77.5634C346.598 79.0631 346.232 80.6717 344.131 81.5979C343.532 81.8616 342.903 82.1055 342.261 82.2077C335.572 83.2691 329.888 86.5323 324.481 90.3592C316.057 96.3154 307.64 102.278 299.302 108.353C293.618 112.493 288.022 116.801 283.827 122.543C277.218 131.588 268.494 138.338 259.751 145.059C254.488 149.104 249.058 152.931 243.677 156.82C241.839 158.148 240.815 159.876 241.01 162.134C241.227 164.662 242.603 166.349 245.06 167.173C248.88 168.459 252.582 168.68 256.389 166.897C263.979 163.34 270.865 158.696 277.768 153.989C283 150.422 288.734 147.584 294.25 144.433C294.372 144.364 294.559 144.41 294.958 144.387C294.513 145.986 294.105 147.492 293.674 148.992C291.961 154.948 290.133 160.871 288.549 166.86C286.975 172.807 284.051 178.061 280.554 182.998C276.213 189.133 271.804 195.231 267.111 201.091C264.45 204.414 261.091 207.163 258.177 210.291C254.429 214.315 250.971 218.587 248.495 223.541C247.365 225.799 246.387 228.156 247.108 230.803C247.81 233.384 250.056 234.923 252.628 234.142C255.012 233.42 257.284 232.293 259.55 231.218C262.757 229.695 265.889 228.008 269.097 226.485C271.919 225.143 274.794 223.911 277.662 222.671C278.245 222.421 278.933 222.174 279.539 222.239C289.728 223.36 299.611 221.439 309.517 219.425C317.071 217.889 323.493 214.193 329.154 209.233C339.178 200.448 348.975 191.4 358.868 182.464C362.079 179.564 363.445 175.658 364.506 171.673C366.788 163.093 368.751 154.424 371.151 145.877C372.735 140.24 374.83 134.746 376.763 129.211C377.138 128.14 377.728 127.112 378.386 126.182C378.67 125.783 378.963 125.516 379.262 125.381C379.816 125.131 380.096 124.511 379.951 123.921C379.947 123.911 379.947 123.901 379.944 123.895C379.747 123.09 378.841 122.678 378.103 123.057C377.533 123.351 376.984 123.792 376.49 124.386C375.564 125.496 374.915 126.891 374.342 128.242C370.048 138.381 367.512 149.067 364.7 159.665C363.521 164.111 362.579 168.624 361.351 173.057C360.347 176.673 358.364 179.673 355.381 182.102C351.554 185.22 347.908 188.566 344.253 191.882C338.562 197.04 333.05 202.406 327.231 207.41C322.601 211.395 317.522 214.899 311.427 216.234C305.282 217.582 299.068 218.653 292.847 219.612C289.939 220.061 286.949 219.972 283.995 220.123C283.929 219.87 283.942 219.922 283.88 219.668C286.521 218.36 289.043 216.636 291.829 215.825C298.551 213.874 304.943 211.174 311.289 208.3C318.925 204.842 326.124 200.709 332.325 194.973C333.096 194.261 333.399 193.764 332.612 192.824C331.755 191.799 331.192 192.419 330.59 192.969C325.284 197.825 319.37 201.744 312.797 204.674C308.559 206.563 304.343 208.508 300.118 210.426C299.98 210.205 300.019 210.268 299.878 210.05C306.836 204.068 313.795 198.085 320.73 192.122C319.311 189.99 319.297 189.973 317.638 191.387C313.251 195.125 308.901 198.902 304.495 202.614C301.06 205.508 297.803 208.719 294.029 211.088C289.03 214.226 283.613 216.702 278.354 219.421C276.757 220.249 275.087 220.938 273.454 221.689C275.841 219.299 278.387 217.226 280.995 215.238C287.575 210.231 293.591 204.733 298.34 197.841C301.32 193.517 304.88 189.587 308.262 185.556C309.649 183.905 309.751 183.991 307.874 182.356C307.258 182.933 306.546 183.46 306.01 184.126C301.877 189.251 297.823 194.439 293.65 199.529C291.54 202.103 289.468 204.799 286.956 206.942C281.278 211.781 275.426 216.432 269.466 220.918C265.003 224.277 260.301 227.319 255.611 230.358C254.521 231.063 253.076 231.304 251.752 231.541C250.299 231.802 249.526 230.859 249.578 229.531C249.624 228.301 249.842 227.002 250.326 225.878C252.568 220.657 256.128 216.326 259.958 212.222C262.84 209.137 266.189 206.444 268.777 203.141C274.119 196.325 279.194 189.288 284.173 182.197C286.784 178.479 288.951 174.474 290.212 170.011C293.371 158.827 296.657 147.677 299.878 136.509C300.708 133.625 301.475 130.724 302.259 127.873C300.085 126.696 299.894 126.762 299.305 128.872C298.36 132.25 297.398 135.629 296.519 139.024C296.219 140.181 295.653 140.88 294.536 141.401C287.818 144.535 281.242 147.927 275.304 152.436C269.518 156.83 263.311 160.528 256.836 163.821C253.5 165.519 250.178 166.241 246.562 164.942C245.221 164.461 244.006 163.871 243.69 162.308C243.358 160.67 244.21 159.628 245.468 158.735C249.539 155.844 253.655 153.01 257.623 149.984C268 142.06 278.466 134.271 286.366 123.578C291.111 117.154 297.741 112.661 304.156 108.04C311.322 102.875 318.53 97.769 325.739 92.6632C330.965 88.9616 336.435 85.7775 342.886 84.6897C343.897 84.5183 344.905 84.136 345.824 83.6679C349.054 82.0198 349.562 78.4105 346.957 75.912C345.926 74.9231 344.865 73.9705 343.815 73.0048C322.123 52.9936 297.191 38.675 268.843 30.3554C256.02 26.5912 242.939 24.1388 229.619 23.3609C221.699 22.8995 213.709 22.8731 205.789 23.3247C197.879 23.7762 189.943 24.6497 182.151 26.0572C158.859 30.273 137.2 38.8431 117.141 51.451C96.3976 64.4907 78.8484 80.9617 64.4706 100.775C52.5461 117.207 43.5196 135.141 37.4701 154.536C32.4809 170.532 29.5764 186.898 29.1318 203.669C29.0231 207.832 28.8848 212.015 29.1647 216.165C29.6916 224.033 30.1593 231.934 31.2888 239.729C33.4294 254.493 37.5162 268.775 43.3483 282.517C45.2748 287.059 47.468 291.489 49.6415 295.922C50.6887 298.058 52.6383 298.273 54.2882 296.526C54.8019 295.982 55.1312 295.253 55.5264 294.601C61.2334 285.167 66.8285 275.664 72.7067 266.342C74.462 263.56 76.6322 260.752 79.2634 258.87C84.9605 254.796 90.9738 251.124 97.0628 247.643C102.147 244.736 107.334 241.825 112.811 239.835C121.755 236.581 130.972 234.07 140.078 231.268C140.401 231.169 141.02 231.182 141.102 231.344C141.263 231.663 141.313 232.266 141.112 232.504C140.417 233.331 139.66 234.132 138.817 234.805C135.573 237.392 131.486 237.877 127.722 239.159C121.053 241.43 114.072 242.781 107.986 246.707C103.198 249.799 98.1364 252.462 93.1802 255.287C92.2746 255.805 91.8794 256.256 92.5183 257.334C93.2099 258.498 93.8553 257.908 94.5469 257.512C100.017 254.374 105.49 251.236 110.947 248.068C114.273 246.137 122.568 243.085 125.331 242.864C117.161 248.167 108.951 253.197 101.334 259.094C102.806 261.138 102.773 261.085 104.486 259.964C113.614 253.982 122.707 247.943 131.934 242.115C134.638 240.408 137.628 238.978 140.677 238.035C146.638 236.196 152.73 234.785 158.773 233.206C160.709 232.698 162.656 232.227 164.599 231.739C163.887 232.514 163.107 233.025 162.284 233.45C157.031 236.182 151.699 238.773 146.529 241.654C142.561 243.862 138.458 246.025 135.006 248.919C129.006 253.955 123.471 259.549 117.721 264.886C116.446 266.069 115.083 267.157 113.624 268.406C114.678 269.319 115.234 269.803 115.824 270.318C120.26 266.155 124.735 262.255 128.855 258.013C135.092 251.599 142.248 246.579 150.204 242.567C156.372 239.455 162.442 236.149 168.501 232.833C172.496 230.648 176.375 228.258 180.343 226.027C182.879 224.6 184.776 225.76 184.519 228.667C184.137 233.002 182.131 236.542 178.532 238.997C171.419 243.853 164.279 248.675 157.061 253.372C151.851 256.76 146.997 260.429 144.072 266.118C143.723 266.801 143.276 267.43 142.887 268.096C139.041 274.692 135.253 281.34 133.087 288.704C132.164 291.832 130.768 294.611 128.921 297.208C127.205 299.624 125.397 301.974 123.619 304.347C121.02 307.815 118.346 311.233 115.867 314.783C115.379 315.482 115.244 316.903 115.643 317.588C115.946 318.116 117.49 318.399 118.228 318.119C122.875 316.349 127.475 314.44 132.043 312.476C135.392 311.035 137.977 308.596 140.299 305.824C143.753 301.701 147.267 297.633 150.784 293.562C154.288 289.508 158.651 286.97 163.993 286.212C165.432 286.007 166.752 286.176 167.628 287.517C168.521 288.882 167.898 290.022 167.042 291.113C160.034 300.056 153.017 308.992 146.019 317.941C141.748 323.403 136.666 327.658 130.001 330.084C123.579 332.421 117.599 336.007 110.772 337.217C104.374 338.351 99.0618 341.334 94.5436 345.932C92.0902 348.431 91.3492 349.416 92.6698 350.979C92.7488 350.913 93.3416 351.041 93.4206 350.979C94.0463 350.481 94.2241 349.766 94.9585 349.294C94.9453 349.278 94.9355 349.265 94.9223 349.248C99.1968 344.581 104.133 341.397 110.219 339.884Z" fill="black"/>
</svg>
