<svg width="38" height="37" viewBox="0 0 38 37" fill="none" xmlns="http://www.w3.org/2000/svg">
<path fill-rule="evenodd" clip-rule="evenodd" d="M19.3529 36.8015C29.6518 36.8015 38.0007 28.6423 38.0007 18.5775C38.0007 8.51267 29.6518 0.353516 19.3529 0.353516C9.05398 0.353516 0.705078 8.51267 0.705078 18.5775C0.705078 28.6423 9.05398 36.8015 19.3529 36.8015ZM19.7766 7.98215C13.8089 7.98215 9.1814 12.3553 9.1814 18.2595C9.1814 21.348 10.4475 24.018 12.5083 25.8616C12.6805 26.0152 12.7864 26.2324 12.7917 26.4655L12.85 28.3515C12.8685 28.9527 13.4884 29.3448 14.0393 29.1011L16.1425 28.174C16.3199 28.0945 16.5212 28.0813 16.7093 28.1316C17.6761 28.3965 18.7039 28.5395 19.7766 28.5395C25.7444 28.5395 30.3719 24.1664 30.3719 18.2622C30.3719 12.358 25.7444 7.98215 19.7766 7.98215ZM13.4141 21.2655L16.5264 16.3281C17.0217 15.5414 18.0812 15.348 18.8256 15.9043L21.3022 17.7611C21.53 17.9306 21.8426 17.9306 22.0677 17.7585L25.4105 15.2209C25.8555 14.8819 26.4382 15.4169 26.1416 15.891L23.0266 20.8258C22.5312 21.6125 21.4717 21.8058 20.7274 21.2496L18.2508 19.3928C18.023 19.2232 17.7104 19.2232 17.4853 19.3954L14.1425 21.933C13.6975 22.272 13.1147 21.7396 13.4141 21.2655Z" fill="white"/>
</svg>
