<svg width="29" height="28" viewBox="0 0 29 28" fill="none" xmlns="http://www.w3.org/2000/svg">
<mask id="mask0_354_1029" style="mask-type:alpha" maskUnits="userSpaceOnUse" x="16" y="0" width="13" height="12">
<path fill-rule="evenodd" clip-rule="evenodd" d="M16.6548 0H28.167V11.5038H16.6548V0Z" fill="white"/>
</mask>
<g mask="url(#mask0_354_1029)">
<path fill-rule="evenodd" clip-rule="evenodd" d="M27.1554 11.5038C26.6471 11.5038 26.2103 11.1223 26.1524 10.6059C25.6414 6.05446 22.1064 2.52221 17.5536 2.01664C16.9995 1.95462 16.5991 1.45579 16.6611 0.900338C16.7218 0.346233 17.2166 -0.0622679 17.7774 0.00783785C23.2753 0.618567 27.545 4.88288 28.1612 10.3794C28.2232 10.9349 27.8241 11.4351 27.27 11.4971C27.2323 11.5011 27.1932 11.5038 27.1554 11.5038Z" fill="white"/>
</g>
<path fill-rule="evenodd" clip-rule="evenodd" d="M22.3841 11.5186C21.9096 11.5186 21.4876 11.1842 21.3932 10.7016C21.0049 8.70624 19.4666 7.16796 17.474 6.78103C16.9253 6.67452 16.568 6.14468 16.6745 5.59597C16.781 5.04726 17.3203 4.68864 17.8596 4.7965C20.6652 5.34116 22.8317 7.50635 23.3777 10.3133C23.4842 10.8633 23.127 11.3932 22.5796 11.4997C22.5135 11.5118 22.4488 11.5186 22.3841 11.5186Z" fill="white"/>
<path fill-rule="evenodd" clip-rule="evenodd" d="M1.73743 2.81481L1.83524 2.7126C4.43376 0.113841 6.12595 -0.574986 7.93147 0.463267C8.45084 0.761926 8.93774 1.17998 9.59982 1.85242L11.6307 3.95832C12.7524 5.18234 13.0074 6.35641 12.6422 7.73138L12.5918 7.91341L12.536 8.0944L12.2645 8.89095C11.6834 10.6773 11.926 11.6851 13.9935 13.752C16.1434 15.9014 17.147 16.0773 19.0711 15.4049L19.414 15.2857L19.8287 15.151L20.0102 15.1007C21.4716 14.7107 22.7062 15.0219 24.0155 16.3303L25.6519 17.9109L26.1335 18.3847C26.6676 18.9293 27.0205 19.3607 27.2812 19.8168C28.313 21.6218 27.6234 23.313 24.95 25.9765L24.6956 26.2342C24.2965 26.6189 23.9235 26.8945 23.3757 27.1546C22.456 27.5913 21.3696 27.7559 20.1071 27.5803C16.9962 27.1477 13.0507 24.6931 8.05121 19.6949C7.64424 19.2881 7.25446 18.8891 6.88148 18.4978L6.15781 17.7254C-0.62337 10.3579 -1.22161 5.8321 1.55739 2.99365L1.73743 2.81481ZM7.96262 3.07404C7.52339 2.64101 7.20433 2.37704 6.92304 2.21529C6.30082 1.85748 5.62902 2.00873 4.38572 3.07882L3.99506 3.42783C3.92692 3.49073 3.85722 3.55603 3.7859 3.62377L3.33793 4.06009L3.29757 4.11052L2.99388 4.41563C2.25999 5.16523 1.91236 6.08011 2.21192 7.65349C2.70348 10.2353 4.95348 13.7377 9.48067 18.2637C14.1978 22.9796 17.7919 25.2156 20.3854 25.5762C21.8972 25.7865 22.6684 25.4204 23.4548 24.6147L24.0545 24.0094C24.3358 23.7151 24.5761 23.4484 24.779 23.2047L25.0558 22.856C25.7631 21.9138 25.8277 21.3486 25.5252 20.8193C25.4101 20.618 25.2427 20.3972 24.999 20.1274L24.6683 19.7782L24.4727 19.5824L22.4083 17.589C21.7184 16.9528 21.247 16.8626 20.5312 17.0535L20.3245 17.113L19.4694 17.4032C16.9886 18.2045 15.1989 17.8159 12.5633 15.1811C9.83375 12.4522 9.51362 10.6299 10.4282 8.00604L10.4869 7.83743L10.6491 7.34861L10.7289 7.03704C10.8703 6.35895 10.7088 5.88615 9.97989 5.1571C9.94987 5.12708 9.91633 5.09327 9.87983 5.05625L7.96262 3.07404Z" fill="white"/>
</svg>
