<svg width="44" height="38" viewBox="0 0 44 38" fill="none" xmlns="http://www.w3.org/2000/svg">
<path d="M32.0533 11.6469L36.4741 19.0587L32.0533 25.4116" stroke="#C4C4C4" stroke-width="2" stroke-linecap="round"/>
<path d="M39.7896 14.8234L42 19.3844L39.7896 23.2939" stroke="#C4C4C4" stroke-width="2" stroke-linecap="round"/>
<path d="M34.1558 38C34.708 38 35.1558 37.5523 35.1558 37C35.1558 36.4477 34.708 36 34.1558 36L34.1558 38ZM34.1558 2C34.708 2 35.1558 1.55228 35.1558 1C35.1558 0.447715 34.708 -4.82823e-08 34.1558 0L34.1558 2ZM34.1558 36L5.99985 36L5.99985 38L34.1558 38L34.1558 36ZM1.99985 32L1.99984 6L-0.000155298 6L-0.000153025 32L1.99985 32ZM5.99984 2L34.1558 2L34.1558 0L5.99984 2.46147e-06L5.99984 2ZM1.99984 6C1.99984 3.79086 3.7907 2 5.99984 2L5.99984 2.46147e-06C2.68613 2.75116e-06 -0.000155588 2.68629 -0.000155298 6L1.99984 6ZM5.99985 36C3.79071 36 1.99985 34.2091 1.99985 32L-0.000153025 32C-0.000152735 35.3137 2.68614 38 5.99985 38L5.99985 36Z" fill="#C4C4C4"/>
</svg>
