<svg width="23" height="18" viewBox="0 0 23 18" fill="none" xmlns="http://www.w3.org/2000/svg">
<path d="M4.71838 12.0239L4.43928 11.7986L4.08061 11.8021L4.07899 11.8021H1.13832C1.06193 11.8021 1 11.7402 1 11.6638V7.30019C1 7.2238 1.06193 7.16187 1.13832 7.16187H4.07899C4.0845 7.16187 4.08961 7.16215 4.09436 7.16263L4.51204 7.20514L4.83488 6.93675L10.6782 2.07905C10.7096 2.05296 10.7324 2.04726 10.7486 2.04555C10.7693 2.04336 10.7966 2.04671 10.8254 2.06019C10.8541 2.07367 10.8742 2.09257 10.8857 2.10986C10.8947 2.12339 10.905 2.1446 10.905 2.18542V16.7285C10.905 16.7687 10.8949 16.7899 10.8859 16.8036C10.8744 16.8209 10.8546 16.8398 10.8263 16.8533C10.798 16.8668 10.7709 16.8704 10.7502 16.8684C10.7339 16.8669 10.711 16.8614 10.6797 16.8361L4.71838 12.0239Z" stroke="#C4C4C4" stroke-width="2"/>
<path d="M20 1C21.2769 3.46852 22 6.28255 22 9.26918C22 12.0408 21.3773 14.6638 20.2671 17" stroke="#C4C4C4" stroke-width="2" stroke-linecap="round"/>
<path d="M17 5C17.6385 6.38854 18 7.97143 18 9.65142C18 11.2105 17.6886 12.6859 17.1335 14" stroke="#C4C4C4" stroke-width="2" stroke-linecap="round"/>
</svg>
