<svg width="39" height="36" viewBox="0 0 39 36" fill="none" xmlns="http://www.w3.org/2000/svg">
<path d="M6.41853 10.1185L6.94886 9.5882L6.41853 10.1185ZM2.85 6.55L3.38033 6.01967L2.85 6.55ZM4.81299 32.5334L5.25383 31.9266L5.25382 31.9266L4.81299 32.5334ZM2.76659 30.487L2.15983 30.9279L2.76659 30.487ZM36.2334 30.487L35.6266 30.0462H35.6266L36.2334 30.487ZM34.187 32.5334L33.7462 31.9266L34.187 32.5334ZM4.81299 2.76659L4.37215 2.15983V2.15983L4.81299 2.76659ZM2.76659 4.81299L2.15983 4.37215H2.15983L2.76659 4.81299ZM29.269 14.444C29.568 14.1574 29.5781 13.6826 29.2914 13.3836C29.0048 13.0846 28.53 13.0745 28.231 13.3612L29.269 14.444ZM38.736 13.8933C38.7309 13.4791 38.391 13.1475 37.9768 13.1527C37.5626 13.1578 37.231 13.4977 37.2361 13.9119L38.736 13.8933ZM25.041 1.76328C25.4552 1.76824 25.795 1.4365 25.7999 1.02232C25.8049 0.608137 25.4732 0.26835 25.059 0.263385L25.041 1.76328ZM2.1489 5.8489L1.47325 5.52334L2.1489 5.8489ZM6.94886 9.5882L3.38033 6.01967L2.31967 7.08033L5.8882 10.6489L6.94886 9.5882ZM5.8882 10.6489C8.95654 13.7172 11.31 16.0729 13.38 17.6523C15.4673 19.2449 17.3543 20.1185 19.5 20.1185V18.6185C17.8142 18.6185 16.2438 17.9505 14.2899 16.4598C12.3187 14.9558 10.0472 12.6865 6.94886 9.5882L5.8882 10.6489ZM17.65 1.75H21.35V0.25H17.65V1.75ZM21.35 33.55H17.65V35.05H21.35V33.55ZM17.65 33.55C14.1648 33.55 11.6111 33.549 9.62272 33.3335C7.64834 33.1196 6.32042 32.7016 5.25383 31.9266L4.37215 33.1402C5.73706 34.1318 7.35914 34.5971 9.46115 34.8248C11.5491 35.051 14.1982 35.05 17.65 35.05V33.55ZM0.25 17.65C0.25 21.1018 0.248971 23.7509 0.475188 25.8389C0.702925 27.9409 1.16816 29.5629 2.15983 30.9279L3.37336 30.0462C2.59843 28.9796 2.18037 27.6517 1.96646 25.6773C1.75103 23.6889 1.75 21.1352 1.75 17.65H0.25ZM5.25382 31.9266C4.53222 31.4024 3.89763 30.7678 3.37336 30.0462L2.15983 30.9279C2.77663 31.7768 3.5232 32.5234 4.37215 33.1402L5.25382 31.9266ZM37.25 17.65C37.25 21.1352 37.249 23.6889 37.0335 25.6773C36.8196 27.6517 36.4016 28.9796 35.6266 30.0462L36.8402 30.9278C37.8318 29.5629 38.2971 27.9409 38.5248 25.8389C38.751 23.7509 38.75 21.1018 38.75 17.65H37.25ZM21.35 35.05C24.8018 35.05 27.4509 35.051 29.5389 34.8248C31.6409 34.5971 33.2629 34.1318 34.6279 33.1402L33.7462 31.9266C32.6796 32.7016 31.3517 33.1196 29.3773 33.3335C27.3889 33.549 24.8352 33.55 21.35 33.55V35.05ZM35.6266 30.0462C35.1024 30.7678 34.4678 31.4024 33.7462 31.9266L34.6279 33.1402C35.4768 32.5234 36.2234 31.7768 36.8402 30.9278L35.6266 30.0462ZM17.65 0.25C14.1982 0.25 11.5491 0.248971 9.46115 0.475188C7.35914 0.702925 5.73706 1.16816 4.37215 2.15983L5.25383 3.37336C6.32042 2.59843 7.64834 2.18037 9.62272 1.96646C11.6111 1.75103 14.1648 1.75 17.65 1.75V0.25ZM4.37215 2.15983C3.5232 2.77663 2.77663 3.5232 2.15983 4.37215L3.37336 5.25383C3.89763 4.53222 4.53222 3.89763 5.25383 3.37336L4.37215 2.15983ZM28.231 13.3612C24.4064 17.0273 22.1064 18.6185 19.5 18.6185V20.1185C22.7842 20.1185 25.4906 18.0658 29.269 14.444L28.231 13.3612ZM38.75 17.65C38.75 16.2712 38.75 15.0235 38.736 13.8933L37.2361 13.9119C37.25 15.0309 37.25 16.2687 37.25 17.65H38.75ZM21.35 1.75C22.7119 1.75 23.9343 1.75001 25.041 1.76328L25.059 0.263385C23.9415 0.249989 22.7095 0.25 21.35 0.25V1.75ZM37.25 4.7C37.25 6.32924 35.9292 7.65 34.3 7.65V9.15C36.7577 9.15 38.75 7.15767 38.75 4.7H37.25ZM34.3 7.65C32.6708 7.65 31.35 6.32924 31.35 4.7H29.85C29.85 7.15767 31.8423 9.15 34.3 9.15V7.65ZM31.35 4.7C31.35 3.07076 32.6708 1.75 34.3 1.75V0.25C31.8423 0.25 29.85 2.24233 29.85 4.7H31.35ZM34.3 1.75C35.9292 1.75 37.25 3.07076 37.25 4.7H38.75C38.75 2.24233 36.7577 0.25 34.3 0.25V1.75ZM1.75 17.65C1.75 14.6341 1.75049 12.3126 1.89148 10.4463C2.03234 8.58173 2.30981 7.24272 2.82456 6.17447L1.47325 5.52334C0.839091 6.83941 0.54211 8.39586 0.395744 10.3333C0.249513 12.2689 0.25 14.6557 0.25 17.65H1.75ZM2.82456 6.17447C2.98275 5.84616 3.16436 5.54149 3.37336 5.25383L2.15983 4.37215C1.89677 4.73421 1.6694 5.11628 1.47325 5.52334L2.82456 6.17447ZM3.38033 6.01967L2.67923 5.31857L1.61857 6.37923L2.31967 7.08033L3.38033 6.01967Z" fill="#2D264B"/>
</svg>
