<svg width="57" height="57" viewBox="0 0 57 57" fill="none" xmlns="http://www.w3.org/2000/svg">
<rect x="0.0507812" width="56.9491" height="56.9491" rx="5" fill="#F6F6F6"/>
<path d="M34.1521 14.5537H22.8987C18.3253 14.5537 14.6045 18.2745 14.6045 22.8479V34.1013C14.6045 38.6747 18.3253 42.3955 22.8987 42.3955H34.1521C38.7255 42.3955 42.4463 38.6747 42.4463 34.1013V22.8479C42.4462 18.2745 38.7255 14.5537 34.1521 14.5537ZM39.6454 34.1013C39.6454 37.1352 37.1859 39.5946 34.1521 39.5946H22.8987C19.8648 39.5946 17.4054 37.1352 17.4054 34.1013V22.8479C17.4054 19.814 19.8648 17.3546 22.8987 17.3546H34.1521C37.1859 17.3546 39.6454 19.814 39.6454 22.8479V34.1013Z" fill="#343232"/>
<path d="M28.5261 21.2734C24.5555 21.2734 21.3252 24.5037 21.3252 28.4742C21.3252 32.4447 24.5555 35.6751 28.5261 35.6751C32.4966 35.6751 35.7269 32.4448 35.7269 28.4742C35.7269 24.5036 32.4966 21.2734 28.5261 21.2734ZM28.5261 32.8742C26.096 32.8742 24.1261 30.9043 24.1261 28.4743C24.1261 26.0442 26.0961 24.0743 28.5261 24.0743C30.9561 24.0743 32.9261 26.0442 32.9261 28.4743C32.9261 30.9043 30.9561 32.8742 28.5261 32.8742Z" fill="#343232"/>
<path d="M35.7401 23.0536C36.6931 23.0536 37.4656 22.2811 37.4656 21.3282C37.4656 20.3752 36.6931 19.6027 35.7401 19.6027C34.7872 19.6027 34.0146 20.3752 34.0146 21.3282C34.0146 22.2811 34.7872 23.0536 35.7401 23.0536Z" fill="#343232"/>
</svg>
