<svg width="39" height="39" viewBox="0 0 39 39" fill="none" xmlns="http://www.w3.org/2000/svg">
<path d="M14.6774 20.1074L15.2077 19.5771L14.6774 20.1074ZM19.1338 24.5639L18.6035 25.0942L19.1338 24.5639ZM26.421 38.1089L26.5837 37.3768L26.421 38.1089ZM1.13229 12.8203L1.86443 12.6576L1.13229 12.8203ZM33.4487 34.7123L32.8964 34.2049L33.4487 34.7123ZM33.1985 29.4253L33.7288 28.8949L33.1985 29.4253ZM33.4487 29.6802L32.8964 30.1876L33.4487 29.6802ZM4.52891 5.79254L5.03636 6.3448L4.52891 5.79254ZM9.56105 5.79254L9.0536 6.3448L9.56105 5.79254ZM31.4261 17.0399H30.6761H31.4261ZM30.6761 18.0917C30.6761 18.5059 31.0118 18.8417 31.4261 18.8417C31.8403 18.8417 32.1761 18.5059 32.1761 18.0917H30.6761ZM20.9081 6.82374C20.4939 6.82374 20.1581 7.15953 20.1581 7.57374C20.1581 7.98795 20.4939 8.32374 20.9081 8.32374V6.82374ZM21.9599 7.57374V8.32374H21.9599L21.9599 7.57374ZM31.4251 16.7373L32.175 16.7265L31.4251 16.7373ZM22.2625 7.57469L22.2733 6.82477H22.2732L22.2625 7.57469ZM38 17.5658H38.75H38ZM37.25 19.4065C37.25 19.8207 37.5858 20.1565 38 20.1565C38.4142 20.1565 38.75 19.8207 38.75 19.4065H37.25ZM19.5935 0.25C19.1793 0.250001 18.8435 0.585787 18.8435 1C18.8435 1.41421 19.1793 1.75 19.5935 1.75L19.5935 0.25ZM21.4342 1V1.75V1ZM37.9407 14.5482L37.1937 14.6151L37.9407 14.5482ZM24.4518 1.05926L24.3849 1.80627V1.80627L24.4518 1.05926ZM32.6681 34.4369L31.0201 36.0849L32.0808 37.1455L33.7288 35.4975L32.6681 34.4369ZM3.15634 8.22108L4.80435 6.57307L3.74369 5.51241L2.09568 7.16042L3.15634 8.22108ZM29.9569 27.2443L32.6681 29.9556L33.7288 28.8949L31.0175 26.1837L29.9569 27.2443ZM9.28562 6.57307L11.9969 9.28434L13.0575 8.22368L10.3463 5.51241L9.28562 6.57307ZM12.9148 14.131C11.9488 16.347 12.4377 18.9284 14.147 20.6377L15.2077 19.5771C13.9345 18.3038 13.5703 16.381 14.2898 14.7304L12.9148 14.131ZM18.6035 25.0942C20.3128 26.8035 22.8942 27.2924 25.1102 26.3265L24.5108 24.9514C22.8602 25.6709 20.9374 25.3068 19.6642 24.0335L18.6035 25.0942ZM26.5837 37.3768C14.2438 34.6346 4.60663 24.9974 1.86443 12.6576L0.400153 12.983C3.26869 25.8913 13.3499 35.9725 26.2583 38.8411L26.5837 37.3768ZM11.9969 9.28434C13.2701 10.5576 13.6343 12.4804 12.9148 14.131L14.2898 14.7304C15.2558 12.5144 14.7669 9.93302 13.0575 8.22368L11.9969 9.28434ZM2.09568 7.16042C0.572302 8.68379 -0.0671976 10.8799 0.400153 12.983L1.86443 12.6576C1.50834 11.0551 1.9956 9.38181 3.15634 8.22108L2.09568 7.16042ZM31.0201 36.0849C29.8594 37.2456 28.1861 37.7329 26.5837 37.3768L26.2583 38.8411C28.3613 39.3084 30.5574 38.6689 32.0808 37.1455L31.0201 36.0849ZM33.7288 35.4975C33.8547 35.3716 33.9343 35.2922 34.0009 35.2198L32.8964 34.2049C32.8567 34.2481 32.8049 34.3001 32.6681 34.4369L33.7288 35.4975ZM32.6681 29.9556C32.8049 30.0924 32.8567 30.1444 32.8964 30.1876L34.0009 29.1727C33.9343 29.1002 33.8547 29.0209 33.7288 28.8949L32.6681 29.9556ZM34.0009 35.2198C35.5718 33.5101 35.5718 30.8823 34.0009 29.1727L32.8964 30.1876C33.94 31.3234 33.94 33.0691 32.8964 34.2049L34.0009 35.2198ZM31.0175 26.1837C29.3082 24.4743 26.7268 23.9855 24.5108 24.9514L25.1102 26.3265C26.7608 25.6069 28.6836 25.9711 29.9569 27.2443L31.0175 26.1837ZM4.80435 6.57307C4.94112 6.43629 4.99311 6.38454 5.03636 6.3448L4.02145 5.24028C3.94898 5.30687 3.86962 5.38648 3.74369 5.51241L4.80435 6.57307ZM10.3463 5.51241C10.2203 5.38648 10.141 5.30687 10.0685 5.24028L9.0536 6.3448C9.09685 6.38454 9.14884 6.43629 9.28562 6.57307L10.3463 5.51241ZM5.03636 6.3448C6.17211 5.3012 7.91785 5.3012 9.0536 6.3448L10.0685 5.24028C8.35889 3.66937 5.73107 3.66937 4.02145 5.24028L5.03636 6.3448ZM14.147 20.6377L18.6035 25.0942L19.6642 24.0335L15.2077 19.5771L14.147 20.6377ZM30.6761 17.0399V18.0917H32.1761V17.0399H30.6761ZM20.9081 8.32374H21.9599V6.82374H20.9081V8.32374ZM32.1761 17.0399C32.1761 16.8851 32.1761 16.7998 32.175 16.7265L30.6752 16.748C30.676 16.8079 30.6761 16.8799 30.6761 17.0399H32.1761ZM21.9599 8.32374C22.1198 8.32374 22.1919 8.32376 22.2518 8.32462L22.2732 6.82477C22.2 6.82372 22.1147 6.82374 21.9599 6.82374L21.9599 8.32374ZM32.175 16.7265C32.0972 11.2905 27.7093 6.90262 22.2733 6.82477L22.2518 8.32462C26.8762 8.39085 30.6089 12.1236 30.6752 16.748L32.175 16.7265ZM37.25 17.5658V19.4065H38.75V17.5658H37.25ZM19.5935 1.75L21.4342 1.75L21.4342 0.25L19.5935 0.25L19.5935 1.75ZM38.75 17.5658C38.75 16.0116 38.7508 15.185 38.6878 14.4813L37.1937 14.6151C37.2492 15.2352 37.25 15.9791 37.25 17.5658H38.75ZM21.4342 1.75C23.0208 1.75 23.7648 1.75075 24.3849 1.80627L24.5187 0.31225C23.815 0.249247 22.9884 0.249998 21.4342 0.25L21.4342 1.75ZM38.6878 14.4813C38.0137 6.95281 32.0472 0.986297 24.5187 0.31225L24.3849 1.80627C31.1907 2.41561 36.5844 7.80932 37.1937 14.6151L38.6878 14.4813Z" fill="#2D264B"/>
</svg>
