<svg width="58" height="57" viewBox="0 0 58 57" fill="none" xmlns="http://www.w3.org/2000/svg">
<rect x="0.0673828" width="57" height="57" rx="5" fill="#F6F6F6"/>
<path fill-rule="evenodd" clip-rule="evenodd" d="M39.9497 18.3585C41.2032 18.7025 42.1905 19.7161 42.5255 21.0032C43.1343 23.3359 43.1343 28.2032 43.1343 28.2032C43.1343 28.2032 43.1343 33.0703 42.5255 35.4032C42.1905 36.6903 41.2032 37.7038 39.9497 38.048C37.6779 38.673 28.5676 38.673 28.5676 38.673C28.5676 38.673 19.4574 38.673 17.1854 38.048C15.9319 37.7038 14.9447 36.6903 14.6096 35.4032C14.001 33.0703 14.001 28.2032 14.001 28.2032C14.001 28.2032 14.001 23.3359 14.6096 21.0032C14.9447 19.7161 15.9319 18.7025 17.1854 18.3585C19.4574 17.7334 28.5676 17.7334 28.5676 17.7334C28.5676 17.7334 37.6779 17.7334 39.9497 18.3585ZM25.8359 24.1067V33.2109L33.1193 28.6589L25.8359 24.1067Z" fill="#343131"/>
</svg>
