<svg width="20" height="20" viewBox="0 0 20 20" fill="none" xmlns="http://www.w3.org/2000/svg">
<path fill-rule="evenodd" clip-rule="evenodd" d="M14.084 18.5C16.767 18.5 18.5 16.865 18.5 14.335L18.5 5.666C18.5 3.136 16.767 1.5 14.084 1.5L5.916 1.5C3.233 1.5 1.5 3.136 1.5 5.666L1.5 14.335C1.5 16.865 3.233 18.5 5.916 18.5L14.084 18.5ZM5.916 1.23126e-06L14.084 5.17193e-07C17.622 2.07891e-07 20 2.277 20 5.666L20 14.335C20 17.724 17.622 20 14.084 20L5.916 20C2.378 20 -1.98974e-07 17.724 -4.9525e-07 14.335L-1.25312e-06 5.666C-1.54939e-06 2.277 2.378 1.54056e-06 5.916 1.23126e-06Z" fill="black"/>
<path fill-rule="evenodd" clip-rule="evenodd" d="M5.91406 9.25L14.0861 9.25C14.5001 9.25 14.8361 9.586 14.8361 10C14.8361 10.414 14.5001 10.75 14.0861 10.75L5.91406 10.75C5.50006 10.75 5.16406 10.414 5.16406 10C5.16406 9.586 5.50006 9.25 5.91406 9.25Z" fill="black"/>
<path fill-rule="evenodd" clip-rule="evenodd" d="M9.67775 5.50205C9.86975 5.50205 10.0627 5.57505 10.2087 5.72305C10.5007 6.01705 10.4997 6.49105 10.2067 6.78305L6.97675 10.0001L10.2067 13.2171C10.4997 13.5091 10.5007 13.9831 10.2087 14.2771C9.91675 14.5711 9.44275 14.5711 9.14875 14.2791L5.38475 10.5311C5.24275 10.3911 5.16375 10.1991 5.16375 10.0001C5.16375 9.80105 5.24275 9.60905 5.38475 9.46905L9.14875 5.72105C9.29475 5.57505 9.48675 5.50205 9.67775 5.50205Z" fill="black"/>
</svg>
