<svg width="19" height="20" viewBox="0 0 19 20" fill="none" xmlns="http://www.w3.org/2000/svg">
<path fill-rule="evenodd" clip-rule="evenodd" d="M12.7158 14.9735H5.49585C5.08185 14.9735 4.74585 14.6375 4.74585 14.2235C4.74585 13.8095 5.08185 13.4735 5.49585 13.4735H12.7158C13.1298 13.4735 13.4658 13.8095 13.4658 14.2235C13.4658 14.6375 13.1298 14.9735 12.7158 14.9735Z" fill="#FFBB00"/>
<path fill-rule="evenodd" clip-rule="evenodd" d="M12.7158 10.787H5.49585C5.08185 10.787 4.74585 10.451 4.74585 10.037C4.74585 9.62299 5.08185 9.28699 5.49585 9.28699H12.7158C13.1298 9.28699 13.4658 9.62299 13.4658 10.037C13.4658 10.451 13.1298 10.787 12.7158 10.787Z" fill="#FFBB00"/>
<path fill-rule="evenodd" clip-rule="evenodd" d="M8.25048 6.61023H5.49548C5.08148 6.61023 4.74548 6.27423 4.74548 5.86023C4.74548 5.44623 5.08148 5.11023 5.49548 5.11023H8.25048C8.66448 5.11023 9.00048 5.44623 9.00048 5.86023C9.00048 6.27423 8.66448 6.61023 8.25048 6.61023Z" fill="#FFBB00"/>
<mask id="mask0_282_1571" style="mask-type:alpha" maskUnits="userSpaceOnUse" x="0" y="0" width="19" height="20">
<path fill-rule="evenodd" clip-rule="evenodd" d="M0 0H18.1647V19.9098H0V0Z" fill="white"/>
</mask>
<g mask="url(#mask0_282_1571)">
<path fill-rule="evenodd" clip-rule="evenodd" d="M12.9088 1.49982L5.21976 1.50382C2.89176 1.51782 1.49976 2.95782 1.49976 5.35682V14.5528C1.49976 16.9678 2.90476 18.4098 5.25576 18.4098L12.9448 18.4068C15.2728 18.3928 16.6648 16.9508 16.6648 14.5528V5.35682C16.6648 2.94182 15.2608 1.49982 12.9088 1.49982ZM5.25676 19.9098C2.11276 19.9098 -0.000244141 17.7568 -0.000244141 14.5528V5.35682C-0.000244141 2.12382 2.04676 0.0228169 5.21476 0.00381689L12.9078 -0.000183105H12.9088C16.0528 -0.000183105 18.1648 2.15282 18.1648 5.35682V14.5528C18.1648 17.7848 16.1178 19.8868 12.9498 19.9068L5.25676 19.9098Z" fill="#FFBB00"/>
</g>
</svg>
