<svg width="19" height="20" viewBox="0 0 19 20" fill="none" xmlns="http://www.w3.org/2000/svg">
<path fill-rule="evenodd" clip-rule="evenodd" d="M12.7158 14.9735H5.49585C5.08185 14.9735 4.74585 14.6375 4.74585 14.2235C4.74585 13.8095 5.08185 13.4735 5.49585 13.4735H12.7158C13.1298 13.4735 13.4658 13.8095 13.4658 14.2235C13.4658 14.6375 13.1298 14.9735 12.7158 14.9735Z" fill="black"/>
<path fill-rule="evenodd" clip-rule="evenodd" d="M12.7158 10.787H5.49585C5.08185 10.787 4.74585 10.451 4.74585 10.037C4.74585 9.623 5.08185 9.287 5.49585 9.287H12.7158C13.1298 9.287 13.4658 9.623 13.4658 10.037C13.4658 10.451 13.1298 10.787 12.7158 10.787Z" fill="black"/>
<path fill-rule="evenodd" clip-rule="evenodd" d="M8.25048 6.6102H5.49548C5.08148 6.6102 4.74548 6.2742 4.74548 5.8602C4.74548 5.4462 5.08148 5.1102 5.49548 5.1102H8.25048C8.66448 5.1102 9.00048 5.4462 9.00048 5.8602C9.00048 6.2742 8.66448 6.6102 8.25048 6.6102Z" fill="black"/>
<mask id="mask0_282_1800" style="mask-type:alpha" maskUnits="userSpaceOnUse" x="0" y="0" width="19" height="20">
<path fill-rule="evenodd" clip-rule="evenodd" d="M0 0H18.1647V19.9098H0V0Z" fill="white"/>
</mask>
<g mask="url(#mask0_282_1800)">
<path fill-rule="evenodd" clip-rule="evenodd" d="M12.9088 1.4998L5.21976 1.5038C2.89176 1.5178 1.49976 2.9578 1.49976 5.3568V14.5528C1.49976 16.9678 2.90476 18.4098 5.25576 18.4098L12.9448 18.4068C15.2728 18.3928 16.6648 16.9508 16.6648 14.5528V5.3568C16.6648 2.9418 15.2608 1.4998 12.9088 1.4998ZM5.25676 19.9098C2.11276 19.9098 -0.000244141 17.7568 -0.000244141 14.5528V5.3568C-0.000244141 2.1238 2.04676 0.0228016 5.21476 0.00380164L12.9078 -0.000198364H12.9088C16.0528 -0.000198364 18.1648 2.1528 18.1648 5.3568V14.5528C18.1648 17.7848 16.1178 19.8868 12.9498 19.9068L5.25676 19.9098Z" fill="black"/>
</g>
</svg>
