<svg width="17" height="17" viewBox="0 0 17 17" fill="none" xmlns="http://www.w3.org/2000/svg">
<path d="M16.3958 12.8723C16.3872 12.836 16.3793 12.7996 16.3702 12.7635C16.2527 12.2885 15.6982 12.1019 15.3106 12.4094C14.9779 12.6735 14.649 12.9427 14.3186 13.2096C13.4439 13.9159 12.5705 14.6237 11.6942 15.3282C11.0023 15.8846 10.0592 15.7858 9.50108 15.0955C7.68924 12.8548 5.88001 10.612 4.06974 8.36982C3.27808 7.38941 2.48781 6.40778 1.69424 5.42893C1.10575 4.70308 1.20143 3.76747 1.92918 3.17881C2.5472 2.67905 3.16486 2.17895 3.78356 1.67988C4.48684 1.11275 5.42766 1.20843 5.99635 1.91135C7.79239 4.13161 9.58599 6.3536 11.3798 8.5756C11.6383 8.8958 11.7658 9.26116 11.7495 9.67548C11.7206 10.4025 11.1447 10.9506 10.4181 10.9323C9.92478 10.92 9.52834 10.7033 9.22133 10.3253C8.3979 9.31117 7.57846 8.29359 6.75762 7.27723C6.33636 6.7556 5.91561 6.23344 5.49347 5.7125C5.29638 5.46939 5.00743 5.38517 4.73376 5.48658C4.47086 5.58417 4.29635 5.84551 4.30694 6.1289C4.31284 6.28467 4.37223 6.41959 4.46982 6.5401C5.42019 7.71569 6.3697 8.89181 7.31972 10.0676C7.62847 10.4498 7.92818 10.8398 8.24908 11.2116C8.87039 11.9312 9.66118 12.2875 10.6152 12.2441C11.7891 12.1906 12.794 11.3109 13.0112 10.1563C13.1814 9.25178 12.9614 8.44258 12.3868 7.73011C10.5978 5.51176 8.80597 3.29585 7.01532 1.07871C6.00955 -0.166511 4.2314 -0.361691 2.98114 0.639734C2.31572 1.17266 1.64423 1.69881 0.994439 2.25049C0.292383 2.84645 -0.0304279 3.62456 0.0013504 4.5442C0.0235767 5.18739 0.258348 5.75122 0.661384 6.25011C3.26262 9.46936 5.8623 12.69 8.46441 15.9086C9.07356 16.662 9.86904 17.0277 10.8368 16.9984C11.4694 16.9791 12.0304 16.7532 12.5225 16.3557C13.7207 15.3874 14.9182 14.4185 16.1177 13.452C16.2784 13.3226 16.3622 13.1568 16.3958 12.9592C16.3958 12.9302 16.3958 12.9012 16.3958 12.8723Z" fill="black"/>
</svg>
