<svg width="17" height="17" viewBox="0 0 17 17" fill="none" xmlns="http://www.w3.org/2000/svg">
<path d="M16.3965 12.8723C16.388 12.836 16.38 12.7996 16.371 12.7635C16.2534 12.2885 15.6989 12.1019 15.3114 12.4094C14.9787 12.6735 14.6498 12.9427 14.3193 13.2096C13.4447 13.9159 12.5712 14.6237 11.695 15.3282C11.003 15.8846 10.0599 15.7858 9.50181 15.0955C7.68998 12.8548 5.88074 10.612 4.07047 8.36982C3.27881 7.38941 2.48854 6.40778 1.69497 5.42893C1.10648 4.70308 1.20216 3.76747 1.92992 3.17881C2.54793 2.67905 3.16559 2.17895 3.7843 1.67988C4.48757 1.11275 5.42839 1.20843 5.99709 1.91135C7.79312 4.13161 9.58673 6.3536 11.3805 8.5756C11.6391 8.8958 11.7665 9.26116 11.7502 9.67548C11.7214 10.4025 11.1454 10.9506 10.4188 10.9323C9.92551 10.92 9.52908 10.7033 9.22207 10.3253C8.39863 9.31117 7.57919 8.29359 6.75836 7.27723C6.33709 6.7556 5.91634 6.23344 5.4942 5.7125C5.29711 5.46939 5.00816 5.38517 4.7345 5.48658C4.47159 5.58417 4.29708 5.84551 4.30767 6.1289C4.31357 6.28467 4.37296 6.41959 4.47055 6.5401C5.42092 7.71569 6.37043 8.89181 7.32045 10.0676C7.6292 10.4498 7.92891 10.8398 8.24981 11.2116C8.87113 11.9312 9.66192 12.2875 10.6159 12.2441C11.7898 12.1906 12.7947 11.3109 13.0119 10.1563C13.1821 9.25178 12.9621 8.44258 12.3875 7.73011C10.5986 5.51176 8.8067 3.29585 7.01605 1.07871C6.01028 -0.166511 4.23213 -0.361691 2.98187 0.639734C2.31645 1.17266 1.64496 1.69881 0.995172 2.25049C0.293116 2.84645 -0.0296955 3.62456 0.00208282 4.5442C0.0243092 5.18739 0.259081 5.75122 0.662116 6.25011C3.26336 9.46936 5.86303 12.69 8.46514 15.9086C9.07429 16.662 9.86977 17.0277 10.8375 16.9984C11.4701 16.9791 12.0312 16.7532 12.5233 16.3557C13.7214 15.3874 14.9189 14.4185 16.1185 13.452C16.2791 13.3226 16.363 13.1568 16.3965 12.9592C16.3965 12.9302 16.3965 12.9012 16.3965 12.8723Z" fill="#FFBB00"/>
</svg>
