<svg width="18" height="22" viewBox="0 0 18 22" fill="none" xmlns="http://www.w3.org/2000/svg">
<path fill-rule="evenodd" clip-rule="evenodd" d="M8.75 21.5C8.336 21.5 8 21.164 8 20.75V17.589C8 17.175 8.336 16.839 8.75 16.839C9.164 16.839 9.5 17.175 9.5 17.589V20.75C9.5 21.164 9.164 21.5 8.75 21.5Z" fill="#1F1C1C"/>
<path fill-rule="evenodd" clip-rule="evenodd" d="M8.74999 1.5C6.92399 1.5 5.43799 2.994 5.43799 4.831V9.519C5.43799 11.354 6.92399 12.849 8.74999 12.849C10.576 12.849 12.061 11.354 12.061 9.519V4.831C12.061 2.994 10.576 1.5 8.74999 1.5ZM8.74999 14.349C6.09699 14.349 3.93799 12.182 3.93799 9.519V4.831C3.93799 2.167 6.09699 0 8.74999 0C11.403 0 13.561 2.167 13.561 4.831V9.519C13.561 12.182 11.403 14.349 8.74999 14.349Z" fill="#1F1C1C"/>
<path fill-rule="evenodd" clip-rule="evenodd" d="M8.75 18.3389C3.925 18.3389 0 14.3969 0 9.5509C0 9.1369 0.336 8.8009 0.75 8.8009C1.164 8.8009 1.5 9.1369 1.5 9.5509C1.5 13.5689 4.752 16.8389 8.75 16.8389C12.748 16.8389 16 13.5689 16 9.5509C16 9.1369 16.336 8.8009 16.75 8.8009C17.164 8.8009 17.5 9.1369 17.5 9.5509C17.5 14.3969 13.575 18.3389 8.75 18.3389Z" fill="#1F1C1C"/>
<path fill-rule="evenodd" clip-rule="evenodd" d="M12.8086 6.2559H10.8186C10.4046 6.2559 10.0686 5.9199 10.0686 5.5059C10.0686 5.0919 10.4046 4.7559 10.8186 4.7559H12.8086C13.2226 4.7559 13.5586 5.0919 13.5586 5.5059C13.5586 5.9199 13.2226 6.2559 12.8086 6.2559Z" fill="#1F1C1C"/>
<path fill-rule="evenodd" clip-rule="evenodd" d="M12.8106 9.5938H9.82056C9.40656 9.5938 9.07056 9.2578 9.07056 8.8438C9.07056 8.4298 9.40656 8.0938 9.82056 8.0938H12.8106C13.2246 8.0938 13.5606 8.4298 13.5606 8.8438C13.5606 9.2578 13.2246 9.5938 12.8106 9.5938Z" fill="#1F1C1C"/>
</svg>
