<svg width="31" height="37" viewBox="0 0 31 37" fill="none" xmlns="http://www.w3.org/2000/svg">
<path fill-rule="evenodd" clip-rule="evenodd" d="M14.9196 12.95H9.93815C9.18957 12.95 8.58203 12.3425 8.58203 11.5939C8.58203 10.8453 9.18957 10.2378 9.93815 10.2378H14.9196C15.6682 10.2378 16.2757 10.8453 16.2757 11.5939C16.2757 12.3425 15.6682 12.95 14.9196 12.95Z" fill="#FFBB00"/>
<path fill-rule="evenodd" clip-rule="evenodd" d="M15.9475 36.9998C15.2353 36.9998 14.6572 36.4218 14.6572 35.7096V30.2717C14.6572 29.5595 15.2353 28.9814 15.9475 28.9814C16.6597 28.9814 17.2377 29.5595 17.2377 30.2717V35.7096C17.2377 36.4218 16.6597 36.9998 15.9475 36.9998Z" fill="#FFBB00"/>
<path fill-rule="evenodd" clip-rule="evenodd" d="M15.9455 2.59403C12.8042 2.59403 10.2478 5.16418 10.2478 8.32439V16.3892C10.2478 19.546 12.8042 22.1179 15.9455 22.1179C19.0868 22.1179 21.6415 19.546 21.6415 16.3892V8.32439C21.6415 5.16418 19.0868 2.59403 15.9455 2.59403ZM15.9456 24.6979C11.3816 24.6979 7.66748 20.97 7.66748 16.3888V8.32401C7.66748 3.7411 11.3816 0.0131836 15.9456 0.0131836C20.5096 0.0131836 24.222 3.7411 24.222 8.32401V16.3888C24.222 20.97 20.5096 24.6979 15.9456 24.6979Z" fill="#FFBB00"/>
<path fill-rule="evenodd" clip-rule="evenodd" d="M15.9473 31.5612C7.64676 31.5612 0.894531 24.7797 0.894531 16.4431C0.894531 15.7309 1.47256 15.1528 2.18477 15.1528C2.89698 15.1528 3.475 15.7309 3.475 16.4431C3.475 23.3553 9.06946 28.9807 15.9473 28.9807C22.8251 28.9807 28.4195 23.3553 28.4195 16.4431C28.4195 15.7309 28.9976 15.1528 29.7098 15.1528C30.422 15.1528 31 15.7309 31 16.4431C31 24.7797 24.2478 31.5612 15.9473 31.5612Z" fill="#FFBB00"/>
<path fill-rule="evenodd" clip-rule="evenodd" d="M22.9285 10.7753H19.5051C18.7929 10.7753 18.2148 10.1973 18.2148 9.48506C18.2148 8.77285 18.7929 8.19482 19.5051 8.19482H22.9285C23.6407 8.19482 24.2187 8.77285 24.2187 9.48506C24.2187 10.1973 23.6407 10.7753 22.9285 10.7753Z" fill="#FFBB00"/>
<path fill-rule="evenodd" clip-rule="evenodd" d="M22.9325 16.517H17.7888C17.0766 16.517 16.4985 15.939 16.4985 15.2268C16.4985 14.5145 17.0766 13.9365 17.7888 13.9365H22.9325C23.6447 13.9365 24.2227 14.5145 24.2227 15.2268C24.2227 15.939 23.6447 16.517 22.9325 16.517Z" fill="#FFBB00"/>
</svg>
