<svg width="21" height="21" viewBox="0 0 21 21" fill="none" xmlns="http://www.w3.org/2000/svg">
<path fill-rule="evenodd" clip-rule="evenodd" d="M10.25 1.5C5.425 1.5 1.5 5.425 1.5 10.25C1.5 15.075 5.425 19 10.25 19C15.075 19 19 15.075 19 10.25C19 5.425 15.075 1.5 10.25 1.5ZM10.25 20.5C4.598 20.5 0 15.902 0 10.25C0 4.598 4.598 0 10.25 0C15.902 0 20.5 4.598 20.5 10.25C20.5 15.902 15.902 20.5 10.25 20.5Z" fill="#1F1C1C"/>
<path fill-rule="evenodd" clip-rule="evenodd" d="M9.134 8.08639C8.957 9.08739 8.954 11.4784 9.131 12.4284C10.009 12.1184 11.911 10.8684 12.423 10.2494C11.913 9.64839 10.035 8.42439 9.134 8.08639ZM8.828 14.0014C8.558 14.0014 8.302 13.9244 8.093 13.7164C7.932 13.5574 7.502 13.1324 7.5 10.3334C7.499 7.36139 7.946 6.91939 8.093 6.77239C8.616 6.25439 9.468 6.60939 9.831 6.76139C10.351 6.97839 14 8.84739 14 10.2454C14 11.5554 10.716 13.3874 9.877 13.7374C9.55 13.8734 9.177 14.0014 8.828 14.0014Z" fill="#1F1C1C"/>
</svg>
