<svg width="46" height="44" viewBox="0 0 46 44" fill="none" xmlns="http://www.w3.org/2000/svg">
<path fill-rule="evenodd" clip-rule="evenodd" d="M0.257812 21.9939C0.257812 9.847 10.2746 0 22.6309 0C34.9872 0 45.004 9.847 45.004 21.9939C45.004 34.1408 34.9872 43.9878 22.6309 43.9878C10.2746 43.9878 0.257812 34.1408 0.257812 21.9939ZM22.632 10.2638C19.3914 10.2638 18.9847 10.2777 17.7119 10.3347C16.4416 10.3919 15.5745 10.5896 14.8158 10.8796C14.031 11.1793 13.3652 11.58 12.702 12.2323C12.0383 12.8843 11.6306 13.5387 11.3248 14.31C11.029 15.0561 10.8276 15.9087 10.7704 17.157C10.7135 18.4082 10.6986 18.8083 10.6986 21.994C10.6986 25.1797 10.713 25.5783 10.7707 26.8295C10.8291 28.0783 11.0302 28.9307 11.325 29.6765C11.6301 30.4481 12.0378 31.1025 12.7012 31.7545C13.3642 32.407 14.03 32.8088 14.8143 33.1084C15.5735 33.3984 16.4408 33.5961 17.7109 33.6533C18.9837 33.7103 19.3901 33.7242 22.6305 33.7242C25.8714 33.7242 26.2769 33.7103 27.5497 33.6533C28.82 33.5961 29.6881 33.3984 30.4473 33.1084C31.2318 32.8088 31.8966 32.407 32.5596 31.7545C33.2233 31.1025 33.631 30.4481 33.9368 29.6768C34.2301 28.9307 34.4315 28.0781 34.4911 26.8298C34.5483 25.5786 34.5632 25.1797 34.5632 21.994C34.5632 18.8083 34.5483 18.4085 34.4911 17.1573C34.4315 15.9085 34.2301 15.0561 33.9368 14.3102C33.631 13.5387 33.2233 12.8843 32.5596 12.2323C31.8958 11.5798 31.2321 11.179 30.4465 10.8796C29.6858 10.5896 28.8182 10.3919 27.5479 10.3347C26.2751 10.2777 25.8699 10.2638 22.6283 10.2638H22.632Z" fill="#FFBB00"/>
<path fill-rule="evenodd" clip-rule="evenodd" d="M21.5616 12.3777C21.8793 12.3772 22.2338 12.3777 22.632 12.3777C25.818 12.3777 26.1956 12.3889 27.4537 12.4451C28.6171 12.4974 29.2486 12.6885 29.6692 12.8491C30.226 13.0617 30.623 13.3159 31.0404 13.7264C31.458 14.137 31.7166 14.528 31.9334 15.0754C32.0967 15.4884 32.2913 16.1091 32.3443 17.2528C32.4015 18.4894 32.4139 18.8608 32.4139 21.9913C32.4139 25.1218 32.4015 25.4933 32.3443 26.7298C32.2911 27.8735 32.0967 28.4942 31.9334 28.9072C31.7171 29.4547 31.458 29.8444 31.0404 30.2547C30.6228 30.6653 30.2263 30.9195 29.6692 31.1321C29.2491 31.2934 28.6171 31.484 27.4537 31.5363C26.1958 31.5925 25.818 31.6047 22.632 31.6047C19.4458 31.6047 19.0682 31.5925 17.8103 31.5363C16.6469 31.4835 16.0155 31.2924 15.5946 31.1318C15.0378 30.9192 14.64 30.6651 14.2224 30.2545C13.8048 29.8439 13.5462 29.4539 13.3294 28.9063C13.1661 28.4933 12.9715 27.8725 12.9185 26.7289C12.8613 25.4923 12.8499 25.1208 12.8499 21.9884C12.8499 18.8559 12.8613 18.4864 12.9185 17.2499C12.9717 16.1062 13.1661 15.4855 13.3294 15.072C13.5457 14.5246 13.8048 14.1336 14.2224 13.723C14.64 13.3124 15.0378 13.0583 15.5946 12.8452C16.0152 12.6839 16.6469 12.4933 17.8103 12.4407C18.9111 12.3919 19.3377 12.3772 21.5616 12.3748V12.3777ZM29.0015 14.3254C28.2109 14.3254 27.5696 14.9552 27.5696 15.7325C27.5696 16.5097 28.2109 17.1402 29.0015 17.1402C29.792 17.1402 30.4333 16.5097 30.4333 15.7325C30.4333 14.9554 29.792 14.3254 29.0015 14.3254ZM22.632 15.9701C19.2479 15.9701 16.5042 18.6673 16.5042 21.994C16.5042 25.3207 19.2479 28.0167 22.632 28.0167C26.0161 28.0167 28.7588 25.3207 28.7588 21.994C28.7588 18.6673 26.0161 15.9701 22.632 15.9701Z" fill="#FFBB00"/>
<path fill-rule="evenodd" clip-rule="evenodd" d="M22.632 18.0839C24.8286 18.0839 26.6095 19.8344 26.6095 21.994C26.6095 24.1533 24.8286 25.9041 22.632 25.9041C20.4352 25.9041 18.6545 24.1533 18.6545 21.994C18.6545 19.8344 20.4352 18.0839 22.632 18.0839Z" fill="#FFBB00"/>
</svg>
