<svg width="44" height="44" viewBox="0 0 44 44" fill="none" xmlns="http://www.w3.org/2000/svg">
<path fill-rule="evenodd" clip-rule="evenodd" d="M43.9878 21.6147C43.9878 33.5521 34.1407 43.2294 21.9939 43.2294C9.84703 43.2294 0 33.5521 0 21.6147C0 9.67725 9.84703 0 21.9939 0C34.1407 0 43.9878 9.67725 43.9878 21.6147ZM14.7281 19.6347C12.5249 20.5801 10.2612 21.5515 8.19112 22.672C7.11023 23.4498 8.5468 24 9.89459 24.516C10.1088 24.598 10.3208 24.6792 10.5201 24.7602C10.686 24.8104 10.8546 24.8632 11.0255 24.9167C12.5245 25.386 14.1959 25.9093 15.6511 25.1221C18.0417 23.7725 20.2976 22.2123 22.5519 20.6533C23.2904 20.1424 24.0288 19.6318 24.7716 19.1287C24.8064 19.1068 24.8457 19.0818 24.8886 19.0545C25.5214 18.6513 26.9447 17.7447 26.4182 18.994C25.1734 20.3319 23.8399 21.5162 22.4993 22.7071C21.5957 23.5097 20.6888 24.3152 19.8036 25.1725C19.0326 25.7882 18.2319 27.0263 19.0953 27.8884C21.0838 29.2565 23.1034 30.5913 25.1218 31.9255C25.7786 32.3596 26.4354 32.7937 27.0908 33.2289C28.2017 34.1005 29.9378 33.3954 30.182 32.0334C30.2906 31.4069 30.3997 30.7804 30.5087 30.1538C31.1114 26.6912 31.7142 23.2274 32.2467 19.7536C32.3191 19.2086 32.4011 18.6637 32.4832 18.1186C32.6822 16.7973 32.8814 15.4744 32.9436 14.146C32.7833 12.8203 31.1476 13.1118 30.2375 13.4099C25.559 15.1595 20.9273 17.0387 16.3139 18.951C15.7912 19.1785 15.2615 19.4058 14.7281 19.6347Z" fill="#FFBB00"/>
</svg>
