<svg width="25" height="25" viewBox="0 0 25 25" fill="none" xmlns="http://www.w3.org/2000/svg">
<path d="M17.4645 0.457764H7.83989C3.92835 0.457764 0.746094 3.64002 0.746094 7.55156V17.1762C0.746094 21.0877 3.92835 24.27 7.83989 24.27H17.4645C21.3761 24.27 24.5583 21.0877 24.5583 17.1762V7.55156C24.5583 3.64002 21.376 0.457764 17.4645 0.457764ZM22.1628 17.1762C22.1628 19.771 20.0593 21.8745 17.4645 21.8745H7.83989C5.24512 21.8745 3.1416 19.771 3.1416 17.1762V7.55156C3.1416 4.95674 5.24512 2.85327 7.83989 2.85327H17.4645C20.0593 2.85327 22.1628 4.95674 22.1628 7.55156V17.1762Z" fill="#FFBB00"/>
<path d="M12.6509 6.20483C9.25497 6.20483 6.49219 8.96762 6.49219 12.3635C6.49219 15.7593 9.25497 18.5222 12.6509 18.5222C16.0468 18.5222 18.8096 15.7594 18.8096 12.3635C18.8096 8.96757 16.0468 6.20483 12.6509 6.20483ZM12.6509 16.1267C10.5725 16.1267 8.8877 14.4419 8.8877 12.3635C8.8877 10.2852 10.5726 8.60034 12.6509 8.60034C14.7292 8.60034 16.4141 10.2852 16.4141 12.3635C16.4141 14.4418 14.7292 16.1267 12.6509 16.1267Z" fill="#FFBB00"/>
<path d="M18.8234 7.72738C19.6384 7.72738 20.2992 7.06666 20.2992 6.25163C20.2992 5.43659 19.6384 4.77588 18.8234 4.77588C18.0084 4.77588 17.3477 5.43659 17.3477 6.25163C17.3477 7.06666 18.0084 7.72738 18.8234 7.72738Z" fill="#FFBB00"/>
</svg>
