<svg width="209" height="224" viewBox="0 0 209 224" fill="none" xmlns="http://www.w3.org/2000/svg">
<path d="M0.5 222.442V222.942H1H61.0459H61.5459V222.442V102.105L155.46 222.749L155.611 222.942H155.855H208H208.5V222.442V1V0.5H208H147.954H147.454V1V121.337L53.5396 0.692866L53.3895 0.5H53.1451H1H0.5V1V222.442Z" stroke="white"/>
<path d="M183.896 184.88L189.816 179.819C191 180.816 192.032 181.961 192.912 183.252C194.946 186.127 195.963 189.457 195.963 193.242C195.963 198.142 194.339 202.235 191.091 205.521C187.812 208.778 183.82 210.407 179.114 210.407C174.409 210.407 170.432 208.778 167.184 205.521C163.905 202.235 162.266 198.142 162.266 193.242C162.266 189.545 163.298 186.244 165.362 183.34C166.303 182.049 167.32 180.948 168.413 180.039L174.333 185.1C173.574 185.775 172.891 186.523 172.284 187.345C170.918 189.252 170.235 191.218 170.235 193.242C170.235 195.648 171.1 197.687 172.83 199.36C174.53 201.003 176.625 201.825 179.114 201.825C181.604 201.825 183.714 201.003 185.444 199.36C187.144 197.687 187.994 195.648 187.994 193.242C187.994 191.247 187.311 189.252 185.945 187.257C185.338 186.377 184.655 185.584 183.896 184.88Z" fill="#FFBB00"/>
<path d="M195.053 175.423L163.176 175.423L163.176 167.061L174.788 167.061L174.788 155.838L163.176 155.838L163.176 147.476L195.053 147.476L195.053 155.838L182.985 155.838L182.985 167.061L195.053 167.061L195.053 175.423Z" fill="#FFBB00"/>
<path d="M181.847 140.657L163.176 140.657L163.176 132.295L181.847 132.295C183.668 132.295 185.156 131.767 186.309 130.711C187.433 129.625 187.994 128.246 187.994 126.574C187.994 124.901 187.433 123.537 186.309 122.481C185.156 121.395 183.668 120.852 181.847 120.852L163.176 120.852L163.176 112.49L181.847 112.49C185.975 112.49 189.36 113.81 192.002 116.451C194.643 119.062 195.963 122.437 195.963 126.574C195.963 130.711 194.643 134.1 192.002 136.74C189.36 139.352 185.975 140.657 181.847 140.657Z" fill="#FFBB00"/>
<path d="M195.053 105.667L163.176 105.667L163.176 91.1428C163.176 87.886 164.224 85.2013 166.318 83.0887C168.413 80.9762 171.009 79.9199 174.105 79.9199C177.02 79.9199 179.388 80.8001 181.209 82.5606C182.059 83.3235 182.727 84.2037 183.213 85.2013L195.053 78.8196L195.053 87.6219L185.034 92.6832L185.034 97.3044L195.053 97.3044L195.053 105.667ZM177.293 97.3044L177.293 91.5829C177.293 90.6147 176.989 89.8225 176.382 89.2063C175.775 88.5901 175.016 88.2821 174.105 88.2821C173.195 88.2821 172.436 88.5901 171.828 89.2063C171.221 89.8225 170.918 90.6147 170.918 91.5829L170.918 97.3044L177.293 97.3044Z" fill="#FFBB00"/>
<path d="M183.896 50.4391L189.816 45.3779C191 46.3755 192.032 47.5198 192.912 48.8108C194.946 51.6862 195.963 55.0163 195.963 58.8013C195.963 63.7012 194.339 67.7943 191.091 71.0805C187.812 74.3373 183.82 75.9658 179.114 75.9658C174.409 75.9658 170.432 74.3373 167.184 71.0805C163.905 67.7943 162.266 63.7012 162.266 58.8013C162.266 55.1044 163.298 51.8035 165.362 48.8988C166.303 47.6078 167.32 46.5075 168.413 45.5979L174.333 50.6592C173.574 51.3341 172.891 52.0823 172.284 52.9038C170.918 54.811 170.235 56.7768 170.235 58.8013C170.235 61.2073 171.1 63.2465 172.83 64.9189C174.53 66.562 176.625 67.3836 179.114 67.3836C181.604 67.3836 183.714 66.562 185.444 64.9189C187.144 63.2465 187.994 61.2073 187.994 58.8013C187.994 56.8061 187.311 54.811 185.945 52.8158C185.338 51.9355 184.655 51.1433 183.896 50.4391Z" fill="#FFBB00"/>
<path d="M195.053 40.9819L163.176 40.9819L163.176 32.6197L174.788 32.6197L174.788 21.3968L163.176 21.3968L163.176 13.0347L195.053 13.0347L195.053 21.3968L182.985 21.3968L182.985 32.6197L195.053 32.6197L195.053 40.9819Z" fill="#FFBB00"/>
</svg>
