<svg width="28" height="29" viewBox="0 0 28 29" fill="none" xmlns="http://www.w3.org/2000/svg">
<path d="M0.5 28V28.5H1H8.32128H8.82128V28V14.6063L19.4866 28.3071L19.6368 28.5H19.8812H26.2391H26.7391V28V1V0.5H26.2391H18.9179H18.4179V1V14.3937L7.7525 0.692866L7.60237 0.5H7.35796H1H0.5V1V28Z" stroke="white"/>
<path d="M23.2975 23.4201L24.0193 22.8029C24.1637 22.9246 24.2895 23.0641 24.3968 23.2215C24.6449 23.5721 24.7689 23.9781 24.7689 24.4396C24.7689 25.0371 24.5708 25.5361 24.1748 25.9368C23.775 26.3339 23.2882 26.5325 22.7145 26.5325C22.1408 26.5325 21.6559 26.3339 21.2598 25.9368C20.86 25.5361 20.6602 25.0371 20.6602 24.4396C20.6602 23.9889 20.786 23.5864 21.0377 23.2322C21.1525 23.0748 21.2765 22.9407 21.4097 22.8298L22.1315 23.4469C22.039 23.5292 21.9557 23.6204 21.8817 23.7206C21.7151 23.9531 21.6318 24.1928 21.6318 24.4396C21.6318 24.733 21.7373 24.9816 21.9483 25.1855C22.1556 25.3859 22.411 25.4861 22.7145 25.4861C23.018 25.4861 23.2753 25.3859 23.4863 25.1855C23.6936 24.9816 23.7972 24.733 23.7972 24.4396C23.7972 24.1964 23.7139 23.9531 23.5473 23.7098C23.4733 23.6025 23.39 23.5059 23.2975 23.4201Z" fill="#FFBB00"/>
<path d="M24.6578 22.267L20.7712 22.267L20.7712 21.2474L22.187 21.2474L22.187 19.879L20.7712 19.879L20.7712 18.8594L24.6578 18.8594L24.6578 19.879L23.1864 19.879L23.1864 21.2474L24.6578 21.2474L24.6578 22.267Z" fill="#FFBB00"/>
<path d="M23.0476 18.0281L20.7712 18.0281L20.7712 17.0085L23.0476 17.0085C23.2697 17.0085 23.4511 16.9441 23.5918 16.8153C23.7287 16.6829 23.7972 16.5148 23.7972 16.3109C23.7972 16.1069 23.7287 15.9406 23.5918 15.8118C23.4511 15.6794 23.2697 15.6132 23.0476 15.6132L20.7712 15.6132L20.7712 14.5937L23.0476 14.5937C23.551 14.5937 23.9638 14.7547 24.2858 15.0766C24.6078 15.395 24.7689 15.8064 24.7689 16.3109C24.7689 16.8153 24.6078 17.2285 24.2858 17.5505C23.9638 17.8689 23.551 18.0281 23.0476 18.0281Z" fill="#FFBB00"/>
<path d="M24.6578 13.7617L20.7712 13.7617L20.7712 11.9908C20.7712 11.5937 20.8989 11.2664 21.1543 11.0088C21.4097 10.7512 21.7262 10.6224 22.1038 10.6224C22.4591 10.6224 22.7478 10.7298 22.9699 10.9444C23.0736 11.0374 23.155 11.1448 23.2142 11.2664L24.6578 10.4883L24.6578 11.5615L23.4363 12.1787L23.4363 12.7421L24.6578 12.7421L24.6578 13.7617ZM22.4924 12.7421L22.4924 12.0445C22.4924 11.9264 22.4554 11.8299 22.3814 11.7547C22.3073 11.6796 22.2148 11.642 22.1038 11.642C21.9927 11.642 21.9002 11.6796 21.8261 11.7547C21.7521 11.8299 21.7151 11.9264 21.7151 12.0445L21.7151 12.7421L22.4924 12.7421Z" fill="#FFBB00"/>
<path d="M23.2975 7.02792L24.0193 6.4108C24.1637 6.53244 24.2895 6.67196 24.3968 6.82937C24.6449 7.17996 24.7689 7.58601 24.7689 8.0475C24.7689 8.64494 24.5708 9.144 24.1748 9.54468C23.775 9.94178 23.2882 10.1403 22.7145 10.1403C22.1408 10.1403 21.6559 9.94178 21.2598 9.54468C20.86 9.144 20.6602 8.64494 20.6602 8.0475C20.6602 7.59674 20.786 7.19427 21.0377 6.8401C21.1525 6.68269 21.2765 6.54853 21.4097 6.43763L22.1315 7.05475C22.039 7.13703 21.9557 7.22826 21.8817 7.32843C21.7151 7.56096 21.6318 7.80066 21.6318 8.0475C21.6318 8.34085 21.7373 8.58949 21.9483 8.79341C22.1556 8.99375 22.411 9.09392 22.7145 9.09392C23.018 9.09392 23.2753 8.99375 23.4863 8.79341C23.6936 8.58949 23.7972 8.34085 23.7972 8.0475C23.7972 7.80423 23.7139 7.56096 23.5473 7.31769C23.4733 7.21037 23.39 7.11378 23.2975 7.02792Z" fill="#FFBB00"/>
<path d="M24.6578 5.87481L20.7712 5.87481L20.7712 4.85522L22.187 4.85522L22.187 3.48684L20.7712 3.48684L20.7712 2.46726L24.6578 2.46726L24.6578 3.48684L23.1864 3.48684L23.1864 4.85522L24.6578 4.85522L24.6578 5.87481Z" fill="#FFBB00"/>
</svg>
