<svg width="25" height="18" viewBox="0 0 25 18" fill="none" xmlns="http://www.w3.org/2000/svg">
<path fill-rule="evenodd" clip-rule="evenodd" d="M21.4485 1.24684C22.4781 1.52935 23.2889 2.36178 23.5641 3.41889C24.0641 5.33478 24.0641 9.3323 24.0641 9.3323C24.0641 9.3323 24.0641 13.3297 23.5641 15.2457C23.2889 16.3028 22.4781 17.1353 21.4485 17.4179C19.5828 17.9312 12.1004 17.9312 12.1004 17.9312C12.1004 17.9312 4.61807 17.9312 2.75215 17.4179C1.72259 17.1353 0.911776 16.3028 0.636611 15.2457C0.136719 13.3297 0.136719 9.3323 0.136719 9.3323C0.136719 9.3323 0.136719 5.33478 0.636611 3.41889C0.911776 2.36178 1.72259 1.52935 2.75215 1.24684C4.61807 0.733398 12.1004 0.733398 12.1004 0.733398C12.1004 0.733398 19.5828 0.733398 21.4485 1.24684ZM9.85717 5.96777V13.4451L15.839 9.70657L9.85717 5.96777Z" fill="#FFBB00"/>
</svg>
