<svg width="16" height="8" viewBox="0 0 16 8" fill="none" xmlns="http://www.w3.org/2000/svg">
<path fill-rule="evenodd" clip-rule="evenodd" d="M10.9091 2.90909C11.5116 2.90909 12 2.42067 12 1.81818C12 1.21569 11.5116 0.727273 10.9091 0.727273C10.3066 0.727273 9.81821 1.21569 9.81821 1.81818C9.81821 2.42067 10.3066 2.90909 10.9091 2.90909ZM10.9091 3.63636C11.9133 3.63636 12.7273 2.82234 12.7273 1.81818C12.7273 0.814027 11.9133 0 10.9091 0C9.90497 0 9.09094 0.814027 9.09094 1.81818C9.09094 2.82234 9.90497 3.63636 10.9091 3.63636Z" fill="black"/>
<path fill-rule="evenodd" clip-rule="evenodd" d="M12 1.81774C12 1.61691 12.1628 1.4541 12.3636 1.4541H15.2727C15.4736 1.4541 15.6364 1.61691 15.6364 1.81774C15.6364 2.01857 15.4736 2.18137 15.2727 2.18137H12.3636C12.1628 2.18137 12 2.01857 12 1.81774Z" fill="black"/>
<path fill-rule="evenodd" clip-rule="evenodd" d="M0 1.81774C0 1.61691 0.162805 1.4541 0.363636 1.4541H9.09091C9.29174 1.4541 9.45454 1.61691 9.45454 1.81774C9.45454 2.01857 9.29174 2.18137 9.09091 2.18137H0.363636C0.162805 2.18137 0 2.01857 0 1.81774Z" fill="black"/>
<path fill-rule="evenodd" clip-rule="evenodd" d="M4.72723 5.09091C4.12474 5.09091 3.63632 5.57933 3.63632 6.18182C3.63632 6.78431 4.12474 7.27273 4.72723 7.27273C5.32972 7.27273 5.81814 6.78431 5.81814 6.18182C5.81814 5.57933 5.32972 5.09091 4.72723 5.09091ZM4.72723 4.36364C3.72307 4.36364 2.90905 5.17767 2.90905 6.18182C2.90905 7.18597 3.72308 8 4.72723 8C5.73138 8 6.54541 7.18597 6.54541 6.18182C6.54541 5.17766 5.73138 4.36364 4.72723 4.36364Z" fill="black"/>
<path fill-rule="evenodd" clip-rule="evenodd" d="M3.63635 6.18226C3.63635 6.38309 3.47355 6.5459 3.27272 6.5459L0.363626 6.5459C0.162795 6.5459 -1.00278e-05 6.38309 -1.00454e-05 6.18226C-1.00629e-05 5.98143 0.162795 5.81863 0.363626 5.81863L3.27272 5.81863C3.47355 5.81863 3.63635 5.98143 3.63635 6.18226Z" fill="black"/>
<path fill-rule="evenodd" clip-rule="evenodd" d="M15.6364 6.18226C15.6364 6.38309 15.4735 6.5459 15.2727 6.5459L6.54545 6.5459C6.34461 6.5459 6.18181 6.38309 6.18181 6.18226C6.18181 5.98143 6.34461 5.81863 6.54545 5.81863L15.2727 5.81863C15.4735 5.81863 15.6364 5.98143 15.6364 6.18226Z" fill="black"/>
</svg>
