<svg width="27" height="26" viewBox="0 0 27 26" fill="none" xmlns="http://www.w3.org/2000/svg">
<path fill-rule="evenodd" clip-rule="evenodd" d="M13.3811 0.25C20.4244 0.25 26.1342 5.95977 26.1342 13.0031C26.1342 20.0465 20.4244 25.7563 13.3811 25.7563C6.3377 25.7563 0.62793 20.0465 0.62793 13.0031C0.62793 5.95977 6.3377 0.25 13.3811 0.25ZM16.7788 11.3869C16.7167 10.883 16.5619 10.4873 16.2868 10.1368C15.9296 9.68554 15.4732 9.4153 14.7975 9.25499C14.3571 9.14814 14.1792 9.16041 14.0199 9.3059C13.8715 9.44221 13.8426 9.71546 13.9559 9.89242C14.0357 10.0209 14.1276 10.0669 14.3835 10.1171C14.7241 10.1798 14.9596 10.2611 15.1737 10.3836C15.6283 10.646 15.84 11.0568 15.8627 11.7217C15.8732 12.0339 15.9002 12.1299 16.0093 12.2406C16.2114 12.443 16.5711 12.4037 16.7236 12.1614C16.7796 12.0701 16.7882 12.0304 16.7941 11.8184C16.798 11.6872 16.7923 11.4918 16.7788 11.3869ZM16.7848 8.29519C17.8655 9.16911 18.4694 10.4112 18.5592 11.9551C18.5969 12.5631 18.5468 12.7612 18.3322 12.874C18.1387 12.9785 17.9193 12.9441 17.7689 12.7868C17.6692 12.6844 17.6309 12.5444 17.6324 12.2965C17.6367 11.6112 17.4788 10.8458 17.2221 10.3147C16.925 9.69663 16.4657 9.17062 15.8879 8.78604C15.3818 8.44827 14.712 8.22012 14.0626 8.1633C13.6414 8.12645 13.4909 8.0551 13.4101 7.85316C13.36 7.73237 13.3732 7.52353 13.4319 7.43C13.4875 7.34374 13.6121 7.24836 13.7001 7.22315C13.7935 7.19592 14.3376 7.24352 14.6331 7.30226C15.4399 7.46647 16.1759 7.80413 16.7848 8.29519ZM20.5293 17.9005C20.4991 17.8123 20.4287 17.6762 20.3783 17.598C20.0612 17.1191 18.3572 15.7856 17.5064 15.3495C17.0207 15.0999 16.6607 15.0167 16.3939 15.0948C16.107 15.1756 15.956 15.3091 15.4752 15.9066C15.2814 16.146 15.0826 16.3704 15.0297 16.4057C14.8988 16.4964 14.6421 16.5696 14.4609 16.5696C14.0406 16.567 13.2779 16.2948 12.6914 15.9368C12.2359 15.6595 11.652 15.163 11.2039 14.6714C10.6753 14.0941 10.3154 13.5849 10.031 13.0102C9.66354 12.2716 9.57041 11.8204 9.72392 11.4901C9.76168 11.4069 9.81203 11.3187 9.83466 11.291C9.85732 11.2658 10.0939 11.0717 10.3557 10.8599C10.8692 10.4516 10.9522 10.3583 11.0479 10.0785C11.1687 9.72304 11.136 9.36005 10.9497 8.99455C10.8062 8.71725 10.4312 8.11227 10.1594 7.72155C9.79944 7.20733 8.90339 6.10826 8.72466 5.95949C8.40249 5.69735 7.98975 5.65195 7.53413 5.82844C7.05343 6.01499 6.15232 6.74097 5.76721 7.24765C5.41987 7.70643 5.28651 8.0316 5.26635 8.46014C5.24875 8.81303 5.27894 8.95924 5.4652 9.41048C6.92254 12.9497 9.09718 15.7755 12.0849 18.019C13.6454 19.1912 15.2638 20.0835 16.9426 20.6936C17.9217 21.049 18.3471 21.0666 18.848 20.7743C19.0594 20.6482 19.5829 20.1113 19.8749 19.7205C20.3582 19.0702 20.5369 18.7702 20.5872 18.5307C20.6225 18.3669 20.5948 18.082 20.5293 17.9005ZM19.8858 9.92142C20.1924 10.72 20.3394 11.4364 20.3716 12.3097C20.3767 12.4822 20.3744 12.7982 20.3632 13.0124C20.3399 13.4228 20.3176 13.5043 20.1995 13.6129C20.0096 13.7911 19.6394 13.7487 19.499 13.5339C19.4256 13.4187 19.4154 13.3343 19.4295 12.8548C19.4703 11.4362 19.1834 10.3256 18.4923 9.215C17.6664 7.88259 16.4311 6.98501 14.8247 6.54589C14.4151 6.43412 14.0698 6.36599 13.5329 6.29371C13.1832 6.24793 13.1066 6.22858 13.0203 6.17545C12.7595 6.00844 12.756 5.58552 13.016 5.41597C13.1501 5.32646 13.249 5.32246 13.6863 5.37846C14.9684 5.53868 16.1125 5.91965 17.0525 6.49535C17.7263 6.90854 18.1512 7.27974 18.6982 7.92984C19.2767 8.6232 19.5831 9.13583 19.8858 9.92142Z" fill="#FFBB00"/>
</svg>
