<svg width="14" height="14" viewBox="0 0 14 14" fill="none" xmlns="http://www.w3.org/2000/svg">
<path fill-rule="evenodd" clip-rule="evenodd" d="M7.00007 0C6.44779 0 6.00007 0.447716 6.00007 1V5.99941H1C0.447715 5.99941 0 6.44713 0 6.99941C0 7.5517 0.447716 7.99941 1 7.99941H6.00007V13C6.00007 13.5523 6.44779 14 7.00007 14C7.55236 14 8.00007 13.5523 8.00007 13V7.99941H13C13.5523 7.99941 14 7.5517 14 6.99941C14 6.44713 13.5523 5.99941 13 5.99941H8.00007V1C8.00007 0.447715 7.55236 0 7.00007 0Z" fill="black"/>
</svg>
