<svg width="27" height="26" viewBox="0 0 27 26" fill="none" xmlns="http://www.w3.org/2000/svg">
<path fill-rule="evenodd" clip-rule="evenodd" d="M26.5265 13.0031C26.5265 20.0465 20.5883 25.7563 13.2633 25.7563C5.93818 25.7563 0 20.0465 0 13.0031C0 5.95979 5.93818 0.25 13.2633 0.25C20.5883 0.25 26.5265 5.95979 26.5265 13.0031ZM8.88169 11.8349C7.55304 12.3927 6.18792 12.9658 4.9396 13.627C4.28778 14.0859 5.15409 14.4105 5.96687 14.715C6.09607 14.7634 6.2239 14.8113 6.34409 14.8591C6.44412 14.8887 6.54581 14.9198 6.64887 14.9514C7.55282 15.2283 8.56072 15.5371 9.4383 15.0726C10.8799 14.2763 12.2403 13.3558 13.5998 12.4359C14.0451 12.1345 14.4904 11.8332 14.9384 11.5364C14.9594 11.5235 14.983 11.5087 15.0089 11.4926C15.3905 11.2547 16.2488 10.7197 15.9313 11.4569C15.1806 12.2463 14.3765 12.9451 13.568 13.6477C13.0231 14.1212 12.4763 14.5965 11.9424 15.1024C11.4775 15.4656 10.9946 16.1961 11.5153 16.7048C12.7144 17.512 13.9323 18.2996 15.1495 19.0868C15.5456 19.3429 15.9417 19.599 16.3369 19.8558C17.0068 20.37 18.0538 19.954 18.2011 19.1504C18.2666 18.7807 18.3323 18.4111 18.3981 18.0414C18.7615 15.9984 19.125 13.9547 19.4462 11.905C19.4898 11.5835 19.5393 11.262 19.5888 10.9404C19.7088 10.1608 19.8289 9.38024 19.8664 8.59645C19.7697 7.81426 18.7834 7.98627 18.2345 8.16215C15.4132 9.19441 12.62 10.3032 9.83797 11.4315C9.5228 11.5658 9.20332 11.6999 8.88169 11.8349Z" fill="#FFBB00"/>
</svg>
