<svg width="17" height="17" viewBox="0 0 17 17" fill="none" xmlns="http://www.w3.org/2000/svg">
<path fill-rule="evenodd" clip-rule="evenodd" d="M5.27548 1.50869C3.21049 1.50869 1.876 2.92317 1.876 5.11304V11.7798C1.876 13.9696 3.21049 15.3841 5.27548 15.3841H12.3503C14.4161 15.3841 15.7514 13.9696 15.7514 11.7798V5.11304C15.7514 2.92317 14.4169 1.50869 12.3511 1.50869H5.27548ZM12.3495 16.6092H5.27466C2.50855 16.6092 0.650879 14.6682 0.650879 11.7805V5.1138C0.650879 2.22608 2.50855 0.285156 5.27466 0.285156H12.3503C15.1164 0.285156 16.9749 2.22608 16.9749 5.1138V11.7805C16.9749 14.6682 15.1164 16.6092 12.3495 16.6092Z" fill="#FFBB00"/>
<path fill-rule="evenodd" clip-rule="evenodd" d="M11.5801 10.7054C11.4732 10.7054 11.3654 10.6777 11.2667 10.6197L8.49892 8.96856C8.31446 8.85756 8.2002 8.65759 8.2002 8.44293V4.88266C8.2002 4.54475 8.47444 4.27051 8.81235 4.27051C9.15025 4.27051 9.4245 4.54475 9.4245 4.88266V8.09522L11.8943 9.56683C12.1841 9.74068 12.2796 10.1161 12.1065 10.4067C11.9914 10.5985 11.7882 10.7054 11.5801 10.7054Z" fill="#FFBB00"/>
</svg>
