<svg width="26" height="26" viewBox="0 0 26 26" fill="none" xmlns="http://www.w3.org/2000/svg">
<path fill-rule="evenodd" clip-rule="evenodd" d="M12.9885 25.7563C5.94513 25.7563 0.235352 20.0465 0.235352 13.0031C0.235352 5.95977 5.94513 0.25 12.9885 0.25C20.0319 0.25 25.7416 5.95977 25.7416 13.0031C25.7416 20.0465 20.0319 25.7563 12.9885 25.7563ZM13.4089 20.0984C17.59 20.0967 20.9905 16.6953 20.9922 12.5151C20.993 10.4888 20.205 8.58355 18.7732 7.1502C17.3415 5.71677 15.4374 4.92703 13.4088 4.92615C9.22887 4.92615 5.82695 8.32789 5.82529 12.5091C5.82472 13.8456 6.17392 15.1502 6.83755 16.3003L5.76171 20.2299L9.78179 19.1754C10.8894 19.7795 12.1365 20.098 13.4057 20.0984H13.4089Z" fill="#FFBB00"/>
<path fill-rule="evenodd" clip-rule="evenodd" d="M10.1569 17.6295L7.84003 18.237L8.45843 15.9789L8.31288 15.7474C7.70011 14.7731 7.37648 13.6471 7.37695 12.4908C7.37829 9.11694 10.1244 6.37207 13.501 6.37207C15.136 6.37264 16.673 7.00994 17.8287 8.16661C18.9845 9.32328 19.6206 10.8607 19.62 12.4958C19.6186 15.8699 16.8725 18.6151 13.4986 18.6151H13.4961C12.3976 18.6147 11.3203 18.3196 10.3804 17.7621L10.1569 17.6295ZM17.209 14.2469C17.163 14.1702 17.0403 14.1242 16.8563 14.0321C16.6723 13.94 15.7675 13.495 15.5988 13.4336C15.4302 13.3722 15.3074 13.3415 15.1848 13.5256C15.0621 13.7098 14.7094 14.1242 14.6021 14.2469C14.4947 14.3697 14.3874 14.3851 14.2034 14.293C14.0194 14.2009 13.4264 14.0067 12.7235 13.3799C12.1764 12.8921 11.8071 12.2897 11.6998 12.1056C11.5924 11.9214 11.6883 11.8219 11.7804 11.7301C11.8632 11.6477 11.9645 11.5152 12.0565 11.4078C12.1485 11.3004 12.1792 11.2237 12.2405 11.101C12.3019 10.9781 12.2712 10.8708 12.2252 10.7787C12.1792 10.6866 11.8111 9.78109 11.6578 9.41275C11.5084 9.05404 11.3567 9.10263 11.2437 9.09697C11.1365 9.09158 11.0137 9.09045 10.891 9.09045C10.7684 9.09045 10.569 9.13649 10.4003 9.32066C10.2316 9.50484 9.75623 9.94989 9.75623 10.8553C9.75623 11.7608 10.4156 12.6355 10.5077 12.7583C10.5997 12.8811 11.8053 14.7392 13.6513 15.536C14.0904 15.7256 14.4332 15.8388 14.7004 15.9235C15.1413 16.0636 15.5425 16.0438 15.8595 15.9964C16.2131 15.9436 16.9483 15.5514 17.1017 15.1217C17.255 14.692 17.255 14.3236 17.209 14.2469Z" fill="#FFBB00"/>
</svg>
