<svg width="56" height="56" viewBox="0 0 56 56" fill="none" xmlns="http://www.w3.org/2000/svg">
<rect x="0.0898438" width="55.9091" height="55.9091" rx="5" fill="#F6F6F6"/>
<path d="M33.5695 14.288H22.5217C18.0317 14.288 14.3789 17.9408 14.3789 22.4307V33.4785C14.3789 37.9685 18.0317 41.6213 22.5217 41.6213H33.5695C38.0594 41.6213 41.7122 37.9685 41.7122 33.4785V22.4307C41.7122 17.9408 38.0594 14.288 33.5695 14.288ZM38.9625 33.4785C38.9625 36.457 36.5479 38.8716 33.5695 38.8716H22.5217C19.5432 38.8716 17.1286 36.457 17.1286 33.4785V22.4307C17.1286 19.4522 19.5432 17.0377 22.5217 17.0377H33.5695C36.5479 17.0377 38.9625 19.4522 38.9625 22.4307V33.4785Z" fill="#343232"/>
<path d="M28.0459 20.8849C24.1479 20.8849 20.9766 24.0562 20.9766 27.9542C20.9766 31.8522 24.1479 35.0236 28.0459 35.0236C31.944 35.0236 35.1153 31.8523 35.1153 27.9542C35.1153 24.0562 31.944 20.8849 28.0459 20.8849ZM28.0459 32.2739C25.6602 32.2739 23.7263 30.3399 23.7263 27.9543C23.7263 25.5686 25.6603 23.6346 28.0459 23.6346C30.4316 23.6346 32.3656 25.5686 32.3656 27.9543C32.3656 30.3399 30.4316 32.2739 28.0459 32.2739Z" fill="#343232"/>
<path d="M35.1276 22.6326C36.0631 22.6326 36.8215 21.8742 36.8215 20.9387C36.8215 20.0031 36.0631 19.2447 35.1276 19.2447C34.192 19.2447 33.4336 20.0031 33.4336 20.9387C33.4336 21.8742 34.192 22.6326 35.1276 22.6326Z" fill="#343232"/>
</svg>
