<svg width="69" height="74" viewBox="0 0 69 74" fill="none" xmlns="http://www.w3.org/2000/svg">
<path d="M0 73.8372V0.0232544H17.3817L48.9848 40.6209V0.0232544H69V73.8372H51.6183L20.0153 33.2395V73.8372H0Z" fill="white"/>
<path d="M60.964 61.3167L62.9373 59.6296C63.3319 59.9621 63.676 60.3436 63.9695 60.7739C64.6475 61.7324 64.9865 62.8424 64.9865 64.1041C64.9865 65.7374 64.4451 67.1017 63.3623 68.1971C62.2694 69.2828 60.9387 69.8256 59.3702 69.8256C57.8017 69.8256 56.476 69.2828 55.3933 68.1971C54.3004 67.1017 53.7539 65.7374 53.7539 64.1041C53.7539 62.8718 54.098 61.7715 54.7861 60.8032C55.0998 60.3729 55.4388 60.0061 55.8031 59.7029L57.7764 61.39C57.5234 61.615 57.2957 61.8644 57.0933 62.1382C56.6379 62.774 56.4103 63.4292 56.4103 64.1041C56.4103 64.9061 56.6987 65.5858 57.2755 66.1433C57.8422 66.691 58.5404 66.9648 59.3702 66.9648C60.2 66.9648 60.9033 66.691 61.4801 66.1433C62.0468 65.5858 62.3301 64.9061 62.3301 64.1041C62.3301 63.439 62.1024 62.774 61.6471 62.1089C61.4447 61.8155 61.217 61.5514 60.964 61.3167Z" fill="black"/>
<path d="M64.6829 58.1643L54.0575 58.1643L54.0575 55.3769L57.9282 55.3769L57.9282 51.6359L54.0575 51.6359L54.0575 48.8485L64.6829 48.8485L64.6829 51.6359L60.6604 51.6359L60.6604 55.3769L64.6829 55.3769L64.6829 58.1643Z" fill="black"/>
<path d="M60.2809 46.5758L54.0575 46.5758L54.0575 43.7884L60.2809 43.7884C60.8881 43.7884 61.384 43.6123 61.7685 43.2602C62.1429 42.8984 62.3301 42.4387 62.3301 41.8812C62.3301 41.3237 62.1429 40.8689 61.7685 40.5169C61.384 40.155 60.8881 39.974 60.2809 39.974L54.0575 39.974L54.0575 37.1867L60.2809 37.1867C61.6572 37.1867 62.7855 37.6268 63.6659 38.507C64.5463 39.3774 64.9865 40.5022 64.9865 41.8812C64.9865 43.2602 64.5463 44.3899 63.6659 45.2701C62.7855 46.1405 61.6572 46.5758 60.2809 46.5758Z" fill="black"/>
<path d="M64.6829 34.9122L54.0575 34.9122L54.0575 30.0709C54.0575 28.9853 54.4066 28.0904 55.1048 27.3862C55.8031 26.682 56.6683 26.3299 57.7005 26.3299C58.6719 26.3299 59.4613 26.6234 60.0684 27.2102C60.3518 27.4645 60.5744 27.7579 60.7363 28.0904L64.6829 25.9632L64.6829 28.8973L61.3435 30.5844L61.3435 32.1248L64.6829 32.1248L64.6829 34.9122ZM58.763 32.1248L58.763 30.2176C58.763 29.8949 58.6618 29.6308 58.4594 29.4254C58.257 29.22 58.0041 29.1173 57.7005 29.1173C57.3969 29.1173 57.1439 29.22 56.9415 29.4254C56.7391 29.6308 56.6379 29.8949 56.6379 30.2176L56.6379 32.1248L58.763 32.1248Z" fill="black"/>
<path d="M60.964 16.503L62.9373 14.8159C63.3319 15.1485 63.676 15.5299 63.9695 15.9602C64.6475 16.9187 64.9865 18.0288 64.9865 19.2904C64.9865 20.9237 64.4451 22.2881 63.3623 23.3835C62.2694 24.4691 60.9387 25.0119 59.3702 25.0119C57.8017 25.0119 56.476 24.4691 55.3933 23.3835C54.3004 22.2881 53.7539 20.9237 53.7539 19.2904C53.7539 18.0581 54.098 16.9578 54.7861 15.9896C55.0998 15.5592 55.4388 15.1925 55.8031 14.8893L57.7764 16.5764C57.5234 16.8013 57.2957 17.0507 57.0933 17.3246C56.6379 17.9603 56.4103 18.6156 56.4103 19.2904C56.4103 20.0924 56.6987 20.7721 57.2755 21.3296C57.8422 21.8773 58.5404 22.1512 59.3702 22.1512C60.2 22.1512 60.9033 21.8773 61.4801 21.3296C62.0468 20.7721 62.3301 20.0924 62.3301 19.2904C62.3301 18.6254 62.1024 17.9603 61.6471 17.2952C61.4447 17.0018 61.217 16.7378 60.964 16.503Z" fill="black"/>
<path d="M64.6829 13.3506L54.0575 13.3506L54.0575 10.5632L57.9282 10.5632L57.9282 6.82226L54.0575 6.82226L54.0575 4.03487L64.6829 4.03487L64.6829 6.82226L60.6604 6.82226L60.6604 10.5632L64.6829 10.5632L64.6829 13.3506Z" fill="black"/>
</svg>
