<svg width="48" height="52" viewBox="0 0 48 52" fill="none" xmlns="http://www.w3.org/2000/svg">
<path d="M0 51.3488V0H12.0916L34.0764 28.2419V0H48V51.3488H35.9084L13.9237 23.107V51.3488H0Z" fill="white"/>
<path d="M42.4102 42.6389L43.783 41.4653C44.0575 41.6966 44.2969 41.962 44.501 42.2613C44.9727 42.9281 45.2085 43.7003 45.2085 44.578C45.2085 45.7142 44.8319 46.6633 44.0786 47.4253C43.3184 48.1805 42.3926 48.5581 41.3015 48.5581C40.2104 48.5581 39.2882 48.1805 38.5349 47.4253C37.7747 46.6633 37.3945 45.7142 37.3945 44.578C37.3945 43.7207 37.6339 42.9553 38.1126 42.2817C38.3308 41.9824 38.5666 41.7272 38.82 41.5163L40.1928 42.69C40.0168 42.8464 39.8584 43.0199 39.7176 43.2104C39.4008 43.6527 39.2424 44.1085 39.2424 44.578C39.2424 45.1359 39.4431 45.6087 39.8443 45.9965C40.2385 46.3776 40.7243 46.5681 41.3015 46.5681C41.8788 46.5681 42.368 46.3776 42.7693 45.9965C43.1635 45.6087 43.3606 45.1359 43.3606 44.578C43.3606 44.1153 43.2022 43.6527 42.8854 43.19C42.7446 42.9859 42.5862 42.8022 42.4102 42.6389Z" fill="black"/>
<path d="M44.9973 40.4459L37.6057 40.4459L37.6057 38.5069L40.2984 38.5069L40.2984 35.9045L37.6057 35.9045L37.6057 33.9654L44.9973 33.9654L44.9973 35.9045L42.1991 35.9045L42.1991 38.5069L44.9973 38.5069L44.9973 40.4459Z" fill="black"/>
<path d="M41.9351 32.3844L37.6057 32.3844L37.6057 30.4453L41.9351 30.4453C42.3574 30.4453 42.7024 30.3228 42.9699 30.0779C43.2304 29.8262 43.3606 29.5064 43.3606 29.1186C43.3606 28.7308 43.2304 28.4144 42.9699 28.1695C42.7024 27.9177 42.3574 27.7919 41.9351 27.7919L37.6057 27.7919L37.6057 25.8528L41.9351 25.8528C42.8925 25.8528 43.6774 26.159 44.2898 26.7713C44.9023 27.3768 45.2085 28.1593 45.2085 29.1186C45.2085 30.0779 44.9023 30.8637 44.2898 31.4761C43.6774 32.0816 42.8925 32.3844 41.9351 32.3844Z" fill="black"/>
<path d="M44.9973 24.2706L37.6057 24.2706L37.6057 20.9027C37.6057 20.1475 37.8486 19.525 38.3343 19.0351C38.82 18.5452 39.4219 18.3003 40.14 18.3003C40.8158 18.3003 41.3649 18.5044 41.7872 18.9126C41.9843 19.0895 42.1392 19.2937 42.2519 19.525L44.9973 18.0452L44.9973 20.0863L42.6742 21.2599L42.6742 22.3315L44.9973 22.3315L44.9973 24.2706ZM40.8791 22.3315L40.8791 21.0048C40.8791 20.7803 40.8087 20.5966 40.6679 20.4537C40.5272 20.3108 40.3512 20.2394 40.14 20.2394C39.9288 20.2394 39.7528 20.3108 39.612 20.4537C39.4712 20.5966 39.4008 20.7803 39.4008 21.0048L39.4008 22.3315L40.8791 22.3315Z" fill="black"/>
<path d="M42.4102 11.4642L43.783 10.2906C44.0575 10.5219 44.2969 10.7872 44.501 11.0866C44.9727 11.7534 45.2085 12.5256 45.2085 13.4033C45.2085 14.5395 44.8319 15.4886 44.0786 16.2506C43.3184 17.0058 42.3926 17.3834 41.3015 17.3834C40.2104 17.3834 39.2882 17.0058 38.5349 16.2506C37.7747 15.4886 37.3945 14.5395 37.3945 13.4033C37.3945 12.546 37.6339 11.7806 38.1126 11.107C38.3308 10.8076 38.5666 10.5525 38.82 10.3416L40.1928 11.5152C40.0168 11.6717 39.8584 11.8452 39.7176 12.0357C39.4008 12.478 39.2424 12.9338 39.2424 13.4033C39.2424 13.9612 39.4431 14.434 39.8443 14.8218C40.2385 15.2028 40.7243 15.3933 41.3015 15.3933C41.8788 15.3933 42.368 15.2028 42.7693 14.8218C43.1635 14.434 43.3606 13.9612 43.3606 13.4033C43.3606 12.9406 43.2022 12.478 42.8854 12.0153C42.7446 11.8112 42.5862 11.6275 42.4102 11.4642Z" fill="black"/>
<path d="M44.9973 9.27121L37.6057 9.27121L37.6057 7.33215L40.2984 7.33215L40.2984 4.72975L37.6057 4.72975L37.6057 2.79069L44.9973 2.79069L44.9973 4.72975L42.1991 4.72975L42.1991 7.33215L44.9973 7.33215L44.9973 9.27121Z" fill="black"/>
</svg>
