<svg width="74" height="108" viewBox="0 0 74 108" fill="none" xmlns="http://www.w3.org/2000/svg">
<path d="M0 5C0 2.23858 2.23858 0 5 0H69C71.7614 0 74 2.23858 74 5V71.8041C74 73.2035 73.4135 74.5389 72.3831 75.4858L40.3831 104.891C38.4702 106.649 35.5298 106.649 33.6169 104.891L1.61687 75.4858C0.586453 74.5389 0 73.2035 0 71.8041V5Z" fill="#FFBB00"/>
<path d="M16 63.9302V19H26.5802L45.8168 43.7116V19H58V63.9302H47.4199L28.1832 39.2186V63.9302H16Z" fill="black"/>
<path d="M53.1097 56.309L54.3108 55.282C54.5511 55.4844 54.7605 55.7166 54.9391 55.9786C55.3518 56.562 55.5582 57.2377 55.5582 58.0056C55.5582 58.9998 55.2286 59.8303 54.5695 60.4971C53.9043 61.1579 53.0943 61.4883 52.1396 61.4883C51.1848 61.4883 50.3779 61.1579 49.7188 60.4971C49.0536 59.8303 48.7209 58.9998 48.7209 58.0056C48.7209 57.2555 48.9304 56.5858 49.3492 55.9964C49.5402 55.7345 49.7465 55.5112 49.9683 55.3267L51.1694 56.3536C51.0154 56.4905 50.8768 56.6424 50.7536 56.809C50.4764 57.196 50.3379 57.5949 50.3379 58.0056C50.3379 58.4938 50.5134 58.9076 50.8645 59.2469C51.2094 59.5803 51.6345 59.747 52.1396 59.747C52.6446 59.747 53.0727 59.5803 53.4238 59.2469C53.7688 58.9076 53.9413 58.4938 53.9413 58.0056C53.9413 57.6008 53.8027 57.196 53.5255 56.7912C53.4023 56.6126 53.2637 56.4518 53.1097 56.309Z" fill="white"/>
<path d="M55.3734 54.3901L48.9057 54.3901L48.9057 52.6934L51.2618 52.6934L51.2618 50.4163L48.9057 50.4163L48.9057 48.7197L55.3734 48.7197L55.3734 50.4163L52.9249 50.4163L52.9249 52.6934L55.3734 52.6934L55.3734 54.3901Z" fill="white"/>
<path d="M52.6939 47.3362L48.9057 47.3362L48.9057 45.6396L52.6939 45.6396C53.0635 45.6396 53.3653 45.5324 53.5994 45.3181C53.8273 45.0978 53.9412 44.818 53.9412 44.4787C53.9412 44.1393 53.8273 43.8625 53.5994 43.6482C53.3653 43.4279 53.0635 43.3178 52.6939 43.3178L48.9057 43.3178L48.9057 41.6211L52.6939 41.6211C53.5316 41.6211 54.2184 41.889 54.7543 42.4248C55.2902 42.9546 55.5582 43.6393 55.5582 44.4787C55.5582 45.3181 55.2902 46.0057 54.7543 46.5415C54.2184 47.0713 53.5316 47.3362 52.6939 47.3362Z" fill="white"/>
<path d="M55.3734 40.2366L48.9057 40.2366L48.9057 37.2898C48.9057 36.629 49.1182 36.0843 49.5433 35.6556C49.9683 35.227 50.4949 35.0127 51.1232 35.0127C51.7145 35.0127 52.195 35.1913 52.5646 35.5485C52.737 35.7033 52.8725 35.8819 52.9711 36.0843L55.3734 34.7894L55.3734 36.5754L53.3407 37.6023L53.3407 38.54L55.3734 38.54L55.3734 40.2366ZM51.77 38.54L51.77 37.3791C51.77 37.1826 51.7084 37.0219 51.5852 36.8969C51.462 36.7719 51.308 36.7094 51.1232 36.7094C50.9384 36.7094 50.7844 36.7719 50.6612 36.8969C50.538 37.0219 50.4764 37.1826 50.4764 37.3791L50.4764 38.54L51.77 38.54Z" fill="white"/>
<path d="M53.1097 29.0311L54.3108 28.0042C54.5511 28.2066 54.7605 28.4387 54.9391 28.7007C55.3518 29.2841 55.5582 29.9598 55.5582 30.7278C55.5582 31.7219 55.2286 32.5524 54.5695 33.2192C53.9043 33.88 53.0943 34.2104 52.1396 34.2104C51.1848 34.2104 50.3779 33.88 49.7188 33.2192C49.0536 32.5524 48.7209 31.7219 48.7209 30.7278C48.7209 29.9777 48.9304 29.3079 49.3492 28.7185C49.5402 28.4566 49.7465 28.2334 49.9683 28.0488L51.1694 29.0757C51.0154 29.2127 50.8768 29.3645 50.7536 29.5312C50.4764 29.9181 50.3379 30.317 50.3379 30.7278C50.3379 31.2159 50.5134 31.6297 50.8645 31.969C51.2094 32.3024 51.6345 32.4691 52.1396 32.4691C52.6446 32.4691 53.0727 32.3024 53.4238 31.969C53.7688 31.6297 53.9412 31.2159 53.9412 30.7278C53.9412 30.3229 53.8027 29.9181 53.5255 29.5133C53.4023 29.3347 53.2637 29.174 53.1097 29.0311Z" fill="white"/>
<path d="M55.3734 27.1122L48.9057 27.1122L48.9057 25.4155L51.2618 25.4155L51.2618 23.1384L48.9057 23.1384L48.9057 21.4418L55.3734 21.4418L55.3734 23.1384L52.9249 23.1384L52.9249 25.4155L55.3734 25.4155L55.3734 27.1122Z" fill="white"/>
</svg>
