<svg width="57" height="56" viewBox="0 0 57 56" fill="none" xmlns="http://www.w3.org/2000/svg">
<rect x="0.496094" width="55.9591" height="55.9591" rx="5" fill="#F6F6F6"/>
<path fill-rule="evenodd" clip-rule="evenodd" d="M39.6506 18.0233C40.8813 18.361 41.8505 19.356 42.1794 20.6196C42.7771 22.9098 42.7771 27.6881 42.7771 27.6881C42.7771 27.6881 42.7771 32.4664 42.1794 34.7567C41.8505 36.0203 40.8813 37.0153 39.6506 37.3532C37.4203 37.9667 28.4764 37.9667 28.4764 37.9667C28.4764 37.9667 19.5325 37.9667 17.3021 37.3532C16.0714 37.0153 15.1022 36.0203 14.7733 34.7567C14.1758 32.4664 14.1758 27.6881 14.1758 27.6881C14.1758 27.6881 14.1758 22.9098 14.7733 20.6196C15.1022 19.356 16.0714 18.361 17.3021 18.0233C19.5325 17.4095 28.4764 17.4095 28.4764 17.4095C28.4764 17.4095 37.4203 17.4095 39.6506 18.0233ZM25.7949 23.6664V32.6044L32.9452 28.1356L25.7949 23.6664Z" fill="#343131"/>
</svg>
