<svg width="197" height="118" viewBox="0 0 197 118" fill="none" xmlns="http://www.w3.org/2000/svg">
<path d="M117.084 28.115C109.197 27.206 112.83 14.7386 120.098 17.8784C121.249 17.9884 122.385 18.2451 123.474 18.6313C126.69 19.7907 129.4 21.9765 131.942 24.2008C155.182 48.8468 177.836 74.8334 194.494 104.471C195.322 106.521 196.43 108.599 196.451 110.856C196.173 114.992 192.224 118.624 187.999 117.828C186.253 117.573 184.585 116.878 183.134 115.882C141.229 78.8553 103.402 35.9526 53.9939 8.478C51.2061 6.96312 48.1125 5.76366 44.9941 5.36774C45.1664 6.70098 45.8528 9.52149 46.6758 11.0877C64.0597 41.4809 87.9636 67.9085 103.213 99.5801C103.872 101.15 104.569 102.758 104.709 104.476C104.948 106.489 103.55 108.259 101.891 109.211C100.247 110.242 98.2088 110.615 96.3046 110.244C94.3105 109.865 92.4235 109.056 90.6301 108.125C63.7634 93.3436 41.2639 70.4194 11.9473 60.2902C10.3558 59.8554 8.69197 59.7367 7.04913 59.792C4.40753 59.7904 2.35866 62.0509 1.90516 64.5303C1.01646 67.9657 1.09814 71.5535 1.5205 75.0508C1.90165 78.1354 2.27969 81.2242 2.87591 84.2761C5.79209 97.3908 -1.1028 68.138 0.839505 68.4227C0.893567 67.9093 0.947629 67.3963 1.00169 66.8833C1.06703 66.436 1.13235 65.9884 1.19769 65.5411C1.27392 65.16 1.35016 64.7784 1.42677 64.3969C1.60646 63.5669 1.90866 62.7626 2.32986 62.0252C2.78453 61.2279 3.41966 60.5266 4.20102 60.0397C6.06086 58.8457 8.38743 59.062 10.4806 59.2479C42.783 68.0485 66.3318 94.8799 96.7028 107.678C98.6152 108.027 101.554 107.172 101.993 105.067C101.961 103.511 101.106 102.128 100.524 100.732C84.5982 69.3409 60.002 43.4523 42.1222 13.2882C41.2736 11.2522 40.3351 9.20295 40.0275 6.99851C39.5293 4.39541 40.7952 1.23615 43.5352 0.520523C46.4397 -0.304393 49.4749 0.789273 52.2243 1.68575C104.612 27.3383 145.571 71.762 189.055 108.634C187.607 108.373 187.757 110.514 186.921 111.212C170.652 83.0452 148.864 58.3588 127.154 34.2573C125.568 32.5876 123.843 31.0521 121.997 29.6761C120.702 28.3402 118.812 28.2659 117.084 28.115Z" fill="#FFBB00"/>
</svg>
