<svg width="803" height="139" viewBox="0 0 803 139" fill="none" xmlns="http://www.w3.org/2000/svg">
<path d="M52.3121 88.2805C32.7693 79.3101 16.1255 64.008 3.55447 47.2886C3.10321 46.2937 2.27057 45.0222 2.94178 43.9644C7.86902 42.9551 12.0713 38.9385 17.4458 38.5778C33.0933 38.4238 48.7408 40.9039 64.4366 40.0309C128.281 36.0347 192.315 33.4784 256.351 34.8886C274.109 34.5176 291.865 34.0211 309.633 34.2433C357.434 35.2144 405.215 37.1486 453.029 37.1084C517.019 39.7396 581.054 40.8816 645.042 43.2704C678.93 46.9127 713.509 45.9044 746.991 52.1968C751.679 53.8054 756.047 56.1667 760.134 58.8681C762.809 60.5965 765.433 62.3992 767.973 64.3089C778.821 74.8743 793.271 83.8827 799.784 97.7334C799.955 98.4456 799.374 99.1677 798.592 99.1064C786.079 95.371 776.283 85.6379 766.779 77.3861C770.29 80.5375 766.658 83.4374 762.674 82.5335C734.604 81.9945 706.63 78.8107 678.57 77.6668C594.859 76.1483 511.193 71.6702 427.462 71.5258C382.832 69.6435 338.174 69.1217 293.538 70.3747C234.512 69.1631 175.546 72.3328 116.671 75.7031C100.742 76.4481 84.7429 74.8093 68.8457 76.1749C60.6668 76.2605 59.231 85.4372 52.3121 88.2805Z" fill="#FFBB00"/>
</svg>
