<svg width="37" height="37" viewBox="0 0 37 37" fill="none" xmlns="http://www.w3.org/2000/svg">
<path d="M5.77864 33.2493L6.66031 32.0358L5.77864 33.2493ZM3.75068 31.2214L4.9642 30.3397L3.75068 31.2214ZM33.2493 31.2214L32.0358 30.3397L33.2493 31.2214ZM31.2214 33.2493L30.3397 32.0358L31.2214 33.2493ZM31.2214 3.75068L30.3397 4.9642L31.2214 3.75068ZM33.2493 5.77864L32.0358 6.66031L33.2493 5.77864ZM5.77864 3.75068L6.66031 4.9642L5.77864 3.75068ZM3.75068 5.77864L4.9642 6.66031L3.75068 5.77864ZM16.6667 18.5V17V18.5ZM26.325 21.4958C25.9545 22.2368 26.2549 23.1378 26.9958 23.5083C27.7368 23.8788 28.6378 23.5785 29.0083 22.8375L26.325 21.4958ZM27.7634 21.9731L29.1051 22.6439L29.1051 22.6439L27.7634 21.9731ZM20.825 21.4958C20.4545 22.2368 20.7549 23.1378 21.4958 23.5083C22.2368 23.8788 23.1378 23.5785 23.5083 22.8375L20.825 21.4958ZM22.2634 21.9731L23.6051 22.6439L23.6051 22.6439L22.2634 21.9731ZM22.2634 18.6936L23.6051 18.0227L23.6051 18.0227L22.2634 18.6936ZM23.5083 17.8292C23.1378 17.0882 22.2368 16.7879 21.4958 17.1584C20.7549 17.5288 20.4545 18.4299 20.825 19.1708L23.5083 17.8292ZM16.3943 17.8191L15.0016 18.3762H15.0016L16.3943 17.8191ZM16.3943 19.1809L17.787 19.738L16.3943 19.1809ZM15.661 21.0142L14.2683 20.4571L15.661 21.0142ZM15.661 15.9858L17.0537 15.4287L15.661 15.9858ZM27.4503 18.5V17V18.5ZM18.5 33.5C15.0293 33.5 12.5468 33.4979 10.6265 33.2899C8.73434 33.0849 7.56679 32.6944 6.66031 32.0358L4.89696 34.4628C6.40008 35.5549 8.15595 36.0398 10.3034 36.2724C12.4228 36.5021 15.0962 36.5 18.5 36.5V33.5ZM0.5 18.5C0.5 21.9038 0.497941 24.5772 0.727562 26.6966C0.960224 28.844 1.44507 30.5999 2.53715 32.103L4.9642 30.3397C4.30561 29.4332 3.91511 28.2657 3.71011 26.3735C3.50206 24.4532 3.5 21.9707 3.5 18.5H0.5ZM6.66031 32.0358C6.00946 31.5629 5.43708 30.9905 4.9642 30.3397L2.53715 32.103C3.19507 33.0086 3.99141 33.8049 4.89696 34.4628L6.66031 32.0358ZM33.5 18.5C33.5 21.9707 33.4979 24.4532 33.2899 26.3735C33.0849 28.2657 32.6944 29.4332 32.0358 30.3397L34.4628 32.103C35.5549 30.5999 36.0398 28.844 36.2724 26.6966C36.5021 24.5772 36.5 21.9038 36.5 18.5H33.5ZM18.5 36.5C21.9038 36.5 24.5772 36.5021 26.6966 36.2724C28.844 36.0398 30.5999 35.5549 32.103 34.4628L30.3397 32.0358C29.4332 32.6944 28.2657 33.0849 26.3735 33.2899C24.4532 33.4979 21.9707 33.5 18.5 33.5V36.5ZM32.0358 30.3397C31.5629 30.9905 30.9905 31.5629 30.3397 32.0358L32.103 34.4628C33.0086 33.8049 33.8049 33.0086 34.4628 32.103L32.0358 30.3397ZM18.5 3.5C21.9707 3.5 24.4532 3.50206 26.3735 3.71011C28.2657 3.91511 29.4332 4.30561 30.3397 4.9642L32.103 2.53715C30.5999 1.44507 28.844 0.960224 26.6966 0.727562C24.5772 0.497941 21.9038 0.5 18.5 0.5V3.5ZM36.5 18.5C36.5 15.0962 36.5021 12.4228 36.2724 10.3034C36.0398 8.15595 35.5549 6.40008 34.4628 4.89696L32.0358 6.66031C32.6944 7.56679 33.0849 8.73434 33.2899 10.6265C33.4979 12.5468 33.5 15.0293 33.5 18.5H36.5ZM30.3397 4.9642C30.9905 5.43708 31.5629 6.00946 32.0358 6.66031L34.4628 4.89696C33.8049 3.99141 33.0086 3.19507 32.103 2.53715L30.3397 4.9642ZM18.5 0.5C15.0962 0.5 12.4228 0.497941 10.3034 0.727562C8.15595 0.960224 6.40008 1.44507 4.89696 2.53715L6.66031 4.9642C7.56679 4.30561 8.73434 3.91511 10.6265 3.71011C12.5468 3.50206 15.0293 3.5 18.5 3.5V0.5ZM3.5 18.5C3.5 15.0293 3.50206 12.5468 3.71011 10.6265C3.91511 8.73434 4.30561 7.56679 4.9642 6.66031L2.53715 4.89696C1.44507 6.40008 0.960224 8.15595 0.727562 10.3034C0.497941 12.4228 0.5 15.0962 0.5 18.5H3.5ZM4.89696 2.53715C3.99141 3.19507 3.19507 3.99141 2.53715 4.89696L4.9642 6.66031C5.43708 6.00945 6.00945 5.43708 6.66031 4.9642L4.89696 2.53715ZM16.6667 20L27.4503 20V17L16.6667 17V20ZM29.0083 22.8375L29.1051 22.6439L26.4218 21.3023L26.325 21.4958L29.0083 22.8375ZM29.1051 22.6439C29.8324 21.1894 29.8324 19.4773 29.1051 18.0227L26.4218 19.3644C26.7268 19.9743 26.7268 20.6923 26.4218 21.3023L29.1051 22.6439ZM23.5083 22.8375L23.6051 22.6439L20.9218 21.3023L20.825 21.4958L23.5083 22.8375ZM23.6051 18.0227L23.5083 17.8292L20.825 19.1708L20.9218 19.3644L23.6051 18.0227ZM23.6051 22.6439C24.3324 21.1894 24.3324 19.4773 23.6051 18.0227L20.9218 19.3644C21.2268 19.9743 21.2268 20.6923 20.9218 21.3023L23.6051 22.6439ZM11.1667 16.3333H13.9588V13.3333H11.1667V16.3333ZM13.9588 20.6667H11.1667V23.6667H13.9588V20.6667ZM10.8333 20.3333V16.6667H7.83333V20.3333H10.8333ZM14.2683 16.5429L15.0016 18.3762L17.787 17.262L17.0537 15.4287L14.2683 16.5429ZM15.0016 18.6238L14.2683 20.4571L17.0537 21.5713L17.787 19.738L15.0016 18.6238ZM11.1667 20.6667C10.9826 20.6667 10.8333 20.5174 10.8333 20.3333H7.83333C7.83333 22.1743 9.32572 23.6667 11.1667 23.6667V20.6667ZM13.9588 23.6667C15.3218 23.6667 16.5475 22.8368 17.0537 21.5713L14.2683 20.4571C14.2176 20.5837 14.0951 20.6667 13.9588 20.6667V23.6667ZM13.9588 16.3333C14.0951 16.3333 14.2176 16.4163 14.2683 16.5429L17.0537 15.4287C16.5475 14.1632 15.3218 13.3333 13.9588 13.3333V16.3333ZM11.1667 13.3333C9.32572 13.3333 7.83333 14.8257 7.83333 16.6667H10.8333C10.8333 16.4826 10.9826 16.3333 11.1667 16.3333V13.3333ZM15.0016 18.3762C15.0175 18.4159 15.0254 18.4579 15.0254 18.5H18.0254C18.0254 18.0798 17.946 17.6594 17.787 17.262L15.0016 18.3762ZM15.0254 18.5C15.0254 18.5421 15.0175 18.5841 15.0016 18.6238L17.787 19.738C17.946 19.3406 18.0254 18.9202 18.0254 18.5H15.0254ZM16.6667 17H16.5254V20H16.6667V17ZM27.4503 20C27.0147 20 26.6166 19.7539 26.4218 19.3644L29.1051 18.0227C28.7917 17.3959 28.151 17 27.4503 17V20Z" fill="#2D264B"/>
</svg>
