<svg width="31" height="34" viewBox="0 0 31 34" fill="none" xmlns="http://www.w3.org/2000/svg">
<path d="M7.23995 31.9622L7.70348 30.5356L7.23995 31.9622ZM2.37115 27.0934L3.79774 26.6299L2.37115 27.0934ZM28.9288 27.0934L27.5023 26.6299L28.9288 27.0934ZM24.06 31.9622L23.5965 30.5356L24.06 31.9622ZM24.06 11.4712L23.5965 12.8977L24.06 11.4712ZM28.9288 16.34L27.5023 16.8035L28.9288 16.34ZM7.23995 11.4712L7.70348 12.8977L7.23995 11.4712ZM2.37115 16.34L3.79774 16.8035L2.37115 16.34ZM17.15 18.6833C17.15 17.8549 16.4784 17.1833 15.65 17.1833C14.8216 17.1833 14.15 17.8549 14.15 18.6833H17.15ZM14.15 24.75C14.15 25.5784 14.8216 26.25 15.65 26.25C16.4784 26.25 17.15 25.5784 17.15 24.75H14.15ZM12.6167 12.6H18.6833V9.6H12.6167V12.6ZM18.6833 30.8333H12.6167V33.8333H18.6833V30.8333ZM12.6167 30.8333C9.67697 30.8333 8.56287 30.8148 7.70348 30.5356L6.77643 33.3888C8.20163 33.8518 9.91047 33.8333 12.6167 33.8333V30.8333ZM0.5 21.7167C0.5 24.4229 0.481494 26.1317 0.94457 27.5569L3.79774 26.6299C3.51851 25.7705 3.5 24.6564 3.5 21.7167H0.5ZM7.70348 30.5356C5.85148 29.9338 4.39949 28.4818 3.79774 26.6299L0.94457 27.5569C1.84307 30.3222 4.01112 32.4903 6.77643 33.3888L7.70348 30.5356ZM27.8 21.7167C27.8 24.6564 27.7815 25.7705 27.5023 26.6299L30.3554 27.5569C30.8185 26.1317 30.8 24.4229 30.8 21.7167H27.8ZM18.6833 33.8333C21.3895 33.8333 23.0984 33.8518 24.5236 33.3888L23.5965 30.5356C22.7371 30.8148 21.623 30.8333 18.6833 30.8333V33.8333ZM27.5023 26.6299C26.9005 28.4818 25.4485 29.9338 23.5965 30.5356L24.5236 33.3888C27.2889 32.4903 29.4569 30.3222 30.3554 27.5569L27.5023 26.6299ZM30.8 21.7167C30.8 19.0105 30.8185 17.3016 30.3554 15.8764L27.5023 16.8035C27.7815 17.6629 27.8 18.777 27.8 21.7167H30.8ZM23.5965 12.8977C25.4485 13.4995 26.9005 14.9515 27.5023 16.8035L30.3554 15.8764C29.4569 13.1111 27.2889 10.9431 24.5236 10.0446L23.5965 12.8977ZM3.5 21.7167C3.5 18.777 3.51851 17.6629 3.79774 16.8035L0.94457 15.8764C0.481494 17.3016 0.5 19.0105 0.5 21.7167H3.5ZM6.77643 10.0446C4.01112 10.9431 1.84307 13.1111 0.94457 15.8764L3.79774 16.8035C4.39949 14.9515 5.85148 13.4995 7.70348 12.8977L6.77643 10.0446ZM21.7333 9.58333V11.1H24.7333V9.58333H21.7333ZM9.56667 11.1V9.58333H6.56667V11.1H9.56667ZM15.65 3.5C19.0097 3.5 21.7333 6.2236 21.7333 9.58333H24.7333C24.7333 4.56675 20.6666 0.5 15.65 0.5V3.5ZM15.65 0.5C10.6334 0.5 6.56667 4.56675 6.56667 9.58333H9.56667C9.56667 6.2236 12.2903 3.5 15.65 3.5V0.5ZM14.15 18.6833V24.75H17.15V18.6833H14.15ZM12.6167 9.6C10.4905 9.6 8.99601 9.59477 7.81748 9.79331L8.31586 12.7516C9.18481 12.6052 10.3698 12.6 12.6167 12.6V9.6ZM7.81748 9.79331C7.45706 9.85403 7.1132 9.93515 6.77643 10.0446L7.70348 12.8977C7.88176 12.8398 8.08032 12.7913 8.31586 12.7516L7.81748 9.79331ZM6.56667 11.1V11.2725H9.56667V11.1H6.56667ZM18.6833 12.6C20.9302 12.6 22.1152 12.6052 22.9841 12.7516L23.4825 9.79331C22.304 9.59477 20.8095 9.6 18.6833 9.6V12.6ZM22.9841 12.7516C23.2197 12.7913 23.4182 12.8398 23.5965 12.8977L24.5236 10.0446C24.1868 9.93515 23.8429 9.85403 23.4825 9.79331L22.9841 12.7516ZM21.7333 11.1V11.2725H24.7333V11.1H21.7333Z" fill="#1F1C1C"/>
</svg>
