<svg width="305" height="153" viewBox="0 0 305 153" fill="none" xmlns="http://www.w3.org/2000/svg">
<path d="M185.012 113.953C172.728 115.588 179.064 130.409 190.263 126.121C192.056 125.91 193.818 125.522 195.501 124.982C200.468 123.362 204.591 120.536 208.448 117.675C243.491 86.309 277.546 53.3622 302.035 16.4095C303.221 13.8761 304.844 11.2892 304.759 8.55993C304.108 3.57955 297.743 -0.541819 291.178 0.707346C288.462 1.13379 285.89 2.08664 283.674 3.3895C220.099 50.987 163.209 105.41 87.402 141.972C83.1227 143.992 78.349 145.652 73.4941 146.342C73.6935 144.719 74.6187 141.263 75.8232 139.314C101.407 101.399 137.394 67.8347 159.574 28.5197C160.522 26.5777 161.527 24.5867 161.656 22.5013C161.924 20.0515 159.645 18.0076 157.001 16.9686C154.376 15.835 151.17 15.5226 148.213 16.0999C145.115 16.6941 142.207 17.7995 139.452 19.0462C98.2216 38.7362 64.2472 67.9711 18.9425 82.2045C16.477 82.8381 13.8819 83.0944 11.3104 83.1392C7.18034 83.3205 3.85828 80.7275 3.01911 77.7616C1.44931 73.6698 1.38862 69.3278 1.86543 65.0723C2.29944 61.3182 2.72835 57.5592 3.50035 53.8301C7.37137 37.7812 -1.8732 73.6055 1.14863 73.1295C1.26009 73.7463 1.37157 74.3627 1.48301 74.979C1.60866 75.5152 1.73427 76.0518 1.85991 76.5879C1.9991 77.0434 2.13831 77.4994 2.27813 77.9554C2.60262 78.9463 3.11736 79.8979 3.81463 80.7605C4.56733 81.6933 5.59716 82.4977 6.84438 83.0332C9.81493 84.35 13.4411 83.9307 16.7041 83.5638C66.7468 70.7335 102.157 36.705 148.97 19.1749C151.942 18.6229 156.581 19.4566 157.378 21.9703C157.409 23.8537 156.145 25.5834 155.308 27.31C132.057 66.332 94.9598 99.2922 68.5882 136.964C67.3682 139.482 66.0085 142.023 65.6432 144.708C65.0009 147.888 67.1461 151.621 71.4676 152.299C76.0521 153.099 80.7402 151.571 84.9917 150.301C165.553 115.739 227.26 59.2654 293.312 11.7472C291.062 12.161 291.184 9.56398 289.84 8.77651C265.882 43.925 233.112 75.2415 200.435 105.846C198.043 107.971 195.426 109.944 192.611 111.733C190.657 113.435 187.706 113.654 185.012 113.953Z" fill="white"/>
</svg>
