<svg width="90" height="90" viewBox="0 0 90 90" fill="none" xmlns="http://www.w3.org/2000/svg">
<rect width="89.5913" height="89.5913" rx="10" fill="#1F1C1C"/>
<path d="M53.6464 22.8955H35.9428C28.748 22.8955 22.8945 28.749 22.8945 35.9438V53.6474C22.8945 60.8423 28.748 66.6957 35.9428 66.6957H53.6464C60.8413 66.6957 66.6947 60.8423 66.6947 53.6474V35.9438C66.6946 28.749 60.8412 22.8955 53.6464 22.8955ZM62.2884 53.6474C62.2884 58.4202 58.4192 62.2894 53.6464 62.2894H35.9428C31.17 62.2894 27.3008 58.4202 27.3008 53.6474V35.9438C27.3008 31.1709 31.17 27.3018 35.9428 27.3018H53.6464C58.4192 27.3018 62.2884 31.1709 62.2884 35.9438V53.6474Z" fill="white"/>
<path d="M44.7931 33.4668C38.5467 33.4668 33.4648 38.5487 33.4648 44.795C33.4648 51.0414 38.5467 56.1233 44.7931 56.1233C51.0396 56.1233 56.1214 51.0414 56.1214 44.795C56.1214 38.5486 51.0396 33.4668 44.7931 33.4668ZM44.7931 51.7171C40.9702 51.7171 37.8711 48.618 37.8711 44.7951C37.8711 40.9721 40.9703 37.8731 44.7931 37.8731C48.6161 37.8731 51.7151 40.9721 51.7151 44.7951C51.7151 48.6179 48.616 51.7171 44.7931 51.7171Z" fill="white"/>
<path d="M56.1442 36.2674C57.6433 36.2674 58.8587 35.052 58.8587 33.5529C58.8587 32.0537 57.6433 30.8384 56.1442 30.8384C54.645 30.8384 53.4297 32.0537 53.4297 33.5529C53.4297 35.052 54.645 36.2674 56.1442 36.2674Z" fill="white"/>
</svg>
