<svg width="219" height="225" viewBox="0 0 219 225" fill="none" xmlns="http://www.w3.org/2000/svg">
<path d="M99.0875 77.4747C93.1078 82.6972 86.3304 71.62 93.5439 68.3563C94.3997 67.5791 95.3538 66.9118 96.3723 66.3661C99.3938 64.7676 102.835 64.2335 106.19 63.8499C140.06 63.2433 174.527 63.9727 207.661 71.5943C209.733 72.3616 212.016 72.9403 213.7 74.4432C216.573 77.432 216.602 82.7972 213.17 85.387C211.806 86.507 210.17 87.2735 208.457 87.6764C152.869 93.7583 95.6782 92.8696 42.1073 110.929C39.1108 111.972 36.1418 113.453 33.7505 115.494C34.8527 116.263 37.401 117.654 39.1133 118.099C73.2936 125.692 108.928 125.793 142.618 135.825C144.222 136.394 145.881 136.961 147.246 138.013C148.896 139.191 149.264 141.416 148.852 143.285C148.508 145.194 147.413 146.952 145.857 148.112C144.234 149.331 142.366 150.183 140.471 150.883C111.458 160.81 79.3602 162.027 52.1397 176.897C50.7472 177.782 49.5398 178.933 48.4751 180.185C46.6964 182.138 46.9898 185.175 48.5187 187.179C50.4619 190.148 53.1708 192.502 56.042 194.543C58.5802 196.336 61.1195 198.135 63.7783 199.748C75.4417 206.416 49.1632 191.831 50.6808 190.586C50.3375 190.201 49.9944 189.816 49.6513 189.43C49.3644 189.081 49.0772 188.732 48.7903 188.382C48.5597 188.069 48.3287 187.756 48.0981 187.443C47.605 186.751 47.2134 185.987 46.9514 185.179C46.6676 184.306 46.5763 183.364 46.7418 182.459C47.1101 180.279 48.8357 178.704 50.3818 177.281C78.6287 159.308 114.323 159.944 144.227 146.09C145.772 144.91 147.117 142.162 145.855 140.421C144.683 139.397 143.084 139.099 141.66 138.59C107.723 129.247 72.0214 130.02 37.6769 122.948C35.5997 122.205 33.4524 121.521 31.6147 120.265C29.3539 118.882 27.8688 115.819 29.1832 113.311C30.5275 110.607 33.379 109.098 35.8922 107.668C90.1202 86.1779 150.543 85.7732 207.08 78.4191C205.912 79.3149 207.596 80.644 207.551 81.7326C175.767 74.8132 142.844 74.3183 110.408 74.1586C108.105 74.2083 105.809 74.451 103.548 74.891C101.689 74.9497 100.362 76.2977 99.0875 77.4747Z" fill="#FFBB00"/>
</svg>
