<svg width="375" height="931" viewBox="0 0 375 931" fill="none" xmlns="http://www.w3.org/2000/svg">
<mask id="mask0_399_448" style="mask-type:alpha" maskUnits="userSpaceOnUse" x="-162" y="188" width="601" height="743">
<rect x="-162" y="188" width="600.919" height="742.614" fill="#C4C4C4"/>
</mask>
<g mask="url(#mask0_399_448)">
<path d="M96.6787 655.925L80.1072 669.743L81.9485 686.325L78.2659 688.167L69.0596 684.482L48.8056 691.852L36.8373 688.167L32.2341 693.695L23.9484 688.167L17.5039 690.01L21.1865 702.907L34.0754 706.592L65.377 701.064L72.7421 711.198L93.9167 716.725L109.568 717.646L138.107 706.592L144.552 701.985L146.393 683.561H155.599L156.52 674.349L149.155 655.003L119.695 648.555L110.488 658.688L96.6787 655.925Z" fill="white" stroke="#9C9B9B" stroke-width="0.5"/>
<path d="M63.5352 611.707L73.6622 634.737L96.6781 655.925L110.488 658.689L119.694 648.555L149.154 655.004L156.519 674.349L168.488 682.64H180.456L185.98 675.27L207.154 671.586L221.885 661.452L247.662 665.137L253.186 645.792L234.773 636.58L207.154 642.107L198.869 633.816L190.583 636.58L181.377 631.052L167.567 619.077L166.646 612.628L152.837 609.864L149.154 615.392L134.424 599.731L120.615 592.361L112.329 596.967L103.123 588.677L102.202 596.046L69.059 616.313L63.5352 611.707Z" fill="white" stroke="#9C9B9B" stroke-width="0.5"/>
<path d="M142.606 710.481L171.248 735.15L185.569 730.543L202.55 725.016L212.677 725.937L229.248 720.41L244.899 686.325L259.63 677.113L247.661 665.137L221.883 661.452L207.153 671.586L185.979 675.271L180.455 682.64H168.486L156.518 674.349L155.598 683.561H146.391L144.55 701.986L138.105 706.592L142.606 710.481Z" fill="white" stroke="#9C9B9B" stroke-width="0.5"/>
<path d="M118.775 471.683L111.41 463.392V468.919L118.775 471.683Z" fill="white" stroke="#9C9B9B" stroke-width="0.5"/>
<path d="M18.425 476.288L2.77421 474.446V461.549L-7.3528 454.179L-8.27344 427.464L-3.67025 409.961L34.0758 382.325L35.9171 398.907L27.6314 419.173H32.2346L29.4727 425.622L42.3615 424.701V430.228L35.9171 435.755L32.2346 433.913V441.283L23.9488 444.046L24.8695 449.573H19.3456L21.1869 453.258L17.5044 468.919L21.1869 476.288H18.425Z" fill="white" stroke="#9C9B9B" stroke-width="0.5"/>
<path d="M43.2801 470.761L41.4389 480.895L39.5977 476.289L43.2801 470.761Z" fill="white" stroke="#9C9B9B" stroke-width="0.5"/>
<path d="M28.5512 455.101L38.6782 452.337L43.2813 463.392L42.3607 468.919L29.4718 470.761L23.0273 456.022L28.5512 455.101Z" fill="white" stroke="#9C9B9B" stroke-width="0.5"/>
<path d="M51.568 473.525L58.0124 476.289L60.7744 482.737L46.9648 479.974V474.446L51.568 473.525Z" fill="white" stroke="#9C9B9B" stroke-width="0.5"/>
<path d="M60.7734 473.525L66.2972 476.289L64.456 485.501L60.7734 473.525Z" fill="white" stroke="#9C9B9B" stroke-width="0.5"/>
<path d="M54.3275 440.361L56.1687 444.046L45.1211 449.574L48.8036 453.258L51.5656 465.234L60.7719 467.077L59.8513 470.761L67.2164 472.604V465.234L72.7402 464.313L69.0576 456.022L76.4227 450.495L70.8989 435.755L63.5338 440.361V443.125L60.7719 450.495V441.283L54.3275 440.361Z" fill="white" stroke="#9C9B9B" stroke-width="0.5"/>
<path d="M92.0736 489.186L92.9942 494.713L82.8672 491.949L83.7878 486.422L88.391 489.186L85.6291 482.737L92.0736 485.501V489.186Z" fill="white" stroke="#9C9B9B" stroke-width="0.5"/>
<path d="M112.327 596.967L116.01 581.306L110.486 573.937L106.803 542.615L102.2 538.931L105.883 524.191L102.2 510.373L80.105 491.028L69.978 494.712L73.6606 489.185L52.4859 504.846H39.597L45.1208 492.87L27.6287 491.949L23.9462 487.343V478.131L18.4223 476.288L2.77154 474.446L9.21601 487.343L2.77154 492.87L11.0573 507.609L1.8509 510.373L2.77154 524.191L0.00962448 517.743L-6.43484 520.506L-8.27612 514.058L-13.7999 513.137L-22.0856 514.058L-25.7682 520.506L-17.4825 527.876L-25.7682 526.955L-28.5301 541.694L-34.0539 545.379L-26.6888 554.591L-34.9746 566.567L-45.1016 565.646V600.652L-40.4984 608.943L-44.1809 616.312L-39.5778 628.288L-40.4984 633.815L-32.2126 643.028L-8.27612 649.476L-17.4825 673.427V686.325L5.53345 685.403L17.5017 690.009L23.9462 688.167L32.2319 693.694L36.8351 688.167L48.8034 691.852L69.0574 684.482L78.2637 688.167L81.9463 686.325L80.105 669.743L96.6765 655.925L73.6606 634.737L63.5335 611.706L69.0574 616.312L102.2 596.046L103.121 588.676L112.327 596.967Z" fill="white" stroke="#9C9B9B" stroke-width="0.5"/>
<path d="M222.807 900.046L229.251 901.889L230.172 904.652H222.807L230.172 916.628L257.791 915.707L266.997 920.313L262.394 923.998L275.283 924.919L282.648 932.289L281.727 920.313L255.029 903.731L263.315 901.889L262.394 894.519L267.918 896.362L257.791 878.858V865.04L262.394 864.119L260.553 867.804L273.442 879.78L272.521 872.41L281.727 878.858L278.045 869.646L287.251 873.331L276.204 864.119L290.013 855.828L300.14 854.907L319.474 860.434L327.759 842.931L324.077 835.562H321.315V842.01L314.87 845.695L309.346 848.458L290.013 840.168L263.315 845.695L227.41 857.671L229.251 865.04L212.68 886.228L222.807 900.046Z" fill="white" stroke="#9C9B9B" stroke-width="0.5"/>
<path d="M210.838 892.676L207.155 885.306H203.473L210.838 892.676Z" fill="white" stroke="#9C9B9B" stroke-width="0.5"/>
<path d="M222.804 923.997L220.963 915.706L216.359 919.391L222.804 923.997Z" fill="white" stroke="#9C9B9B" stroke-width="0.5"/>
<path d="M245.823 918.47L234.775 920.313L230.172 929.525L239.378 941.5V950.713L242.14 953.476L245.823 947.028L251.347 960.846L257.791 952.555L266.077 960.846L258.712 935.052L266.077 941.5L271.601 936.894L266.077 925.84L245.823 918.47Z" fill="white" stroke="#9C9B9B" stroke-width="0.5"/>
<path d="M301.06 933.21V927.682L296.457 925.84L301.06 933.21Z" fill="white" stroke="#9C9B9B" stroke-width="0.5"/>
<path d="M317.63 919.392L321.313 912.943L315.789 910.18L317.63 919.392Z" fill="white" stroke="#9C9B9B" stroke-width="0.5"/>
<path d="M327.757 900.046L324.075 893.598L315.789 898.204L327.757 900.046Z" fill="white" stroke="#9C9B9B" stroke-width="0.5"/>
<path d="M300.141 882.543L301.061 878.858H305.664L306.585 879.779L300.141 882.543Z" fill="white" stroke="#9C9B9B" stroke-width="0.5"/>
<path d="M294.616 864.119L295.537 859.513L290.934 861.355L294.616 864.119Z" fill="white" stroke="#9C9B9B" stroke-width="0.5"/>
<path d="M293.696 923.077L286.331 910.18L271.601 900.967L265.156 905.574L286.331 919.392L290.013 925.84H293.696V923.077Z" fill="white" stroke="#9C9B9B" stroke-width="0.5"/>
<path d="M93.9175 740.677L98.5207 738.834L94.8382 732.386L92.0762 723.173H89.3143L93.9175 716.725L72.7429 711.198L65.3778 701.065L34.0761 706.592V712.119L28.5523 713.04L29.473 721.331L14.7427 716.725L9.21896 731.465L-0.908062 719.489L-11.9557 730.543L-26.6859 732.386L-31.2891 734.228L-25.7653 748.046L-31.2891 757.258L-28.5272 759.101L-25.7653 775.683L-17.4795 776.604L-16.5589 784.895L-6.43189 782.131L5.53641 771.077L30.3936 781.21L37.7587 804.24L48.8063 820.822L57.0921 821.743L82.8699 848.458H94.8382L106.806 863.198H115.092L118.775 873.331L126.14 878.858L129.822 876.095L139.949 905.574L133.505 909.258L130.743 919.392L131.664 925.84H138.108L146.394 915.707L148.235 904.652L156.521 900.968V890.834L146.394 883.464L150.076 869.646L158.362 865.04L171.251 872.41L179.537 881.622L181.378 876.095L171.251 860.434L135.346 842.931L139.029 832.798L137.187 830.955L121.537 833.719L112.33 827.271L102.203 815.295L92.0762 790.422L72.7429 776.604L69.0603 765.549L72.7429 756.337L69.0603 752.652V745.283L85.6318 736.071H92.0762L93.9175 740.677Z" fill="white" stroke="#9C9B9B" stroke-width="0.5"/>
<path d="M11.9816 846.616L18.426 851.222L21.1879 861.355V892.676L18.426 897.282L13.8229 896.361L5.53716 904.652L0.01334 895.44L0.933977 879.779L-4.58984 855.828L1.85461 857.67L11.9816 846.616Z" fill="white" stroke="#9C9B9B" stroke-width="0.5"/>
<path d="M129.823 918.47L120.617 937.816L122.458 947.028L120.617 953.476H112.331L105.886 947.028L75.5053 933.21L73.6641 925.84L75.5053 920.313L85.6323 919.391L94.8387 924.919L129.823 918.47Z" fill="white" stroke="#9C9B9B" stroke-width="0.5"/>
<path d="M212.68 725.938L229.251 720.411L244.902 686.326L259.632 677.114L291.854 676.192L299.22 680.798L331.442 669.744L342.489 680.798L355.378 707.514L358.14 743.441L364.585 748.047L382.997 744.362L382.077 760.023L372.87 768.314L374.712 760.023L371.029 756.338L367.347 785.817L336.045 777.526L308.426 789.502L264.235 785.817L260.553 782.132L263.315 777.526L258.712 776.604L253.188 769.235L256.87 766.471L254.108 762.786L250.426 766.471L235.696 758.18L234.775 749.889L229.251 748.047L221.886 732.386L212.68 725.938Z" fill="white" stroke="#9C9B9B" stroke-width="0.5"/>
<path d="M142.914 710.174L140.561 714.78L127.366 720.512L122.149 738.323L108.339 734.945L98.5189 738.834L94.8363 732.386L92.0744 723.174H89.3125L93.9157 716.725L109.567 717.646L138.106 706.592L142.607 710.481L142.914 710.174Z" fill="white" stroke="#9C9B9B" stroke-width="0.5"/>
<path d="M158.464 793.595L180.866 812.019L177.49 815.5L171.25 809.768L156.52 805.162H164.806L152.837 795.028L137.187 793.186L121.536 776.604L126.139 771.998L119.695 767.392L116.012 753.574L110.488 748.046L106.806 747.125L100.361 759.101L97.5993 758.18L92.9961 749.889L93.9167 740.677L98.5199 738.834L108.34 734.945L122.15 738.323L127.367 720.512L140.562 714.781L142.915 710.174L142.608 710.482L171.25 735.15L185.571 730.543L190.072 744.157L201.017 749.889L195.187 751.015L192.936 756.235L190.072 757.361L184.241 750.503L152.633 744.157L141.687 751.015L135.345 743.543L130.231 753.881L135.959 759.101L158.464 793.595Z" fill="white" stroke="#9C9B9B" stroke-width="0.5"/>
<path d="M158.463 793.595L135.959 759.101L130.23 753.881L135.345 743.543L141.687 751.015L152.633 744.157L184.241 750.503L190.072 757.361L192.936 756.235L199.278 757.361L192.322 770.053L201.529 776.911L201.017 779.265L195.8 779.777L199.278 787.352L194.675 790.218H188.947L191.197 795.335L184.241 790.218L181.991 793.084L185.469 799.942L179.126 803.422L180.865 812.02L158.463 793.595Z" fill="white" stroke="#9C9B9B" stroke-width="0.5"/>
<path d="M192.935 756.235L195.186 751.015L201.017 749.889L190.071 744.157L185.57 730.544L202.551 725.016L212.678 725.938L221.884 732.386L229.249 748.047L234.773 749.889L235.694 758.18L250.424 766.471L254.107 762.786L256.869 766.471L253.186 769.235L258.71 776.604L253.186 778.447L251.345 785.816L253.186 793.186L260.551 803.319L253.186 815.295V818.98L234.978 818.366L220.964 827.271L211.757 817.138L206.438 815.091L206.131 808.642L210.734 811.508L212.473 806.902L194.061 793.084L194.674 790.218L199.278 787.352L195.8 779.777L201.017 779.266L201.528 776.911L192.322 770.053L199.278 757.361L192.935 756.235Z" fill="white" stroke="#9C9B9B" stroke-width="0.5"/>
<path d="M177.387 815.499H177.489L196.106 832.798L198.868 818.979L203.471 814.373L206.438 815.09L206.131 808.641L210.734 811.507L212.473 806.901L194.061 793.083L194.674 790.217H188.946L191.196 795.335L184.24 790.217L181.99 793.083L185.468 799.941L179.126 803.421L180.865 812.019L177.387 815.499Z" fill="white" stroke="#9C9B9B" stroke-width="0.5"/>
<path d="M-16.5593 188.87L-27.6069 195.319L-16.5593 201.767L-17.4799 206.373L-37.7339 207.295L-34.0514 210.058L-35.8926 213.743L-34.972 222.034L-39.5752 214.664L-45.099 222.955L-43.2577 227.561L-59.8292 223.876L-58.9085 232.167L-37.7339 233.088L-62.5911 238.616L-57.9879 243.222L-62.5911 251.513L-61.6705 261.646L-39.5752 260.725L-35.8926 251.513V258.882L-26.6863 259.804L-17.4799 245.985L-21.1625 258.882L-15.6386 257.04L-25.7656 262.567L-24.845 269.016L-28.5276 270.858L-32.2101 262.567L-61.6705 269.016L-57.9879 271.779V277.307L-63.5117 274.543L-59.8292 280.991L-50.6228 278.228L-59.8292 290.204L-57.9879 297.573L-53.3847 292.967L-52.4641 299.416L-55.226 303.101L-54.3054 306.785L-39.5752 283.755H-26.6863L-34.0514 292.046L-35.8926 287.44L-49.7022 308.628L-39.5752 310.47L-58.9085 323.367L-57.9879 327.052L-39.5752 320.604L-46.0196 341.792L-52.4641 339.028L-54.3054 349.161L-39.5752 363.901L-32.2101 361.137L-34.0514 371.27H-15.6386L10.1392 351.925L19.3455 335.343L29.4726 338.107L34.0757 328.895L30.3932 314.155L35.917 319.682L34.0757 308.628L37.7583 306.785L39.5995 330.737L47.8853 335.343L48.8059 344.555L54.3297 341.792L57.0917 328.895L55.2504 319.682L59.8535 306.785L69.9805 299.416L72.7425 282.834L65.3773 268.095L76.425 253.355L66.298 236.773L64.4567 205.452L69.0599 186.107L64.4567 173.21L66.298 161.234L81.9488 148.337L102.203 142.81V132.676L94.8377 120.701L106.806 96.7491L110.489 58.9795L121.536 53.4522L126.139 37.7916L142.711 13.84L139.028 -0.899353L148.235 -23.9297L162.044 -34.9842L170.33 -28.5357L177.695 -56.1721L208.997 -51.566L211.759 -53.4084L207.155 -60.7781L212.679 -74.5963L210.838 -81.966L220.044 -83.8084L229.251 -87.4933L227.409 -93.9418L232.013 -96.7054L254.108 -67.2266L271.6 -63.5418L281.727 -72.7539L293.695 -62.6205L313.029 -79.2024L314.87 -108.681L318.552 -120.657L355.378 -134.475L376.552 -116.051L378.394 -100.39L370.108 -89.3357L373.791 -81.966L392.203 -100.39L394.965 -111.445L406.013 -107.76V-117.893L382.997 -113.287L388.521 -124.342L365.505 -139.081L391.283 -135.396L407.854 -153.821L389.441 -170.402L378.394 -167.639L376.552 -177.772L364.584 -172.245V-155.663H354.457L359.981 -164.875L349.854 -163.954L355.378 -168.56L351.695 -172.245L359.981 -174.087L361.822 -183.299L347.092 -190.669L336.965 -155.663L328.679 -151.978V-181.457L301.06 -134.475L297.378 -137.239L302.902 -155.663L314.87 -176.851L303.822 -173.166L299.219 -183.299L287.251 -175.93L293.695 -166.718L268.838 -142.766L267.917 -129.869L260.552 -136.318L262.394 -140.924L251.346 -137.239L243.981 -146.451L241.219 -139.081L236.616 -146.451V-137.239L244.901 -135.396L245.822 -116.051L232.013 -131.711L232.933 -126.184L221.886 -122.499L220.044 -117.893L220.965 -109.602L213.6 -97.6266L214.52 -106.839V-127.105L205.314 -116.972L203.473 -102.233L202.552 -118.814L194.266 -117.893L192.425 -104.075L199.79 -90.2569L185.981 -106.839H181.378L188.743 -96.7054L185.06 -93.0206L177.695 -96.7054L176.774 -104.075L174.012 -93.9418L175.854 -89.3357L164.806 -80.1236L170.33 -71.8327L166.647 -72.7539L167.568 -67.2266L146.393 -56.1721L165.727 -52.4872L159.282 -45.1175L142.711 -47.8812L143.631 -29.4569L139.028 -25.7721L134.425 -38.669L126.139 -24.8509L128.901 -16.5599L122.457 -11.0327H131.663L111.409 -6.42664L104.044 16.6037L88.3933 30.4219L87.4726 35.9492L91.1552 37.7916L84.7107 40.5552L89.3139 49.7673L73.6631 65.4279L82.8694 59.9006L84.7107 68.1916L78.2663 65.4279L76.425 76.4825L72.7425 77.4037L75.5044 89.3795L69.0599 81.0885L65.3773 93.9855L69.9805 90.3006L70.9012 98.5915L52.4885 108.725L51.5678 115.173L54.3297 117.016L52.4885 126.228L45.1234 123.464L29.4726 142.81V149.258L23.0281 153.864L30.3932 166.761L51.5678 155.707L29.4726 173.21L23.0281 163.076L14.7423 167.682L17.5043 173.21L13.8217 175.973L11.0598 168.604L1.85345 172.289L-16.5593 188.87Z" fill="white" stroke="#9C9B9B" stroke-width="0.5"/>
<path d="M220.044 -83.8083L210.838 -81.9659L212.679 -74.5963L207.156 -60.778L211.759 -53.4084L208.997 -51.5659L177.695 -56.172L170.33 -28.5356L162.044 -34.9841L148.235 -23.9296L139.028 -0.899277L142.711 13.8401L126.14 37.7917L121.536 53.4523L110.489 58.9795L106.806 96.7492L94.8379 120.701L102.203 132.676V142.81L81.949 148.337L66.2982 161.234L64.4569 173.21L69.0601 186.107L64.4569 205.452L66.2982 236.773L76.4252 253.355L65.3776 268.095L72.7427 282.834L69.9808 299.416L59.8537 306.786L55.2506 319.683L57.0919 328.895L54.3299 341.792L48.8061 344.555L47.8855 335.343L46.9648 339.949L47.8855 356.531L50.6474 363.901L55.2506 361.137L56.1712 363.901L51.568 369.428L57.0919 371.27V379.561H60.7744L59.8537 394.301L79.1871 421.937L73.6633 426.543L75.5046 432.07L70.9014 433.913L80.1078 452.337L76.4252 458.786H100.362L105.886 437.598L133.505 434.834L146.394 391.537L143.632 375.876L147.314 374.955L148.235 362.058L140.87 357.452L149.155 354.689L138.108 351.925L151.917 349.161L162.044 336.264L168.489 341.792L175.854 333.501V328.895L181.378 326.131L157.441 328.895L139.949 321.525L152.838 317.84L168.489 325.21L180.457 319.683L185.981 306.786L176.775 292.967L179.536 292.046L162.965 279.149L150.076 295.731L139.028 297.573L155.6 286.519L153.759 245.986L155.6 238.616L159.282 241.38L162.044 218.349L158.362 207.295L164.806 210.058L167.568 204.531V191.634L171.251 197.161L176.775 188.87L185.06 176.895L217.283 157.549L236.616 131.755L229.251 114.252L236.616 100.434L234.775 91.222L245.822 82.0098L242.14 74.6401L249.505 80.1674L253.187 67.2704L280.806 72.7977L282.648 65.428L276.203 47.925L280.806 29.5007L272.521 10.1553L273.441 -28.5356L262.394 -46.9599L220.044 -83.8083Z" fill="white" stroke="#9C9B9B" stroke-width="0.5"/>
<path d="M174.012 408.119L186.901 393.38L185.98 382.325L188.742 376.798H183.218L174.932 388.774L174.012 408.119Z" fill="white" stroke="#9C9B9B" stroke-width="0.5"/>
<path d="M140.867 431.15L150.074 406.277L142.708 418.253L140.867 431.15Z" fill="white" stroke="#9C9B9B" stroke-width="0.5"/>
<path d="M-17.4825 686.324L5.53344 685.403L17.5017 690.009L21.1842 702.906L34.0732 706.591V712.118L28.5493 713.04L29.47 721.331L14.7398 716.725L9.21599 731.464L-0.91103 719.488L-11.9586 730.543L-26.6888 732.385L-31.292 719.488H-37.7365L-44.1809 725.937L-45.1016 717.646L-27.6095 689.088L-17.4825 686.324Z" fill="white" stroke="#9C9B9B" stroke-width="0.5"/>
<path d="M109.568 748.967L113.25 756.337L107.727 753.574L109.568 748.967Z" fill="white" stroke="#9C9B9B" stroke-width="0.5"/>
<path d="M15.6611 805.162L19.3437 824.507L13.8198 845.695L4.61348 835.562L1.85156 818.98L4.61348 815.295L14.7405 811.61L15.6611 805.162Z" fill="white" stroke="#9C9B9B" stroke-width="0.5"/>
<path d="M355.377 831.876L339.727 830.034L324.076 835.561L327.758 842.931L319.473 860.434L329.6 863.197L323.155 868.725L322.235 876.094L347.092 854.907L370.108 853.985L373.79 848.458L358.139 841.088L355.377 831.876Z" fill="white" stroke="#9C9B9B" stroke-width="0.5"/>
<path d="M324.995 877.937L332.36 872.41L350.773 870.567L349.852 866.882L370.106 868.725H373.789L370.106 864.119L373.789 863.197L388.519 861.355L376.551 858.591L373.789 854.907L377.471 849.379L411.535 854.907L433.63 837.403L452.043 830.955L484.265 830.034L493.471 839.246L501.757 837.403L506.36 848.458L536.741 857.67L560.678 852.143L579.091 854.907L599.345 840.167L614.075 842.931L622.361 841.088L635.25 853.985L641.694 873.331L655.504 882.543L647.218 892.676L649.98 901.888V928.604L659.186 936.894V942.422L650.9 943.343L649.059 940.579L626.043 937.816L617.757 944.264L612.234 941.5L603.948 946.107L585.535 944.264L557.916 955.319L543.186 949.791L526.614 956.24L511.884 951.634L509.122 959.925L511.884 965.452L506.36 966.373L502.678 974.664L498.075 970.979L498.995 959.925L503.599 955.319L499.916 951.634L490.71 959.004L479.662 953.476L472.297 955.319L465.852 962.688L442.837 970.058L407.852 950.713L402.329 951.634L400.487 964.531L388.519 968.216L378.392 964.531L374.709 955.319L370.106 957.161L365.503 952.555L356.297 957.161V953.476L345.249 956.24L360.9 947.028L343.408 947.949L347.09 943.343L341.566 938.737L343.408 934.131L337.884 932.288L339.725 924.919L324.074 919.392L326.836 910.179L330.519 915.707H339.725L332.36 910.179L336.043 905.573L331.439 897.282L333.281 888.991L321.312 890.834L324.995 877.937Z" fill="white" stroke="#9C9B9B" stroke-width="0.5"/>
<path d="M255.029 301.258L258.712 292.046L250.426 301.258H255.029Z" fill="white" stroke="#9C9B9B" stroke-width="0.5"/>
<path d="M208.075 289.283H203.471L202.551 298.495L208.995 302.18L208.075 289.283Z" fill="white" stroke="#9C9B9B" stroke-width="0.5"/>
<path d="M220.043 -83.8086L262.392 -46.9601L273.44 -28.5359L272.519 10.1551L280.805 29.5005L276.202 47.9247L282.646 65.4278L304.742 86.6156L309.345 107.803L293.694 114.252L290.932 126.228L258.71 168.604L249.503 178.737H240.297L239.376 187.949H232.932L226.487 201.767L231.091 218.349L230.17 225.719L238.456 246.907H234.773V258.882L231.091 266.252L234.773 274.543L232.011 279.149L254.107 292.967L259.63 289.282L264.234 303.1L268.837 299.416L271.599 304.943L287.249 301.258L314.869 286.519L347.091 280.991L388.52 242.3L416.139 200.846V187.028L405.091 173.21L395.885 160.313L401.408 137.282L393.123 127.149L392.202 114.252L386.678 113.331V93.9853L393.123 71.8762L376.551 20.2884L391.281 -10.1116L379.313 -34.9843L364.583 -48.8025L367.345 -70.9116L364.583 -72.754L373.789 -81.9661L370.107 -89.3358L378.392 -100.39L376.551 -116.051L355.377 -134.475L318.551 -120.657L314.869 -108.681L313.027 -79.2025L293.694 -62.6207L281.726 -72.754L271.599 -63.5419L254.107 -67.2268L232.011 -96.7055L227.408 -93.9419L229.249 -87.4934L220.043 -83.8086Z" fill="white" stroke="#9C9B9B" stroke-width="0.5"/>
<path d="M257.791 339.028L244.902 342.712L251.347 349.161L260.553 344.555L257.791 339.028Z" fill="white" stroke="#9C9B9B" stroke-width="0.5"/>
<path d="M262.393 352.846L241.219 356.531V363.9L245.822 367.585V374.955L250.425 363.9L266.996 358.373L262.393 352.846Z" fill="white" stroke="#9C9B9B" stroke-width="0.5"/>
<path d="M346.171 388.773L345.25 386.01L351.694 378.64L350.774 373.113L347.091 369.428L345.25 362.058L342.488 361.137L337.885 342.713L352.615 338.107L359.98 326.131L359.06 315.998L354.456 312.313L352.615 323.367L349.853 324.288L310.266 315.998L271.599 332.579L269.758 345.476L276.202 348.24L271.599 351.925L275.282 362.058L290.012 361.137L288.171 378.64L306.583 373.113L321.314 379.561L329.599 388.773L339.726 386.931L346.171 388.773Z" fill="white" stroke="#9C9B9B" stroke-width="0.5" stroke-linecap="round" stroke-linejoin="round"/>
<path d="M225.566 433.913L226.487 416.41L239.376 389.695L254.106 382.325L268.836 404.434L282.646 409.04L286.328 399.828L288.17 378.64L306.582 373.113L321.313 379.561L329.598 388.774L339.725 386.931L346.17 388.774L352.614 397.065L350.773 409.962L355.376 412.725L359.979 421.937L360.9 435.755L355.376 436.677L347.09 447.731L339.725 445.889L334.201 452.337L326.836 448.653L312.106 435.755L304.741 434.834L299.217 425.622L288.17 431.149L278.043 427.465L249.503 426.543L236.614 432.071L231.09 437.598L225.566 433.913Z" fill="white" stroke="#9C9B9B" stroke-width="0.5" stroke-linecap="round" stroke-linejoin="round"/>
<path d="M259.633 491.028L262.395 478.131L258.712 470.762L245.823 468.919L231.093 462.471V464.313L229.252 474.446L220.046 471.683L222.807 467.077L208.998 473.525L201.633 489.186L226.49 492.871L259.633 491.028Z" fill="white" stroke="#9C9B9B" stroke-width="0.5" stroke-linecap="round" stroke-linejoin="round"/>
<path d="M259.63 491.028L262.392 478.131L258.709 470.761L245.82 468.919L231.09 462.47L225.566 433.913L231.09 437.598L236.614 432.07L249.503 426.543L278.043 427.464L288.17 431.149L299.217 425.622L304.741 434.834L312.106 435.755L326.836 448.652L334.201 452.337L328.678 456.022V460.628L334.201 462.47L331.44 467.998L317.63 473.525L313.027 491.028L316.709 498.398L313.947 499.319L307.503 494.713L298.297 499.319L299.217 503.925L273.439 505.768L272.519 501.161L259.63 491.028Z" fill="white" stroke="#9C9B9B" stroke-width="0.5" stroke-linecap="round" stroke-linejoin="round"/>
<path d="M271.599 574.858L272.52 562.883L266.996 554.592L278.044 541.695L273.441 505.768L299.218 503.925L298.298 499.319L307.504 494.713L313.949 499.319L316.71 498.398L313.028 491.028L317.631 473.525L331.441 467.998L334.203 462.471L328.679 460.628V456.022L334.203 452.337L339.726 445.889L347.091 447.731L355.377 436.677L360.901 435.755L361.822 437.598L379.314 440.361L382.996 443.125L382.076 449.574L396.806 444.968L409.695 453.258L408.774 461.549L411.536 467.077L408.774 478.131L418.901 496.555L425.346 502.083L426.266 509.452L434.552 508.531L439.155 510.374L440.076 514.98L442.838 515.901V520.507L432.711 528.798L420.742 525.113L416.139 529.719L419.822 535.246L425.346 559.198L411.536 561.961L406.012 567.489L404.171 580.386L400.488 583.149L396.806 580.386L383.917 582.228L376.552 574.858L371.028 581.307L359.98 575.78L350.774 580.386L348.012 575.78H343.409L337.885 570.252L317.631 564.725L293.695 565.646L289.091 571.173L271.599 574.858Z" fill="white" stroke="#9C9B9B" stroke-width="0.5" stroke-linecap="round" stroke-linejoin="round"/>
<path d="M358.14 743.441L365.505 740.677L367.346 735.15L373.791 727.78L376.553 717.647H392.203V707.513L386.68 702.907L383.918 692.774L377.473 688.168V675.271L368.267 670.665L360.902 671.586L346.172 663.295L336.045 664.216L331.441 669.743L342.489 680.798L355.378 707.513L358.14 743.441Z" fill="white" stroke="#9C9B9B" stroke-width="0.5" stroke-linecap="round" stroke-linejoin="round"/>
<path d="M331.442 669.743L299.22 680.798L291.855 676.192L259.632 677.113L247.664 665.137L253.188 645.792H257.791V636.58L263.315 623.683L281.728 603.416L271.601 574.858L289.093 571.174L293.696 565.646L317.632 564.725L337.886 570.252L343.41 575.78H348.013L350.775 580.386L359.982 575.78L371.029 581.307L376.553 574.858L383.918 582.228L396.807 580.386L400.49 583.149L404.172 580.386L406.014 567.489L411.537 561.961L425.347 559.198L429.95 561.961L437.315 553.671L461.252 552.749L472.299 567.489V570.252L467.696 572.095L470.458 582.228L479.664 585.913L485.188 584.992L489.791 591.44L490.712 603.416L494.395 608.022H504.522L508.204 611.707H512.807L525.696 607.101L537.664 620.919L544.109 619.077L552.395 624.604L557.919 623.683L576.331 631.974L574.49 633.816L577.252 641.186L574.49 645.792L568.966 647.634L575.411 652.24L568.966 655.925L569.887 666.059L572.649 666.98L568.966 680.798H558.839L554.236 678.034L548.712 684.483L544.109 686.325L541.347 690.931L542.268 701.065L496.236 713.962L487.95 722.252L484.268 717.646L479.664 725.937V731.465L475.982 725.937L472.299 730.543L465.855 721.331L464.934 725.937L459.41 725.016L466.775 732.386L474.141 731.465L472.299 736.071L479.664 738.834L483.347 748.046L510.966 744.362L508.204 754.495L490.712 752.653L463.093 771.077L452.966 767.392V752.653L437.315 745.283L460.331 731.465L457.569 728.701L424.426 725.016L428.109 720.41L420.744 717.646H431.791L425.347 710.277L404.172 716.725L400.49 725.937L393.125 720.41L397.728 729.622L386.68 739.756L383.918 734.228L382.998 744.362L364.585 748.046L358.14 743.44L365.506 740.677L367.347 735.15L373.791 727.78L376.553 717.646H392.204V707.513L386.68 702.907L383.918 692.774L377.474 688.168V675.271L368.267 670.665L360.902 671.586L346.172 663.295L336.045 664.216L331.442 669.743Z" fill="white" stroke="#9C9B9B" stroke-width="0.5" stroke-linecap="round" stroke-linejoin="round"/>
<path d="M227.407 857.671L229.248 865.041L212.677 886.229L196.105 867.804H198.867L197.947 845.695L201.629 835.562L196.105 832.798L198.867 818.98L203.471 814.374L206.437 815.091L211.756 817.138L220.963 827.271L218.201 845.695L227.407 857.671Z" fill="white" stroke="#9C9B9B" stroke-width="0.5"/>
<path d="M227.409 857.67L218.203 845.694L220.965 827.27L234.979 818.365L253.187 818.979V823.585L260.552 830.034L263.314 845.694L227.409 857.67Z" fill="white" stroke="#9C9B9B" stroke-width="0.5"/>
<path d="M367.344 785.816L336.042 777.525L308.423 789.501L264.233 785.816L260.55 782.131L263.312 777.525L258.709 776.604L253.185 778.446L251.344 785.816L253.185 793.186L260.55 803.319L253.185 815.295V818.979V823.586L260.55 830.034L263.312 845.695L290.01 840.167L309.344 848.458L314.868 845.695L321.312 842.01V835.561H324.074L339.725 830.034L355.376 831.876L346.169 818.058L352.614 811.61L354.455 802.398L363.661 795.028L367.344 785.816Z" fill="white" stroke="#9C9B9B" stroke-width="0.5"/>
<path d="M3092.43 170.446L3089.67 151.101L3082.3 149.258L3086.91 146.495L3082.3 135.44L3079.54 140.046L3068.49 133.598L3066.65 118.858H3081.38L3086.91 126.228L3109.92 107.804L3113.61 104.119L3126.49 84.7734L3116.37 69.1129L3114.53 58.0583L3125.57 57.1371V48.8461H3128.34L3132.94 57.1371L3140.3 47.925V58.9796L3132.02 59.9007L3141.22 83.8523L3177.13 81.0886L3187.26 87.5371V105.961L3197.38 117.016L3205.67 118.858L3203.83 117.016L3210.27 115.173L3208.43 117.937L3219.48 123.464L3222.24 132.676L3227.76 129.913L3229.61 135.44L3234.21 124.386L3233.29 136.361L3240.65 139.125L3242.49 131.755L3238.81 129.913L3252.62 131.755L3241.57 121.622L3246.18 117.937L3238.81 117.016L3257.23 105.04L3247.1 96.7492H3255.38L3260.91 85.6947L3274.72 86.6159L3270.11 78.325V70.9553L3283.92 81.0886L3284.84 67.2704L3301.42 58.9796L3284.84 54.3734L3286.69 49.7674L3263.67 21.2098L3236.97 19.3674L3234.21 26.7371L3232.37 21.2098L3236.05 16.6038L3226.84 11.9976L3225 17.525L3213.03 15.6826L3220.4 19.3674L3219.48 35.028L3226.84 39.6341L3222.24 48.8461L3223.16 40.5553L3209.35 29.5007L3203.83 0.943115L3206.59 -0.899292L3196.46 -14.7175L3187.26 -16.5599L3196.46 -1.8205L3177.13 -14.7175L3183.57 -21.166L3167 -25.772L3169.76 -29.4569L3168.84 -34.0629L3160.56 -39.5902L3148.59 -41.4326L3145.83 -50.6448L3135.7 -54.3296L3132.94 -65.3842L3119.13 -71.8326L3112.69 -74.5963L3084.15 -99.469L3042.72 -122.499L2990.24 -121.578L2946.97 -133.554L2939.61 -130.79V-116.051L2933.16 -109.602L2942.37 -107.76L2950.65 -83.8083L2929.48 -66.3054L2900.94 -89.3356L2898.18 -107.76L2891.73 -117.893L2874.24 -103.154L2841.1 -107.76L2823.61 -118.814L2794.14 -115.13L2772.97 -98.5478V-106.839L2744.43 -120.657L2750.88 -142.766L2749.95 -152.899L2729.7 -181.457L2654.21 -183.299L2615.54 -173.166L2601.73 -182.378L2611.86 -194.354L2598.05 -209.093L2582.4 -207.251L2573.19 -219.227L2551.1 -222.911L2559.38 -235.808L2569.51 -233.045L2564.91 -250.548L2559.38 -255.154L2407.48 -292.002L2402.87 -286.475L2408.4 -275.421L2382.62 -244.099L2385.38 -233.045L2381.7 -226.596L2387.22 -210.014L2377.1 -213.699L2350.4 -192.511L2307.13 -220.148L2297 -219.227L2293.32 -203.566L2272.14 -208.172L2255.57 -240.414L2243.6 -214.621L2242.68 -194.354L2229.79 -167.639L2223.35 -180.536L2204.94 -186.984L2189.29 -221.99L2184.68 -220.148L2182.84 -235.808L2197.57 -251.469L2195.73 -253.311L2198.49 -264.366L2192.05 -277.263L2196.65 -301.214L2172.72 -330.693L2151.54 -336.221L2145.1 -327.93L2094.46 -355.566L2092.62 -346.354L2085.25 -349.117L2081.57 -329.772L2087.1 -310.427L2082.49 -304.899L2043.83 -297.53L1997.79 -312.269L1995.95 -328.851L2004.24 -332.536L1945.32 -346.354L1906.65 -333.457L1920.46 -321.481L1904.81 -315.033L1899.29 -315.954L1906.65 -321.481L1901.13 -323.324L1902.97 -341.748L1892.84 -366.621L1893.76 -351.881L1887.32 -345.433L1866.14 -352.802L1864.3 -362.014L1867.98 -366.621L1856.94 -358.33L1843.13 -366.621L1833 -352.802L1836.68 -339.905L1852.33 -351.881L1858.78 -343.59L1836.68 -328.851L1825.64 -336.221L1831.16 -327.93L1827.48 -324.245L1798.02 -310.427L1776.84 -312.269L1775.92 -308.584V-299.372L1783.29 -292.924L1770.4 -299.372L1760.27 -292.924L1790.65 -339.905L1809.06 -338.984L1850.49 -398.863L1875.35 -409.917V-419.13L1886.4 -421.893L1882.71 -425.578L1899.29 -435.711L1910.33 -454.136L1907.57 -466.111L1910.33 -470.717L1895.6 -475.324L1887.32 -492.827L1904.81 -475.324L1912.17 -490.984L1911.25 -500.196H1906.65L1899.29 -523.227L1893.76 -512.172L1888.24 -522.305L1891.92 -529.675L1861.54 -560.996L1809.06 -563.76L1794.33 -540.73H1772.24L1790.65 -563.76L1794.33 -575.736L1792.49 -582.184L1763.95 -585.869L1764.87 -595.081L1739.1 -579.421L1770.4 -610.742L1764.87 -628.245L1735.41 -642.063L1715.16 -634.693L1684.78 -590.475L1676.49 -569.287L1685.7 -555.469L1681.1 -557.311V-548.099L1639.67 -541.651L1657.16 -524.148L1654.4 -507.566L1647.03 -514.936L1635.98 -525.99L1617.57 -512.172L1620.33 -503.881L1597.32 -495.59L1599.16 -503.881L1594.56 -505.724L1582.59 -495.59L1589.03 -513.093L1583.51 -516.778L1531.03 -509.408V-502.039L1542.08 -502.96L1540.24 -494.669L1464.75 -467.954L1442.65 -441.239H1423.32L1437.13 -434.79L1427 -430.184L1420.56 -409.917L1404.9 -421.893L1401.22 -410.839L1417.79 -402.548L1403.98 -389.651L1418.71 -382.281L1423.32 -369.384L1417.79 -367.542L1418.71 -358.33L1316.52 -339.905L1308.24 -336.221L1312.84 -330.693L1303.63 -321.481L1308.24 -318.717L1303.63 -312.269L1316.52 -295.687L1312.84 -283.711L1315.6 -268.051L1340.46 -255.154L1341.38 -250.548L1339.54 -245.021L1361.63 -232.124L1364.4 -218.305L1357.95 -198.039L1365.32 -164.875V-149.214L1355.19 -144.608L1356.11 -133.554L1339.54 -144.608L1341.38 -168.56L1339.54 -194.354L1353.35 -205.408L1357.95 -221.99L1325.73 -225.675L1312.84 -244.099L1285.22 -262.524L1252.08 -251.469L1251.16 -245.021L1263.13 -240.414L1247.48 -225.675L1240.11 -223.833L1232.75 -238.572L1225.38 -234.887L1230.9 -216.463L1253 -199.881L1260.36 -205.408L1269.57 -181.457L1214.33 -203.566L1210.65 -208.172L1216.17 -210.014V-219.227L1210.65 -241.336L1218.02 -256.996L1215.25 -271.736L1218.02 -273.578L1207.89 -292.924L1202.36 -291.081L1206.97 -256.996L1177.51 -232.124L1171.06 -214.621L1194.08 -166.717L1181.19 -122.499L1187.63 -102.233L1184.87 -88.4144L1208.81 -81.0447L1226.3 -89.3356L1254.84 -70.9114L1264.05 -42.3538L1253.92 -34.9841L1253 -17.4811L1276.94 -8.26904L1256.68 -6.42657L1247.48 -15.6387L1251.16 -37.7478L1247.48 -42.3538L1249.32 -52.4872L1239.19 -63.5417L1235.51 -76.4387L1198.68 -65.3842L1194.08 -47.8811L1202.36 -28.5357L1201.44 -13.7963L1187.63 2.78552L1179.35 24.8947L1159.09 37.7917L1157.25 52.531L1153.57 53.4523L1118.59 47.925L1116.75 32.2644L1113.06 28.5795L1125.03 31.3431L1151.73 20.2886L1141.6 10.1553L1155.41 11.9976L1164.62 -8.26904L1171.98 -14.7175V-34.9841L1178.43 -48.8023V-58.0145L1160.94 -79.2023L1164.62 -121.578L1160.02 -144.608L1165.54 -151.978L1166.46 -176.851L1162.78 -195.275L1148.05 -212.778L1164.62 -254.233L1162.78 -284.633L1104.78 -297.53L1096.49 -277.263L1087.28 -229.36L1058.75 -199.881L1055.98 -186.984H1063.35L1054.14 -173.166L1069.79 -167.639L1065.19 -145.53L1067.95 -134.475L1060.59 -131.711L1059.67 -109.602L1082.68 -104.075L1081.76 -97.6266L1089.13 -78.2811L1100.17 -70.9114L1085.44 -38.669L1063.35 -69.069L1009.95 -105.917L956.554 -121.578L940.904 -109.602L952.872 -84.7296L950.11 -72.7538L932.618 -62.6205L934.459 -51.566L927.094 -44.1963L919.729 -50.6448L925.253 -63.5417L914.205 -79.2023L886.586 -54.3296L852.522 -56.1721L838.713 -35.9053L825.824 -44.1963L823.983 -57.0933L827.665 -67.2266L821.221 -69.9902L835.03 -76.4387L814.776 -71.8326L812.014 -66.3054L812.935 -59.8569L809.253 -58.0145L803.729 -65.3842L797.284 -57.0933L800.967 -54.3296L797.284 -45.1175L791.761 -53.4084L783.475 -51.566L718.11 -8.26904L711.665 10.1553V19.3674L692.332 35.028L690.49 24.8947L680.364 25.8159L662.871 -1.8205L669.316 -14.7175L692.332 -20.2448L687.729 -37.7478L676.681 -51.566L631.57 -61.6993L647.221 -44.1963L646.3 -16.5599L641.697 3.70679L654.586 20.2886L646.3 50.6886L647.221 69.1129L640.776 58.0583L634.332 61.7432L637.094 52.531L614.078 40.5553L598.427 61.7432L569.887 81.0886L570.808 93.9856L588.3 130.834L545.03 117.016L538.585 124.386L536.744 117.937L542.268 115.173L516.49 100.434L509.125 112.41L511.887 120.701L523.855 135.44L533.982 131.755L540.427 154.786L527.538 159.392L503.601 149.258L492.554 135.44L475.062 131.755L479.665 124.386L478.744 113.331L469.538 93.9856L475.982 89.3796L477.823 69.1129L426.268 15.6826L434.554 11.9976L453.887 30.4219L470.458 31.3431L471.379 39.6341L551.474 59.9007L572.649 50.6886L593.824 28.5795L597.506 11.9976L591.982 8.31281L590.141 -11.0327L570.808 -33.1417L544.109 -42.3538L497.157 -87.4932L452.046 -89.3356L448.363 -98.5478L442.839 -93.9417L443.76 -99.469L426.268 -106.839L429.03 -116.051L442.839 -107.76L446.522 -116.051L424.427 -126.184L425.347 -117.893L422.585 -118.814L419.823 -111.445L406.014 -117.893V-107.76L394.966 -111.445L392.204 -100.39L373.792 -81.9659L364.585 -72.7538L367.347 -70.9114L364.585 -48.8023L379.315 -34.9841L391.284 -10.1115L376.553 20.2886L393.125 71.8765L386.68 93.9856V113.331L392.204 114.252L393.125 127.149L401.411 137.283L395.887 160.313L405.093 173.21L416.141 187.028V200.846L388.522 242.301L347.093 280.992L364.585 277.307V287.44L360.903 283.755L363.665 292.046L386.68 297.573L394.966 305.864L373.792 304.943L359.061 315.998L359.982 326.131L352.617 338.107L337.887 342.713L342.49 361.137L345.252 362.058L347.093 369.428L350.776 373.113L351.696 378.64L345.252 386.01L346.172 388.773L352.617 397.064L350.776 409.961L355.379 412.725L359.982 421.937L360.903 435.755L361.823 437.598L379.315 440.361L382.998 443.125L382.077 449.573L396.807 444.967L409.696 453.258L408.776 461.549L411.538 467.076L408.776 478.131L418.903 496.555L425.347 502.083L426.268 509.452L434.554 508.531L439.157 510.373L440.077 514.98L442.839 515.901V520.507L432.712 528.798L420.744 525.113L416.141 529.719L419.823 535.246L425.347 559.198L429.95 561.961L437.315 553.67L461.252 552.749L472.3 567.489V570.252L467.696 572.095L470.458 582.228L479.665 585.913L485.189 584.992L489.792 591.44L490.712 603.416L494.395 608.022H504.522L508.204 611.707H512.808L525.697 607.101L537.665 620.919L544.109 619.076L552.395 624.604L557.919 623.683L576.332 631.973L574.49 633.816L577.252 641.186L574.49 645.792L568.967 647.634L575.411 652.24L568.967 655.925L569.887 666.058L572.649 666.98L568.967 680.798H558.839L554.236 678.034L548.712 684.482L544.109 686.325L541.347 690.931L542.268 701.064L556.998 697.379L560.681 701.986L544.109 707.513L545.03 711.198L533.062 712.119L531.22 715.804L545.03 726.858L534.903 729.622L525.697 745.282H515.57L511.887 749.888L524.776 763.707L529.379 762.786L549.633 775.682L568.967 793.186L584.617 791.343L604.871 798.713L626.046 799.634L645.379 814.373L658.268 809.767L667.475 811.61L676.681 816.216V823.586L689.57 830.955L702.459 839.246L705.221 846.616L716.268 847.537L725.475 834.64L722.713 831.876L708.903 804.24L709.824 783.973L707.983 790.422L701.538 776.604L692.332 766.47L704.3 748.046L706.141 736.07L708.903 737.913L710.745 725.937L707.983 721.331L714.427 722.252L719.951 734.228L728.237 723.173L736.522 720.41L728.237 714.882L725.475 713.961L726.395 709.355H736.522L729.157 690.931L722.713 682.64L707.983 680.798V683.561L704.3 679.876L701.538 667.901L692.332 664.216L696.014 650.398L702.459 644.87L697.856 639.343L700.617 623.683L707.062 619.076L709.824 606.18L726.395 627.367L734.681 620.919L729.157 603.416L733.76 602.495L742.967 596.967L744.808 589.598L759.538 584.07L766.903 573.937L777.951 572.095L779.792 577.622L784.395 576.701L786.237 578.543L789.919 571.174L795.443 570.252H798.205L801.887 577.622H819.38L835.951 596.967L837.792 605.258L840.554 604.337V592.361L843.316 591.44L848.84 599.731L858.967 604.337L871.856 593.283L877.38 594.204V591.44L884.745 590.519L891.189 596.046L897.634 590.519L904.999 589.598L909.602 590.519L915.126 602.495H926.173H925.253L927.094 606.18H932.618L938.142 596.967L947.348 602.495L962.078 598.81L967.602 583.149L954.713 579.464L951.951 574.858L943.666 573.016L942.745 568.41L937.221 566.567V564.725L953.792 555.513L955.634 549.986L949.189 541.695L956.554 534.325H973.126L976.808 531.561L970.364 526.034L959.316 525.113L958.396 519.586L964.84 516.822L962.999 514.98L955.634 515.901L958.396 508.531L954.713 504.846L963.919 502.083L965.761 504.846L981.412 503.925L983.253 506.689L986.015 502.083H994.3L1003.51 495.634L1010.87 498.398L1011.79 495.634L1019.16 492.87H1029.28L1032.05 485.501L1045.86 482.737L1085.44 473.525L1087.28 466.155L1091.89 465.234L1100.17 459.707L1112.14 461.549L1121.35 467.076L1130.55 463.392L1135.16 466.155L1137 479.052L1141.6 482.737L1140.68 490.107L1137 494.713L1139.76 499.319L1155.41 497.477L1156.33 491.949L1159.09 492.87L1162.78 499.319L1161.86 504.846H1166.46L1164.62 501.161L1166.46 500.24L1178.43 505.767L1184.87 502.083L1185.79 507.61L1181.19 509.452L1178.43 514.98L1180.27 519.586L1189.48 514.98L1199.6 517.743V513.137L1211.57 508.531L1219.86 498.398L1227.22 497.477L1241.03 491.028L1242.87 495.634L1236.43 499.319V503.925L1262.21 526.034L1301.79 598.81L1306.4 595.125L1311 585.913L1313.76 584.992L1322.05 590.519L1321.13 593.283L1325.73 600.652H1347.82L1350.59 596.046H1355.19L1358.87 592.361L1363.48 594.204L1376.36 603.416L1378.21 614.47L1387.41 618.155L1388.33 622.761L1394.78 631.052L1413.19 635.658L1415.95 631.052L1420.56 629.21L1430.68 644.87L1424.24 653.161L1432.52 655.925L1438.97 651.319L1448.17 638.422L1491.44 612.628L1512.62 605.258L1556.81 609.864L1567.86 621.84H1621.25L1624.94 619.998L1623.1 608.943L1626.78 602.495L1622.17 581.307L1647.03 560.119L1695.83 579.464L1700.43 601.573L1714.24 611.707L1726.21 615.392L1751.98 603.416L1763.03 606.18L1805.38 627.367L1819.19 638.422L1843.13 643.028L1858.78 645.792L1896.52 634.737L1925.06 616.313L1945.32 625.525L1958.21 623.683L1984.91 634.737L2009.76 619.998L2011.6 609.864L2022.65 578.543L2037.38 565.646L2036.46 551.828H2023.57L2025.41 546.301L2040.14 529.719L2089.86 522.349L2104.59 532.482L2126.68 537.089L2140.49 556.434L2143.25 573.016L2154.3 597.889L2160.75 632.895L2191.13 638.422L2215.99 652.24L2220.59 665.137V676.192L2226.11 685.404L2243.6 686.325L2293.32 665.137L2290.56 670.664L2292.4 689.089L2284.11 697.379L2274.91 728.701L2262.94 753.573L2258.33 757.258L2239.92 750.81L2224.27 765.549L2228.87 778.446V798.713L2216.91 812.531V818.058L2218.75 822.664L2220.59 821.743L2219.67 817.137H2228.87L2239.92 796.87L2243.6 805.161L2249.13 800.555V811.61L2265.7 815.294L2279.51 811.61L2297.92 796.87L2353.16 726.858L2362.37 706.591L2377.1 683.561L2393.67 665.137L2400.11 621.84L2396.43 602.495L2402.87 582.228L2413.92 560.119L2408.4 553.67L2410.24 547.222L2408.4 538.01L2413 526.955L2394.59 513.137L2384.46 496.555L2364.21 495.634V511.295L2357.76 519.586L2358.68 511.295L2354.08 514.98L2338.43 518.664L2344.87 509.452L2339.35 502.083L2344.87 495.634L2336.59 499.319V507.61L2329.22 513.137V486.422L2310.81 487.343L2301.6 481.816L2302.52 476.289L2345.79 436.677L2373.41 399.828L2394.59 382.325L2402.87 365.743L2428.65 338.107L2445.22 328.895L2487.57 326.131L2497.7 335.343L2505.07 325.21L2524.4 332.579L2539.13 327.052L2543.73 333.501L2548.33 332.579L2546.49 326.131L2552.94 324.289L2552.02 316.919L2555.7 315.076L2585.16 325.21L2594.37 320.604L2608.18 330.737L2589.76 338.107L2594.37 345.477L2615.54 339.949L2621.07 343.634L2634.87 333.501L2657.89 336.264L2662.49 334.422L2661.57 328.895L2645 324.289L2647.76 319.683L2645 311.392H2648.68L2656.97 293.889L2677.22 277.307L2700.24 242.301L2732.46 233.089L2748.11 242.301L2758.24 232.167L2754.56 246.907L2749.03 256.119L2750.88 262.567L2748.11 269.016L2758.24 268.095L2753.64 283.755L2794.14 244.143L2801.51 241.38L2806.11 247.828L2809.8 242.301L2805.19 237.695L2806.11 224.798L2815.32 209.137L2830.97 203.61L2841.1 210.058L2840.18 213.743L2826.37 222.034L2823.61 242.301L2819.92 247.828V258.883L2815.32 264.41L2818.08 271.78L2785.86 288.361L2783.1 297.573L2759.16 321.525L2721.41 372.192L2703.92 382.325L2693.8 381.404L2697.48 391.537L2692.87 406.277L2676.3 419.173L2670.78 459.707L2671.7 485.501L2692.87 596.967L2718.65 569.331L2725.1 537.089L2745.35 528.798L2749.95 531.561L2749.03 504.846L2767.45 487.343L2778.49 490.107L2787.7 482.737L2780.34 457.864L2784.94 444.046L2794.14 435.755L2791.38 430.228L2803.35 424.701L2798.75 434.834L2804.27 443.125L2809.8 433.913L2808.88 421.937L2800.59 418.252L2799.67 403.513L2808.88 382.325L2798.75 376.798L2790.46 384.167L2786.78 378.64L2787.7 367.586L2803.35 338.107H2807.95L2814.4 310.47L2822.68 305.864L2826.37 310.47L2832.81 303.101L2841.1 311.392L2845.7 297.573L2861.35 286.519L2864.11 289.283L2863.19 311.392L2877 289.283L2898.18 280.992L2920.27 286.519L2937.76 306.786L2941.45 288.361L2969.99 270.858L2969.07 264.41L2975.51 266.252L2974.59 260.725L2989.32 252.434L2994.84 240.458L3002.21 243.222L3022.46 231.246L3024.3 223.877L3062.05 209.137L3058.37 195.319L3066.65 207.295L3070.34 203.61L3095.19 216.507L3104.4 200.846L3095.19 188.87L3102.56 187.949L3092.43 170.446Z" fill="white" stroke="#9C9B9B" stroke-width="0.5"/>
<path d="M273.441 505.767L278.045 541.695L266.997 554.592L272.521 562.882L271.6 574.858L281.727 603.416L263.314 623.682L257.791 636.579V645.792H253.187L234.775 636.579L207.156 642.107L198.87 633.816L190.584 636.579L181.378 631.052L167.568 619.076L166.648 612.628L152.838 609.864L149.156 615.392L134.425 599.731L120.616 592.361L112.33 596.967L116.013 581.307L110.489 573.937L106.806 542.616L102.203 538.931L105.886 524.192L102.203 510.373L107.727 513.137L109.568 508.531L104.044 507.61L106.806 504.846L158.362 479.973L184.14 478.131L185.981 483.658L180.457 481.816L185.981 494.713L201.632 489.186L226.489 492.87L259.632 491.028L272.521 501.161L273.441 505.767Z" fill="white" stroke="#FFBB00" stroke-width="3"/>
</g>
<g filter="url(#filter0_f_399_448)">
<ellipse cx="197.479" cy="280.997" rx="288.231" ry="177.945" transform="rotate(7.2885 197.479 280.997)" fill="white"/>
</g>
<path d="M127.591 595.415V596.36H128.893V598.719C128.893 599.272 128.466 599.44 127.941 599.44C127.577 599.44 127.199 599.342 126.926 599.174V600.154C127.234 600.294 127.703 600.406 128.193 600.406C129.131 600.406 129.943 599.993 129.943 598.838V595.415H127.591ZM130.955 595.415V600.315H134.448V599.391H132.005V598.299H134.196V597.382H132.005V596.339H134.406V595.415H130.955ZM135.282 595.415V600.315H138.733V599.37H136.332V595.415H135.282ZM139.35 595.415V600.315H142.843V599.391H140.4V598.299H142.591V597.382H140.4V596.339H142.801V595.415H139.35ZM144.727 600.315V597.788C144.727 597.564 144.72 597.319 144.706 597.116L146.988 600.315H147.975V595.415H146.925V597.942C146.925 598.166 146.932 598.411 146.946 598.614L144.664 595.415H143.677V600.315H144.727ZM149.023 595.415V600.315H150.073V595.415H149.023ZM151.702 600.315L152.066 599.398H154.306L154.663 600.315H155.748L153.753 595.415H152.619L150.617 600.315H151.702ZM153.074 596.773C153.116 596.675 153.151 596.577 153.186 596.388C153.221 596.577 153.256 596.675 153.291 596.773L153.977 598.53H152.395L153.074 596.773ZM131.082 604.865C131.082 606.664 132.405 607.413 133.777 607.413C134.323 607.413 134.883 607.294 135.373 607.084V604.655H134.372V606.405C134.225 606.461 134.043 606.496 133.833 606.496C133.112 606.496 132.153 606.167 132.153 604.865C132.153 603.717 133.014 603.255 133.889 603.255C134.386 603.255 134.883 603.388 135.254 603.633V602.632C134.799 602.429 134.274 602.317 133.749 602.317C132.405 602.317 131.082 603.087 131.082 604.865ZM135.99 604.865C135.99 606.195 136.858 607.413 138.594 607.413C140.33 607.413 141.198 606.195 141.198 604.865C141.198 603.535 140.33 602.317 138.594 602.317C136.858 602.317 135.99 603.535 135.99 604.865ZM140.12 604.865C140.12 605.726 139.609 606.44 138.594 606.44C137.572 606.44 137.061 605.726 137.061 604.865C137.061 604.004 137.572 603.29 138.594 603.29C139.609 603.29 140.12 604.004 140.12 604.865ZM143.028 607.315V605.6H143.798L145.121 607.315H146.332L144.869 605.467C145.464 605.278 145.94 604.851 145.94 604.011C145.94 602.772 144.946 602.415 143.994 602.415H141.978V607.315H143.028ZM143.028 603.339H144.043C144.484 603.339 144.869 603.528 144.869 604.032C144.869 604.529 144.484 604.725 144.043 604.725H143.028V603.339ZM147.501 607.315L147.865 606.398H150.105L150.462 607.315H151.547L149.552 602.415H148.418L146.416 607.315H147.501ZM148.873 603.773C148.915 603.675 148.95 603.577 148.985 603.388C149.02 603.577 149.055 603.675 149.09 603.773L149.776 605.53H148.194L148.873 603.773Z" fill="black"/>
<path fill-rule="evenodd" clip-rule="evenodd" d="M140.727 592.977C138.92 592.977 136.051 589.834 136.051 586.492C136.051 583.875 138.144 581.754 140.727 581.754C143.31 581.754 145.404 583.875 145.404 586.492C145.404 589.834 142.534 592.977 140.727 592.977Z" stroke="#1F1C1C" stroke-width="1.5" stroke-linecap="round" stroke-linejoin="round"/>
<path fill-rule="evenodd" clip-rule="evenodd" d="M142.293 586.561C142.293 585.7 141.596 585.002 140.734 585.002C139.874 585.002 139.176 585.7 139.176 586.561C139.176 587.422 139.874 588.12 140.734 588.12C141.596 588.12 142.293 587.422 142.293 586.561Z" stroke="#1F1C1C" stroke-width="1.5" stroke-linecap="round" stroke-linejoin="round"/>
<path fill-rule="evenodd" clip-rule="evenodd" d="M168.95 574.87C168.95 574.009 168.252 573.311 167.391 573.311C166.53 573.311 165.832 574.009 165.832 574.87C165.832 575.731 166.53 576.429 167.391 576.429C168.252 576.429 168.95 575.731 168.95 574.87Z" stroke="#FFBB00" stroke-width="1.5" stroke-linecap="round" stroke-linejoin="round"/>
<path fill-rule="evenodd" clip-rule="evenodd" d="M167.383 581.286C165.576 581.286 162.707 578.143 162.707 574.801C162.707 572.184 164.8 570.063 167.383 570.063C169.966 570.063 172.06 572.184 172.06 574.801C172.06 578.143 169.191 581.286 167.383 581.286Z" stroke="#FFBB00" stroke-width="1.5" stroke-linecap="round" stroke-linejoin="round"/>
<path d="M154.533 585.1L153.56 588.803L152.503 585.1H151.579L150.522 588.803L149.549 585.1H148.415L149.927 590H151.068L152.041 586.661L153.014 590H154.155L155.667 585.1H154.533ZM157.309 590V588.285H158.079L159.402 590H160.613L159.15 588.152C159.745 587.963 160.221 587.536 160.221 586.696C160.221 585.457 159.227 585.1 158.275 585.1H156.259V590H157.309ZM157.309 586.024H158.324C158.765 586.024 159.15 586.213 159.15 586.717C159.15 587.214 158.765 587.41 158.324 587.41H157.309V586.024ZM160.86 587.55C160.86 588.88 161.728 590.098 163.464 590.098C165.2 590.098 166.068 588.88 166.068 587.55C166.068 586.22 165.2 585.002 163.464 585.002C161.728 585.002 160.86 586.22 160.86 587.55ZM164.99 587.55C164.99 588.411 164.479 589.125 163.464 589.125C162.442 589.125 161.931 588.411 161.931 587.55C161.931 586.689 162.442 585.975 163.464 585.975C164.479 585.975 164.99 586.689 164.99 587.55ZM166.575 587.606C166.575 589.314 167.912 590.098 169.221 590.098C169.739 590.098 170.222 589.986 170.642 589.783V588.754C170.348 589.02 169.886 589.16 169.382 589.16C168.528 589.16 167.646 588.684 167.653 587.606C167.653 586.423 168.521 585.933 169.382 585.933C169.837 585.933 170.292 586.073 170.607 586.318V585.317C170.187 585.107 169.697 585.002 169.207 585.002C167.898 585.002 166.582 585.814 166.575 587.606ZM175.04 590V589.055H172.639V587.879L173.857 587.403V586.549L172.639 587.025V585.1H171.589V587.417L171.029 587.634V588.488L171.589 588.271V590H175.04ZM176.234 590L176.598 589.083H178.838L179.195 590H180.28L178.285 585.1H177.151L175.149 590H176.234ZM177.606 586.458C177.648 586.36 177.683 586.262 177.718 586.073C177.753 586.262 177.788 586.36 177.823 586.458L178.509 588.215H176.927L177.606 586.458ZM186.149 585.1L185.176 588.803L184.119 585.1H183.195L182.138 588.803L181.165 585.1H180.031L181.543 590H182.684L183.657 586.661L184.63 590H185.771L187.283 585.1H186.149Z" fill="#FFBB00"/>
<defs>
<filter id="filter0_f_399_448" x="-189.328" y="0.705898" width="773.613" height="560.582" filterUnits="userSpaceOnUse" color-interpolation-filters="sRGB">
<feFlood flood-opacity="0" result="BackgroundImageFix"/>
<feBlend mode="normal" in="SourceGraphic" in2="BackgroundImageFix" result="shape"/>
<feGaussianBlur stdDeviation="50" result="effect1_foregroundBlur_399_448"/>
</filter>
</defs>
</svg>
