<svg width="197" height="62" viewBox="0 0 197 62" fill="none" xmlns="http://www.w3.org/2000/svg">
<path d="M12.5747 41.4507C8.15469 37.3454 4.6672 30.2676 2.21963 22.509C2.14604 22.046 1.98985 21.4554 2.19102 20.958C3.42362 20.4641 4.5889 18.5679 5.90665 18.3752C9.71078 18.233 13.4197 19.3221 17.2616 18.8436C32.9049 16.6893 48.5421 15.2073 64.0363 15.5793C68.3605 15.3262 72.6891 15.0145 76.9944 15.0387C88.5633 15.2782 100.093 15.968 111.701 15.7348C127.14 16.6776 142.644 16.9242 158.092 17.7538C166.187 19.3043 174.617 18.6779 182.518 21.4689C183.598 22.1998 184.573 23.2839 185.468 24.5282C186.054 25.3241 186.626 26.155 187.174 27.0362C189.426 31.926 192.608 36.0719 193.689 42.5168C193.704 42.8489 193.537 43.189 193.35 43.1639C190.447 41.474 188.421 36.9685 186.412 33.1541C187.15 34.6113 186.164 35.9831 185.229 35.5785C178.434 35.4525 171.759 34.0897 164.988 33.6809C144.721 33.3466 124.572 31.6287 104.251 31.9367C93.4848 31.257 82.6626 31.2134 71.7814 31.9993C57.4961 31.6977 43.067 33.4437 28.6528 35.2831C24.7592 35.7028 20.9344 35.0086 17.0258 35.7182C15.0372 35.7949 14.3571 40.0906 12.5747 41.4507Z" fill="#FFBB00"/>
</svg>
