<svg width="259" height="76" viewBox="0 0 259 76" fill="none" xmlns="http://www.w3.org/2000/svg">
<path d="M16.6507 48.4432C10.7388 43.5273 6.01205 35.119 2.64959 25.9242C2.54476 25.3767 2.32865 24.6772 2.58664 24.0935C4.20875 23.5307 5.71912 21.3119 7.45871 21.1058C12.4873 20.9997 17.41 22.3448 22.483 21.8424C43.1362 19.5536 63.7922 18.0579 84.2892 18.7477C90.0038 18.519 95.7233 18.2213 101.417 18.3195C116.721 18.7894 131.98 19.79 147.328 19.7027C167.761 21.0652 188.269 21.6072 208.711 22.8361C219.442 24.7968 230.581 24.1941 241.075 27.6154C242.515 28.4953 243.822 29.7904 245.025 31.2732C245.814 32.2218 246.584 33.2116 247.323 34.2602C250.38 40.0667 254.655 45.0104 256.189 52.6329C256.215 53.025 255.999 53.4237 255.751 53.391C251.885 51.35 249.132 46.0006 246.413 41.4671C247.414 43.1986 246.131 44.8013 244.889 44.3087C235.901 44.05 227.05 42.334 218.089 41.7419C191.281 41.0194 164.607 38.666 137.738 38.7006C123.488 37.7243 109.175 37.4976 94.7977 38.2488C75.9008 37.6617 56.8468 39.4885 37.8139 41.4256C32.6714 41.8578 27.6019 40.9767 22.4444 41.7508C19.8158 41.8091 18.9858 46.8671 16.6507 48.4432Z" fill="#FFBB00"/>
</svg>
