<svg width="122" height="122" viewBox="0 0 122 122" fill="none" xmlns="http://www.w3.org/2000/svg">
<rect width="122" height="122" rx="10" fill="#1F1C1C"/>
<path fill-rule="evenodd" clip-rule="evenodd" d="M85.3596 39.2938C88.0427 40.0301 90.1557 42.1994 90.8728 44.9543C92.1759 49.9472 92.1759 60.3648 92.1759 60.3648C92.1759 60.3648 92.1759 70.7821 90.8728 75.7754C90.1557 78.5303 88.0427 80.6996 85.3596 81.4362C80.4973 82.7739 60.9981 82.7739 60.9981 82.7739C60.9981 82.7739 41.4989 82.7739 36.6362 81.4362C33.9531 80.6996 31.8401 78.5303 31.123 75.7754C29.8203 70.7821 29.8203 60.3648 29.8203 60.3648C29.8203 60.3648 29.8203 49.9472 31.123 44.9543C31.8401 42.1994 33.9531 40.0301 36.6362 39.2938C41.4989 37.9558 60.9981 37.9558 60.9981 37.9558C60.9981 37.9558 80.4973 37.9558 85.3596 39.2938ZM55.1521 51.5968V71.0829L70.741 61.3403L55.1521 51.5968Z" fill="white"/>
</svg>
