<svg width="480" height="105" viewBox="0 0 480 105" fill="none" xmlns="http://www.w3.org/2000/svg">
<path d="M31.141 68.9762C19.6829 62.0242 10.1003 50.0792 2.98095 36.9991C2.73444 36.2193 2.26665 35.2239 2.69151 34.3888C5.6554 33.5699 8.25558 30.3904 11.4715 30.0791C20.814 29.8775 30.096 31.7468 39.4839 30.9796C77.6801 27.509 115.956 25.1696 154.143 25.9486C164.749 25.5655 175.359 25.0838 185.958 25.167C214.465 25.6843 242.938 26.959 271.476 26.6813C309.606 28.4205 347.798 28.9886 385.934 30.5372C406.076 33.2264 426.737 32.2556 446.576 37.0303C449.337 38.2709 451.89 40.1049 454.267 42.2077C455.824 43.5528 457.348 44.9566 458.82 46.4449C465.053 54.6956 473.47 61.7037 477.04 72.5597C477.125 73.1187 476.762 73.6894 476.297 73.6453C468.914 70.7729 463.291 63.1711 457.808 56.7324C459.831 59.192 457.597 61.4906 455.24 60.8005C438.499 60.5213 421.877 58.1621 405.155 57.4073C355.229 56.6444 305.397 53.5545 255.427 53.872C228.833 52.6219 202.192 52.4416 175.523 53.6565C140.322 53.0079 105.057 55.8035 69.8407 58.7564C60.3172 59.4241 50.8057 58.2181 41.2864 59.3735C36.403 59.4829 35.3356 66.7051 31.141 68.9762Z" fill="#FFBB00"/>
</svg>
