<svg width="26" height="25" viewBox="0 0 26 25" fill="none" xmlns="http://www.w3.org/2000/svg">
<path fill-rule="evenodd" clip-rule="evenodd" d="M0.571289 12.2981C0.571289 5.50606 6.07735 0 12.8694 0C19.6615 0 25.1676 5.50606 25.1676 12.2981C25.1676 19.0902 19.6615 24.5963 12.8694 24.5963C6.07735 24.5963 0.571289 19.0902 0.571289 12.2981ZM12.87 5.73913C11.0887 5.73913 10.8651 5.74692 10.1655 5.77876C9.46725 5.81073 8.99062 5.92128 8.57357 6.08348C8.14218 6.25101 7.77624 6.47511 7.41166 6.83982C7.04681 7.2044 6.82271 7.57034 6.65463 8.0016C6.49202 8.41878 6.38134 8.89555 6.34991 9.59354C6.31862 10.2932 6.31042 10.5169 6.31042 12.2982C6.31042 14.0795 6.31834 14.3024 6.35005 15.002C6.38216 15.7003 6.49271 16.1769 6.65477 16.594C6.82244 17.0254 7.04654 17.3913 7.41125 17.7559C7.77569 18.1207 8.14163 18.3454 8.57275 18.5129C8.99007 18.6751 9.46684 18.7857 10.165 18.8176C10.8646 18.8495 11.088 18.8573 12.8692 18.8573C14.6507 18.8573 14.8736 18.8495 15.5732 18.8176C16.2715 18.7857 16.7486 18.6751 17.166 18.5129C17.5972 18.3454 17.9626 18.1207 18.3271 17.7559C18.6919 17.3913 18.916 17.0254 19.0841 16.5941C19.2453 16.1769 19.356 15.7002 19.3888 15.0022C19.4202 14.3025 19.4284 14.0795 19.4284 12.2982C19.4284 10.5169 19.4202 10.2933 19.3888 9.59368C19.356 8.89541 19.2453 8.41879 19.0841 8.00174C18.916 7.57034 18.6919 7.2044 18.3271 6.83982C17.9622 6.47498 17.5974 6.25087 17.1656 6.08348C16.7474 5.92128 16.2705 5.81073 15.5722 5.77876C14.8726 5.74692 14.6499 5.73913 12.868 5.73913H12.87Z" fill="white"/>
<path fill-rule="evenodd" clip-rule="evenodd" d="M12.2816 6.92113C12.4563 6.92086 12.6511 6.92113 12.87 6.92113C14.6213 6.92113 14.8289 6.92742 15.5205 6.95884C16.16 6.98809 16.507 7.09495 16.7383 7.18472C17.0443 7.30361 17.2626 7.44572 17.492 7.67529C17.7216 7.90485 17.8637 8.12349 17.9828 8.42958C18.0726 8.66051 18.1796 9.0076 18.2087 9.64711C18.2401 10.3385 18.247 10.5462 18.247 12.2967C18.247 14.0472 18.2401 14.2549 18.2087 14.9463C18.1795 15.5858 18.0726 15.9329 17.9828 16.1638C17.864 16.4699 17.7216 16.6879 17.492 16.9173C17.2624 17.1469 17.0445 17.289 16.7383 17.4079C16.5073 17.498 16.16 17.6046 15.5205 17.6339C14.829 17.6653 14.6213 17.6721 12.87 17.6721C11.1186 17.6721 10.9111 17.6653 10.2196 17.6339C9.58012 17.6044 9.23303 17.4975 9.00169 17.4077C8.6956 17.2888 8.47696 17.1467 8.2474 16.9172C8.01783 16.6876 7.87571 16.4695 7.75656 16.1633C7.66678 15.9323 7.55979 15.5853 7.53068 14.9457C7.49925 14.2543 7.49297 14.0466 7.49297 12.2951C7.49297 10.5435 7.49925 10.3369 7.53068 9.64547C7.55992 9.00596 7.66678 8.65887 7.75656 8.42767C7.87544 8.12158 8.01783 7.90294 8.2474 7.67337C8.47696 7.44381 8.6956 7.30169 9.00169 7.18254C9.2329 7.09235 9.58012 6.98576 10.2196 6.95638C10.8247 6.92906 11.0592 6.92086 12.2816 6.91949V6.92113ZM16.3712 8.01021C15.9367 8.01021 15.5841 8.36235 15.5841 8.79702C15.5841 9.23156 15.9367 9.58411 16.3712 9.58411C16.8058 9.58411 17.1583 9.23156 17.1583 8.79702C17.1583 8.36249 16.8058 8.01021 16.3712 8.01021ZM12.87 8.92985C11.0099 8.92985 9.50168 10.438 9.50168 12.2982C9.50168 14.1584 11.0099 15.6659 12.87 15.6659C14.7302 15.6659 16.2379 14.1584 16.2379 12.2982C16.2379 10.438 14.7302 8.92985 12.87 8.92985Z" fill="white"/>
<path fill-rule="evenodd" clip-rule="evenodd" d="M12.87 10.1118C14.0775 10.1118 15.0564 11.0907 15.0564 12.2982C15.0564 13.5056 14.0775 14.4846 12.87 14.4846C11.6625 14.4846 10.6837 13.5056 10.6837 12.2982C10.6837 11.0907 11.6625 10.1118 12.87 10.1118Z" fill="white"/>
</svg>
