<svg width="24" height="25" viewBox="0 0 24 25" fill="none" xmlns="http://www.w3.org/2000/svg">
<path fill-rule="evenodd" clip-rule="evenodd" d="M23.5714 12.2981C23.5714 19.0902 18.2948 24.5963 11.7857 24.5963C5.27666 24.5963 0 19.0902 0 12.2981C0 5.50608 5.27666 0 11.7857 0C18.2948 0 23.5714 5.50608 23.5714 12.2981ZM7.89225 11.1716C6.71162 11.7095 5.49858 12.2622 4.38932 12.8997C3.81011 13.3422 4.57992 13.6553 5.30215 13.9489C5.41696 13.9956 5.53054 14.0418 5.63735 14.0879C5.72624 14.1164 5.81659 14.1464 5.90818 14.1769C6.71142 14.4439 7.60704 14.7417 8.38686 14.2938C9.66787 13.5259 10.8767 12.6382 12.0847 11.7511C12.4805 11.4605 12.8761 11.1699 13.2742 10.8837C13.2929 10.8712 13.3139 10.857 13.3369 10.8415C13.676 10.6121 14.4387 10.0962 14.1566 10.807C13.4895 11.5683 12.7749 12.2421 12.0565 12.9197C11.5723 13.3763 11.0864 13.8346 10.612 14.3225C10.1989 14.6728 9.76982 15.3772 10.2325 15.8677C11.298 16.6461 12.3803 17.4056 13.4618 18.1647C13.8138 18.4117 14.1657 18.6587 14.517 18.9063C15.1122 19.4022 16.0426 19.001 16.1734 18.2261C16.2316 17.8696 16.2901 17.5132 16.3485 17.1567C16.6714 15.1866 16.9945 13.2157 17.2798 11.2392C17.3186 10.9291 17.3626 10.6191 17.4066 10.309C17.5132 9.55719 17.6199 8.80449 17.6533 8.04867C17.5673 7.29438 16.6909 7.46025 16.2031 7.62987C13.6961 8.6253 11.2142 9.69452 8.742 10.7826C8.46194 10.912 8.17806 11.0414 7.89225 11.1716Z" fill="white"/>
</svg>
