<svg width="25" height="25" viewBox="0 0 25 25" fill="none" xmlns="http://www.w3.org/2000/svg">
<circle cx="12.2095" cy="12.0421" r="12.0421" fill="white"/>
<path fill-rule="evenodd" clip-rule="evenodd" d="M16.7378 8.4411C17.2228 8.57419 17.6048 8.96635 17.7345 9.46435C17.9701 10.3669 17.9701 12.2501 17.9701 12.2501C17.9701 12.2501 17.9701 14.1333 17.7345 15.0359C17.6048 15.5339 17.2228 15.9261 16.7378 16.0592C15.8587 16.3011 12.3334 16.3011 12.3334 16.3011C12.3334 16.3011 8.80815 16.3011 7.92902 16.0592C7.44395 15.9261 7.06194 15.5339 6.9323 15.0359C6.69678 14.1333 6.69678 12.2501 6.69678 12.2501C6.69678 12.2501 6.69678 10.3669 6.9323 9.46435C7.06194 8.96635 7.44395 8.57419 7.92902 8.4411C8.80815 8.19922 12.3334 8.19922 12.3334 8.19922C12.3334 8.19922 15.8587 8.19922 16.7378 8.4411ZM11.2769 10.665V14.1875L14.0952 12.4264L11.2769 10.665Z" fill="#FFBB00"/>
</svg>
