<svg width="26" height="26" viewBox="0 0 26 26" fill="none" xmlns="http://www.w3.org/2000/svg">
<path fill-rule="evenodd" clip-rule="evenodd" d="M7.3664 1.94873C4.0774 1.94873 1.9519 4.20163 1.9519 7.68953V18.3079C1.9519 21.7958 4.0774 24.0487 7.3664 24.0487H18.6348C21.9251 24.0487 24.0519 21.7958 24.0519 18.3079V7.68953C24.0519 4.20163 21.9264 1.94873 18.6361 1.94873H7.3664ZM18.6329 26H7.3645C2.9588 26 0 22.9086 0 18.3092V7.6908C0 3.0914 2.9588 0 7.3645 0H18.6342C23.0399 0 26 3.0914 26 7.6908V18.3092C26 22.9086 23.0399 26 18.6329 26Z" fill="#FFBB00"/>
<path d="M10.0236 21C9.73491 21 9.49213 20.8976 9.29528 20.6927C9.09843 20.4878 9 20.2352 9 19.9347V6.0653C9 5.75117 9.09843 5.49851 9.29528 5.3073C9.49213 5.10243 9.73491 5 10.0236 5H13.9606C14.9318 5 15.7979 5.22535 16.5591 5.67606C17.3333 6.12676 17.9304 6.75501 18.3504 7.56082C18.7835 8.36662 19 9.28169 19 10.306C19 11.303 18.7835 12.1908 18.3504 12.9693C17.9304 13.7478 17.3333 14.3555 16.5591 14.7926C15.7979 15.2296 14.9318 15.4481 13.9606 15.4481H11.0472V19.9347C11.0472 20.2352 10.9488 20.4878 10.752 20.6927C10.5682 20.8976 10.3255 21 10.0236 21ZM13.9606 13.4814C14.853 13.4814 15.5879 13.1878 16.1654 12.6005C16.7428 11.9996 17.0315 11.2347 17.0315 10.306C17.0315 9.33632 16.7428 8.53734 16.1654 7.90909C15.5879 7.28084 14.853 6.96671 13.9606 6.96671H11.0472V13.4814H13.9606Z" fill="#FFBB00"/>
</svg>
