<svg width="26" height="26" viewBox="0 0 26 26" fill="none" xmlns="http://www.w3.org/2000/svg">
<path fill-rule="evenodd" clip-rule="evenodd" d="M7.3664 1.94873C4.0774 1.94873 1.9519 4.20163 1.9519 7.68953V18.3079C1.9519 21.7958 4.0774 24.0487 7.3664 24.0487H18.6348C21.9251 24.0487 24.0519 21.7958 24.0519 18.3079V7.68953C24.0519 4.20163 21.9264 1.94873 18.6361 1.94873H7.3664ZM18.6329 26H7.3645C2.9588 26 0 22.9086 0 18.3092V7.6908C0 3.0914 2.9588 0 7.3645 0H18.6342C23.0399 0 26 3.0914 26 7.6908V18.3092C26 22.9086 23.0399 26 18.6329 26Z" fill="#FFBB00"/>
<path fill-rule="evenodd" clip-rule="evenodd" d="M17.4072 16.5969C17.2369 16.5969 17.0653 16.5527 16.908 16.4604L12.4997 13.8305C12.2059 13.6537 12.0239 13.3352 12.0239 12.9933V7.32266C12.0239 6.78446 12.4607 6.34766 12.9989 6.34766C13.5371 6.34766 13.9739 6.78446 13.9739 7.32266V12.4395L17.9077 14.7834C18.3692 15.0603 18.5213 15.6583 18.2457 16.1211C18.0624 16.4266 17.7387 16.5969 17.4072 16.5969Z" fill="#FFBB00"/>
</svg>
