<svg width="31" height="23" viewBox="0 0 31 23" fill="none" xmlns="http://www.w3.org/2000/svg">
<path fill-rule="evenodd" clip-rule="evenodd" d="M27.4984 1.52704C28.7826 1.87937 29.7939 2.91751 30.1371 4.23585C30.7607 6.6252 30.7607 11.6106 30.7607 11.6106C30.7607 11.6106 30.7607 16.5958 30.1371 18.9853C29.7939 20.3037 28.7826 21.3418 27.4984 21.6943C25.1713 22.3345 15.8389 22.3345 15.8389 22.3345C15.8389 22.3345 6.50642 22.3345 4.17912 21.6943C2.89499 21.3418 1.88369 20.3037 1.54049 18.9853C0.916992 16.5958 0.916992 11.6106 0.916992 11.6106C0.916992 11.6106 0.916992 6.6252 1.54049 4.23585C1.88369 2.91751 2.89499 1.87937 4.17912 1.52704C6.50642 0.886719 15.8389 0.886719 15.8389 0.886719C15.8389 0.886719 25.1713 0.886719 27.4984 1.52704ZM13.041 7.41425V16.7394L20.502 12.077L13.041 7.41425Z" fill="white"/>
</svg>
