<svg width="70" height="69" viewBox="0 0 70 69" fill="none" xmlns="http://www.w3.org/2000/svg">
<path d="M23.5753 35.0312H25.186C25.3301 35.0312 25.4488 35.1489 25.4488 35.295V53.7659C25.4488 53.9105 25.5661 54.0296 25.7116 54.0296H29.3994C29.5435 54.0296 29.6622 53.9119 29.6622 53.7659V35.3049C29.6622 35.1603 29.7795 35.0412 29.925 35.0412H31.5655C31.7096 35.0412 31.8283 35.1589 31.8283 35.3049V53.7971C31.8283 53.9417 31.9455 54.0608 32.0911 54.0608H33.7075C33.8516 54.0608 33.9703 54.1785 33.9703 54.3245V58.239C34.0777 58.2844 34.1186 58.3142 34.161 58.317C36.0445 58.4602 36.0445 58.4588 36.0431 56.5873C36.0431 55.8671 36.0431 55.1468 36.0431 54.3614C36.0431 54.2168 36.1603 54.0977 36.3059 54.0977H37.8629C38.0071 54.0977 38.1258 53.98 38.1258 53.834V35.3176C38.1258 35.173 38.243 35.0539 38.3886 35.0539H40.0304C40.1745 35.0539 40.2932 35.1716 40.2932 35.3176V53.8127C40.2932 53.9573 40.4105 54.0764 40.556 54.0764H42.5907C44.5363 54.0764 44.5264 54.0764 44.525 52.1C44.5207 46.6429 44.5236 41.1859 44.525 35.7274C44.525 35.5884 44.5334 35.4481 44.5433 35.2921C44.5518 35.1532 44.6663 35.0454 44.8047 35.0454H46.4084C46.5525 35.0454 46.6712 35.1631 46.6712 35.3091V53.8212C46.6712 53.9658 46.7885 54.0849 46.934 54.0849H48.5462C48.6903 54.0849 48.8076 54.2026 48.8076 54.3472C48.8147 55.4205 48.857 56.4413 48.7878 57.455C48.7369 58.2178 49.0266 58.4134 49.7062 58.3383C49.9803 58.3085 50.2587 58.3213 50.5808 58.3284C50.7278 58.3312 50.8493 58.2121 50.8493 58.0646V54.3387C50.8493 54.1941 50.9652 54.0778 51.1093 54.0764C51.5515 54.0707 51.9387 54.058 52.3244 54.0849C52.8472 54.1218 53.0153 53.9233 53.0111 53.393C52.9899 50.0144 52.997 46.6358 52.997 43.2573C52.997 40.6287 52.997 38.0015 52.997 35.3162C52.997 35.1716 53.1143 35.0525 53.2598 35.0525H54.879C55.0231 35.0525 55.1418 35.1702 55.1418 35.3162V53.7631C55.1418 53.9077 55.2591 54.0268 55.4046 54.0268H59.0924C59.2365 54.0268 59.3552 53.9091 59.3552 53.7631V35.2978C59.3552 35.1532 59.4725 35.0341 59.618 35.0341H61.2641C61.4082 35.0341 61.5269 35.1532 61.5269 35.2978C61.5269 35.5076 61.5269 35.7033 61.5269 35.8989C61.5269 41.6878 61.5396 47.4766 61.51 53.264C61.5071 53.9417 61.7247 54.1416 62.3507 54.0807C62.6686 54.0495 62.9921 54.0636 63.3538 54.0707C63.4966 54.0736 63.6124 54.1898 63.6124 54.333V58.0547C63.6124 58.1993 63.7297 58.3184 63.8752 58.3184H65.486C65.6301 58.3184 65.7488 58.4361 65.7488 58.5821V62.3194C65.7488 62.464 65.8661 62.5817 66.0102 62.5817C66.7604 62.5874 67.4683 62.6143 68.1692 62.5675C68.8064 62.525 68.9717 62.7646 68.9576 63.3743C68.9208 65.0033 68.9463 66.6338 68.9434 68.2642C68.9434 68.423 68.9307 68.5818 68.9194 68.7533C68.9095 68.8909 68.7951 68.9986 68.658 68.9986H1.33979C1.19567 68.9986 1.07698 68.8795 1.07698 68.7349C1.07698 68.3805 1.07698 68.0289 1.07698 67.6772C1.07698 66.2354 1.10948 64.7935 1.06285 63.3544C1.04166 62.7093 1.27197 62.5349 1.87388 62.5704C2.56199 62.6101 3.25292 62.5874 3.99188 62.5817C4.136 62.5803 4.25328 62.464 4.25328 62.3194V58.6034C4.25328 58.4588 4.37055 58.3397 4.51609 58.3397H6.09152C6.23564 58.3397 6.35432 58.222 6.35432 58.076V54.3713C6.35432 54.2267 6.4716 54.1076 6.61713 54.1076H8.21941C8.36353 54.1076 8.48222 53.9899 8.48222 53.8439V35.2992C8.48222 35.1546 8.59949 35.0355 8.74502 35.0355H10.4052C10.5494 35.0355 10.668 35.1546 10.668 35.2992C10.668 36.5284 10.668 37.7336 10.668 38.9387C10.6666 43.7577 10.6709 48.5782 10.6497 53.3973C10.6468 53.9545 10.839 54.1062 11.3872 54.0778C12.2957 54.031 13.2043 54.0509 14.1128 54.0821C14.678 54.1019 14.8602 53.9077 14.8574 53.3193C14.8334 48.4761 14.839 43.633 14.8362 38.7898C14.8362 37.6471 14.8362 36.5057 14.8362 35.312C14.8362 35.1674 14.9535 35.0483 15.099 35.0483H16.7197C16.8638 35.0483 16.9825 35.1659 16.9825 35.312V53.824C16.9825 53.9686 17.0998 54.0877 17.2453 54.0877H18.8716C19.0157 54.0877 19.1344 54.2054 19.1344 54.3515V58.0008C19.1344 58.1455 19.2517 58.2645 19.3972 58.2645H20.9274C21.0715 58.2645 21.1902 58.1469 21.1902 58.0008V54.3359C21.1902 54.1927 21.3061 54.075 21.4488 54.0736C21.8458 54.0679 22.2047 54.0537 22.5608 54.0821C23.1217 54.126 23.3435 53.9531 23.3393 53.3377C23.3139 48.5187 23.3209 43.6982 23.3181 38.8791C23.3181 37.7109 23.3181 36.5412 23.3181 35.295C23.3125 35.1503 23.4297 35.0312 23.5753 35.0312ZM3.55811 64.8317C3.41964 64.8317 3.30519 64.9395 3.29672 65.0784C3.28683 65.2316 3.27835 65.3563 3.27976 65.4825C3.30237 67.0251 3.06782 66.8322 4.62912 66.8322C24.7607 66.8365 44.8923 66.8351 65.0239 66.8351C66.8622 66.8351 66.8622 66.8351 66.6969 64.9905C66.6926 64.9494 66.6545 64.9111 66.6078 64.8317H3.55811ZM6.72028 62.4896H63.2578C63.4019 62.4896 63.5206 62.3719 63.5206 62.2258V60.8435C63.5206 60.6989 63.4033 60.5798 63.2578 60.5798H6.72028C6.57616 60.5798 6.45747 60.6975 6.45747 60.8435V62.2258C6.45888 62.3719 6.57616 62.4896 6.72028 62.4896ZM46.3251 56.3534H38.5157C38.3716 56.3534 38.2529 56.471 38.2529 56.6171V57.998C38.2529 58.1426 38.3702 58.2617 38.5157 58.2617H46.3251C46.4692 58.2617 46.5879 58.144 46.5879 57.998V56.6171C46.5865 56.471 46.4692 56.3534 46.3251 56.3534ZM8.59525 56.5944V57.9966C8.59525 58.1412 8.71252 58.2603 8.85806 58.2603H16.6307C16.7748 58.2603 16.8935 58.1426 16.8935 57.9966V56.5944C16.8935 56.4498 16.7762 56.3307 16.6307 56.3307H8.85806C8.71252 56.3321 8.59525 56.4498 8.59525 56.5944ZM23.6304 56.3193C23.4834 56.3193 23.3647 56.4413 23.3676 56.5887C23.3746 56.9474 23.3916 57.2693 23.3563 57.584C23.2899 58.1837 23.5315 58.3482 24.1094 58.3397C26.1073 58.3099 28.1066 58.351 30.1059 58.3227C32.0741 58.2929 31.7859 58.7367 31.7845 56.5405C31.7845 56.5306 31.7831 56.5192 31.7816 56.5093C31.7576 56.3945 31.646 56.3193 31.5301 56.3193H23.6304ZM61.1708 56.3505H53.3036C53.1566 56.3505 53.0379 56.4725 53.0408 56.6199C53.0493 56.9517 53.0648 57.2508 53.0281 57.5443C52.9489 58.1766 53.199 58.351 53.8122 58.3411C55.8101 58.3071 57.8095 58.3284 59.8088 58.3284C61.6131 58.3284 61.6837 58.3283 61.4294 56.576C61.411 56.4469 61.3008 56.3505 61.1708 56.3505Z" fill="#FFBB00"/>
<path d="M65.7606 24.4057C65.7606 25.8434 65.7606 27.203 65.7606 28.6336C65.0414 28.6336 64.3929 28.6336 63.6723 28.6336C63.6723 30.0641 63.6723 31.4224 63.6723 32.8472C59.401 32.8472 55.2017 32.8472 50.9049 32.8472C50.9049 31.4989 50.9049 30.1237 50.9049 28.7045C50.1646 28.7045 49.5217 28.7045 48.8039 28.7045C48.8039 30.0981 48.8039 31.4564 48.8039 32.8628C44.5312 32.8628 40.3319 32.8628 36.0535 32.8628C36.0535 31.4833 36.0535 30.1251 36.0535 28.713C35.3329 28.713 34.6928 28.713 33.9765 28.713C33.9765 30.0882 33.9765 31.4479 33.9765 32.8586C29.7037 32.8586 25.5045 32.8586 21.2332 32.8586C21.2332 31.4904 21.2332 30.1322 21.2332 28.7172C20.5182 28.7172 19.8753 28.7172 19.1575 28.7172C19.1575 30.0712 19.1575 31.4309 19.1575 32.8501C14.8862 32.8501 10.6884 32.8501 6.41562 32.8501C6.41562 31.5018 6.41562 30.1435 6.41562 28.6846C5.68089 28.6846 5.01398 28.6846 4.27784 28.6846C4.27784 27.2285 4.27784 25.8703 4.27784 24.4043C3.27465 24.4043 2.34352 24.4071 1.41098 24.4029C0.385183 24.3986 0.0220572 24.0272 0.0178183 22.9908C0.0164054 22.5186 0.0545548 22.0423 0.00934068 21.5744C-0.0641323 20.8017 0.300407 20.3565 0.941883 19.9964C7.19698 16.4874 13.4464 12.9656 19.6916 9.43954C24.5041 6.72305 29.3138 4.0009 34.1164 1.26457C34.707 0.92855 35.2086 0.895941 35.8218 1.24188C44.7276 6.2807 53.6446 11.3011 62.5589 16.3272C64.7716 17.5748 66.9743 18.8409 69.1927 20.0786C69.7479 20.3877 70.0263 20.8017 69.9995 21.444C69.9768 21.987 70.0023 22.53 69.9938 23.0744C69.9783 23.9917 69.5713 24.393 68.6402 24.4015C67.702 24.4114 66.7681 24.4057 65.7606 24.4057ZM67.743 22.1911C67.7825 22.1302 67.8221 22.0706 67.8617 22.0097C67.6907 21.8622 67.5395 21.6793 67.3474 21.5701C63.6016 19.452 59.8489 17.3465 56.1017 15.2312C49.2617 11.372 42.423 7.50993 35.5872 3.64078C35.193 3.41819 34.8892 3.35297 34.4442 3.60817C30.6278 5.79298 26.7903 7.94093 22.9598 10.1016C16.1791 13.9268 9.39976 17.7535 2.6247 21.5886C2.43819 21.6935 2.30679 21.8976 2.01431 22.1911C24.0788 22.1911 45.9102 22.1911 67.743 22.1911ZM63.5197 26.4643C63.5197 25.7824 63.5197 25.1217 63.5197 24.461C44.4874 24.461 25.4861 24.461 6.49051 24.461C6.49051 25.1614 6.49051 25.8065 6.49051 26.4643C25.5172 26.4643 44.4831 26.4643 63.5197 26.4643ZM8.58873 28.6931C8.58873 29.4048 8.58873 30.0301 8.58873 30.6823C11.3906 30.6823 14.1444 30.6823 16.9039 30.6823C16.9039 29.979 16.9039 29.3368 16.9039 28.6931C14.1049 28.6931 11.3666 28.6931 8.58873 28.6931ZM23.4048 30.6936C26.2039 30.6936 28.9634 30.6936 31.7356 30.6936C31.7356 30.0003 31.7356 29.3552 31.7356 28.7186C28.9224 28.7186 26.1629 28.7186 23.4048 28.7186C23.4048 29.4077 23.4048 30.0372 23.4048 30.6936ZM46.5969 28.7002C43.8007 28.7002 41.0412 28.7002 38.2506 28.7002C38.2506 29.3822 38.2506 30.0244 38.2506 30.6809C41.0581 30.6809 43.8148 30.6809 46.5969 30.6809C46.5969 29.9932 46.5969 29.3666 46.5969 28.7002ZM53.0837 28.6591C53.0837 29.3878 53.0837 30.0329 53.0837 30.6865C55.8898 30.6865 58.6493 30.6865 61.4003 30.6865C61.4003 29.9861 61.4003 29.341 61.4003 28.6591C61.1304 28.6591 60.9199 28.6591 60.7094 28.6591C58.1957 28.6591 55.6793 28.6591 53.0837 28.6591Z" fill="#FFBB00"/>
<path d="M3.3118 64.832C24.4636 64.832 45.5475 64.832 66.6088 64.832C66.6554 64.9114 66.6936 64.9497 66.6978 64.9908C66.8631 66.8354 66.8617 66.8354 65.0249 66.8354C44.8933 66.8354 24.7617 66.8368 4.63008 66.8325C3.06878 66.8325 3.30191 67.0254 3.28072 65.4828C3.27648 65.2957 3.29626 65.1085 3.3118 64.832Z" fill="white"/>
<path d="M6.45898 62.4894C6.45898 61.8273 6.45898 61.2261 6.45898 60.5811C25.4857 60.5811 44.4742 60.5811 63.5207 60.5811C63.5207 61.2077 63.5207 61.8273 63.5207 62.4894C44.5166 62.4894 25.5295 62.4894 6.45898 62.4894Z" fill="white"/>
<path d="M46.5865 56.3535C46.5865 56.9844 46.5865 57.587 46.5865 58.2604C43.8171 58.2604 41.0604 58.2604 38.2529 58.2604C38.2529 57.6735 38.2529 57.0497 38.2529 56.3535C41.0068 56.3535 43.7775 56.3535 46.5865 56.3535Z" fill="white"/>
<path d="M8.5957 56.3311C11.3594 56.3311 14.0963 56.3311 16.8925 56.3311C16.8925 56.9506 16.8925 57.5702 16.8925 58.2593C14.1472 58.2593 11.3947 58.2593 8.5957 58.2593C8.5957 57.6227 8.5957 57.0017 8.5957 56.3311Z" fill="white"/>
<path d="M23.3649 56.3193C26.2176 56.3193 28.9601 56.3193 31.7041 56.3193C31.7394 56.4143 31.7846 56.4781 31.7846 56.5405C31.786 58.7353 32.0743 58.2929 30.106 58.3227C28.1081 58.3525 26.1088 58.3099 24.1095 58.3397C23.5316 58.3482 23.29 58.1838 23.3564 57.584C23.4002 57.1913 23.3649 56.79 23.3649 56.3193Z" fill="white"/>
<path d="M61.3982 56.3496C61.6893 58.3274 61.6893 58.3274 59.8115 58.3274C57.8122 58.3274 55.8143 58.3062 53.815 58.3402C53.2018 58.3501 52.9517 58.1757 53.0308 57.5434C53.0774 57.1734 53.0393 56.7934 53.0393 56.3496C55.8369 56.3496 58.5964 56.3496 61.3982 56.3496Z" fill="white"/>
<path d="M67.7433 22.1914C45.9105 22.1914 24.0792 22.1914 2.01465 22.1914C2.30854 21.8965 2.43853 21.6938 2.62504 21.5889C9.4001 17.7538 16.1808 13.9286 22.9601 10.102C26.7906 7.94125 30.6281 5.7933 34.4445 3.60848C34.8882 3.3547 35.1934 3.4185 35.5876 3.64109C42.422 7.51024 49.262 11.3723 56.1021 15.2315C59.8492 17.3469 63.602 19.4523 67.3477 21.5705C67.5399 21.6796 67.691 21.8611 67.862 22.01C67.821 22.0709 67.7829 22.1319 67.7433 22.1914ZM34.9588 9.46537C32.0524 9.45828 29.6716 11.8543 29.6716 14.7863C29.6716 17.7382 32.0157 20.1342 34.9193 20.1527C37.8907 20.1725 40.3096 17.802 40.3209 14.8586C40.3322 11.826 37.9938 9.47388 34.9588 9.46537ZM25.502 13.7655C25.502 14.4943 25.502 15.1791 25.502 15.8582C26.2226 15.8582 26.8711 15.8582 27.5621 15.8582C27.5621 15.1493 27.5621 14.4801 27.5621 13.7655C26.8556 13.7655 26.1887 13.7655 25.502 13.7655ZM44.5047 15.8681C44.5047 15.1195 44.5047 14.4517 44.5047 13.7769C43.7826 13.7769 43.1157 13.7769 42.4446 13.7769C42.4446 14.5042 42.4446 15.172 42.4446 15.8681C43.1539 15.8681 43.8024 15.8681 44.5047 15.8681Z" fill="white"/>
<path d="M63.5204 26.4643C44.4838 26.4643 25.5179 26.4643 6.49121 26.4643C6.49121 25.8064 6.49121 25.1613 6.49121 24.4609C25.4868 24.4609 44.4881 24.4609 63.5204 24.4609C63.5204 25.1216 63.5204 25.7823 63.5204 26.4643Z" fill="white"/>
<path d="M8.58984 28.6934C11.3677 28.6934 14.106 28.6934 16.905 28.6934C16.905 29.337 16.905 29.9793 16.905 30.6825C14.1441 30.6825 11.3917 30.6825 8.58984 30.6825C8.58984 30.0318 8.58984 29.4051 8.58984 28.6934Z" fill="white"/>
<path d="M23.4043 30.6937C23.4043 30.0359 23.4043 29.4078 23.4043 28.7188C26.1624 28.7188 28.9218 28.7188 31.735 28.7188C31.735 29.3553 31.735 30.0004 31.735 30.6937C28.9628 30.6937 26.2047 30.6937 23.4043 30.6937Z" fill="white"/>
<path d="M46.5963 28.7002C46.5963 29.3666 46.5963 29.9932 46.5963 30.6808C43.8142 30.6808 41.0575 30.6808 38.25 30.6808C38.25 30.0244 38.25 29.3822 38.25 28.7002C41.0406 28.7002 43.8 28.7002 46.5963 28.7002Z" fill="white"/>
<path d="M53.084 28.6592C55.6796 28.6592 58.1946 28.6592 60.711 28.6592C60.9216 28.6592 61.1321 28.6592 61.402 28.6592C61.402 29.3411 61.402 29.9862 61.402 30.6866C58.6496 30.6866 55.8915 30.6866 53.0854 30.6866C53.084 30.033 53.084 29.3879 53.084 28.6592Z" fill="white"/>
<path d="M34.9581 9.46584C37.9931 9.47434 40.3316 11.8265 40.3203 14.8591C40.309 17.8024 37.89 20.173 34.9186 20.1531C32.0136 20.1333 29.6709 17.7372 29.6709 14.7868C29.6709 11.8548 32.0517 9.45875 34.9581 9.46584ZM34.9779 11.6478C33.3163 11.6294 31.8694 13.0599 31.844 14.7428C31.8186 16.4811 33.2781 17.9712 35.0048 17.9712C36.6862 17.9712 38.1528 16.4853 38.1457 14.7911C38.1387 13.0684 36.7243 11.6662 34.9779 11.6478Z" fill="#FFBB00"/>
<path d="M25.501 13.7656C26.1877 13.7656 26.8546 13.7656 27.561 13.7656C27.561 14.4802 27.561 15.1494 27.561 15.8583C26.8701 15.8583 26.2216 15.8583 25.501 15.8583C25.501 15.1792 25.501 14.4944 25.501 13.7656Z" fill="#FFBB00"/>
<path d="M44.5034 15.8676C43.8012 15.8676 43.1512 15.8676 42.4434 15.8676C42.4434 15.1701 42.4434 14.5023 42.4434 13.7764C43.1145 13.7764 43.7814 13.7764 44.5034 13.7764C44.5034 14.4512 44.5034 15.1204 44.5034 15.8676Z" fill="#FFBB00"/>
<path d="M34.979 11.6476C36.7254 11.6661 38.1397 13.0697 38.1468 14.7909C38.1538 16.4866 36.6886 17.971 35.0058 17.971C33.2778 17.971 31.8196 16.4823 31.8451 14.7427C31.8691 13.0598 33.3173 11.6292 34.979 11.6476Z" fill="white"/>
</svg>
