<svg width="60" height="60" viewBox="0 0 60 60" fill="none" xmlns="http://www.w3.org/2000/svg">
<path d="M30.0077 7.69022e-08C46.4871 0.00117503 60.0118 13.4861 60 29.9048C59.9883 46.5738 46.5446 60.0611 29.9079 60C13.3416 59.9401 -0.0187629 46.4986 1.97799e-05 29.8355C0.0188024 13.4614 13.5482 -0.00117487 30.0077 7.69022e-08ZM29.9677 58.1788C45.5703 58.1847 58.1535 45.581 58.1687 29.9319C58.184 14.493 45.528 1.83527 30.064 1.82587C14.5261 1.81647 1.83955 14.4155 1.83368 29.8649C1.82781 45.5223 14.3981 58.173 29.9677 58.1788Z" fill="#FFBB00"/>
<path d="M21.359 17.491C21.8673 17.491 22.3768 17.4616 22.8816 17.4992C23.4134 17.5391 23.566 17.31 23.5449 16.8165C23.5155 16.1339 23.5249 15.4489 23.5355 14.7651C23.5531 13.5913 24.2574 12.797 25.4114 12.8135C26.6675 12.8311 27.9541 12.5621 29.1773 13.0849C29.256 13.1178 29.3745 13.1037 29.4579 13.0708C30.7656 12.5515 32.125 12.7982 33.4551 12.8581C34.5351 12.9063 35.142 13.7006 35.1537 14.7968C35.1619 15.5006 35.1948 16.2056 35.1514 16.907C35.1162 17.4792 35.3099 17.7189 35.8874 17.847C36.6622 18.0185 37.4276 18.2841 38.1554 18.6048C42.2477 20.4084 42.6445 24.9601 41.3215 27.6707C41.0832 28.1595 41.0785 28.4239 41.5316 28.7822C42.3134 29.3991 42.8628 30.2345 43.1258 31.1921C43.8043 33.6571 43.6869 36.0775 42.4261 38.3475C41.183 40.5858 39.0981 41.5457 36.6798 41.9405C36.5061 41.9687 36.3335 42.0016 36.1609 42.0333C34.9201 42.2589 34.9201 42.2589 34.9201 43.542C34.9201 44.1482 34.9389 44.7545 34.9189 45.3596C34.8849 46.3654 34.1723 47.0938 33.1663 47.1197C32.1708 47.1455 31.1601 47.2219 30.1822 47.0844C29.4684 46.9834 28.8169 46.9987 28.1091 47.0962C27.2075 47.2196 26.2766 47.1314 25.3586 47.122C24.133 47.1103 23.397 46.3889 23.3606 45.154C23.3394 44.4114 23.3324 43.6689 23.3535 42.9263C23.3664 42.4963 23.2068 42.3329 22.7783 42.3353C21.7241 42.3412 20.6688 42.3188 19.6134 42.3036C18.3609 42.2859 17.5708 41.4752 17.7152 40.2392C17.8549 39.0384 18.0721 37.8435 18.3209 36.6603C18.4947 35.8355 19.2612 35.3373 20.2286 35.3173C21.3285 35.2938 21.3215 35.5194 21.3356 34.1999C21.3684 31.0934 21.3978 27.9868 21.4635 24.8814C21.4764 24.2775 21.2816 24.0648 20.6969 24.1283C20.3683 24.1635 20.0337 24.1377 19.7015 24.133C18.6332 24.1165 17.8772 23.4233 17.8396 22.3623C17.8032 21.3472 17.8044 20.3296 17.8326 19.3145C17.8619 18.2429 18.6449 17.4933 19.7156 17.4686C20.2626 17.4557 20.8096 17.4663 21.3567 17.4663C21.359 17.4733 21.359 17.4827 21.359 17.491ZM37.7316 28.9303C37.8866 28.7963 37.9359 28.7352 38.0005 28.7012C40.785 27.2137 40.8026 21.8841 37.4781 20.5141C36.2995 20.0289 35.0316 19.7457 33.7873 19.439C33.3224 19.3251 33.1956 19.1559 33.2156 18.6953C33.2672 17.5051 33.2578 16.3137 33.2802 15.1223C33.286 14.7839 33.1581 14.6182 32.8 14.6241C32.1356 14.6347 31.4711 14.6358 30.8079 14.617C30.4135 14.6053 30.3078 14.7945 30.3055 15.1528C30.3008 15.9729 30.262 16.793 30.2503 17.6132C30.228 19.2393 30.2315 19.2252 28.6303 19.2205C28.1595 19.2193 28.0421 19.0678 28.0644 18.5989C28.1196 17.4487 28.0997 16.2949 28.122 15.1422C28.129 14.7686 27.9799 14.6123 27.6019 14.6229C27.0161 14.6382 26.428 14.6464 25.8446 14.6123C25.3586 14.5841 25.1895 14.7698 25.1966 15.2515C25.213 16.3654 25.1672 17.4792 25.193 18.5931C25.2048 19.1159 25.058 19.318 24.5016 19.2957C23.0389 19.2369 21.5727 19.2428 20.1088 19.204C19.7003 19.1935 19.4772 19.3192 19.4772 19.7539C19.4761 20.4565 19.4409 21.1615 19.4772 21.863C19.4843 22.0087 19.7332 22.2413 19.8916 22.2589C20.3741 22.3153 20.8672 22.2636 21.3543 22.2965C22.7372 22.3917 23.1927 22.8793 23.1786 24.2563C23.1422 27.8705 23.0953 31.4846 23.0518 35.0999C23.0471 35.4513 23.0577 35.8061 23.0143 36.1527C22.9297 36.8342 22.6222 37.1079 21.9307 37.135C21.4236 37.1549 20.9153 37.1573 20.407 37.1444C20.0712 37.1361 19.9092 37.2712 19.8588 37.6038C19.7555 38.2982 19.6287 38.9902 19.5148 39.6834C19.3716 40.5529 19.3728 40.5552 20.2743 40.5646C21.6032 40.5776 22.9309 40.5858 24.2598 40.5999C25.0252 40.6081 25.0592 40.6445 25.0463 41.3895C25.0275 42.5421 25.0099 43.6935 24.9806 44.8462C24.9712 45.2351 25.1085 45.4195 25.5241 45.4043C26.1099 45.3831 26.6968 45.3843 27.2814 45.4125C27.7334 45.4348 27.9154 45.2738 27.9036 44.8097C27.8825 43.9696 27.8977 43.1296 27.9071 42.2895C27.9236 40.708 27.9247 40.7244 29.5213 40.7714C29.9908 40.7855 30.1211 40.9559 30.1094 41.4024C30.0801 42.535 30.1094 43.6689 30.0801 44.8015C30.0683 45.2715 30.2503 45.4254 30.6987 45.4043C31.2058 45.3808 31.7165 45.3737 32.2213 45.4148C32.7742 45.4595 32.982 45.2738 32.9632 44.6969C32.928 43.6042 32.9972 42.508 32.9562 41.4153C32.935 40.8572 33.1522 40.6786 33.6629 40.6046C34.8978 40.426 36.1433 40.2685 37.3536 39.976C39.3575 39.4931 40.7087 38.2159 41.2323 36.2197C41.4706 35.3114 41.5046 34.3304 41.5023 33.3833C41.4976 31.5163 40.5631 30.2098 38.8809 29.4296C38.5311 29.2698 38.1754 29.123 37.7316 28.9303Z" fill="#FFBB00"/>
<path d="M29.342 5.63181C29.4982 5.63181 29.6543 5.62828 29.8104 5.63298C30.4619 5.64943 30.8951 6.00662 30.9033 6.53182C30.9127 7.06172 30.4878 7.42126 29.8398 7.46356C28.8091 7.53053 27.7702 7.55403 26.75 7.69737C17.4808 8.99804 9.86208 16.1229 7.97208 25.3075C7.66686 26.7891 7.61403 28.3248 7.46847 29.837C7.42621 30.2776 7.32877 30.6994 6.87681 30.8098C6.59742 30.878 6.16894 30.8263 5.98346 30.6465C5.76746 30.4374 5.6489 30.0273 5.65242 29.7077C5.68412 26.8115 6.16425 23.9845 7.25481 21.2974C10.3704 13.6238 15.9183 8.62323 23.9103 6.4343C25.6665 5.95374 27.5131 5.79865 29.3174 5.49316C29.3256 5.53781 29.3338 5.58481 29.342 5.63181Z" fill="#FFBB00"/>
<path d="M54.3683 30.6701C53.8025 39.6409 49.8112 46.5648 42.0293 51.1742C38.8727 53.0435 35.426 54.061 31.7552 54.2842C31.2492 54.3148 30.7433 54.3688 30.2362 54.3735C29.54 54.3806 29.0998 54.0117 29.0986 53.4641C29.0975 52.9213 29.5377 52.5559 30.235 52.5488C34.0408 52.5101 37.6342 51.6065 40.9305 49.7125C47.4868 45.9445 51.2833 40.2671 52.3774 32.7885C52.4959 31.9802 52.4983 31.1542 52.5347 30.3353C52.5699 29.5386 52.9021 29.0828 53.4738 29.098C54.0432 29.1133 54.3613 29.5668 54.3683 30.3752C54.3695 30.4739 54.3683 30.5726 54.3683 30.6701Z" fill="#FFBB00"/>
<path d="M28.0487 34.0865C28.0487 33.2475 28.051 32.4086 28.0475 31.5697C28.0463 31.2854 28.0921 31.0809 28.4537 31.0727C30.1113 31.0363 31.7794 30.9305 33.3853 31.4569C33.95 31.6426 34.5369 31.8858 34.9924 32.2524C36.3048 33.3063 36.1804 35.3883 34.7212 36.2343C33.9981 36.6537 33.1423 36.9451 32.3135 37.0591C31.1044 37.2259 29.8671 37.1836 28.6403 37.2271C28.1708 37.2435 27.9982 37.0227 28.017 36.5444C28.051 35.7267 28.0264 34.9054 28.0264 34.0865C28.0334 34.0865 28.0405 34.0865 28.0487 34.0865ZM29.8788 34.1781C29.8788 34.4507 29.8283 34.7362 29.8976 34.99C29.9422 35.1545 30.1805 35.4024 30.3014 35.3871C31.3732 35.2426 32.445 35.0828 33.498 34.8419C33.741 34.7867 34.0873 34.3896 34.0685 34.1769C34.045 33.9079 33.7445 33.5272 33.4816 33.4402C32.7502 33.1982 31.9837 32.9902 31.2206 32.9397C29.7203 32.841 29.9187 32.7282 29.8788 34.1781Z" fill="#FFBB00"/>
<path d="M28.2597 25.3745C28.2597 24.6131 28.2386 23.8494 28.2762 23.0904C28.2844 22.9247 28.4945 22.6345 28.6225 22.6286C30.1662 22.5593 31.7146 22.5252 33.1726 23.1691C34.1047 23.5803 34.6799 24.2583 34.6858 25.3298C34.6928 26.3779 34.2268 27.1463 33.2735 27.5575C31.7838 28.2002 30.2061 28.2731 28.6178 28.1121C28.4734 28.098 28.2609 27.7855 28.2503 27.601C28.2081 26.8608 28.2327 26.117 28.2327 25.3756C28.2421 25.3745 28.2503 25.3745 28.2597 25.3745ZM29.9877 25.3686C29.9877 25.5824 29.9431 25.8115 30.003 26.0066C30.0453 26.1452 30.2437 26.3473 30.3517 26.3356C31.0454 26.258 31.7416 26.1605 32.4201 25.996C32.6021 25.9514 32.8345 25.6553 32.8404 25.4685C32.8474 25.2781 32.6443 24.9773 32.4624 24.9033C31.981 24.7083 31.4669 24.5508 30.9527 24.4862C29.9783 24.364 29.9737 24.3969 29.9877 25.3686Z" fill="#FFBB00"/>
<path d="M29.8795 34.1781C29.9194 32.7293 29.721 32.841 31.2189 32.9396C31.9831 32.9902 32.7497 33.1981 33.4798 33.4402C33.7428 33.5271 34.0433 33.9078 34.0668 34.1769C34.0856 34.3895 33.7393 34.7867 33.4963 34.8419C32.4433 35.0828 31.3715 35.2426 30.2997 35.3871C30.1788 35.4035 29.9405 35.1544 29.8959 34.9899C29.8278 34.7362 29.8783 34.4495 29.8795 34.1781Z" fill="#FFBB00"/>
<path d="M29.9877 25.3688C29.9724 24.3971 29.9783 24.3642 30.9526 24.4876C31.4668 24.5522 31.9798 24.7096 32.4623 24.9047C32.6454 24.9787 32.8473 25.2795 32.8403 25.4698C32.8332 25.6578 32.602 25.9527 32.42 25.9974C31.7427 26.1619 31.0465 26.2594 30.3516 26.3369C30.2436 26.3487 30.0464 26.1466 30.0029 26.0079C29.943 25.8117 29.9877 25.5826 29.9877 25.3688Z" fill="#FFBB00"/>
</svg>
