<svg width="74" height="48" viewBox="0 0 74 48" fill="none" xmlns="http://www.w3.org/2000/svg">
<path d="M36.7619 0.0022973C47.0577 0.0022973 57.3538 0.00325431 67.6496 4.84676e-07C68.2663 -0.000190917 68.871 0.0562725 69.4639 0.230448C71.5397 0.840061 73.1046 2.6222 73.4279 4.75843C73.4698 5.03481 73.4759 5.31655 73.4981 5.59581C73.5002 5.62126 73.4985 5.64691 73.4985 5.67237C73.4985 17.882 73.4981 30.0917 73.5 42.3014C73.5 42.8672 73.4302 43.42 73.2696 43.9622C72.6173 46.167 70.6805 47.716 68.5479 47.9462C68.2317 47.9803 67.9121 47.996 67.5939 47.9962C62.8478 47.9992 58.1018 47.9983 53.3556 47.9983C37.5481 47.9983 21.7405 47.9979 5.93306 48C5.31751 48 4.71096 47.9516 4.11609 47.7847C1.86004 47.1517 0.303371 45.2006 0.0568465 43.0848C0.0258395 42.8193 0.00401972 42.5512 0.00382832 42.2842C0.0013401 30.0873 0.00382832 17.8905 2.93727e-07 5.69342C-0.000765311 3.2387 1.49523 1.25234 3.48255 0.429505C4.13752 0.158289 4.81929 0.0109104 5.52958 0.00344571C5.72099 0.00134029 5.91239 0.0022973 6.10379 0.0022973C16.3231 0.0022973 26.5424 0.0022973 36.7619 0.0022973ZM2.30562 18.1743C2.30275 18.3598 2.29777 18.5236 2.29777 18.6875C2.29739 26.458 2.29739 34.2287 2.29758 41.9992C2.29758 42.1395 2.29586 42.28 2.29911 42.4203C2.33203 43.9021 3.32426 45.1753 4.75403 45.5763C5.12668 45.6808 5.50604 45.7024 5.89057 45.7024C26.4589 45.7011 47.0275 45.7013 67.5959 45.7013C67.7107 45.7013 67.8255 45.7028 67.9404 45.6997C69.5083 45.6584 70.8238 44.5488 71.141 43.01C71.2036 42.706 71.2022 42.4017 71.2022 42.0958C71.2028 34.2742 71.2028 26.4526 71.2026 18.631C71.2026 18.529 71.2038 18.4268 71.1998 18.3248C71.1978 18.2763 71.1852 18.2283 71.1743 18.1611C71.1035 18.1529 71.043 18.1414 70.9821 18.1393C69.7237 18.0951 2.69072 18.124 2.30562 18.1743ZM71.1898 10.2197C70.9741 10.2159 70.7978 10.2101 70.6215 10.2101C48.0404 10.2097 25.4592 10.2097 2.8781 10.2097C2.76326 10.2097 2.64804 10.2049 2.53377 10.2124C2.46123 10.2172 2.39003 10.2407 2.31806 10.2559C2.31021 10.3234 2.2993 10.3738 2.2993 10.4241C2.29835 12.1592 2.29816 13.8942 2.29988 15.6293C2.29988 15.689 2.3194 15.7485 2.33127 15.8153C2.52573 15.8563 2.70374 15.8402 2.88002 15.8402C25.4612 15.8409 48.0423 15.8409 70.6234 15.8409C70.7383 15.8409 70.8533 15.8457 70.9678 15.8385C71.0399 15.8339 71.1107 15.8113 71.1898 15.7954C71.1898 13.9426 71.1898 12.1075 71.1898 10.2197ZM71.1871 7.88956C71.1936 7.77912 71.202 7.70429 71.202 7.62964C71.2028 6.94079 71.2107 6.25174 71.2001 5.56289C71.1758 4.00144 70.054 2.67273 68.5192 2.36151C68.177 2.29203 67.8342 2.29988 67.4904 2.29969C46.989 2.29892 26.4876 2.29911 5.98627 2.29911C5.83315 2.29911 5.68003 2.2972 5.5271 2.3016C5.41245 2.30485 5.29703 2.30926 5.18391 2.32591C3.52351 2.57129 2.31902 3.94899 2.29969 5.63122C2.29203 6.29461 2.2972 6.95801 2.2995 7.62141C2.29988 7.70697 2.31806 7.79233 2.32763 7.87444C2.38333 7.88918 2.4195 7.90717 2.45549 7.90717C25.2914 7.90947 48.1275 7.91062 70.9634 7.911C71.0252 7.911 71.0874 7.89932 71.1871 7.88956Z" fill="#FFBB00"/>
<path d="M16.011 27.376C17.6938 26.3543 19.4826 26.0341 21.3874 26.4954C22.9296 26.8686 24.192 27.6958 25.169 28.9434C27.1517 31.4754 27.1119 35.011 25.0972 37.5182C23.08 40.0284 19.2612 41.0007 15.9964 38.9975C14.3644 39.9989 12.5979 40.3174 10.7178 39.8883C9.18523 39.5386 7.92275 38.733 6.93244 37.5138C4.93804 35.0585 4.88291 31.5589 6.79176 29.0303C7.49784 28.0949 8.38613 27.3833 9.45377 26.9025C10.508 26.4278 11.6133 26.2316 12.7704 26.3112C13.94 26.3916 15.0111 26.7666 16.011 27.376ZM19.7412 37.7695C22.1664 37.7982 24.3337 35.8166 24.3335 33.1732C24.3333 30.7211 22.3757 28.5807 19.7228 28.5914C17.0252 28.6023 15.1501 30.8094 15.1491 33.1724C15.1481 35.7395 17.253 37.7969 19.7412 37.7695ZM14.2021 29.0278C14.1236 28.9863 14.0503 28.9378 13.9703 28.9066C13.1415 28.5841 12.2869 28.4988 11.416 28.6731C8.85908 29.1855 7.24519 31.6362 7.8081 34.1792C8.4202 36.9442 11.3322 38.4876 13.9909 37.45C14.0692 37.4196 14.1638 37.4077 14.1902 37.3199C12.383 34.5513 12.3855 31.7978 14.2021 29.0278Z" fill="#FFBB00"/>
<path d="M35.8244 34.3262C34.6136 34.3262 33.4026 34.3264 32.1918 34.3258C32.0644 34.3258 31.9363 34.3285 31.8098 34.3168C31.2559 34.2657 30.8239 33.8171 30.7831 33.2568C30.7443 32.7251 31.106 32.2145 31.6284 32.0826C31.7748 32.0457 31.9306 32.0317 32.082 32.0315C34.5801 32.0284 37.0785 32.0288 39.5767 32.0311C39.7158 32.0313 39.858 32.0413 39.9936 32.0707C40.5614 32.1944 40.9224 32.6915 40.8818 33.2806C40.8438 33.832 40.4014 34.2745 39.8393 34.3186C39.7126 34.3285 39.5845 34.3256 39.4571 34.3256C38.2462 34.3264 37.0353 34.3262 35.8244 34.3262Z" fill="#FFBB00"/>
<path d="M49.4444 34.3259C48.2334 34.3259 47.0226 34.3261 45.8116 34.3256C45.6841 34.3256 45.5562 34.3282 45.4295 34.3171C44.8712 34.2687 44.4318 33.8191 44.3979 33.2667C44.3629 32.6983 44.7187 32.2039 45.2651 32.0758C45.4001 32.0442 45.5425 32.0314 45.6814 32.0312C48.1924 32.0287 50.7036 32.0286 53.2146 32.0312C53.3535 32.0314 53.4959 32.0446 53.6307 32.0766C54.1731 32.2052 54.5397 32.7163 54.4976 33.2704C54.4553 33.8256 54.0162 34.271 53.4594 34.3179C53.3327 34.3286 53.2046 34.3256 53.0774 34.3256C51.8664 34.3261 50.6554 34.3259 49.4444 34.3259Z" fill="#FFBB00"/>
<path d="M63.0708 34.3259C61.86 34.3259 60.6492 34.3261 59.4384 34.3257C59.3109 34.3257 59.183 34.3286 59.0561 34.319C58.4917 34.2767 58.0517 33.8388 58.0113 33.2847C57.9684 32.6942 58.3269 32.195 58.8931 32.0712C59.0286 32.0415 59.1708 32.031 59.3099 32.031C61.8081 32.0287 64.3061 32.0287 66.8043 32.0312C66.9434 32.0314 67.0847 32.0454 67.2211 32.0721C67.7 32.1667 68.14 32.623 68.1056 33.2521C68.0736 33.8336 67.6238 34.2767 67.0473 34.3198C66.9333 34.3282 66.818 34.3259 66.7034 34.3259C65.4924 34.3261 64.2816 34.3259 63.0708 34.3259Z" fill="#FFBB00"/>
</svg>
