<svg width="71" height="61" viewBox="0 0 71 61" fill="none" xmlns="http://www.w3.org/2000/svg">
<path d="M10.8887 33.23V26.0016C10.8887 21.9211 14.1965 18.6133 18.277 18.6133H66.9582C68.3597 18.6133 69.4954 19.749 69.4954 21.1505V52.1131C69.4954 56.1937 66.1876 59.5015 62.1071 59.5015H18.2777C14.1972 59.5015 10.8894 56.1937 10.8894 52.1131V44.5693" stroke="#FFBB00" stroke-width="2" stroke-miterlimit="10"/>
<path d="M19.8848 9.07183V5.81014C19.8848 2.64999 22.8814 0.34974 25.9343 1.1657L65.2597 11.6803C67.7702 12.4127 69.4965 14.7144 69.4965 17.3301V21.15" stroke="#FFBB00" stroke-width="2" stroke-miterlimit="10"/>
<path d="M57.3601 14.2624L19.03 8.95896C16.5994 8.62192 14.4316 10.5102 14.4316 12.9639V19.6911" stroke="#FFBB00" stroke-width="2" stroke-miterlimit="10"/>
<path d="M1.00098 28.9004V38.9447C1.00098 42.0509 3.51872 44.5693 6.62558 44.5693H25.7132C26.8641 44.5693 27.7974 43.636 27.7974 42.4851V35.3136C27.7974 34.1627 26.8641 33.2294 25.7132 33.2294H8.50237" stroke="#FFBB00" stroke-width="2" stroke-miterlimit="10"/>
<path d="M9.54493 24.0488H6.30556C3.37587 24.0488 1 26.424 1 29.3544V29.3796C1 31.5056 2.72339 33.229 4.84936 33.229H8.50139" stroke="#FFBB00" stroke-width="2" stroke-miterlimit="10"/>
<path d="M22.3208 42.2783C23.8517 42.2783 25.0928 41.0373 25.0928 39.5063C25.0928 37.9754 23.8517 36.7344 22.3208 36.7344C20.7899 36.7344 19.5488 37.9754 19.5488 39.5063C19.5488 41.0373 20.7899 42.2783 22.3208 42.2783Z" stroke="#FFBB00" stroke-width="2" stroke-miterlimit="10"/>
</svg>
