<svg width="11" height="11" viewBox="0 0 11 11" fill="none" xmlns="http://www.w3.org/2000/svg">
<path d="M7.34277 2.78254C7.82427 2.78254 8.21725 3.17553 8.21725 3.65702V9.38183C8.21725 9.86333 7.82427 10.2563 7.34277 10.2563H1.61796C1.13647 10.2563 0.743482 9.86333 0.743482 9.38183V3.65702C0.743482 3.17553 1.13647 2.78254 1.61796 2.78254H7.34277ZM7.34277 2.03906H1.61796C0.72578 2.03906 0 2.76484 0 3.65702V9.38183C0 10.274 0.72578 10.9998 1.61796 10.9998H7.34277C8.23495 10.9998 8.96073 10.274 8.96073 9.38183V3.65702C8.96073 2.76484 8.23849 2.03906 7.34277 2.03906Z" fill="#FFBB00"/>
<path d="M9.38183 0H3.65702C2.76484 0 2.03906 0.72578 2.03906 1.61796V1.66752H2.78254V1.61796C2.78254 1.13647 3.17553 0.743482 3.65702 0.743482H9.38183C9.86333 0.743482 10.2563 1.13647 10.2563 1.61796V7.34277C10.2563 7.82073 9.87395 8.20663 9.39954 8.21725V8.96073C10.2846 8.95011 10.9998 8.23141 10.9998 7.34277V1.61796C10.9998 0.72578 10.2776 0 9.38183 0Z" fill="#FFBB00"/>
</svg>
