<svg width="100" height="120" viewBox="0 0 100 120" fill="none" xmlns="http://www.w3.org/2000/svg">
<path d="M23.9543 75.994C23.5902 74.6903 23.4082 73.3456 23.4082 72.001C23.4082 68.2059 24.8552 64.413 27.7493 61.5189C33.5374 55.7307 42.9227 55.7307 48.7108 61.5189L50.5696 63.4005L52.4285 61.5189C58.2166 55.7307 67.6018 55.7307 73.39 61.5189C76.284 64.413 77.731 68.2059 77.731 72.001C77.731 73.0863 77.6127 74.1715 77.3761 75.2364" stroke="#FFBB00" stroke-width="2" stroke-miterlimit="10"/>
<path d="M63.491 92.7729L50.0719 106.725L49.9718 106.625L37.0918 92.6318" stroke="#FFBB00" stroke-width="2" stroke-miterlimit="10"/>
<path d="M14.7437 84.6342L21.6899 77.6879C25.8922 73.4855 32.7065 73.4855 36.9088 77.6879C41.1794 81.9585 41.0997 88.9048 36.7359 93.0776L22.9436 106.263C21.4306 107.707 19.4193 108.515 17.3284 108.515H16.3841C7.95223 108.515 1.11523 101.678 1.11523 93.246V67.6472C1.11523 56.4826 10.166 47.4316 21.3304 47.4316H78.6725C89.8369 47.4316 98.8877 56.4826 98.8877 67.6472V93.246C98.8877 101.678 92.0507 108.515 83.6188 108.515C81.5757 108.515 79.6053 107.744 78.1037 106.358L62.7574 92.1835C58.2684 88.038 58.1296 80.9893 62.4503 76.6686L63.0805 76.0383C67.2828 71.8359 74.097 71.8359 78.2994 76.0383L88.126 85.8651" stroke="black" stroke-width="2" stroke-miterlimit="10"/>
<path d="M50.1096 41.716C61.3232 41.716 70.4136 32.6255 70.4136 21.4117C70.4136 10.198 61.3232 1.10742 50.1096 1.10742C38.8961 1.10742 29.8057 10.198 29.8057 21.4117C29.8057 32.6255 38.8961 41.716 50.1096 41.716Z" stroke="black" stroke-width="2" stroke-miterlimit="10"/>
<path d="M20.2324 107.976V120" stroke="black" stroke-width="2" stroke-miterlimit="10"/>
<path d="M80.6953 107.976V120" stroke="black" stroke-width="2" stroke-miterlimit="10"/>
</svg>
