<svg width="591" height="500" viewBox="0 0 591 500" fill="none" xmlns="http://www.w3.org/2000/svg">
<line x1="50.5" y1="2.18557e-08" x2="50.5" y2="500" stroke="#E5E5E5"/>
<line x1="249.5" y1="2.18557e-08" x2="249.5" y2="500" stroke="#E5E5E5"/>
<line x1="149.5" y1="2.18557e-08" x2="149.5" y2="500" stroke="#E5E5E5"/>
<line x1="348.5" y1="2.18557e-08" x2="348.5" y2="500" stroke="#E5E5E5"/>
<line x1="448.5" y1="2.18557e-08" x2="448.5" y2="500" stroke="#E5E5E5"/>
<line y1="449.5" x2="500" y2="449.5" stroke="#E5E5E5"/>
<line y1="249.5" x2="500" y2="249.5" stroke="#E5E5E5"/>
<line y1="349.5" x2="500" y2="349.5" stroke="#E5E5E5"/>
<line y1="149.5" x2="500" y2="149.5" stroke="#E5E5E5"/>
<line y1="49.5" x2="500" y2="49.5" stroke="#E5E5E5"/>
<path d="M61.4 74V62.8H58.8V61.9C59.8 61.8467 60.6 61.52 61.2 60.92C61.4533 60.6667 61.6533 60.36 61.8 60H62.9V74H61.4Z" fill="black"/>
<path d="M59.2 171.9C59.2 170.807 59.6 169.9 60.4 169.18C60.7467 168.86 61.1467 168.6 61.6 168.4C61.2533 168.213 60.9533 167.993 60.7 167.74C60.1 167.14 59.8 166.393 59.8 165.5C59.8 164.527 60.2 163.667 61 162.92C61.8 162.173 62.7667 161.8 63.9 161.8C65.0333 161.8 66 162.173 66.8 162.92C67.6 163.667 68 164.527 68 165.5C68 166.393 67.7 167.14 67.1 167.74C66.8467 167.993 66.5467 168.213 66.2 168.4C66.6533 168.6 67.0533 168.86 67.4 169.18C68.2 169.9 68.6 170.807 68.6 171.9C68.6 173.073 68.1467 174.087 67.24 174.94C66.3467 175.78 65.2333 176.2 63.9 176.2C62.5667 176.2 61.4467 175.78 60.54 174.94C59.6467 174.087 59.2 173.073 59.2 171.9ZM62 163.86C61.5333 164.287 61.3 164.833 61.3 165.5C61.3 166.167 61.5333 166.72 62 167.16C62.48 167.587 63.1133 167.8 63.9 167.8C64.6867 167.8 65.3133 167.587 65.78 167.16C66.26 166.72 66.5 166.167 66.5 165.5C66.5 164.833 66.26 164.287 65.78 163.86C65.3133 163.42 64.6867 163.2 63.9 163.2C63.1133 163.2 62.48 163.42 62 163.86ZM60.7 171.9C60.7 172.687 60.9933 173.367 61.58 173.94C62.1667 174.513 62.94 174.8 63.9 174.8C64.86 174.8 65.6333 174.513 66.22 173.94C66.8067 173.367 67.1 172.687 67.1 171.9C67.1 171.14 66.7867 170.467 66.16 169.88C65.5333 169.293 64.78 169 63.9 169C63.02 169 62.2667 169.293 61.64 169.88C61.0133 170.467 60.7 171.14 60.7 171.9Z" fill="black"/>
<path d="M61.4 279V267.8H58.8V266.9C59.8 266.847 60.6 266.52 61.2 265.92C61.4533 265.667 61.6533 265.36 61.8 265H62.9V279H61.4ZM66.4922 277.1L67.4922 276.1C67.7455 276.42 68.0455 276.707 68.3922 276.96C69.2189 277.52 70.1189 277.8 71.0922 277.8C72.0922 277.8 72.8922 277.507 73.4922 276.92C74.0922 276.333 74.3922 275.56 74.3922 274.6C74.3922 273.64 74.0989 272.867 73.5122 272.28C72.9255 271.693 72.1522 271.4 71.1922 271.4C70.2989 271.4 69.5189 271.653 68.8522 272.16C68.5589 272.373 68.3055 272.62 68.0922 272.9H66.9922L67.4922 265H74.9922V266.4H68.7922L68.4922 270.8C68.7455 270.64 68.9855 270.507 69.2122 270.4C69.7722 270.133 70.4322 270 71.1922 270C72.5522 270 73.6722 270.44 74.5522 271.32C75.4455 272.187 75.8922 273.28 75.8922 274.6C75.8922 275.96 75.4522 277.067 74.5722 277.92C73.6922 278.773 72.5322 279.2 71.0922 279.2C69.7855 279.2 68.6322 278.853 67.6322 278.16C67.2055 277.867 66.8255 277.513 66.4922 277.1Z" fill="black"/>
<path d="M60.5 371.6H67.8V373H58.8C58.8 372.2 58.9333 371.467 59.2 370.8C59.48 370.133 59.84 369.573 60.28 369.12C60.7333 368.653 61.2267 368.22 61.76 367.82C62.2933 367.42 62.82 367.047 63.34 366.7C63.8733 366.353 64.36 366 64.8 365.64C65.2533 365.28 65.6133 364.873 65.88 364.42C66.16 363.953 66.3 363.447 66.3 362.9C66.3 362.087 66.0333 361.433 65.5 360.94C64.98 360.447 64.2467 360.2 63.3 360.2C62.2733 360.2 61.46 360.6 60.86 361.4C60.6067 361.733 60.42 362.133 60.3 362.6L59 362C59.1867 361.373 59.4533 360.84 59.8 360.4C60.6533 359.333 61.82 358.8 63.3 358.8C64.6333 358.8 65.7133 359.193 66.54 359.98C67.38 360.753 67.8 361.727 67.8 362.9C67.8 363.58 67.6467 364.213 67.34 364.8C67.0333 365.373 66.6467 365.86 66.18 366.26C65.7133 366.647 65.1867 367.053 64.6 367.48C64.0133 367.907 63.4533 368.3 62.92 368.66C62.4 369.02 61.9133 369.46 61.46 369.98C61.0067 370.487 60.6867 371.027 60.5 371.6ZM71.4961 371.6H78.7961V373H69.7961C69.7961 372.2 69.9294 371.467 70.1961 370.8C70.4761 370.133 70.8361 369.573 71.2761 369.12C71.7294 368.653 72.2228 368.22 72.7561 367.82C73.2894 367.42 73.8161 367.047 74.3361 366.7C74.8694 366.353 75.3561 366 75.7961 365.64C76.2494 365.28 76.6094 364.873 76.8761 364.42C77.1561 363.953 77.2961 363.447 77.2961 362.9C77.2961 362.087 77.0294 361.433 76.4961 360.94C75.9761 360.447 75.2428 360.2 74.2961 360.2C73.2694 360.2 72.4561 360.6 71.8561 361.4C71.6028 361.733 71.4161 362.133 71.2961 362.6L69.9961 362C70.1828 361.373 70.4494 360.84 70.7961 360.4C71.6494 359.333 72.8161 358.8 74.2961 358.8C75.6294 358.8 76.7094 359.193 77.5361 359.98C78.3761 360.753 78.7961 361.727 78.7961 362.9C78.7961 363.58 78.6428 364.213 78.3361 364.8C78.0294 365.373 77.6428 365.86 77.1761 366.26C76.7094 366.647 76.1828 367.053 75.5961 367.48C75.0094 367.907 74.4494 368.3 73.9161 368.66C73.3961 369.02 72.9094 369.46 72.4561 369.98C72.0028 370.487 71.6828 371.027 71.4961 371.6Z" fill="black"/>
<path d="M60.5 473.6H67.8V475H58.8C58.8 474.2 58.9333 473.467 59.2 472.8C59.48 472.133 59.84 471.573 60.28 471.12C60.7333 470.653 61.2267 470.22 61.76 469.82C62.2933 469.42 62.82 469.047 63.34 468.7C63.8733 468.353 64.36 468 64.8 467.64C65.2533 467.28 65.6133 466.873 65.88 466.42C66.16 465.953 66.3 465.447 66.3 464.9C66.3 464.087 66.0333 463.433 65.5 462.94C64.98 462.447 64.2467 462.2 63.3 462.2C62.2733 462.2 61.46 462.6 60.86 463.4C60.6067 463.733 60.42 464.133 60.3 464.6L59 464C59.1867 463.373 59.4533 462.84 59.8 462.4C60.6533 461.333 61.82 460.8 63.3 460.8C64.6333 460.8 65.7133 461.193 66.54 461.98C67.38 462.753 67.8 463.727 67.8 464.9C67.8 465.58 67.6467 466.213 67.34 466.8C67.0333 467.373 66.6467 467.86 66.18 468.26C65.7133 468.647 65.1867 469.053 64.6 469.48C64.0133 469.907 63.4533 470.3 62.92 470.66C62.4 471.02 61.9133 471.46 61.46 471.98C61.0067 472.487 60.6867 473.027 60.5 473.6ZM71.4961 473.6H78.7961V475H69.7961C69.7961 474.2 69.9294 473.467 70.1961 472.8C70.4761 472.133 70.8361 471.573 71.2761 471.12C71.7294 470.653 72.2228 470.22 72.7561 469.82C73.2894 469.42 73.8161 469.047 74.3361 468.7C74.8694 468.353 75.3561 468 75.7961 467.64C76.2494 467.28 76.6094 466.873 76.8761 466.42C77.1561 465.953 77.2961 465.447 77.2961 464.9C77.2961 464.087 77.0294 463.433 76.4961 462.94C75.9761 462.447 75.2428 462.2 74.2961 462.2C73.2694 462.2 72.4561 462.6 71.8561 463.4C71.6028 463.733 71.4161 464.133 71.2961 464.6L69.9961 464C70.1828 463.373 70.4494 462.84 70.7961 462.4C71.6494 461.333 72.8161 460.8 74.2961 460.8C75.6294 460.8 76.7094 461.193 77.5361 461.98C78.3761 462.753 78.7961 463.727 78.7961 464.9C78.7961 465.58 78.6428 466.213 78.3361 466.8C78.0294 467.373 77.6428 467.86 77.1761 468.26C76.7094 468.647 76.1828 469.053 75.5961 469.48C75.0094 469.907 74.4494 470.3 73.9161 470.66C73.3961 471.02 72.9094 471.46 72.4561 471.98C72.0028 472.487 71.6828 473.027 71.4961 473.6Z" fill="black"/>
<path d="M160.5 72.6H167.8V74H158.8C158.8 73.2 158.933 72.4667 159.2 71.8C159.48 71.1333 159.84 70.5733 160.28 70.12C160.733 69.6533 161.227 69.22 161.76 68.82C162.293 68.42 162.82 68.0467 163.34 67.7C163.873 67.3533 164.36 67 164.8 66.64C165.253 66.28 165.613 65.8733 165.88 65.42C166.16 64.9533 166.3 64.4467 166.3 63.9C166.3 63.0867 166.033 62.4333 165.5 61.94C164.98 61.4467 164.247 61.2 163.3 61.2C162.273 61.2 161.46 61.6 160.86 62.4C160.607 62.7333 160.42 63.1333 160.3 63.6L159 63C159.187 62.3733 159.453 61.84 159.8 61.4C160.653 60.3333 161.82 59.8 163.3 59.8C164.633 59.8 165.713 60.1933 166.54 60.98C167.38 61.7533 167.8 62.7267 167.8 63.9C167.8 64.58 167.647 65.2133 167.34 65.8C167.033 66.3733 166.647 66.86 166.18 67.26C165.713 67.6467 165.187 68.0533 164.6 68.48C164.013 68.9067 163.453 69.3 162.92 69.66C162.4 70.02 161.913 70.46 161.46 70.98C161.007 71.4867 160.687 72.0267 160.5 72.6Z" fill="black"/>
<path d="M162 176L165.3 170.8C165.153 170.853 165.02 170.887 164.9 170.9C164.567 170.967 164.2 171 163.8 171C162.44 171 161.313 170.567 160.42 169.7C159.54 168.82 159.1 167.72 159.1 166.4C159.1 165.08 159.553 163.987 160.46 163.12C161.367 162.24 162.513 161.8 163.9 161.8C165.287 161.8 166.433 162.24 167.34 163.12C168.247 163.987 168.7 165.08 168.7 166.4C168.7 167.08 168.533 167.793 168.2 168.54C168.093 168.793 167.927 169.08 167.7 169.4L163.5 176H162ZM161.5 164.08C160.9 164.667 160.6 165.44 160.6 166.4C160.6 167.36 160.9 168.133 161.5 168.72C162.1 169.307 162.9 169.6 163.9 169.6C164.9 169.6 165.7 169.307 166.3 168.72C166.9 168.133 167.2 167.36 167.2 166.4C167.2 165.44 166.9 164.667 166.3 164.08C165.7 163.493 164.9 163.2 163.9 163.2C162.9 163.2 162.1 163.493 161.5 164.08Z" fill="black"/>
<path d="M161.4 279V267.8H158.8V266.9C159.8 266.847 160.6 266.52 161.2 265.92C161.453 265.667 161.653 265.36 161.8 265H162.9V279H161.4ZM167.092 271.6L171.292 265H172.792L169.492 270.2L169.892 270.1C170.186 270.033 170.552 270 170.992 270C172.352 270 173.472 270.44 174.352 271.32C175.246 272.187 175.692 273.28 175.692 274.6C175.692 275.92 175.239 277.02 174.332 277.9C173.426 278.767 172.279 279.2 170.892 279.2C169.506 279.2 168.359 278.767 167.452 277.9C166.546 277.02 166.092 275.92 166.092 274.6C166.092 273.867 166.259 273.153 166.592 272.46C166.699 272.207 166.866 271.92 167.092 271.6ZM168.492 272.28C167.892 272.867 167.592 273.64 167.592 274.6C167.592 275.56 167.892 276.333 168.492 276.92C169.092 277.507 169.892 277.8 170.892 277.8C171.892 277.8 172.692 277.507 173.292 276.92C173.892 276.333 174.192 275.56 174.192 274.6C174.192 273.64 173.892 272.867 173.292 272.28C172.692 271.693 171.892 271.4 170.892 271.4C169.892 271.4 169.092 271.693 168.492 272.28Z" fill="black"/>
<path d="M160.5 371.6H167.8V373H158.8C158.8 372.2 158.933 371.467 159.2 370.8C159.48 370.133 159.84 369.573 160.28 369.12C160.733 368.653 161.227 368.22 161.76 367.82C162.293 367.42 162.82 367.047 163.34 366.7C163.873 366.353 164.36 366 164.8 365.64C165.253 365.28 165.613 364.873 165.88 364.42C166.16 363.953 166.3 363.447 166.3 362.9C166.3 362.087 166.033 361.433 165.5 360.94C164.98 360.447 164.247 360.2 163.3 360.2C162.273 360.2 161.46 360.6 160.86 361.4C160.607 361.733 160.42 362.133 160.3 362.6L159 362C159.187 361.373 159.453 360.84 159.8 360.4C160.653 359.333 161.82 358.8 163.3 358.8C164.633 358.8 165.713 359.193 166.54 359.98C167.38 360.753 167.8 361.727 167.8 362.9C167.8 363.58 167.647 364.213 167.34 364.8C167.033 365.373 166.647 365.86 166.18 366.26C165.713 366.647 165.187 367.053 164.6 367.48C164.013 367.907 163.453 368.3 162.92 368.66C162.4 369.02 161.913 369.46 161.46 369.98C161.007 370.487 160.687 371.027 160.5 371.6ZM169.596 371.1L170.596 370.1C170.849 370.433 171.156 370.72 171.516 370.96C172.343 371.52 173.269 371.8 174.296 371.8C175.309 371.8 176.109 371.547 176.696 371.04C177.296 370.52 177.596 369.873 177.596 369.1C177.596 368.367 177.289 367.733 176.676 367.2C176.063 366.667 175.269 366.4 174.296 366.4H172.896V365H174.296C175.136 365 175.796 364.773 176.276 364.32C176.756 363.867 176.996 363.26 176.996 362.5C176.996 361.833 176.749 361.287 176.256 360.86C175.776 360.42 175.123 360.2 174.296 360.2C173.429 360.2 172.636 360.467 171.916 361C171.569 361.253 171.296 361.52 171.096 361.8L170.096 360.7C170.403 360.34 170.749 360.027 171.136 359.76C172.069 359.12 173.123 358.8 174.296 358.8C175.523 358.8 176.529 359.16 177.316 359.88C178.103 360.6 178.496 361.473 178.496 362.5C178.496 363.513 178.143 364.333 177.436 364.96C177.129 365.24 176.783 365.453 176.396 365.6C176.889 365.747 177.323 365.967 177.696 366.26C178.563 366.993 178.996 367.94 178.996 369.1C178.996 370.193 178.556 371.153 177.676 371.98C176.809 372.793 175.683 373.2 174.296 373.2C172.923 373.2 171.736 372.853 170.736 372.16C170.283 371.867 169.903 371.513 169.596 371.1Z" fill="black"/>
<path d="M160.5 473.6H167.8V475H158.8C158.8 474.2 158.933 473.467 159.2 472.8C159.48 472.133 159.84 471.573 160.28 471.12C160.733 470.653 161.227 470.22 161.76 469.82C162.293 469.42 162.82 469.047 163.34 468.7C163.873 468.353 164.36 468 164.8 467.64C165.253 467.28 165.613 466.873 165.88 466.42C166.16 465.953 166.3 465.447 166.3 464.9C166.3 464.087 166.033 463.433 165.5 462.94C164.98 462.447 164.247 462.2 163.3 462.2C162.273 462.2 161.46 462.6 160.86 463.4C160.607 463.733 160.42 464.133 160.3 464.6L159 464C159.187 463.373 159.453 462.84 159.8 462.4C160.653 461.333 161.82 460.8 163.3 460.8C164.633 460.8 165.713 461.193 166.54 461.98C167.38 462.753 167.8 463.727 167.8 464.9C167.8 465.58 167.647 466.213 167.34 466.8C167.033 467.373 166.647 467.86 166.18 468.26C165.713 468.647 165.187 469.053 164.6 469.48C164.013 469.907 163.453 470.3 162.92 470.66C162.4 471.02 161.913 471.46 161.46 471.98C161.007 472.487 160.687 473.027 160.5 473.6ZM169.596 473.1L170.596 472.1C170.849 472.433 171.156 472.72 171.516 472.96C172.343 473.52 173.269 473.8 174.296 473.8C175.309 473.8 176.109 473.547 176.696 473.04C177.296 472.52 177.596 471.873 177.596 471.1C177.596 470.367 177.289 469.733 176.676 469.2C176.063 468.667 175.269 468.4 174.296 468.4H172.896V467H174.296C175.136 467 175.796 466.773 176.276 466.32C176.756 465.867 176.996 465.26 176.996 464.5C176.996 463.833 176.749 463.287 176.256 462.86C175.776 462.42 175.123 462.2 174.296 462.2C173.429 462.2 172.636 462.467 171.916 463C171.569 463.253 171.296 463.52 171.096 463.8L170.096 462.7C170.403 462.34 170.749 462.027 171.136 461.76C172.069 461.12 173.123 460.8 174.296 460.8C175.523 460.8 176.529 461.16 177.316 461.88C178.103 462.6 178.496 463.473 178.496 464.5C178.496 465.513 178.143 466.333 177.436 466.96C177.129 467.24 176.783 467.453 176.396 467.6C176.889 467.747 177.323 467.967 177.696 468.26C178.563 468.993 178.996 469.94 178.996 471.1C178.996 472.193 178.556 473.153 177.676 473.98C176.809 474.793 175.683 475.2 174.296 475.2C172.923 475.2 171.736 474.853 170.736 474.16C170.283 473.867 169.903 473.513 169.596 473.1Z" fill="black"/>
<path d="M257.6 72.1L258.6 71.1C258.853 71.4333 259.16 71.72 259.52 71.96C260.347 72.52 261.273 72.8 262.3 72.8C263.313 72.8 264.113 72.5467 264.7 72.04C265.3 71.52 265.6 70.8733 265.6 70.1C265.6 69.3667 265.293 68.7333 264.68 68.2C264.067 67.6667 263.273 67.4 262.3 67.4H260.9V66H262.3C263.14 66 263.8 65.7733 264.28 65.32C264.76 64.8667 265 64.26 265 63.5C265 62.8333 264.753 62.2867 264.26 61.86C263.78 61.42 263.127 61.2 262.3 61.2C261.433 61.2 260.64 61.4667 259.92 62C259.573 62.2533 259.3 62.52 259.1 62.8L258.1 61.7C258.407 61.34 258.753 61.0267 259.14 60.76C260.073 60.12 261.127 59.8 262.3 59.8C263.527 59.8 264.533 60.16 265.32 60.88C266.107 61.6 266.5 62.4733 266.5 63.5C266.5 64.5133 266.147 65.3333 265.44 65.96C265.133 66.24 264.787 66.4533 264.4 66.6C264.893 66.7467 265.327 66.9667 265.7 67.26C266.567 67.9933 267 68.94 267 70.1C267 71.1933 266.56 72.1533 265.68 72.98C264.813 73.7933 263.687 74.2 262.3 74.2C260.927 74.2 259.74 73.8533 258.74 73.16C258.287 72.8667 257.907 72.5133 257.6 72.1Z" fill="black"/>
<path d="M260.4 176V164.8H257.8V163.9C258.8 163.847 259.6 163.52 260.2 162.92C260.453 162.667 260.653 162.36 260.8 162H261.9V176H260.4ZM270.812 176.2C269.279 176.2 267.959 175.54 266.852 174.22C265.746 172.9 265.192 171.16 265.192 169C265.192 166.84 265.746 165.1 266.852 163.78C267.959 162.46 269.272 161.8 270.792 161.8C272.312 161.8 273.626 162.46 274.732 163.78C275.839 165.1 276.392 166.84 276.392 169C276.392 171.16 275.839 172.9 274.732 174.22C273.639 175.54 272.332 176.2 270.812 176.2ZM270.812 174.8C271.919 174.8 272.872 174.287 273.672 173.26C274.486 172.22 274.892 170.8 274.892 169C274.892 167.2 274.486 165.787 273.672 164.76C272.872 163.72 271.912 163.2 270.792 163.2C269.672 163.2 268.706 163.72 267.892 164.76C267.092 165.787 266.692 167.2 266.692 169C266.692 170.813 267.092 172.233 267.892 173.26C268.706 174.287 269.679 174.8 270.812 174.8Z" fill="black"/>
<path d="M260.4 279V267.8H257.8V266.9C258.8 266.847 259.6 266.52 260.2 265.92C260.453 265.667 260.653 265.36 260.8 265H261.9V279H260.4ZM265.592 279L271.792 266.4H264.592V265H273.392V266.4L267.192 279H265.592Z" fill="black"/>
<path d="M259.5 371.6H266.8V373H257.8C257.8 372.2 257.933 371.467 258.2 370.8C258.48 370.133 258.84 369.573 259.28 369.12C259.733 368.653 260.227 368.22 260.76 367.82C261.293 367.42 261.82 367.047 262.34 366.7C262.873 366.353 263.36 366 263.8 365.64C264.253 365.28 264.613 364.873 264.88 364.42C265.16 363.953 265.3 363.447 265.3 362.9C265.3 362.087 265.033 361.433 264.5 360.94C263.98 360.447 263.247 360.2 262.3 360.2C261.273 360.2 260.46 360.6 259.86 361.4C259.607 361.733 259.42 362.133 259.3 362.6L258 362C258.187 361.373 258.453 360.84 258.8 360.4C259.653 359.333 260.82 358.8 262.3 358.8C263.633 358.8 264.713 359.193 265.54 359.98C266.38 360.753 266.8 361.727 266.8 362.9C266.8 363.58 266.647 364.213 266.34 364.8C266.033 365.373 265.647 365.86 265.18 366.26C264.713 366.647 264.187 367.053 263.6 367.48C263.013 367.907 262.453 368.3 261.92 368.66C261.4 369.02 260.913 369.46 260.46 369.98C260.007 370.487 259.687 371.027 259.5 371.6ZM267.991 370V368.3L274.691 359H276.591V368.6H278.391V370H276.591V373H275.091V370H267.991ZM269.391 368.6H275.091V360.7L269.391 368.6Z" fill="black"/>
<path d="M259.5 473.6H266.8V475H257.8C257.8 474.2 257.933 473.467 258.2 472.8C258.48 472.133 258.84 471.573 259.28 471.12C259.733 470.653 260.227 470.22 260.76 469.82C261.293 469.42 261.82 469.047 262.34 468.7C262.873 468.353 263.36 468 263.8 467.64C264.253 467.28 264.613 466.873 264.88 466.42C265.16 465.953 265.3 465.447 265.3 464.9C265.3 464.087 265.033 463.433 264.5 462.94C263.98 462.447 263.247 462.2 262.3 462.2C261.273 462.2 260.46 462.6 259.86 463.4C259.607 463.733 259.42 464.133 259.3 464.6L258 464C258.187 463.373 258.453 462.84 258.8 462.4C259.653 461.333 260.82 460.8 262.3 460.8C263.633 460.8 264.713 461.193 265.54 461.98C266.38 462.753 266.8 463.727 266.8 464.9C266.8 465.58 266.647 466.213 266.34 466.8C266.033 467.373 265.647 467.86 265.18 468.26C264.713 468.647 264.187 469.053 263.6 469.48C263.013 469.907 262.453 470.3 261.92 470.66C261.4 471.02 260.913 471.46 260.46 471.98C260.007 472.487 259.687 473.027 259.5 473.6ZM267.991 472V470.3L274.691 461H276.591V470.6H278.391V472H276.591V475H275.091V472H267.991ZM269.391 470.6H275.091V462.7L269.391 470.6Z" fill="black"/>
<path d="M355.6 71V69.3L362.3 60H364.2V69.6H366V71H364.2V74H362.7V71H355.6ZM357 69.6H362.7V61.7L357 69.6Z" fill="black"/>
<path d="M358.4 176V164.8H355.8V163.9C356.8 163.847 357.6 163.52 358.2 162.92C358.453 162.667 358.653 162.36 358.8 162H359.9V176H358.4ZM365.392 176V164.8H362.792V163.9C363.792 163.847 364.592 163.52 365.192 162.92C365.446 162.667 365.646 162.36 365.792 162H366.892V176H365.392Z" fill="black"/>
<path d="M358.4 279V267.8H355.8V266.9C356.8 266.847 357.6 266.52 358.2 265.92C358.453 265.667 358.653 265.36 358.8 265H359.9V279H358.4ZM363.192 274.9C363.192 273.807 363.592 272.9 364.392 272.18C364.739 271.86 365.139 271.6 365.592 271.4C365.246 271.213 364.946 270.993 364.692 270.74C364.092 270.14 363.792 269.393 363.792 268.5C363.792 267.527 364.192 266.667 364.992 265.92C365.792 265.173 366.759 264.8 367.892 264.8C369.026 264.8 369.992 265.173 370.792 265.92C371.592 266.667 371.992 267.527 371.992 268.5C371.992 269.393 371.692 270.14 371.092 270.74C370.839 270.993 370.539 271.213 370.192 271.4C370.646 271.6 371.046 271.86 371.392 272.18C372.192 272.9 372.592 273.807 372.592 274.9C372.592 276.073 372.139 277.087 371.232 277.94C370.339 278.78 369.226 279.2 367.892 279.2C366.559 279.2 365.439 278.78 364.532 277.94C363.639 277.087 363.192 276.073 363.192 274.9ZM365.992 266.86C365.526 267.287 365.292 267.833 365.292 268.5C365.292 269.167 365.526 269.72 365.992 270.16C366.472 270.587 367.106 270.8 367.892 270.8C368.679 270.8 369.306 270.587 369.772 270.16C370.252 269.72 370.492 269.167 370.492 268.5C370.492 267.833 370.252 267.287 369.772 266.86C369.306 266.42 368.679 266.2 367.892 266.2C367.106 266.2 366.472 266.42 365.992 266.86ZM364.692 274.9C364.692 275.687 364.986 276.367 365.572 276.94C366.159 277.513 366.932 277.8 367.892 277.8C368.852 277.8 369.626 277.513 370.212 276.94C370.799 276.367 371.092 275.687 371.092 274.9C371.092 274.14 370.779 273.467 370.152 272.88C369.526 272.293 368.772 272 367.892 272C367.012 272 366.259 272.293 365.632 272.88C365.006 273.467 364.692 274.14 364.692 274.9Z" fill="black"/>
<path d="M357.5 371.6H364.8V373H355.8C355.8 372.2 355.933 371.467 356.2 370.8C356.48 370.133 356.84 369.573 357.28 369.12C357.733 368.653 358.227 368.22 358.76 367.82C359.293 367.42 359.82 367.047 360.34 366.7C360.873 366.353 361.36 366 361.8 365.64C362.253 365.28 362.613 364.873 362.88 364.42C363.16 363.953 363.3 363.447 363.3 362.9C363.3 362.087 363.033 361.433 362.5 360.94C361.98 360.447 361.247 360.2 360.3 360.2C359.273 360.2 358.46 360.6 357.86 361.4C357.607 361.733 357.42 362.133 357.3 362.6L356 362C356.187 361.373 356.453 360.84 356.8 360.4C357.653 359.333 358.82 358.8 360.3 358.8C361.633 358.8 362.713 359.193 363.54 359.98C364.38 360.753 364.8 361.727 364.8 362.9C364.8 363.58 364.647 364.213 364.34 364.8C364.033 365.373 363.647 365.86 363.18 366.26C362.713 366.647 362.187 367.053 361.6 367.48C361.013 367.907 360.453 368.3 359.92 368.66C359.4 369.02 358.913 369.46 358.46 369.98C358.007 370.487 357.687 371.027 357.5 371.6ZM367.496 371.1L368.496 370.1C368.749 370.42 369.049 370.707 369.396 370.96C370.223 371.52 371.123 371.8 372.096 371.8C373.096 371.8 373.896 371.507 374.496 370.92C375.096 370.333 375.396 369.56 375.396 368.6C375.396 367.64 375.103 366.867 374.516 366.28C373.929 365.693 373.156 365.4 372.196 365.4C371.303 365.4 370.523 365.653 369.856 366.16C369.563 366.373 369.309 366.62 369.096 366.9H367.996L368.496 359H375.996V360.4H369.796L369.496 364.8C369.749 364.64 369.989 364.507 370.216 364.4C370.776 364.133 371.436 364 372.196 364C373.556 364 374.676 364.44 375.556 365.32C376.449 366.187 376.896 367.28 376.896 368.6C376.896 369.96 376.456 371.067 375.576 371.92C374.696 372.773 373.536 373.2 372.096 373.2C370.789 373.2 369.636 372.853 368.636 372.16C368.209 371.867 367.829 371.513 367.496 371.1Z" fill="black"/>
<path d="M357.5 473.6H364.8V475H355.8C355.8 474.2 355.933 473.467 356.2 472.8C356.48 472.133 356.84 471.573 357.28 471.12C357.733 470.653 358.227 470.22 358.76 469.82C359.293 469.42 359.82 469.047 360.34 468.7C360.873 468.353 361.36 468 361.8 467.64C362.253 467.28 362.613 466.873 362.88 466.42C363.16 465.953 363.3 465.447 363.3 464.9C363.3 464.087 363.033 463.433 362.5 462.94C361.98 462.447 361.247 462.2 360.3 462.2C359.273 462.2 358.46 462.6 357.86 463.4C357.607 463.733 357.42 464.133 357.3 464.6L356 464C356.187 463.373 356.453 462.84 356.8 462.4C357.653 461.333 358.82 460.8 360.3 460.8C361.633 460.8 362.713 461.193 363.54 461.98C364.38 462.753 364.8 463.727 364.8 464.9C364.8 465.58 364.647 466.213 364.34 466.8C364.033 467.373 363.647 467.86 363.18 468.26C362.713 468.647 362.187 469.053 361.6 469.48C361.013 469.907 360.453 470.3 359.92 470.66C359.4 471.02 358.913 471.46 358.46 471.98C358.007 472.487 357.687 473.027 357.5 473.6ZM367.496 473.1L368.496 472.1C368.749 472.42 369.049 472.707 369.396 472.96C370.223 473.52 371.123 473.8 372.096 473.8C373.096 473.8 373.896 473.507 374.496 472.92C375.096 472.333 375.396 471.56 375.396 470.6C375.396 469.64 375.103 468.867 374.516 468.28C373.929 467.693 373.156 467.4 372.196 467.4C371.303 467.4 370.523 467.653 369.856 468.16C369.563 468.373 369.309 468.62 369.096 468.9H367.996L368.496 461H375.996V462.4H369.796L369.496 466.8C369.749 466.64 369.989 466.507 370.216 466.4C370.776 466.133 371.436 466 372.196 466C373.556 466 374.676 466.44 375.556 467.32C376.449 468.187 376.896 469.28 376.896 470.6C376.896 471.96 376.456 473.067 375.576 473.92C374.696 474.773 373.536 475.2 372.096 475.2C370.789 475.2 369.636 474.853 368.636 474.16C368.209 473.867 367.829 473.513 367.496 473.1Z" fill="black"/>
<path d="M457.5 72.1L458.5 71.1C458.753 71.42 459.053 71.7067 459.4 71.96C460.227 72.52 461.127 72.8 462.1 72.8C463.1 72.8 463.9 72.5067 464.5 71.92C465.1 71.3333 465.4 70.56 465.4 69.6C465.4 68.64 465.107 67.8667 464.52 67.28C463.933 66.6933 463.16 66.4 462.2 66.4C461.307 66.4 460.527 66.6533 459.86 67.16C459.567 67.3733 459.313 67.62 459.1 67.9H458L458.5 60H466V61.4H459.8L459.5 65.8C459.753 65.64 459.993 65.5067 460.22 65.4C460.78 65.1333 461.44 65 462.2 65C463.56 65 464.68 65.44 465.56 66.32C466.453 67.1867 466.9 68.28 466.9 69.6C466.9 70.96 466.46 72.0667 465.58 72.92C464.7 73.7733 463.54 74.2 462.1 74.2C460.793 74.2 459.64 73.8533 458.64 73.16C458.213 72.8667 457.833 72.5133 457.5 72.1Z" fill="black"/>
<path d="M459.4 176V164.8H456.8V163.9C457.8 163.847 458.6 163.52 459.2 162.92C459.453 162.667 459.653 162.36 459.8 162H460.9V176H459.4ZM465.492 174.6H472.792V176H463.792C463.792 175.2 463.926 174.467 464.192 173.8C464.472 173.133 464.832 172.573 465.272 172.12C465.726 171.653 466.219 171.22 466.752 170.82C467.286 170.42 467.812 170.047 468.332 169.7C468.866 169.353 469.352 169 469.792 168.64C470.246 168.28 470.606 167.873 470.872 167.42C471.152 166.953 471.292 166.447 471.292 165.9C471.292 165.087 471.026 164.433 470.492 163.94C469.972 163.447 469.239 163.2 468.292 163.2C467.266 163.2 466.452 163.6 465.852 164.4C465.599 164.733 465.412 165.133 465.292 165.6L463.992 165C464.179 164.373 464.446 163.84 464.792 163.4C465.646 162.333 466.812 161.8 468.292 161.8C469.626 161.8 470.706 162.193 471.532 162.98C472.372 163.753 472.792 164.727 472.792 165.9C472.792 166.58 472.639 167.213 472.332 167.8C472.026 168.373 471.639 168.86 471.172 169.26C470.706 169.647 470.179 170.053 469.592 170.48C469.006 170.907 468.446 171.3 467.912 171.66C467.392 172.02 466.906 172.46 466.452 172.98C465.999 173.487 465.679 174.027 465.492 174.6Z" fill="black"/>
<path d="M459.4 279V267.8H456.8V266.9C457.8 266.847 458.6 266.52 459.2 265.92C459.453 265.667 459.653 265.36 459.8 265H460.9V279H459.4ZM466.992 279L470.292 273.8C470.146 273.853 470.012 273.887 469.892 273.9C469.559 273.967 469.192 274 468.792 274C467.432 274 466.306 273.567 465.412 272.7C464.532 271.82 464.092 270.72 464.092 269.4C464.092 268.08 464.546 266.987 465.452 266.12C466.359 265.24 467.506 264.8 468.892 264.8C470.279 264.8 471.426 265.24 472.332 266.12C473.239 266.987 473.692 268.08 473.692 269.4C473.692 270.08 473.526 270.793 473.192 271.54C473.086 271.793 472.919 272.08 472.692 272.4L468.492 279H466.992ZM466.492 267.08C465.892 267.667 465.592 268.44 465.592 269.4C465.592 270.36 465.892 271.133 466.492 271.72C467.092 272.307 467.892 272.6 468.892 272.6C469.892 272.6 470.692 272.307 471.292 271.72C471.892 271.133 472.192 270.36 472.192 269.4C472.192 268.44 471.892 267.667 471.292 267.08C470.692 266.493 469.892 266.2 468.892 266.2C467.892 266.2 467.092 266.493 466.492 267.08Z" fill="black"/>
<path d="M458.5 371.6H465.8V373H456.8C456.8 372.2 456.933 371.467 457.2 370.8C457.48 370.133 457.84 369.573 458.28 369.12C458.733 368.653 459.227 368.22 459.76 367.82C460.293 367.42 460.82 367.047 461.34 366.7C461.873 366.353 462.36 366 462.8 365.64C463.253 365.28 463.613 364.873 463.88 364.42C464.16 363.953 464.3 363.447 464.3 362.9C464.3 362.087 464.033 361.433 463.5 360.94C462.98 360.447 462.247 360.2 461.3 360.2C460.273 360.2 459.46 360.6 458.86 361.4C458.607 361.733 458.42 362.133 458.3 362.6L457 362C457.187 361.373 457.453 360.84 457.8 360.4C458.653 359.333 459.82 358.8 461.3 358.8C462.633 358.8 463.713 359.193 464.54 359.98C465.38 360.753 465.8 361.727 465.8 362.9C465.8 363.58 465.647 364.213 465.34 364.8C465.033 365.373 464.647 365.86 464.18 366.26C463.713 366.647 463.187 367.053 462.6 367.48C462.013 367.907 461.453 368.3 460.92 368.66C460.4 369.02 459.913 369.46 459.46 369.98C459.007 370.487 458.687 371.027 458.5 371.6ZM469.096 365.6L473.296 359H474.796L471.496 364.2L471.896 364.1C472.189 364.033 472.556 364 472.996 364C474.356 364 475.476 364.44 476.356 365.32C477.249 366.187 477.696 367.28 477.696 368.6C477.696 369.92 477.243 371.02 476.336 371.9C475.429 372.767 474.283 373.2 472.896 373.2C471.509 373.2 470.363 372.767 469.456 371.9C468.549 371.02 468.096 369.92 468.096 368.6C468.096 367.867 468.263 367.153 468.596 366.46C468.703 366.207 468.869 365.92 469.096 365.6ZM470.496 366.28C469.896 366.867 469.596 367.64 469.596 368.6C469.596 369.56 469.896 370.333 470.496 370.92C471.096 371.507 471.896 371.8 472.896 371.8C473.896 371.8 474.696 371.507 475.296 370.92C475.896 370.333 476.196 369.56 476.196 368.6C476.196 367.64 475.896 366.867 475.296 366.28C474.696 365.693 473.896 365.4 472.896 365.4C471.896 365.4 471.096 365.693 470.496 366.28Z" fill="black"/>
<path d="M458.5 473.6H465.8V475H456.8C456.8 474.2 456.933 473.467 457.2 472.8C457.48 472.133 457.84 471.573 458.28 471.12C458.733 470.653 459.227 470.22 459.76 469.82C460.293 469.42 460.82 469.047 461.34 468.7C461.873 468.353 462.36 468 462.8 467.64C463.253 467.28 463.613 466.873 463.88 466.42C464.16 465.953 464.3 465.447 464.3 464.9C464.3 464.087 464.033 463.433 463.5 462.94C462.98 462.447 462.247 462.2 461.3 462.2C460.273 462.2 459.46 462.6 458.86 463.4C458.607 463.733 458.42 464.133 458.3 464.6L457 464C457.187 463.373 457.453 462.84 457.8 462.4C458.653 461.333 459.82 460.8 461.3 460.8C462.633 460.8 463.713 461.193 464.54 461.98C465.38 462.753 465.8 463.727 465.8 464.9C465.8 465.58 465.647 466.213 465.34 466.8C465.033 467.373 464.647 467.86 464.18 468.26C463.713 468.647 463.187 469.053 462.6 469.48C462.013 469.907 461.453 470.3 460.92 470.66C460.4 471.02 459.913 471.46 459.46 471.98C459.007 472.487 458.687 473.027 458.5 473.6ZM469.096 467.6L473.296 461H474.796L471.496 466.2L471.896 466.1C472.189 466.033 472.556 466 472.996 466C474.356 466 475.476 466.44 476.356 467.32C477.249 468.187 477.696 469.28 477.696 470.6C477.696 471.92 477.243 473.02 476.336 473.9C475.429 474.767 474.283 475.2 472.896 475.2C471.509 475.2 470.363 474.767 469.456 473.9C468.549 473.02 468.096 471.92 468.096 470.6C468.096 469.867 468.263 469.153 468.596 468.46C468.703 468.207 468.869 467.92 469.096 467.6ZM470.496 468.28C469.896 468.867 469.596 469.64 469.596 470.6C469.596 471.56 469.896 472.333 470.496 472.92C471.096 473.507 471.896 473.8 472.896 473.8C473.896 473.8 474.696 473.507 475.296 472.92C475.896 472.333 476.196 471.56 476.196 470.6C476.196 469.64 475.896 468.867 475.296 468.28C474.696 467.693 473.896 467.4 472.896 467.4C471.896 467.4 471.096 467.693 470.496 468.28Z" fill="black"/>
<rect x="159" y="83" width="135" height="18" rx="5" fill="#FFBB00"/>
<rect x="58" y="105" width="135" height="18" rx="5" fill="#1F1C1C"/>
<rect x="456" y="293" width="135" height="18" rx="5" fill="#1F1C1C"/>
<rect x="332" y="408" width="135" height="18" rx="5" fill="#1F1C1C"/>
<rect x="58" y="288" width="135" height="18" rx="5" fill="#FFBB00"/>
<rect x="358" y="185" width="135" height="18" rx="5" fill="#FFBB00"/>
<rect x="257" y="383" width="135" height="18" rx="5" fill="#FFBB00"/>
<path d="M209.474 280.569C208.733 280.939 208.432 281.84 208.803 282.581C209.173 283.322 210.074 283.622 210.815 283.252L209.474 280.569ZM302.09 239.194L302.745 240.543L302.09 239.194ZM334.001 220.5L333.219 219.22L334.001 220.5ZM349.501 209C349.501 208.172 348.83 207.5 348.001 207.5H334.501C333.673 207.5 333.001 208.172 333.001 209C333.001 209.828 333.673 210.5 334.501 210.5H346.501V222.5C346.501 223.328 347.173 224 348.001 224C348.83 224 349.501 223.328 349.501 222.5V209ZM210.815 283.252C225.914 275.703 241.27 268.725 256.672 261.782C272.066 254.843 287.511 247.936 302.745 240.543L301.435 237.844C286.248 245.214 270.848 252.101 255.439 259.047C240.038 265.99 224.632 272.99 209.474 280.569L210.815 283.252ZM302.745 240.543C315.586 234.312 322.796 229.105 334.783 221.78L333.219 219.22C321.068 226.646 314.102 231.698 301.435 237.844L302.745 240.543ZM334.783 221.78C336.369 220.811 339.456 218.36 342.317 215.977C345.195 213.579 348.008 211.115 349.062 210.061L346.941 207.939C345.995 208.885 343.281 211.27 340.397 213.672C337.494 216.089 334.582 218.387 333.219 219.22L334.783 221.78Z" fill="black"/>
<path d="M426.364 71.5859C412.913 88.0635 398.645 103.918 383.839 119.187C382.252 120.824 369.473 133.965 369.473 131.925" stroke="#FFBB00" stroke-width="3" stroke-linecap="round"/>
<path d="M384.988 90.5488C391.998 104.843 396.836 123.115 409.124 133.648" stroke="#FFBB00" stroke-width="3" stroke-linecap="round"/>
<path d="M35 390.228C56.6931 383.553 81.4362 386.78 103.959 386.78" stroke="black" stroke-width="3" stroke-linecap="round"/>
<path d="M36.7227 404.019C52.0776 401.807 67.3386 398.985 82.887 398.847C88.1968 398.8 94.6259 397.798 98.7859 400.571" stroke="black" stroke-width="3" stroke-linecap="round"/>
<path d="M36.7227 416.088C51.1797 413.633 65.1092 410.916 79.8221 410.916" stroke="black" stroke-width="3" stroke-linecap="round"/>
<path d="M36.7227 426.432L55.6864 422.984" stroke="black" stroke-width="3" stroke-linecap="round"/>
</svg>
