<svg width="226" height="225" viewBox="0 0 226 225" fill="none" xmlns="http://www.w3.org/2000/svg">
<path d="M22.7305 0V225" stroke="#E5E5E5"/>
<path d="M112.297 0V225" stroke="#E5E5E5"/>
<path d="M67.2891 0V225" stroke="#E5E5E5"/>
<path d="M156.855 0V225" stroke="#E5E5E5"/>
<path d="M201.863 0V225" stroke="#E5E5E5"/>
<path d="M0 202.275H225.042" stroke="#E5E5E5"/>
<path d="M0 112.275H225.042" stroke="#E5E5E5"/>
<path d="M0 157.275H225.042" stroke="#E5E5E5"/>
<path d="M0 67.2754H225.042" stroke="#E5E5E5"/>
<path d="M0 22.2754H225.042" stroke="#E5E5E5"/>
<path d="M27.6351 33.3V28.26H26.4648V27.855C26.9149 27.831 27.275 27.684 27.545 27.414C27.6591 27.3 27.7491 27.162 27.8151 27H28.3102V33.3H27.6351Z" fill="black"/>
<path d="M26.6445 77.3536C26.6445 76.8617 26.8246 76.4536 27.1846 76.1296C27.3407 75.9856 27.5207 75.8686 27.7247 75.7786C27.5687 75.6944 27.4337 75.5954 27.3197 75.4816C27.0496 75.2116 26.9146 74.8754 26.9146 74.4736C26.9146 74.0357 27.0946 73.6487 27.4547 73.3126C27.8148 72.9764 28.2498 72.8086 28.7599 72.8086C29.27 72.8086 29.7051 72.9764 30.0652 73.3126C30.4252 73.6487 30.6053 74.0357 30.6053 74.4736C30.6053 74.8754 30.4703 75.2116 30.2002 75.4816C30.0862 75.5954 29.9512 75.6944 29.7951 75.7786C29.9991 75.8686 30.1792 75.9856 30.3352 76.1296C30.6953 76.4536 30.8753 76.8617 30.8753 77.3536C30.8753 77.8814 30.6713 78.3377 30.2632 78.7216C29.8612 79.0996 29.36 79.2886 28.7599 79.2886C28.1598 79.2886 27.6557 79.0996 27.2476 78.7216C26.8456 78.3377 26.6445 77.8814 26.6445 77.3536ZM27.9048 73.7356C27.6947 73.9277 27.5897 74.1734 27.5897 74.4736C27.5897 74.7737 27.6947 75.0226 27.9048 75.2206C28.1208 75.4127 28.4058 75.5086 28.7599 75.5086C29.114 75.5086 29.396 75.4127 29.6061 75.2206C29.8221 75.0226 29.9301 74.7737 29.9301 74.4736C29.9301 74.1734 29.8221 73.9277 29.6061 73.7356C29.396 73.5376 29.114 73.4386 28.7599 73.4386C28.4058 73.4386 28.1208 73.5376 27.9048 73.7356ZM27.3197 77.3536C27.3197 77.7077 27.4517 78.0137 27.7157 78.2716C27.9798 78.5294 28.3278 78.6586 28.7599 78.6586C29.192 78.6586 29.5401 78.5294 29.8041 78.2716C30.0682 78.0137 30.2002 77.7077 30.2002 77.3536C30.2002 77.0116 30.0592 76.7087 29.7771 76.4446C29.4951 76.1804 29.156 76.0486 28.7599 76.0486C28.3639 76.0486 28.0248 76.1804 27.7427 76.4446C27.4607 76.7087 27.3197 77.0116 27.3197 77.3536Z" fill="black"/>
<path d="M27.6351 125.55V120.51H26.4648V120.105C26.9149 120.081 27.275 119.934 27.545 119.664C27.6591 119.55 27.7491 119.412 27.8151 119.25H28.3102V125.55H27.6351ZM29.927 124.695L30.3771 124.245C30.4911 124.389 30.6261 124.518 30.7821 124.632C31.1542 124.884 31.5593 125.01 31.9974 125.01C32.4475 125.01 32.8075 124.878 33.0776 124.614C33.3476 124.35 33.4827 124.002 33.4827 123.57C33.4827 123.138 33.3506 122.79 33.0866 122.526C32.8225 122.262 32.4745 122.13 32.0424 122.13C31.6403 122.13 31.2893 122.244 30.9892 122.472C30.8572 122.568 30.7431 122.679 30.6471 122.805H30.152L30.3771 119.25H33.7527V119.88H30.9622L30.8272 121.86C30.9412 121.788 31.0492 121.728 31.1512 121.68C31.4033 121.56 31.7003 121.5 32.0424 121.5C32.6545 121.5 33.1586 121.698 33.5547 122.094C33.9567 122.484 34.1578 122.976 34.1578 123.57C34.1578 124.182 33.9597 124.68 33.5637 125.064C33.1676 125.448 32.6455 125.64 31.9974 125.64C31.4092 125.64 30.8902 125.484 30.4401 125.172C30.248 125.04 30.077 124.881 29.927 124.695Z" fill="black"/>
<path d="M27.23 167.219H30.5156V167.849H26.4648C26.4648 167.489 26.5248 167.159 26.6449 166.859C26.7709 166.559 26.9329 166.307 27.131 166.103C27.335 165.893 27.5571 165.698 27.7971 165.518C28.0371 165.338 28.2742 165.17 28.5082 165.014C28.7483 164.858 28.9673 164.699 29.1654 164.537C29.3694 164.375 29.5314 164.192 29.6514 163.988C29.7775 163.778 29.8405 163.55 29.8405 163.304C29.8405 162.938 29.7204 162.644 29.4804 162.422C29.2464 162.2 28.9163 162.089 28.4902 162.089C28.0281 162.089 27.6621 162.269 27.392 162.629C27.278 162.779 27.194 162.959 27.14 163.169L26.5549 162.899C26.6389 162.617 26.7589 162.377 26.9149 162.179C27.299 161.699 27.8241 161.459 28.4902 161.459C29.0903 161.459 29.5764 161.636 29.9485 161.99C30.3266 162.338 30.5156 162.776 30.5156 163.304C30.5156 163.61 30.4466 163.895 30.3086 164.159C30.1705 164.417 29.9965 164.636 29.7865 164.816C29.5764 164.99 29.3394 165.173 29.0753 165.365C28.8113 165.557 28.5592 165.734 28.3192 165.896C28.0851 166.058 27.8661 166.256 27.6621 166.49C27.458 166.718 27.314 166.961 27.23 167.219ZM32.1792 167.219H35.4648V167.849H31.414C31.414 167.489 31.474 167.159 31.5941 166.859C31.7201 166.559 31.8821 166.307 32.0801 166.103C32.2842 165.893 32.5062 165.698 32.7463 165.518C32.9863 165.338 33.2234 165.17 33.4574 165.014C33.6974 164.858 33.9165 164.699 34.1145 164.537C34.3186 164.375 34.4806 164.192 34.6006 163.988C34.7266 163.778 34.7897 163.55 34.7897 163.304C34.7897 162.938 34.6696 162.644 34.4296 162.422C34.1955 162.2 33.8655 162.089 33.4394 162.089C32.9773 162.089 32.6113 162.269 32.3412 162.629C32.2272 162.779 32.1432 162.959 32.0891 163.169L31.504 162.899C31.5881 162.617 31.7081 162.377 31.8641 162.179C32.2482 161.699 32.7733 161.459 33.4394 161.459C34.0395 161.459 34.5256 161.636 34.8977 161.99C35.2758 162.338 35.4648 162.776 35.4648 163.304C35.4648 163.61 35.3958 163.895 35.2577 164.159C35.1197 164.417 34.9457 164.636 34.7357 164.816C34.5256 164.99 34.2886 165.173 34.0245 165.365C33.7605 165.557 33.5084 165.734 33.2684 165.896C33.0343 166.058 32.8153 166.256 32.6112 166.49C32.4072 166.718 32.2632 166.961 32.1792 167.219Z" fill="black"/>
<path d="M27.23 213.119H30.5156V213.749H26.4648C26.4648 213.389 26.5248 213.06 26.6449 212.759C26.7709 212.459 26.9329 212.207 27.131 212.003C27.335 211.793 27.5571 211.598 27.7971 211.418C28.0371 211.238 28.2742 211.071 28.5082 210.914C28.7483 210.758 28.9673 210.599 29.1654 210.437C29.3694 210.275 29.5314 210.092 29.6514 209.888C29.7775 209.678 29.8405 209.451 29.8405 209.204C29.8405 208.839 29.7204 208.544 29.4804 208.322C29.2464 208.101 28.9163 207.989 28.4902 207.989C28.0281 207.989 27.6621 208.169 27.392 208.529C27.278 208.679 27.194 208.859 27.14 209.069L26.5549 208.799C26.6389 208.517 26.7589 208.277 26.9149 208.079C27.299 207.599 27.8241 207.359 28.4902 207.359C29.0903 207.359 29.5764 207.536 29.9485 207.89C30.3266 208.238 30.5156 208.677 30.5156 209.204C30.5156 209.51 30.4466 209.795 30.3086 210.059C30.1705 210.317 29.9965 210.536 29.7865 210.716C29.5764 210.891 29.3394 211.073 29.0753 211.265C28.8113 211.458 28.5592 211.634 28.3192 211.796C28.0851 211.958 27.8661 212.156 27.6621 212.39C27.458 212.619 27.314 212.862 27.23 213.119ZM32.1792 213.119H35.4648V213.749H31.414C31.414 213.389 31.474 213.06 31.5941 212.759C31.7201 212.459 31.8821 212.207 32.0801 212.003C32.2842 211.793 32.5062 211.598 32.7463 211.418C32.9863 211.238 33.2234 211.071 33.4574 210.914C33.6974 210.758 33.9165 210.599 34.1145 210.437C34.3186 210.275 34.4806 210.092 34.6006 209.888C34.7266 209.678 34.7897 209.451 34.7897 209.204C34.7897 208.839 34.6696 208.544 34.4296 208.322C34.1955 208.101 33.8655 207.989 33.4394 207.989C32.9773 207.989 32.6113 208.169 32.3412 208.529C32.2272 208.679 32.1432 208.859 32.0891 209.069L31.504 208.799C31.5881 208.517 31.7081 208.277 31.8641 208.079C32.2482 207.599 32.7733 207.359 33.4394 207.359C34.0395 207.359 34.5256 207.536 34.8977 207.89C35.2758 208.238 35.4648 208.677 35.4648 209.204C35.4648 209.51 35.3958 209.795 35.2577 210.059C35.1197 210.317 34.9457 210.536 34.7357 210.716C34.5256 210.891 34.2886 211.073 34.0245 211.265C33.7605 211.458 33.5084 211.634 33.2684 211.796C33.0343 211.958 32.8153 212.156 32.6112 212.39C32.4072 212.619 32.2632 212.862 32.1792 213.119Z" fill="black"/>
<path d="M72.2378 32.6702H75.5234V33.3002H71.4727C71.4727 32.9402 71.5325 32.6102 71.6527 32.3102C71.7787 32.0101 71.9407 31.7581 72.1388 31.5542C72.3427 31.3441 72.565 31.1492 72.8049 30.9692C73.0448 30.7892 73.282 30.6212 73.516 30.4652C73.7559 30.3091 73.9751 30.1502 74.1732 29.9882C74.3771 29.8262 74.5391 29.6431 74.6593 29.4392C74.7853 29.2291 74.8483 29.0012 74.8483 28.7552C74.8483 28.3892 74.7281 28.0951 74.4882 27.8732C74.2542 27.6512 73.9243 27.5402 73.498 27.5402C73.0358 27.5402 72.6699 27.7202 72.3998 28.0802C72.286 28.2301 72.2018 28.4101 72.1478 28.6202L71.5627 28.3502C71.6468 28.0681 71.7666 27.8282 71.9227 27.6302C72.3067 27.1501 72.8319 26.9102 73.498 26.9102C74.098 26.9102 74.5841 27.0871 74.9563 27.4412C75.3344 27.7891 75.5234 28.2272 75.5234 28.7552C75.5234 29.0612 75.4546 29.3461 75.3164 29.6102C75.1782 29.8681 75.0045 30.0872 74.7943 30.2672C74.5841 30.4412 74.3474 30.6241 74.0832 30.8162C73.819 31.0082 73.5669 31.1852 73.327 31.3472C73.093 31.5092 72.8738 31.7072 72.6699 31.9412C72.466 32.1692 72.322 32.4122 72.2378 32.6702Z" fill="black"/>
<path d="M72.9146 79.2005L74.3999 76.8605C74.3337 76.8844 74.2739 76.8997 74.2199 76.9055C74.07 76.9357 73.9048 76.9505 73.7248 76.9505C73.1127 76.9505 72.6054 76.7557 72.2035 76.3655C71.8074 75.9695 71.6094 75.4745 71.6094 74.8805C71.6094 74.2865 71.8133 73.7947 72.2215 73.4045C72.6297 73.0085 73.1455 72.8105 73.7698 72.8105C74.394 72.8105 74.9098 73.0085 75.3181 73.4045C75.7263 73.7947 75.9302 74.2865 75.9302 74.8805C75.9302 75.1865 75.855 75.5074 75.7051 75.8435C75.657 75.9574 75.5823 76.0865 75.4801 76.2305L73.5897 79.2005H72.9146ZM72.6896 73.8365C72.4195 74.1007 72.2845 74.4485 72.2845 74.8805C72.2845 75.3125 72.4195 75.6604 72.6896 75.9245C72.9596 76.1887 73.3197 76.3205 73.7698 76.3205C74.2199 76.3205 74.5799 76.1887 74.85 75.9245C75.12 75.6604 75.2551 75.3125 75.2551 74.8805C75.2551 74.4485 75.12 74.1007 74.85 73.8365C74.5799 73.5724 74.2199 73.4405 73.7698 73.4405C73.3197 73.4405 72.9596 73.5724 72.6896 73.8365Z" fill="black"/>
<path d="M72.6429 125.55V120.51H71.4727V120.105C71.9227 120.081 72.2828 119.934 72.5529 119.664C72.6667 119.55 72.7567 119.412 72.8229 119.25H73.318V125.55H72.6429ZM75.2047 122.22L77.0951 119.25H77.7702L76.285 121.59L76.465 121.545C76.5973 121.515 76.762 121.5 76.9601 121.5C77.5722 121.5 78.0763 121.698 78.4724 122.094C78.8747 122.484 79.0755 122.976 79.0755 123.57C79.0755 124.164 78.8716 124.659 78.4634 125.055C78.0556 125.445 77.5393 125.64 76.9151 125.64C76.2913 125.64 75.775 125.445 75.3668 125.055C74.959 124.659 74.7547 124.164 74.7547 123.57C74.7547 123.24 74.8298 122.919 74.9797 122.607C75.0279 122.493 75.103 122.364 75.2047 122.22ZM75.8349 122.526C75.5648 122.79 75.4298 123.138 75.4298 123.57C75.4298 124.002 75.5648 124.35 75.8349 124.614C76.1049 124.878 76.465 125.01 76.9151 125.01C77.3652 125.01 77.7252 124.878 77.9953 124.614C78.2653 124.35 78.4003 124.002 78.4003 123.57C78.4003 123.138 78.2653 122.79 77.9953 122.526C77.7252 122.262 77.3652 122.13 76.9151 122.13C76.465 122.13 76.1049 122.262 75.8349 122.526Z" fill="black"/>
<path d="M72.2378 167.219H75.5234V167.849H71.4727C71.4727 167.489 71.5325 167.159 71.6527 166.859C71.7787 166.559 71.9407 166.307 72.1388 166.103C72.3427 165.893 72.565 165.698 72.8049 165.518C73.0448 165.338 73.282 165.17 73.516 165.014C73.7559 164.858 73.9751 164.699 74.1732 164.537C74.3771 164.375 74.5391 164.192 74.6593 163.988C74.7853 163.778 74.8483 163.55 74.8483 163.304C74.8483 162.938 74.7281 162.644 74.4882 162.422C74.2542 162.2 73.9243 162.089 73.498 162.089C73.0358 162.089 72.6699 162.269 72.3998 162.629C72.286 162.779 72.2018 162.959 72.1478 163.169L71.5627 162.899C71.6468 162.617 71.7666 162.377 71.9227 162.179C72.3067 161.699 72.8319 161.459 73.498 161.459C74.098 161.459 74.5841 161.636 74.9563 161.99C75.3344 162.338 75.5234 162.776 75.5234 163.304C75.5234 163.61 75.4546 163.895 75.3164 164.159C75.1782 164.417 75.0045 164.636 74.7943 164.816C74.5841 164.99 74.3473 165.173 74.0831 165.365C73.8189 165.557 73.5669 165.734 73.327 165.896C73.093 166.058 72.8738 166.256 72.6699 166.49C72.466 166.718 72.322 166.961 72.2378 167.219ZM76.3318 166.994L76.7819 166.544C76.8957 166.694 77.0339 166.823 77.1959 166.931C77.5682 167.183 77.9849 167.309 78.4472 167.309C78.9031 167.309 79.2632 167.195 79.5274 166.967C79.7974 166.733 79.9324 166.442 79.9324 166.094C79.9324 165.764 79.7943 165.479 79.5184 165.239C79.2425 164.999 78.8851 164.879 78.4472 164.879H77.817V164.249H78.4472C78.8252 164.249 79.1223 164.147 79.3383 163.943C79.5544 163.739 79.6624 163.466 79.6624 163.124C79.6624 162.824 79.5512 162.578 79.3293 162.386C79.1133 162.188 78.8194 162.089 78.4472 162.089C78.0569 162.089 77.7 162.209 77.376 162.449C77.2198 162.563 77.0969 162.683 77.0069 162.809L76.5568 162.314C76.695 162.152 76.8507 162.011 77.0249 161.891C77.4448 161.603 77.9192 161.459 78.4472 161.459C78.9994 161.459 79.4522 161.621 79.8064 161.945C80.1606 162.269 80.3375 162.662 80.3375 163.124C80.3375 163.58 80.1786 163.949 79.8604 164.231C79.7223 164.357 79.5665 164.453 79.3923 164.519C79.6142 164.585 79.8096 164.684 79.9775 164.816C80.3677 165.146 80.5626 165.572 80.5626 166.094C80.5626 166.586 80.3645 167.018 79.9685 167.39C79.5782 167.756 79.0714 167.939 78.4472 167.939C77.8292 167.939 77.2949 167.783 76.8449 167.471C76.641 167.339 76.4699 167.18 76.3318 166.994Z" fill="black"/>
<path d="M72.2378 213.119H75.5234V213.749H71.4727C71.4727 213.389 71.5325 213.06 71.6527 212.759C71.7787 212.459 71.9407 212.207 72.1388 212.003C72.3427 211.793 72.565 211.598 72.8049 211.418C73.0448 211.238 73.282 211.071 73.516 210.914C73.7559 210.758 73.9751 210.599 74.1732 210.437C74.3771 210.275 74.5391 210.092 74.6593 209.888C74.7853 209.678 74.8483 209.451 74.8483 209.204C74.8483 208.839 74.7281 208.544 74.4882 208.322C74.2542 208.101 73.9243 207.989 73.498 207.989C73.0358 207.989 72.6699 208.169 72.3998 208.529C72.286 208.679 72.2018 208.859 72.1478 209.069L71.5627 208.799C71.6468 208.517 71.7666 208.277 71.9227 208.079C72.3067 207.599 72.8319 207.359 73.498 207.359C74.098 207.359 74.5841 207.536 74.9563 207.89C75.3344 208.238 75.5234 208.677 75.5234 209.204C75.5234 209.51 75.4546 209.795 75.3164 210.059C75.1782 210.317 75.0045 210.536 74.7943 210.716C74.5841 210.891 74.3473 211.073 74.0831 211.265C73.8189 211.458 73.5669 211.634 73.327 211.796C73.093 211.958 72.8738 212.156 72.6699 212.39C72.466 212.619 72.322 212.862 72.2378 213.119ZM76.3318 212.894L76.7819 212.444C76.8957 212.594 77.0339 212.723 77.1959 212.831C77.5682 213.083 77.9849 213.209 78.4472 213.209C78.9031 213.209 79.2632 213.096 79.5274 212.867C79.7974 212.633 79.9324 212.342 79.9324 211.994C79.9324 211.665 79.7943 211.379 79.5184 211.139C79.2425 210.9 78.8851 210.779 78.4472 210.779H77.817V210.149H78.4472C78.8252 210.149 79.1223 210.047 79.3383 209.843C79.5544 209.64 79.6624 209.366 79.6624 209.024C79.6624 208.724 79.5512 208.479 79.3293 208.286C79.1133 208.088 78.8194 207.989 78.4472 207.989C78.0569 207.989 77.7 208.11 77.376 208.349C77.2198 208.463 77.0969 208.583 77.0069 208.709L76.5568 208.214C76.695 208.052 76.8507 207.912 77.0249 207.791C77.4448 207.503 77.9192 207.359 78.4472 207.359C78.9994 207.359 79.4522 207.521 79.8064 207.845C80.1606 208.169 80.3375 208.562 80.3375 209.024C80.3375 209.48 80.1786 209.849 79.8604 210.131C79.7223 210.257 79.5665 210.353 79.3923 210.419C79.6142 210.486 79.8096 210.585 79.9775 210.716C80.3677 211.046 80.5626 211.472 80.5626 211.994C80.5626 212.486 80.3645 212.918 79.9685 213.29C79.5782 213.656 79.0714 213.839 78.4472 213.839C77.8292 213.839 77.2949 213.683 76.8449 213.371C76.641 213.24 76.4699 213.08 76.3318 212.894Z" fill="black"/>
<path d="M115.941 32.4452L116.391 31.9952C116.505 32.1451 116.644 32.2742 116.806 32.3822C117.178 32.6342 117.595 32.7602 118.057 32.7602C118.513 32.7602 118.873 32.6462 119.137 32.4182C119.407 32.1842 119.542 31.8931 119.542 31.5452C119.542 31.2152 119.404 30.9301 119.128 30.6902C118.852 30.4502 118.495 30.3302 118.057 30.3302H117.427V29.7002H118.057C118.435 29.7002 118.732 29.5981 118.948 29.3942C119.164 29.1902 119.272 28.9172 119.272 28.5752C119.272 28.2751 119.161 28.0292 118.939 27.8372C118.723 27.6392 118.429 27.5402 118.057 27.5402C117.667 27.5402 117.31 27.6602 116.986 27.9002C116.829 28.0141 116.707 28.1342 116.617 28.2602L116.166 27.7652C116.305 27.6032 116.46 27.4622 116.635 27.3422C117.054 27.0542 117.529 26.9102 118.057 26.9102C118.609 26.9102 119.062 27.0722 119.416 27.3962C119.77 27.7202 119.947 28.1131 119.947 28.5752C119.947 29.0311 119.788 29.4001 119.47 29.6822C119.332 29.8082 119.176 29.9041 119.002 29.9702C119.224 30.0362 119.419 30.1352 119.587 30.2672C119.977 30.5971 120.172 31.0232 120.172 31.5452C120.172 32.0371 119.974 32.4691 119.578 32.8412C119.188 33.2071 118.681 33.3902 118.057 33.3902C117.439 33.3902 116.905 33.2341 116.454 32.9222C116.251 32.7902 116.08 32.6311 115.941 32.4452Z" fill="black"/>
<path d="M117.201 79.2005V74.1605H116.031V73.7555C116.481 73.7317 116.841 73.5845 117.111 73.3145C117.225 73.2007 117.315 73.0625 117.382 72.9005H117.877V79.2005H117.201ZM121.888 79.2905C121.198 79.2905 120.604 78.9935 120.105 78.3995C119.608 77.8055 119.358 77.0225 119.358 76.0505C119.358 75.0785 119.608 74.2955 120.105 73.7015C120.604 73.1075 121.195 72.8105 121.879 72.8105C122.563 72.8105 123.154 73.1075 123.652 73.7015C124.15 74.2955 124.399 75.0785 124.399 76.0505C124.399 77.0225 124.15 77.8055 123.652 78.3995C123.16 78.9935 122.572 79.2905 121.888 79.2905ZM121.888 78.6605C122.386 78.6605 122.815 78.4297 123.175 77.9675C123.541 77.4995 123.724 76.8605 123.724 76.0505C123.724 75.2405 123.541 74.6047 123.175 74.1425C122.815 73.6745 122.383 73.4405 121.879 73.4405C121.375 73.4405 120.94 73.6745 120.573 74.1425C120.213 74.6047 120.033 75.2405 120.033 76.0505C120.033 76.8664 120.213 77.5054 120.573 77.9675C120.94 78.4297 121.378 78.6605 121.888 78.6605Z" fill="black"/>
<path d="M117.201 125.55V120.51H116.031V120.105C116.481 120.081 116.841 119.934 117.111 119.664C117.225 119.55 117.315 119.412 117.382 119.25H117.877V125.55H117.201ZM119.538 125.55L122.329 119.88H119.088V119.25H123.049V119.88L120.258 125.55H119.538Z" fill="black"/>
<path d="M116.796 167.219H120.082V167.849H116.031C116.031 167.489 116.091 167.159 116.211 166.859C116.337 166.559 116.499 166.307 116.697 166.103C116.901 165.893 117.124 165.698 117.364 165.518C117.603 165.338 117.841 165.17 118.075 165.014C118.315 164.858 118.534 164.699 118.732 164.537C118.936 164.375 119.098 164.192 119.218 163.988C119.344 163.778 119.407 163.55 119.407 163.304C119.407 162.938 119.287 162.644 119.047 162.422C118.813 162.2 118.483 162.089 118.057 162.089C117.594 162.089 117.228 162.269 116.958 162.629C116.845 162.779 116.76 162.959 116.706 163.169L116.121 162.899C116.205 162.617 116.325 162.377 116.481 162.179C116.865 161.699 117.391 161.459 118.057 161.459C118.657 161.459 119.143 161.636 119.515 161.99C119.893 162.338 120.082 162.776 120.082 163.304C120.082 163.61 120.013 163.895 119.875 164.159C119.737 164.417 119.563 164.636 119.353 164.816C119.143 164.99 118.906 165.173 118.642 165.365C118.378 165.557 118.125 165.734 117.886 165.896C117.652 166.058 117.432 166.256 117.228 166.49C117.025 166.718 116.881 166.961 116.796 167.219ZM120.618 166.499V165.734L123.634 161.549H124.489V165.869H125.299V166.499H124.489V167.849H123.814V166.499H120.618ZM121.248 165.869H123.814V162.314L121.248 165.869Z" fill="black"/>
<path d="M116.796 213.119H120.082V213.749H116.031C116.031 213.389 116.091 213.06 116.211 212.759C116.337 212.459 116.499 212.207 116.697 212.003C116.901 211.793 117.124 211.598 117.364 211.418C117.603 211.238 117.841 211.071 118.075 210.914C118.315 210.758 118.534 210.599 118.732 210.437C118.936 210.275 119.098 210.092 119.218 209.888C119.344 209.678 119.407 209.451 119.407 209.204C119.407 208.839 119.287 208.544 119.047 208.322C118.813 208.101 118.483 207.989 118.057 207.989C117.594 207.989 117.228 208.169 116.958 208.529C116.845 208.679 116.76 208.859 116.706 209.069L116.121 208.799C116.205 208.517 116.325 208.277 116.481 208.079C116.865 207.599 117.391 207.359 118.057 207.359C118.657 207.359 119.143 207.536 119.515 207.89C119.893 208.238 120.082 208.677 120.082 209.204C120.082 209.51 120.013 209.795 119.875 210.059C119.737 210.317 119.563 210.536 119.353 210.716C119.143 210.891 118.906 211.073 118.642 211.265C118.378 211.458 118.125 211.634 117.886 211.796C117.652 211.958 117.432 212.156 117.228 212.39C117.025 212.619 116.881 212.862 116.796 213.119ZM120.618 212.399V211.634L123.634 207.449H124.489V211.769H125.299V212.399H124.489V213.749H123.814V212.399H120.618ZM121.248 211.769H123.814V208.214L121.248 211.769Z" fill="black"/>
<path d="M160.051 31.95V31.185L163.066 27H163.921V31.32H164.732V31.95H163.921V33.3H163.246V31.95H160.051ZM160.681 31.32H163.246V27.765L160.681 31.32Z" fill="black"/>
<path d="M161.311 79.2004V74.1604H160.141V73.7554C160.591 73.7315 160.951 73.5844 161.221 73.3144C161.335 73.2005 161.425 73.0624 161.491 72.9004H161.986V79.2004H161.311ZM164.458 79.2004V74.1604H163.288V73.7554C163.738 73.7315 164.098 73.5844 164.368 73.3144C164.482 73.2005 164.572 73.0624 164.638 72.9004H165.133V79.2004H164.458Z" fill="black"/>
<path d="M161.311 125.55V120.51H160.141V120.105C160.591 120.081 160.951 119.934 161.221 119.664C161.335 119.55 161.425 119.412 161.491 119.25H161.986V125.55H161.311ZM163.468 123.705C163.468 123.213 163.648 122.805 164.008 122.481C164.164 122.337 164.344 122.22 164.548 122.13C164.392 122.046 164.257 121.947 164.143 121.833C163.873 121.563 163.738 121.227 163.738 120.825C163.738 120.387 163.918 120 164.278 119.664C164.638 119.328 165.073 119.16 165.583 119.16C166.093 119.16 166.528 119.328 166.888 119.664C167.248 120 167.428 120.387 167.428 120.825C167.428 121.227 167.293 121.563 167.023 121.833C166.909 121.947 166.774 122.046 166.618 122.13C166.823 122.22 167.003 122.337 167.158 122.481C167.518 122.805 167.698 123.213 167.698 123.705C167.698 124.233 167.495 124.689 167.086 125.073C166.684 125.451 166.183 125.64 165.583 125.64C164.983 125.64 164.479 125.451 164.071 125.073C163.669 124.689 163.468 124.233 163.468 123.705ZM164.728 120.087C164.518 120.279 164.413 120.525 164.413 120.825C164.413 121.125 164.518 121.374 164.728 121.572C164.944 121.764 165.229 121.86 165.583 121.86C165.937 121.86 166.219 121.764 166.429 121.572C166.645 121.374 166.753 121.125 166.753 120.825C166.753 120.525 166.645 120.279 166.429 120.087C166.219 119.889 165.937 119.79 165.583 119.79C165.229 119.79 164.944 119.889 164.728 120.087ZM164.143 123.705C164.143 124.059 164.275 124.365 164.539 124.623C164.803 124.881 165.151 125.01 165.583 125.01C166.015 125.01 166.364 124.881 166.627 124.623C166.891 124.365 167.023 124.059 167.023 123.705C167.023 123.363 166.882 123.06 166.6 122.796C166.318 122.532 165.979 122.4 165.583 122.4C165.187 122.4 164.848 122.532 164.566 122.796C164.284 123.06 164.143 123.363 164.143 123.705Z" fill="black"/>
<path d="M160.906 167.219H164.191V167.849H160.141C160.141 167.489 160.2 167.159 160.321 166.859C160.447 166.559 160.609 166.307 160.807 166.103C161.011 165.893 161.233 165.698 161.473 165.518C161.713 165.338 161.95 165.17 162.184 165.014C162.424 164.858 162.643 164.699 162.841 164.537C163.045 164.375 163.207 164.192 163.327 163.988C163.453 163.778 163.516 163.55 163.516 163.304C163.516 162.938 163.396 162.644 163.156 162.422C162.922 162.2 162.592 162.089 162.166 162.089C161.704 162.089 161.338 162.269 161.068 162.629C160.954 162.779 160.87 162.959 160.816 163.169L160.231 162.899C160.315 162.617 160.435 162.377 160.591 162.179C160.975 161.699 161.5 161.459 162.166 161.459C162.766 161.459 163.252 161.636 163.624 161.99C164.002 162.338 164.191 162.776 164.191 163.304C164.191 163.61 164.123 163.895 163.984 164.159C163.846 164.417 163.672 164.636 163.462 164.816C163.252 164.99 163.015 165.173 162.751 165.365C162.487 165.557 162.235 165.734 161.995 165.896C161.761 166.058 161.542 166.256 161.338 166.49C161.134 166.718 160.99 166.961 160.906 167.219ZM165.405 166.994L165.855 166.544C165.969 166.688 166.104 166.817 166.26 166.931C166.632 167.183 167.037 167.309 167.475 167.309C167.925 167.309 168.285 167.177 168.555 166.913C168.825 166.649 168.96 166.301 168.96 165.869C168.96 165.437 168.829 165.089 168.564 164.825C168.3 164.561 167.952 164.429 167.52 164.429C167.118 164.429 166.767 164.543 166.467 164.771C166.335 164.867 166.221 164.978 166.125 165.104H165.63L165.855 161.549H169.231V162.179H166.44L166.305 164.159C166.419 164.087 166.527 164.027 166.629 163.979C166.881 163.859 167.178 163.799 167.52 163.799C168.132 163.799 168.636 163.997 169.032 164.393C169.434 164.783 169.636 165.275 169.636 165.869C169.636 166.481 169.438 166.979 169.041 167.363C168.645 167.747 168.123 167.939 167.475 167.939C166.887 167.939 166.368 167.783 165.918 167.471C165.726 167.339 165.555 167.18 165.405 166.994Z" fill="black"/>
<path d="M160.906 213.119H164.191V213.749H160.141C160.141 213.389 160.2 213.06 160.321 212.759C160.447 212.459 160.609 212.207 160.807 212.003C161.011 211.793 161.233 211.598 161.473 211.418C161.713 211.238 161.95 211.071 162.184 210.914C162.424 210.758 162.643 210.599 162.841 210.437C163.045 210.275 163.207 210.092 163.327 209.888C163.453 209.678 163.516 209.451 163.516 209.204C163.516 208.839 163.396 208.544 163.156 208.322C162.922 208.101 162.592 207.989 162.166 207.989C161.704 207.989 161.338 208.169 161.068 208.529C160.954 208.679 160.87 208.859 160.816 209.069L160.231 208.799C160.315 208.517 160.435 208.277 160.591 208.079C160.975 207.599 161.5 207.359 162.166 207.359C162.766 207.359 163.252 207.536 163.624 207.89C164.002 208.238 164.191 208.677 164.191 209.204C164.191 209.51 164.123 209.795 163.984 210.059C163.846 210.317 163.672 210.536 163.462 210.716C163.252 210.891 163.015 211.073 162.751 211.265C162.487 211.458 162.235 211.634 161.995 211.796C161.761 211.958 161.542 212.156 161.338 212.39C161.134 212.619 160.99 212.862 160.906 213.119ZM165.405 212.894L165.855 212.444C165.969 212.588 166.104 212.718 166.26 212.831C166.632 213.083 167.037 213.209 167.475 213.209C167.925 213.209 168.285 213.078 168.555 212.813C168.825 212.549 168.96 212.201 168.96 211.769C168.96 211.337 168.829 210.99 168.564 210.725C168.3 210.461 167.952 210.329 167.52 210.329C167.118 210.329 166.767 210.443 166.467 210.671C166.335 210.767 166.221 210.878 166.125 211.004H165.63L165.855 207.449H169.231V208.079H166.44L166.305 210.059C166.419 209.987 166.527 209.928 166.629 209.879C166.881 209.759 167.178 209.699 167.52 209.699C168.132 209.699 168.636 209.897 169.032 210.293C169.434 210.684 169.636 211.175 169.636 211.769C169.636 212.381 169.438 212.88 169.041 213.263C168.645 213.647 168.123 213.839 167.475 213.839C166.887 213.839 166.368 213.683 165.918 213.371C165.726 213.24 165.555 213.08 165.405 212.894Z" fill="black"/>
<path d="M205.914 32.445L206.364 31.995C206.478 32.139 206.613 32.268 206.769 32.382C207.141 32.634 207.547 32.76 207.984 32.76C208.435 32.76 208.795 32.628 209.065 32.364C209.335 32.1 209.47 31.752 209.47 31.32C209.47 30.888 209.338 30.54 209.074 30.276C208.809 30.012 208.462 29.88 208.029 29.88C207.628 29.88 207.276 29.994 206.976 30.222C206.844 30.318 206.73 30.429 206.634 30.555H206.139L206.364 27H209.74V27.63H206.949L206.814 29.61C206.928 29.538 207.036 29.478 207.138 29.43C207.39 29.31 207.687 29.25 208.029 29.25C208.642 29.25 209.146 29.448 209.542 29.844C209.944 30.234 210.145 30.726 210.145 31.32C210.145 31.932 209.947 32.43 209.551 32.814C209.155 33.198 208.633 33.39 207.984 33.39C207.396 33.39 206.877 33.234 206.427 32.922C206.235 32.79 206.064 32.631 205.914 32.445Z" fill="black"/>
<path d="M206.768 79.1986V74.1586H205.598V73.7536C206.048 73.7297 206.408 73.5826 206.678 73.3126C206.792 73.1987 206.882 73.0606 206.948 72.8986H207.443V79.1986H206.768ZM209.51 78.5686H212.795V79.1986H208.745C208.745 78.8386 208.805 78.5087 208.925 78.2086C209.051 77.9084 209.213 77.6564 209.411 77.4526C209.615 77.2424 209.837 77.0476 210.077 76.8676C210.317 76.6876 210.554 76.5197 210.788 76.3636C211.028 76.2074 211.247 76.0486 211.445 75.8866C211.649 75.7246 211.812 75.5414 211.931 75.3376C212.057 75.1274 212.12 74.8997 212.12 74.6536C212.12 74.2877 212.001 73.9934 211.76 73.7716C211.526 73.5497 211.196 73.4386 210.77 73.4386C210.308 73.4386 209.942 73.6186 209.672 73.9786C209.558 74.1284 209.474 74.3084 209.42 74.5186L208.835 74.2486C208.919 73.9664 209.039 73.7266 209.195 73.5286C209.579 73.0484 210.104 72.8086 210.77 72.8086C211.37 72.8086 211.857 72.9854 212.228 73.3396C212.606 73.6874 212.795 74.1257 212.795 74.6536C212.795 74.9596 212.727 75.2444 212.588 75.5086C212.451 75.7664 212.276 75.9856 212.066 76.1656C211.857 76.3397 211.619 76.5224 211.355 76.7146C211.091 76.9067 210.839 77.0836 210.599 77.2456C210.365 77.4076 210.146 77.6056 209.942 77.8396C209.738 78.0677 209.594 78.3107 209.51 78.5686Z" fill="black"/>
<path d="M206.768 125.548V120.508H205.598V120.103C206.048 120.079 206.408 119.932 206.678 119.662C206.792 119.548 206.882 119.41 206.948 119.248H207.443V125.548H206.768ZM210.185 125.548L211.67 123.208C211.604 123.232 211.544 123.247 211.49 123.253C211.34 123.283 211.175 123.298 210.995 123.298C210.383 123.298 209.876 123.103 209.474 122.713C209.078 122.317 208.88 121.822 208.88 121.228C208.88 120.634 209.084 120.142 209.492 119.752C209.9 119.356 210.416 119.158 211.04 119.158C211.664 119.158 212.181 119.356 212.588 119.752C212.997 120.142 213.2 120.634 213.2 121.228C213.2 121.534 213.126 121.855 212.975 122.191C212.928 122.305 212.853 122.434 212.75 122.578L210.86 125.548H210.185ZM209.96 120.184C209.69 120.448 209.555 120.796 209.555 121.228C209.555 121.66 209.69 122.008 209.96 122.272C210.23 122.536 210.59 122.668 211.04 122.668C211.49 122.668 211.85 122.536 212.12 122.272C212.39 122.008 212.525 121.66 212.525 121.228C212.525 120.796 212.39 120.448 212.12 120.184C211.85 119.92 211.49 119.788 211.04 119.788C210.59 119.788 210.23 119.92 209.96 120.184Z" fill="black"/>
<path d="M206.363 167.221H209.648V167.851H205.598C205.598 167.491 205.658 167.161 205.778 166.861C205.904 166.561 206.066 166.309 206.264 166.105C206.468 165.895 206.69 165.7 206.93 165.52C207.17 165.34 207.407 165.172 207.641 165.016C207.881 164.86 208.1 164.701 208.298 164.539C208.502 164.377 208.664 164.194 208.784 163.99C208.91 163.78 208.973 163.552 208.973 163.306C208.973 162.94 208.853 162.646 208.613 162.424C208.379 162.202 208.049 162.091 207.623 162.091C207.161 162.091 206.795 162.271 206.525 162.631C206.411 162.781 206.327 162.961 206.273 163.171L205.688 162.901C205.772 162.619 205.892 162.379 206.048 162.181C206.432 161.701 206.957 161.461 207.623 161.461C208.223 161.461 208.709 161.638 209.081 161.992C209.459 162.34 209.648 162.778 209.648 163.306C209.648 163.612 209.58 163.897 209.441 164.161C209.303 164.419 209.129 164.638 208.919 164.818C208.709 164.992 208.472 165.175 208.208 165.367C207.944 165.559 207.692 165.736 207.452 165.898C207.218 166.06 206.999 166.258 206.795 166.492C206.591 166.72 206.447 166.963 206.363 167.221ZM211.132 164.521L213.022 161.551H213.697L212.212 163.891L212.392 163.846C212.524 163.816 212.689 163.801 212.887 163.801C213.499 163.801 214.003 163.999 214.4 164.395C214.801 164.785 215.003 165.277 215.003 165.871C215.003 166.465 214.799 166.96 214.391 167.356C213.982 167.746 213.466 167.941 212.842 167.941C212.218 167.941 211.702 167.746 211.294 167.356C210.886 166.96 210.682 166.465 210.682 165.871C210.682 165.541 210.757 165.22 210.907 164.908C210.955 164.794 211.03 164.665 211.132 164.521ZM211.762 164.827C211.492 165.091 211.357 165.439 211.357 165.871C211.357 166.303 211.492 166.651 211.762 166.915C212.032 167.179 212.392 167.311 212.842 167.311C213.292 167.311 213.652 167.179 213.922 166.915C214.192 166.651 214.327 166.303 214.327 165.871C214.327 165.439 214.192 165.091 213.922 164.827C213.652 164.563 213.292 164.431 212.842 164.431C212.392 164.431 212.032 164.563 211.762 164.827Z" fill="black"/>
<path d="M206.363 213.119H209.648V213.749H205.598C205.598 213.389 205.658 213.06 205.778 212.759C205.904 212.459 206.066 212.207 206.264 212.003C206.468 211.793 206.69 211.598 206.93 211.418C207.17 211.238 207.407 211.071 207.641 210.914C207.881 210.758 208.1 210.599 208.298 210.437C208.502 210.275 208.664 210.092 208.784 209.888C208.91 209.678 208.973 209.451 208.973 209.204C208.973 208.839 208.853 208.544 208.613 208.322C208.379 208.101 208.049 207.989 207.623 207.989C207.161 207.989 206.795 208.169 206.525 208.529C206.411 208.679 206.327 208.859 206.273 209.069L205.688 208.799C205.772 208.517 205.892 208.277 206.048 208.079C206.432 207.599 206.957 207.359 207.623 207.359C208.223 207.359 208.709 207.536 209.081 207.89C209.459 208.238 209.648 208.677 209.648 209.204C209.648 209.51 209.58 209.795 209.441 210.059C209.303 210.317 209.129 210.536 208.919 210.716C208.709 210.891 208.472 211.073 208.208 211.265C207.944 211.458 207.692 211.634 207.452 211.796C207.218 211.958 206.999 212.156 206.795 212.39C206.591 212.619 206.447 212.862 206.363 213.119ZM211.132 210.419L213.022 207.449H213.697L212.212 209.789L212.392 209.744C212.524 209.714 212.689 209.699 212.887 209.699C213.499 209.699 214.003 209.897 214.4 210.293C214.801 210.684 215.003 211.175 215.003 211.769C215.003 212.363 214.799 212.858 214.391 213.254C213.982 213.645 213.466 213.839 212.842 213.839C212.218 213.839 211.702 213.645 211.294 213.254C210.886 212.858 210.682 212.363 210.682 211.769C210.682 211.44 210.757 211.118 210.907 210.806C210.955 210.693 211.03 210.563 211.132 210.419ZM211.762 210.725C211.492 210.99 211.357 211.337 211.357 211.769C211.357 212.201 211.492 212.549 211.762 212.813C212.032 213.078 212.392 213.209 212.842 213.209C213.292 213.209 213.652 213.078 213.922 212.813C214.192 212.549 214.327 212.201 214.327 211.769C214.327 211.337 214.192 210.99 213.922 210.725C213.652 210.461 213.292 210.329 212.842 210.329C212.392 210.329 212.032 210.461 211.762 210.725Z" fill="black"/>
<path d="M130.073 37.3496H73.8129C72.57 37.3496 71.5625 38.357 71.5625 39.5996V43.1996C71.5625 44.4423 72.57 45.4496 73.8129 45.4496H130.073C131.316 45.4496 132.324 44.4423 132.324 43.1996V39.5996C132.324 38.357 131.316 37.3496 130.073 37.3496Z" fill="#FFBB00"/>
<path d="M84.6165 47.25H28.3559C27.113 47.25 26.1055 48.2574 26.1055 49.5V53.1C26.1055 54.3426 27.113 55.35 28.3559 55.35H84.6165C85.8593 55.35 86.8669 54.3426 86.8669 53.1V49.5C86.8669 48.2574 85.8593 47.25 84.6165 47.25Z" fill="#1F1C1C"/>
<path d="M207.937 183.6H151.676C150.433 183.6 149.426 184.607 149.426 185.85V189.45C149.426 190.692 150.433 191.7 151.676 191.7H207.937C209.18 191.7 210.187 190.692 210.187 189.45V185.85C210.187 184.607 209.18 183.6 207.937 183.6Z" fill="#1F1C1C"/>
<path d="M84.6165 129.6H28.3559C27.113 129.6 26.1055 130.607 26.1055 131.85V135.45C26.1055 136.692 27.113 137.7 28.3559 137.7H84.6165C85.8593 137.7 86.8669 136.692 86.8669 135.45V131.85C86.8669 130.607 85.8593 129.6 84.6165 129.6Z" fill="#FFBB00"/>
<path d="M219.644 83.25H163.383C162.14 83.25 161.133 84.2574 161.133 85.5V89.1C161.133 90.3426 162.14 91.35 163.383 91.35H219.644C220.887 91.35 221.894 90.3426 221.894 89.1V85.5C221.894 84.2574 220.887 83.25 219.644 83.25Z" fill="#FFBB00"/>
<path d="M174.183 172.35H117.922C116.679 172.35 115.672 173.357 115.672 174.6V178.2C115.672 179.442 116.679 180.45 117.922 180.45H174.183C175.426 180.45 176.433 179.442 176.433 178.2V174.6C176.433 173.357 175.426 172.35 174.183 172.35Z" fill="#FFBB00"/>
<path d="M94.2837 126.256C93.9502 126.423 93.8147 126.828 93.9817 127.161C94.1482 127.495 94.5537 127.63 94.8872 127.463L94.2837 126.256ZM135.969 107.637L136.264 108.244L135.969 107.637ZM150.331 99.225L149.979 98.649L150.331 99.225ZM157.308 94.05C157.308 93.6774 157.006 93.375 156.633 93.375H150.556C150.184 93.375 149.881 93.6774 149.881 94.05C149.881 94.4226 150.184 94.725 150.556 94.725H155.957V100.125C155.957 100.498 156.26 100.8 156.633 100.8C157.006 100.8 157.308 100.498 157.308 100.125V94.05ZM94.8872 127.463C101.683 124.066 108.595 120.926 115.527 117.802C122.455 114.679 129.407 111.571 136.264 108.244L135.674 107.03C128.838 110.346 121.907 113.445 114.972 116.571C108.04 119.696 101.106 122.846 94.2837 126.256L94.8872 127.463ZM136.264 108.244C142.043 105.44 145.288 103.097 150.683 99.801L149.979 98.649C144.51 101.991 141.375 104.264 135.674 107.03L136.264 108.244ZM150.683 99.801C151.397 99.365 152.787 98.262 154.074 97.1897C155.37 96.1106 156.636 95.0018 157.11 94.5275L156.155 93.5725C155.73 93.9982 154.508 95.0715 153.21 96.1524C151.903 97.2401 150.593 98.2742 149.979 98.649L150.683 99.801Z" fill="black"/>
<path d="M191.899 32.2129C185.845 39.6278 179.423 46.7623 172.759 53.6334C172.045 54.37 166.293 60.2835 166.293 59.3655" stroke="#FFBB00" stroke-width="3" stroke-linecap="round"/>
<path d="M173.277 40.7461C176.432 47.1785 178.61 55.4009 184.141 60.1407" stroke="#FFBB00" stroke-width="3" stroke-linecap="round"/>
<path d="M15.7539 175.602C25.5176 172.598 36.6541 174.05 46.7913 174.05" stroke="black" stroke-width="3" stroke-linecap="round"/>
<path d="M16.5273 181.809C23.4383 180.813 30.3071 179.543 37.3052 179.481C39.695 179.46 42.5887 179.009 44.461 180.257" stroke="black" stroke-width="3" stroke-linecap="round"/>
<path d="M16.5273 187.24C23.0342 186.135 29.3037 184.912 35.9257 184.912" stroke="black" stroke-width="3" stroke-linecap="round"/>
<path d="M16.5273 191.893L25.0626 190.342" stroke="black" stroke-width="3" stroke-linecap="round"/>
</svg>
