<svg width="75" height="79" viewBox="0 0 75 79" fill="none" xmlns="http://www.w3.org/2000/svg">
<path d="M47.9013 43.9952V29.0138L37.3782 15.7656L26.8551 29.0138V43.9952L17.6758 48.727V77.9038H37.3782H57.0807V48.727L47.9013 43.9952Z" stroke="black" stroke-width="2" stroke-miterlimit="10"/>
<path d="M42.3818 77.905H32.0273V65.6849C32.0273 62.8364 34.3441 60.5254 37.2046 60.5254C40.0629 60.5254 42.3818 62.8342 42.3818 65.6849V77.905V77.905Z" stroke="black" stroke-width="2" stroke-miterlimit="10"/>
<path d="M37.2025 39.2654C40.3907 39.2654 42.9752 36.6898 42.9752 33.5126C42.9752 30.3354 40.3907 27.7598 37.2025 27.7598C34.0142 27.7598 31.4297 30.3354 31.4297 33.5126C31.4297 36.6898 34.0142 39.2654 37.2025 39.2654Z" stroke="black" stroke-width="2" stroke-miterlimit="10"/>
<path d="M37.3789 15.7668V0.431641" stroke="black" stroke-width="2" stroke-miterlimit="10"/>
<path d="M33.6211 5.19531H40.5623" stroke="black" stroke-width="2" stroke-miterlimit="10"/>
<path d="M67.1849 77.9045V60.0724L57.082 55.1973" stroke="black" stroke-width="2" stroke-miterlimit="10"/>
<path d="M7.39844 77.9045V60.0724L17.5013 55.1973" stroke="black" stroke-width="2" stroke-miterlimit="10"/>
<path d="M0.511719 77.9043H74.1263" stroke="black" stroke-width="2" stroke-miterlimit="10"/>
</svg>
