<svg width="82" height="88" viewBox="0 0 82 88" fill="none" xmlns="http://www.w3.org/2000/svg">
<path d="M0 37.2727C0 23.7336 0 16.9641 2.7862 11.8615C4.87889 8.02908 8.02908 4.87889 11.8615 2.7862C16.9641 0 23.7336 0 37.2727 0H44.7273C58.2664 0 65.0359 0 70.1385 2.7862C73.9709 4.87889 77.1211 8.02908 79.2138 11.8615C82 16.9641 82 23.7336 82 37.2727V51.4547C82 51.7453 82 51.8906 81.9987 52.0135C81.865 64.401 71.8556 74.4104 59.468 74.5441C59.3451 74.5455 59.1998 74.5455 58.9092 74.5455C58.8831 74.5455 58.87 74.5455 58.8574 74.5455C57.6365 74.5523 56.4694 75.0488 55.6179 75.9238C55.6091 75.9328 55.6001 75.9422 55.5819 75.9611L54.1289 77.4707C47.9605 83.8794 44.8763 87.0838 41 87.0838C37.1237 87.0838 34.0395 83.8794 27.8711 77.4707L26.4181 75.9611C26.3999 75.9422 26.3909 75.9328 26.3821 75.9238C25.5306 75.0488 24.3635 74.5523 23.1426 74.5455C23.13 74.5455 23.1169 74.5455 23.0908 74.5455C22.8002 74.5455 22.6549 74.5455 22.532 74.5441C10.1444 74.4104 0.135018 64.401 0.00132642 52.0135C0 51.8906 0 51.7453 0 51.4547V37.2727Z" fill="#FFBB00"/>
<path d="M59.9317 21.5494C54.6149 16.1274 48.4582 18.4141 44.646 20.8324C42.4919 22.1988 39.508 22.1988 37.3539 20.8324C33.5417 18.4142 27.3851 16.1275 22.0683 21.5494C9.44712 34.4203 31.0914 59.2222 41 59.2222C50.9087 59.2222 72.5529 34.4203 59.9317 21.5494Z" fill="#FFBB00"/>
<path d="M58.9321 21.5498C53.6153 16.1278 47.4586 18.4146 43.6464 20.8328C41.4924 22.1992 38.5084 22.1992 36.3544 20.8328C32.5422 18.4146 26.3855 16.1279 21.0687 21.5498C8.44755 34.4208 30.0918 59.2226 40.0005 59.2226C49.9091 59.2226 71.5533 34.4208 58.9321 21.5498Z" fill="white"/>
</svg>
