<svg width="69" height="69" viewBox="0 0 69 69" fill="none" xmlns="http://www.w3.org/2000/svg">
<path d="M58.2765 34.8661C58.8257 34.343 59.3518 33.8134 59.9079 33.3173C60.8611 32.4666 61.9881 32.0252 63.2659 31.9804C64.7639 31.9282 66.0747 32.4075 67.185 33.41C69.4657 35.47 69.611 39.0429 67.5323 41.3099C66.1245 42.8454 64.7496 44.4118 63.3438 45.9488C62.3202 47.0675 61.2842 48.1754 60.2276 49.2626C58.9296 50.5985 57.6321 51.9364 56.2834 53.2207C54.8638 54.5724 53.417 55.8994 51.9215 57.1659C50.3767 58.4743 48.7773 59.7206 47.167 60.9487C46.1055 61.7585 45.0124 62.5359 43.7583 63.0432C42.6696 63.4831 41.545 63.8058 40.3712 63.8171C38.7412 63.8329 37.1102 63.7733 35.4802 63.7339C34.5945 63.7122 33.7094 63.6738 32.8247 63.6265C31.506 63.556 30.1878 63.4787 28.8706 63.39C27.7662 63.3152 26.6628 63.227 25.5599 63.1309C24.7353 63.059 23.9141 62.9255 23.0885 62.8895C22.1817 62.8501 21.2669 62.8373 20.363 62.9088C19.0045 63.0157 17.6942 63.3826 16.4651 63.9688C15.5868 64.3881 14.745 64.8885 13.9046 65.3831C12.4909 66.2156 11.0914 67.0723 9.68607 67.9186C9.20136 68.2107 8.71468 68.4999 8.23145 68.7939C7.60191 69.1772 6.83494 69.0131 6.46106 68.4112C6.08374 67.8038 6.29605 67.0353 6.93839 66.6491C8.84325 65.5028 10.7476 64.3551 12.649 63.2033C13.9278 62.429 15.2169 61.6797 16.642 61.1945C18.5094 60.559 20.4251 60.2354 22.3984 60.3186C23.159 60.3506 23.9171 60.4531 24.6762 60.5231C25.6801 60.6157 26.683 60.7211 27.6884 60.7965C29.1277 60.9048 30.5681 60.996 32.0084 61.0856C32.7123 61.1295 33.4177 61.163 34.1226 61.1866C35.8694 61.2452 37.6161 61.2925 39.3628 61.3492C40.1717 61.3753 40.9687 61.2797 41.747 61.0782C42.7209 60.8265 43.6267 60.4053 44.4415 59.8117C45.5887 58.9768 46.737 58.1418 47.8576 57.2719C48.8029 56.5379 49.725 55.7724 50.6285 54.9871C51.7412 54.0197 52.8525 53.0468 53.9131 52.0231C55.4539 50.5359 56.9553 49.0074 58.4602 47.4833C59.2424 46.6911 60.005 45.8793 60.7601 45.0616C61.5768 44.1774 62.3738 43.2744 63.1812 42.3813C63.9841 41.4931 64.7767 40.5946 65.5964 39.7222C66.7279 38.5183 66.822 36.7557 65.7427 35.5149C64.5413 34.1341 62.5881 34.1779 61.4084 35.3341C60.3074 36.4134 59.17 37.4577 58.0159 38.4799C56.6593 39.6813 55.2795 40.8582 53.886 42.0173C52.4678 43.1971 51.0314 44.3547 49.5851 45.4995C47.3724 47.2512 45.1464 48.9872 42.9208 50.7231C42.313 51.197 41.7051 51.6753 41.0638 52.101C40.2525 52.6394 39.3387 52.8876 38.3609 52.8876C34.7074 52.8872 31.0543 52.8891 27.4007 52.8862C26.8264 52.8857 26.3993 52.6241 26.1899 52.0852C25.9973 51.5906 26.1017 51.132 26.4732 50.7453C26.7766 50.4295 27.1717 50.3719 27.5825 50.3719C29.7991 50.3714 32.0158 50.3719 34.2325 50.3719C35.5955 50.3719 36.9585 50.3468 38.321 50.3783C39.8254 50.4133 41.0909 49.1547 41.1332 47.6074C41.1751 46.0862 39.8968 44.7626 38.3732 44.7606C35.4093 44.7567 32.4454 44.7409 29.4819 44.766C27.6583 44.7813 25.8692 44.5646 24.0861 44.204C22.2403 43.8311 20.3896 43.8587 18.5434 44.2601C16.0312 44.8059 13.845 45.9882 11.9008 47.6384C11.2954 48.1522 10.7456 48.7305 10.1496 49.2561C9.4053 49.9123 8.5339 50.3744 7.6556 50.8236C5.91035 51.7167 4.171 52.6216 2.42574 53.5152C2.12083 53.6714 1.80951 53.834 1.48144 53.9236C0.912986 54.0788 0.29626 53.7142 0.0819816 53.1482C-0.133774 52.5778 0.0878927 51.9128 0.611027 51.634C1.40016 51.2133 2.19767 50.8084 2.99272 50.3985C4.45818 49.6433 5.92906 48.898 7.3896 48.1325C8.19056 47.7123 8.83044 47.0828 9.47524 46.4601C11.317 44.6813 13.4337 43.3276 15.8356 42.4365C17.2572 41.9089 18.7281 41.5991 20.2448 41.4789C22.0733 41.334 23.8545 41.6094 25.6426 41.937C26.6219 42.1163 27.6278 42.2183 28.6233 42.2301C31.7015 42.2665 34.7807 42.2513 37.859 42.239C38.9456 42.2345 39.9811 42.3951 40.9377 42.9473C41.0175 42.9936 41.1943 42.9527 41.2835 42.8907C42.5307 42.0257 43.7785 41.1606 45.0099 40.2739C46.6813 39.071 48.295 37.7937 49.8438 36.436C50.3861 35.9602 50.8989 35.4503 51.4255 34.9567C52.2185 34.2129 53.1638 33.7883 54.2367 33.6587C55.8159 33.4686 57.0809 33.9553 58.2765 34.8661ZM56.3287 36.6257C56.2302 36.5424 56.1672 36.4622 56.0849 36.4237C55.1436 35.9868 54.2106 35.9814 53.3663 36.6198C52.8195 37.0331 52.3407 37.537 51.8333 38.002C50.2053 39.4922 48.4729 40.8533 46.6897 42.1493C45.4892 43.0217 44.2691 43.867 43.0538 44.7192C42.9208 44.8123 42.8933 44.8862 42.9716 45.0384C43.2474 45.5729 43.4588 46.131 43.5331 46.7335C43.5445 46.8246 43.5745 46.9133 43.6021 47.0286C47.932 43.6557 52.1885 40.2538 56.3287 36.6257Z" fill="black"/>
<path d="M34.5007 4.33751C34.8204 4.04244 35.1293 3.75081 35.445 3.46658C36.5401 2.48136 37.7676 1.70403 39.1203 1.1193C40.9641 0.32325 42.8852 -0.0698508 44.894 0.0153703C47.4801 0.125714 49.7972 0.955758 51.738 2.70008C53.5695 4.34637 54.6852 6.41335 55.1409 8.82516C55.6556 11.5498 55.2044 14.1261 53.8577 16.5483C53.2897 17.5699 52.5218 18.4276 51.6962 19.2443C50.5194 20.4093 49.3598 21.5921 48.1958 22.7699C46.2008 24.7896 44.2083 26.8117 42.2148 28.8334C40.4582 30.6142 38.7016 32.3949 36.945 34.1757C36.4278 34.6998 35.913 35.2264 35.3938 35.7486C34.9002 36.2442 34.0663 36.2161 33.5776 35.7176C32.3319 34.4466 31.0748 33.187 29.8246 31.9206C28.4882 30.5664 27.1557 29.2083 25.8188 27.8546C24.7518 26.7743 23.6795 25.6994 22.613 24.6186C21.0165 23.0004 19.4244 21.3783 17.8284 19.7601C17.3792 19.3049 16.8812 18.8911 16.4797 18.398C15.9797 17.7842 15.5083 17.1359 15.1103 16.4522C14.3202 15.0961 13.871 13.6138 13.7148 12.0522C13.5128 10.034 13.8335 8.09659 14.6739 6.24784C15.1601 5.17888 15.7901 4.20105 16.5925 3.3454C17.823 2.03358 19.3013 1.10255 21.017 0.550834C22.448 0.0902466 23.9194 -0.0639395 25.4124 0.023252C26.6537 0.0956653 27.8616 0.361673 29.0354 0.781375C31.0812 1.5129 32.8417 2.68185 34.3618 4.22421C34.4008 4.26411 34.448 4.29514 34.5007 4.33751ZM16.1664 10.9173C16.1457 11.8468 16.2891 12.7517 16.5792 13.6305C16.9901 14.8763 17.6043 16.0049 18.5412 16.9423C19.1619 17.5635 19.7747 18.1921 20.3919 18.8172C21.914 20.3581 23.4346 21.9009 24.9597 23.4393C26.4557 24.9482 27.9606 26.4482 29.4546 27.959C31.0807 29.6038 32.7003 31.255 34.3165 32.9097C34.4594 33.056 34.549 33.0422 34.6741 32.9082C34.8978 32.6688 35.1283 32.4353 35.3584 32.2018C36.9263 30.6142 38.4942 29.027 40.0631 27.4403C41.7823 25.7019 43.5014 23.964 45.221 22.226C46.8604 20.5689 48.4879 18.9005 50.1445 17.2611C50.9277 16.4857 51.5819 15.634 52.0464 14.634C52.5838 13.4764 52.8429 12.2542 52.8474 10.9862C52.8528 9.57097 52.5326 8.22171 51.8863 6.9567C50.9937 5.20893 49.6578 3.93209 47.8407 3.17692C46.321 2.5454 44.7403 2.38186 43.1137 2.58875C41.1655 2.83653 39.3947 3.54244 37.8519 4.74736C36.9947 5.41681 36.2184 6.19119 35.4224 6.9365C34.9126 7.41335 34.1835 7.46507 33.6599 7.01433C33.4801 6.85966 33.319 6.68281 33.1407 6.52567C32.3915 5.86459 31.6866 5.14046 30.8782 4.56214C28.6458 2.9656 26.1498 2.2592 23.3997 2.59269C21.248 2.85377 19.4442 3.78579 18.0713 5.48085C16.7901 7.06015 16.1802 8.88723 16.1664 10.9173Z" fill="black"/>
</svg>
