<svg width="58" height="58" viewBox="0 0 58 58" fill="none" xmlns="http://www.w3.org/2000/svg">
<rect width="57.2727" height="57.2727" rx="10" fill="white"/>
<path d="M34.4452 14H22.6751C17.8916 14 14 17.8911 14 22.674V34.4427C14 39.2256 17.8916 43.1167 22.6751 43.1167H34.4452C39.2286 43.1167 43.1203 39.2256 43.1203 34.4427V22.674C43.1202 17.8911 39.2286 14 34.4452 14ZM40.1908 34.4427C40.1908 37.6155 37.6184 40.1876 34.4452 40.1876H22.6751C19.5019 40.1876 16.9295 37.6155 16.9295 34.4427V22.674C16.9295 19.5012 19.5019 16.9291 22.6751 16.9291H34.4452C37.6184 16.9291 40.1908 19.5012 40.1908 22.674V34.4427Z" fill="#FFBB00"/>
<path d="M28.5589 21.0273C24.406 21.0273 21.0273 24.4054 21.0273 28.5576C21.0273 32.7098 24.406 36.0879 28.5589 36.0879C32.7118 36.0879 36.0904 32.7098 36.0904 28.5576C36.0904 24.4054 32.7118 21.0273 28.5589 21.0273ZM28.5589 33.1589C26.0172 33.1589 23.9568 31.0989 23.9568 28.5576C23.9568 26.0164 26.0173 23.9564 28.5589 23.9564C31.1005 23.9564 33.1609 26.0164 33.1609 28.5576C33.1609 31.0988 31.1005 33.1589 28.5589 33.1589Z" fill="#FFBB00"/>
<path d="M36.1055 22.8896C37.1022 22.8896 37.9102 22.0819 37.9102 21.0854C37.9102 20.089 37.1022 19.2812 36.1055 19.2812C35.1088 19.2812 34.3008 20.089 34.3008 21.0854C34.3008 22.0819 35.1088 22.8896 36.1055 22.8896Z" fill="#FFBB00"/>
</svg>
