<svg width="43" height="43" viewBox="0 0 43 43" fill="none" xmlns="http://www.w3.org/2000/svg">
<rect x="0.851562" width="42.146" height="42.146" rx="10" fill="#FFBB00"/>
<path d="M26.1976 10.3027H17.5362C14.0161 10.3027 11.1523 13.1662 11.1523 16.6858V25.3461C11.1523 28.8658 14.0161 31.7292 17.5362 31.7292H26.1976C29.7176 31.7292 32.5814 28.8658 32.5814 25.3461V16.6858C32.5814 13.1662 29.7176 10.3027 26.1976 10.3027ZM30.4257 25.3461C30.4257 27.6809 28.5327 29.5737 26.1976 29.5737H17.5362C15.2011 29.5737 13.3081 27.6809 13.3081 25.3461V16.6858C13.3081 14.351 15.2011 12.4582 17.5362 12.4582H26.1976C28.5327 12.4582 30.4257 14.351 30.4257 16.6858V25.3461Z" fill="white"/>
<path d="M21.8665 15.4746C18.8105 15.4746 16.3242 17.9605 16.3242 21.016C16.3242 24.0715 18.8105 26.5574 21.8665 26.5574C24.9226 26.5574 27.4088 24.0715 27.4088 21.016C27.4088 17.9604 24.9226 15.4746 21.8665 15.4746ZM21.8665 24.402C19.9962 24.402 18.48 22.8861 18.48 21.016C18.48 19.146 19.9962 17.63 21.8665 17.63C23.7369 17.63 25.2531 19.146 25.2531 21.016C25.2531 22.886 23.7368 24.402 21.8665 24.402Z" fill="white"/>
<path d="M27.4179 16.8448C28.1514 16.8448 28.746 16.2504 28.746 15.5171C28.746 14.7839 28.1514 14.1895 27.4179 14.1895C26.6844 14.1895 26.0898 14.7839 26.0898 15.5171C26.0898 16.2504 26.6844 16.8448 27.4179 16.8448Z" fill="white"/>
</svg>
