<svg width="39" height="39" viewBox="0 0 39 39" fill="none" xmlns="http://www.w3.org/2000/svg">
<path fill-rule="evenodd" clip-rule="evenodd" d="M19.1159 0.300781C29.5546 0.300781 38.0169 8.76209 38.0169 19.1996C38.0169 29.6372 29.5546 38.0985 19.1159 38.0985C8.67712 38.0985 0.214844 29.6372 0.214844 19.1996C0.214844 8.76209 8.67712 0.300781 19.1159 0.300781ZM24.1515 16.8045C24.0596 16.0578 23.83 15.4714 23.4224 14.9521C22.893 14.2833 22.2166 13.8828 21.2151 13.6453C20.5624 13.4869 20.2987 13.5051 20.0626 13.7207C19.8428 13.9227 19.7998 14.3276 19.9679 14.5899C20.086 14.7802 20.2224 14.8484 20.6015 14.9228C21.1064 15.0157 21.4553 15.1362 21.7727 15.3177C22.4464 15.7066 22.7602 16.3153 22.7938 17.3007C22.8095 17.7633 22.8494 17.9056 23.011 18.0697C23.3106 18.3696 23.8437 18.3113 24.0698 17.9523C24.1528 17.817 24.1654 17.7582 24.1742 17.444C24.18 17.2495 24.1716 16.96 24.1515 16.8045ZM24.1605 12.2229C25.7622 13.518 26.6571 15.3587 26.7902 17.6465C26.8462 18.5476 26.7718 18.8411 26.4538 19.0083C26.167 19.1632 25.8419 19.1122 25.6189 18.879C25.4711 18.7273 25.4144 18.5199 25.4166 18.1525C25.4231 17.1369 25.1891 16.0027 24.8086 15.2157C24.3682 14.2997 23.6875 13.5202 22.8312 12.9503C22.0811 12.4498 21.0884 12.1117 20.1259 12.0275C19.5016 11.9729 19.2787 11.8672 19.1589 11.5679C19.0846 11.3889 19.1042 11.0794 19.1913 10.9408C19.2736 10.813 19.4582 10.6717 19.5888 10.6343C19.7271 10.5939 20.5335 10.6645 20.9715 10.7515C22.1672 10.9949 23.2581 11.4952 24.1605 12.2229ZM29.7101 26.4571C29.6653 26.3263 29.5609 26.1246 29.4863 26.0088C29.0163 25.2991 26.4908 23.3229 25.23 22.6766C24.51 22.3069 23.9766 22.1836 23.5812 22.2994C23.1559 22.419 22.9321 22.6169 22.2196 23.5022C21.9324 23.8571 21.6377 24.1896 21.5593 24.2419C21.3653 24.3764 20.9848 24.4847 20.7163 24.4847C20.0933 24.4809 18.963 24.0775 18.0938 23.547C17.4186 23.1362 16.5532 22.4003 15.8892 21.6718C15.1058 20.8164 14.5724 20.0618 14.1508 19.2101C13.6062 18.1156 13.4682 17.4469 13.6957 16.9575C13.7517 16.8342 13.8263 16.7035 13.8598 16.6624C13.8934 16.6251 14.2441 16.3374 14.632 16.0236C15.3931 15.4185 15.5161 15.2803 15.6579 14.8656C15.8369 14.3389 15.7885 13.801 15.5124 13.2593C15.2998 12.8484 14.744 11.9519 14.3411 11.3729C13.8077 10.6108 12.4797 8.98213 12.2148 8.76167C11.7373 8.37321 11.1256 8.30593 10.4503 8.56747C9.73787 8.84391 8.40237 9.91974 7.83162 10.6706C7.31683 11.3505 7.11918 11.8323 7.08931 12.4674C7.06321 12.9903 7.10796 13.207 7.38401 13.8757C9.54389 19.1204 12.7669 23.308 17.1948 26.6327C19.5076 28.3697 21.9062 29.6921 24.3944 30.5961C25.8454 31.1228 26.4759 31.1489 27.2182 30.7157C27.5316 30.5288 28.3075 29.7332 28.7402 29.1542C29.4564 28.1904 29.7213 27.7459 29.7959 27.391C29.8481 27.1482 29.8071 26.7261 29.7101 26.4571ZM28.7563 14.6328C29.2107 15.8163 29.4286 16.8778 29.4764 18.172C29.484 18.4276 29.4804 18.896 29.4639 19.2133C29.4294 19.8215 29.3964 19.9424 29.2212 20.1033C28.9398 20.3674 28.3911 20.3045 28.183 19.9862C28.0744 19.8155 28.0591 19.6904 28.0801 18.9798C28.1405 16.8777 27.7153 15.2318 26.691 13.586C25.467 11.6115 23.6362 10.2814 21.2555 9.63065C20.6483 9.46502 20.1367 9.36407 19.341 9.25695C18.8226 9.18911 18.7091 9.16043 18.5812 9.0817C18.1947 8.8342 18.1895 8.20749 18.5748 7.95623C18.7736 7.82359 18.9202 7.81766 19.5682 7.90064C21.4684 8.13807 23.164 8.70264 24.5572 9.55576C25.5559 10.1681 26.1855 10.7181 26.9962 11.6815C27.8537 12.709 28.3077 13.4687 28.7563 14.6328Z" fill="#FFBB00"/>
</svg>
