<svg width="284" height="210" viewBox="0 0 284 210" fill="none" xmlns="http://www.w3.org/2000/svg">
<path d="M107.054 21.129C97.9892 29.0452 87.715 12.2547 98.6503 7.30776C99.9477 6.12966 101.394 5.11813 102.938 4.29103C107.518 1.86808 112.734 1.05849 117.822 0.477003C169.167 -0.442416 221.416 0.66321 271.644 12.2157C274.787 13.3788 278.247 14.256 280.8 16.5341C285.155 21.0643 285.199 29.1967 279.996 33.1223C277.929 34.82 275.449 35.9818 272.851 36.5925C188.583 45.8112 101.886 44.4643 20.6755 71.8385C16.1329 73.4192 11.6321 75.6643 8.00701 78.757C9.67782 79.9237 13.5409 82.0309 16.1367 82.7057C67.952 94.2148 121.972 94.3688 173.043 109.575C175.476 110.437 177.99 111.296 180.059 112.891C182.561 114.676 183.118 118.049 182.494 120.882C181.973 123.776 180.312 126.441 177.954 128.198C175.494 130.047 172.662 131.338 169.789 132.4C125.807 147.447 77.1486 149.291 35.884 171.831C33.7729 173.172 31.9426 174.916 30.3287 176.815C27.6322 179.775 28.077 184.378 30.3947 187.415C33.3405 191.916 37.4471 195.484 41.7996 198.577C45.6474 201.296 49.4968 204.023 53.5273 206.467C71.2084 216.574 31.3718 194.468 33.6724 192.58C33.1519 191.996 32.6317 191.412 32.1116 190.828C31.6767 190.299 31.2414 189.769 30.8065 189.239C30.4569 188.765 30.1068 188.291 29.7571 187.815C29.0097 186.767 28.416 185.608 28.0188 184.384C27.5885 183.061 27.4501 181.633 27.7011 180.261C28.2594 176.957 30.8753 174.569 33.2191 172.412C76.0396 145.17 130.15 146.134 175.482 125.134C177.825 123.346 179.863 119.179 177.951 116.541C176.173 114.989 173.75 114.537 171.591 113.766C120.145 99.6032 66.0235 100.775 13.9592 90.0559C10.8104 88.9306 7.55504 87.8927 4.76923 85.9891C1.34197 83.8926 -0.909316 79.2508 1.08329 75.4486C3.12116 71.3506 7.44378 69.0629 11.2537 66.8947C93.4602 34.3211 185.058 33.7078 270.764 22.5606C268.994 23.9184 271.547 25.9331 271.478 27.5832C223.296 17.0949 173.387 16.3447 124.215 16.1027C120.725 16.178 117.243 16.5458 113.816 17.2128C110.998 17.3019 108.986 19.345 107.054 21.129Z" fill="#FFBB00"/>
</svg>
