<svg width="39" height="39" viewBox="0 0 39 39" fill="none" xmlns="http://www.w3.org/2000/svg">
<path fill-rule="evenodd" clip-rule="evenodd" d="M38.306 19.1996C38.306 29.6372 29.8437 38.0985 19.405 38.0985C8.96623 38.0985 0.503906 29.6372 0.503906 19.1996C0.503906 8.76212 8.96623 0.300781 19.405 0.300781C29.8437 0.300781 38.306 8.76212 38.306 19.1996ZM13.1609 17.4684C11.2675 18.295 9.32212 19.1444 7.54317 20.1241C6.61428 20.8042 7.84884 21.2852 9.0071 21.7364C9.19123 21.8082 9.37339 21.8791 9.54468 21.95C9.68722 21.9938 9.83213 22.04 9.97901 22.0868C11.2672 22.4971 12.7035 22.9547 13.9541 22.2664C16.0085 21.0864 17.9472 19.7222 19.8845 18.359C20.5192 17.9124 21.1537 17.4659 21.7921 17.026C21.822 17.0069 21.8557 16.985 21.8927 16.9612C22.4365 16.6086 23.6596 15.8159 23.2072 16.9082C22.1374 18.0781 20.9914 19.1136 19.8393 20.1548C19.0628 20.8565 18.2834 21.5608 17.5227 22.3105C16.8601 22.8488 16.172 23.9313 16.914 24.6851C18.6229 25.8813 20.3584 27.0484 22.093 28.215C22.6574 28.5945 23.2219 28.9741 23.7851 29.3546C24.7398 30.1167 26.2318 29.5002 26.4417 28.3093C26.535 27.7615 26.6287 27.2137 26.7224 26.6659C27.2403 23.6384 27.7584 20.6097 28.216 17.5724C28.2782 17.0959 28.3487 16.6195 28.4193 16.1428C28.5903 14.9876 28.7615 13.8309 28.8149 12.6694C28.6771 11.5102 27.2715 11.7651 26.4893 12.0258C22.4688 13.5555 18.4883 15.1986 14.5237 16.8707C14.0746 17.0696 13.6193 17.2683 13.1609 17.4684Z" fill="#FFBB00"/>
</svg>
