<svg width="450" height="86" viewBox="0 0 450 86" fill="none" xmlns="http://www.w3.org/2000/svg">
<path d="M29.9143 57.3494C19.0522 51.6073 9.8509 41.7045 2.93444 30.8484C2.68871 30.2005 2.23165 29.374 2.61352 28.6778C5.37321 27.9857 7.7472 25.3312 10.7526 25.0605C19.4969 24.8589 28.2242 26.3804 37.0002 25.7081C72.7002 22.6823 108.497 20.5973 144.269 21.1069C154.193 20.7497 164.119 20.3105 174.045 20.3413C200.748 20.6683 227.434 21.6256 254.151 21.2911C289.89 22.5997 325.663 22.9339 361.402 24.084C380.314 26.2482 399.642 25.3657 418.311 29.2661C420.919 30.2881 423.345 31.8047 425.611 33.5455C427.095 34.6589 428.549 35.8213 429.956 37.0541C435.95 43.8956 443.965 49.6954 447.516 58.7141C447.606 59.1789 447.277 59.655 446.841 59.6199C439.873 57.2571 434.462 50.9532 429.205 45.6164C431.146 47.6553 429.098 49.5757 426.878 49.0101C411.197 48.8385 395.587 46.9361 379.915 46.3688C333.15 45.9151 286.428 43.5251 239.644 43.9704C214.718 43.0268 189.768 42.9734 164.818 44.0809C131.845 43.6689 98.8759 46.1225 65.9568 48.7068C57.0518 49.2968 48.1224 48.328 39.2307 49.3238C34.6601 49.4325 33.7986 55.4448 29.9143 57.3494Z" fill="#FFBB00"/>
</svg>
