<svg width="39" height="39" viewBox="0 0 39 39" fill="none" xmlns="http://www.w3.org/2000/svg">
<path fill-rule="evenodd" clip-rule="evenodd" d="M19.8079 38.3185C9.30841 38.3185 0.796875 29.8079 0.796875 19.3096C0.796875 8.81133 9.30841 0.300781 19.8079 0.300781C30.3074 0.300781 38.819 8.81133 38.819 19.3096C38.819 29.8079 30.3074 38.3185 19.8079 38.3185ZM20.4346 29.8853C26.6673 29.8828 31.7365 24.8129 31.739 18.5821C31.7402 15.562 30.5655 12.7221 28.4312 10.5857C26.2969 8.44913 23.4585 7.272 20.4344 7.27069C14.2035 7.27069 9.13225 12.3411 9.12977 18.5732C9.12892 20.5654 9.64947 22.5099 10.6387 24.2241L9.035 30.0813L15.0277 28.5095C16.6789 29.41 18.5379 29.8846 20.4299 29.8853H20.4346Z" fill="#FFBB00"/>
<path fill-rule="evenodd" clip-rule="evenodd" d="M15.306 26.464L11.7498 27.3968L12.699 23.9299L12.4756 23.5745C11.5351 22.0787 11.0383 20.3499 11.0391 18.5747C11.0411 13.3948 15.2562 9.18066 20.4389 9.18066C22.9485 9.18153 25.3077 10.16 27.0816 11.9358C28.8556 13.7116 29.832 16.072 29.831 18.5823C29.8289 23.7626 25.6139 27.9772 20.4352 27.9772H20.4314C18.7454 27.9765 17.0917 27.5236 15.6491 26.6676L15.306 26.464ZM26.1304 21.2708C26.0598 21.153 25.8715 21.0824 25.589 20.9409C25.3066 20.7996 23.9179 20.1164 23.6589 20.0221C23.4 19.9278 23.2117 19.8808 23.0234 20.1634C22.8351 20.4461 22.2938 21.0824 22.129 21.2708C21.9642 21.4593 21.7994 21.4829 21.5171 21.3415C21.2346 21.2002 20.3245 20.902 19.2456 19.9397C18.4058 19.1908 17.839 18.266 17.6742 17.9832C17.5094 17.7004 17.6566 17.5476 17.798 17.4068C17.9251 17.2802 18.0805 17.0769 18.2217 16.912C18.363 16.7471 18.41 16.6292 18.5042 16.4409C18.5983 16.2523 18.5513 16.0874 18.4806 15.946C18.41 15.8047 17.8451 14.4145 17.6098 13.849C17.3805 13.2983 17.1476 13.3729 16.9742 13.3642C16.8097 13.3559 16.6212 13.3541 16.4329 13.3541C16.2446 13.3541 15.9385 13.4248 15.6796 13.7076C15.4207 13.9904 14.691 14.6736 14.691 16.0637C14.691 17.4539 15.7032 18.7969 15.8444 18.9854C15.9856 19.1739 17.8362 22.0266 20.6697 23.2499C21.3436 23.541 21.8697 23.7147 22.28 23.8449C22.9566 24.0599 23.5724 24.0295 24.059 23.9568C24.6018 23.8757 25.7302 23.2736 25.9657 22.6139C26.201 21.9541 26.201 21.3886 26.1304 21.2708Z" fill="#FFBB00"/>
</svg>
