<svg width="44" height="43" viewBox="0 0 44 43" fill="none" xmlns="http://www.w3.org/2000/svg">
<rect x="0.929688" width="42.146" height="42.146" rx="10" fill="#FFBB00"/>
<path fill-rule="evenodd" clip-rule="evenodd" d="M31.4356 13.7328C32.4117 14.0006 33.1804 14.7897 33.4413 15.7918C33.9153 17.608 33.9153 21.3974 33.9153 21.3974C33.9153 21.3974 33.9153 25.1867 33.4413 27.003C33.1804 28.0051 32.4117 28.7942 31.4356 29.0621C29.6667 29.5487 22.5729 29.5487 22.5729 29.5487C22.5729 29.5487 15.4791 29.5487 13.7101 29.0621C12.734 28.7942 11.9653 28.0051 11.7044 27.003C11.2305 25.1867 11.2305 21.3974 11.2305 21.3974C11.2305 21.3974 11.2305 17.608 11.7044 15.7918C11.9653 14.7897 12.734 14.0006 13.7101 13.7328C15.4791 13.2461 22.5729 13.2461 22.5729 13.2461C22.5729 13.2461 29.6667 13.2461 31.4356 13.7328ZM20.4462 18.2075V25.2962L26.1175 21.752L20.4462 18.2075Z" fill="white"/>
</svg>
