<svg width="24" height="16" viewBox="0 0 24 16" fill="none" xmlns="http://www.w3.org/2000/svg">
<path fill-rule="evenodd" clip-rule="evenodd" d="M20.6535 0.477677C21.6513 0.740516 22.437 1.51497 22.7037 2.49845C23.1883 4.2809 23.1883 8 23.1883 8C23.1883 8 23.1883 11.719 22.7037 13.5015C22.437 14.485 21.6513 15.2595 20.6535 15.5225C18.8454 16 11.5941 16 11.5941 16C11.5941 16 4.34293 16 2.53464 15.5225C1.53688 15.2595 0.751116 14.485 0.484451 13.5015C0 11.719 0 8 0 8C0 8 0 4.2809 0.484451 2.49845C0.751116 1.51497 1.53688 0.740516 2.53464 0.477677C4.34293 0 11.5941 0 11.5941 0C11.5941 0 18.8454 0 20.6535 0.477677ZM9.42115 4.86939V11.8259L15.2182 8.34779L9.42115 4.86939Z" fill="#1F1C1C"/>
</svg>
