<svg width="58" height="58" viewBox="0 0 58 58" fill="none" xmlns="http://www.w3.org/2000/svg">
<rect width="57.2727" height="57.2727" rx="10" fill="white"/>
<path fill-rule="evenodd" clip-rule="evenodd" d="M41.457 18.6614C42.7834 19.0253 43.828 20.0976 44.1825 21.4594C44.8268 23.9274 44.8268 29.0769 44.8268 29.0769C44.8268 29.0769 44.8268 34.2262 44.1825 36.6944C43.828 38.0562 42.7834 39.1285 41.457 39.4926C39.0532 40.1538 29.4134 40.1538 29.4134 40.1538C29.4134 40.1538 19.7735 40.1538 17.3696 39.4926C16.0431 39.1285 14.9985 38.0562 14.644 36.6944C14 34.2262 14 29.0769 14 29.0769C14 29.0769 14 23.9274 14.644 21.4594C14.9985 20.0976 16.0431 19.0253 17.3696 18.6614C19.7735 18 29.4134 18 29.4134 18C29.4134 18 39.0532 18 41.457 18.6614ZM26.5233 24.7422V34.375L34.23 29.5588L26.5233 24.7422Z" fill="#FFBB00"/>
</svg>
