<svg width="464" height="74" viewBox="0 0 464 74" fill="none" xmlns="http://www.w3.org/2000/svg">
<path d="M30.241 48.541C18.8916 43.6503 9.17366 35.2452 1.79865 26.0407C1.53123 25.4919 1.04163 24.7914 1.42215 24.2036C4.26139 23.6267 6.66143 21.3884 9.76344 21.1687C18.8008 21.0251 27.856 22.339 36.9164 21.7972C73.7676 19.3474 110.738 17.6937 147.736 18.2347C157.991 17.963 168.244 17.622 178.509 17.6786C206.126 18.0373 233.739 18.929 261.358 18.7282C298.337 19.945 335.334 20.3376 372.311 21.4204C391.91 23.3092 411.877 22.6221 431.26 25.9788C433.979 26.8514 436.518 28.1417 438.897 29.6212C440.454 30.5676 441.982 31.5554 443.462 32.6025C449.8 38.4083 458.208 43.339 462.064 50.9789C462.168 51.3723 461.837 51.774 461.385 51.7431C454.132 49.7229 448.408 44.3737 442.862 39.8432C444.911 41.5738 442.833 43.1921 440.525 42.7068C424.308 42.5134 408.128 40.8562 391.911 40.3281C343.548 39.8006 295.189 37.6353 246.823 37.8682C221.031 36.9934 195.232 36.8716 169.457 37.7317C135.354 37.2818 101.315 39.256 67.3306 41.341C58.1352 41.8127 48.8823 40.9657 39.7089 41.7807C34.9852 41.8586 34.2182 46.9419 30.241 48.541Z" fill="#FFBB00"/>
</svg>
