<svg width="150" height="111" viewBox="0 0 150 111" fill="none" xmlns="http://www.w3.org/2000/svg">
<path d="M1 109.191H148.985" stroke="#C4C4C4" stroke-width="2" stroke-miterlimit="10" stroke-linecap="round" stroke-linejoin="round"/>
<path d="M30.4121 63.1813V109.191" stroke="#C4C4C4" stroke-width="2" stroke-miterlimit="10" stroke-linecap="round" stroke-linejoin="round"/>
<path d="M120.158 63.1813V109.191" stroke="#C4C4C4" stroke-width="2" stroke-miterlimit="10" stroke-linecap="round" stroke-linejoin="round"/>
<path d="M102.33 81.9974C99.3676 81.9974 96.9658 84.3999 96.9658 87.3632V109.193H107.694V87.3609C107.694 84.3976 105.293 81.9974 102.33 81.9974Z" stroke="#C4C4C4" stroke-width="2" stroke-miterlimit="10" stroke-linecap="round" stroke-linejoin="round"/>
<path d="M102.33 64.6837C99.3676 64.6837 96.9658 67.0862 96.9658 70.0495C96.9658 73.0128 99.3676 75.4153 102.33 75.4153C105.293 75.4153 107.694 73.0128 107.694 70.0495C107.694 67.0862 105.293 64.6837 102.33 64.6837Z" stroke="#C4C4C4" stroke-width="2" stroke-miterlimit="10" stroke-linecap="round" stroke-linejoin="round"/>
<path d="M48.3008 81.9974C45.3383 81.9974 42.9365 84.3999 42.9365 87.3632V109.193H53.6651V87.3609C53.6651 84.3976 51.2633 81.9974 48.3008 81.9974Z" stroke="#C4C4C4" stroke-width="2" stroke-miterlimit="10" stroke-linecap="round" stroke-linejoin="round"/>
<path d="M48.3008 64.6837C45.3383 64.6837 42.9365 67.0862 42.9365 70.0495C42.9365 73.0128 45.3383 75.4153 48.3008 75.4153C51.2633 75.4153 53.6651 73.0128 53.6651 70.0495C53.6651 67.0862 51.2633 64.6837 48.3008 64.6837Z" stroke="#C4C4C4" stroke-width="2" stroke-miterlimit="10" stroke-linecap="round" stroke-linejoin="round"/>
<path d="M19.5156 70.0495L75.4333 33.4857L131.056 70.0495" stroke="#C4C4C4" stroke-width="2" stroke-miterlimit="10" stroke-linecap="round" stroke-linejoin="round"/>
<path d="M75.4326 1V33.4857" stroke="#C4C4C4" stroke-width="2" stroke-miterlimit="10" stroke-linecap="round" stroke-linejoin="round"/>
<path d="M66.1025 12.1725H85.3539" stroke="#C4C4C4" stroke-width="2" stroke-miterlimit="10" stroke-linecap="round" stroke-linejoin="round"/>
<path d="M75.2852 39.9547V59.2117" stroke="#C4C4C4" stroke-width="2" stroke-miterlimit="10" stroke-linecap="round" stroke-linejoin="round"/>
<path d="M69.9229 46.276H80.9444" stroke="#C4C4C4" stroke-width="2" stroke-miterlimit="10" stroke-linecap="round" stroke-linejoin="round"/>
<path d="M75.2874 63.9406C69.3094 63.9406 64.4619 68.7894 64.4619 74.7691V109.191H86.1128V74.7691C86.1128 68.7894 81.2654 63.9406 75.2874 63.9406Z" stroke="#C4C4C4" stroke-width="2" stroke-miterlimit="10" stroke-linecap="round" stroke-linejoin="round"/>
<path d="M64.46 76.6731H86.1132" stroke="#C4C4C4" stroke-width="2" stroke-miterlimit="10" stroke-linecap="round" stroke-linejoin="round"/>
<path d="M74.9922 109.191V76.6731" stroke="#C4C4C4" stroke-width="2" stroke-miterlimit="10" stroke-linecap="round" stroke-linejoin="round"/>
</svg>
