<svg width="369" height="91" viewBox="0 0 369 91" fill="none" xmlns="http://www.w3.org/2000/svg">
<path d="M23.8505 56.4515C15.1968 50.6608 8.08341 40.8313 2.88369 30.1076C2.71026 29.4704 2.37136 28.6552 2.71435 27.981C5.0058 27.35 7.06584 24.7948 9.54051 24.5798C16.7152 24.5266 23.8017 26.1573 31.0227 25.6447C60.4098 23.2752 89.8355 21.8266 119.129 22.9135C127.278 22.7278 135.43 22.4619 143.564 22.6553C165.433 23.4145 187.262 24.7893 209.171 24.9021C238.403 26.7693 267.705 27.6847 296.944 29.397C312.349 31.8234 328.226 31.2791 343.357 35.3982C345.451 36.44 347.374 37.9621 349.155 39.7007C350.323 40.8132 351.465 41.9732 352.565 43.2012C357.182 49.9862 363.5 55.7863 366.021 64.6588C366.075 65.1145 365.785 65.5744 365.428 65.533C359.82 63.109 355.658 56.8591 351.58 51.5569C353.083 53.5815 351.322 55.4246 349.526 54.8353C336.683 54.4095 323.972 52.2933 311.153 51.4809C272.848 50.2678 234.663 47.163 196.303 46.8281C175.917 45.4957 155.473 45.0328 134.978 45.7045C107.974 44.759 80.8497 46.6143 53.7606 48.5982C46.4375 49.0283 39.1615 47.9344 31.8318 48.7613C28.0814 48.7923 27.116 54.654 23.8505 56.4515Z" fill="#FFBB00"/>
</svg>
