<svg width="130" height="131" viewBox="0 0 130 131" fill="none" xmlns="http://www.w3.org/2000/svg">
<path d="M108.547 15.7051L123.835 17.9426C126.636 18.3462 128.58 20.9431 128.175 23.7395L115.077 114.2C114.673 116.996 112.072 118.937 109.271 118.533L108.547 118.278" fill="white"/>
<path d="M108.547 15.7051L123.835 17.9426C126.636 18.3462 128.58 20.9431 128.175 23.7395L115.077 114.2C114.673 116.996 112.072 118.937 109.271 118.533L108.547 118.278" stroke="#C4C4C4" stroke-width="3" stroke-miterlimit="10"/>
<path d="M108.43 21.543L119.424 23.1219C120.95 23.3414 122.008 24.7563 121.788 26.2798L120.315 36.4475C120.095 37.971 118.678 39.0266 117.152 38.807L108.496 37.5674" stroke="#C4C4C4" stroke-width="3" stroke-miterlimit="10"/>
<path d="M22.526 16.7109L6.33365 19.239C3.5372 19.6759 1.62477 22.2949 2.06234 25.0868L16.209 115.39C16.6465 118.182 19.2675 120.091 22.0662 119.654L22.3505 119.59" fill="white"/>
<path d="M22.526 16.7109L6.33365 19.239C3.5372 19.6759 1.62477 22.2949 2.06234 25.0868L16.209 115.39C16.6465 118.182 19.2675 120.091 22.0662 119.654L22.3505 119.59" stroke="#C4C4C4" stroke-width="3" stroke-miterlimit="10"/>
<path d="M22.3542 38.5946L13.263 40.0272C11.7392 40.2645 10.311 39.2244 10.0734 37.7031L8.483 27.5532C8.24533 26.0319 9.28706 24.606 10.8108 24.3687L22.3564 22.5547" stroke="#C4C4C4" stroke-width="3" stroke-miterlimit="10"/>
<path d="M102.141 129H28.7535C25.2152 129 22.3477 126.137 22.3477 122.604V8.39557C22.3477 4.86293 25.2152 2 28.7535 2H102.141C105.679 2 108.547 4.86293 108.547 8.39557V122.607C108.547 126.137 105.679 129 102.141 129Z" fill="white" stroke="#FFBB00" stroke-width="3" stroke-miterlimit="10"/>
<path d="M38.0273 38.0762H92.9346" stroke="#FFBB00" stroke-width="3" stroke-miterlimit="10" stroke-linecap="round"/>
<path d="M38.0273 45.2422H92.9346" stroke="#FFBB00" stroke-width="3" stroke-miterlimit="10" stroke-linecap="round"/>
<path d="M38.0273 59.9766H92.9346" stroke="#FFBB00" stroke-width="3" stroke-miterlimit="10" stroke-linecap="round"/>
<path d="M38.0273 67.1445H92.9346" stroke="#FFBB00" stroke-width="3" stroke-miterlimit="10" stroke-linecap="round"/>
<path d="M38.0273 74.3145H92.9346" stroke="#FFBB00" stroke-width="3" stroke-miterlimit="10" stroke-linecap="round"/>
<path d="M38.0273 88.6484H92.9346" stroke="#FFBB00" stroke-width="3" stroke-miterlimit="10" stroke-linecap="round"/>
<path d="M38.0273 96.2148H78.577" stroke="#FFBB00" stroke-width="3" stroke-miterlimit="10" stroke-linecap="round"/>
<path d="M65.4497 24.8614C68.9556 24.8614 71.7978 22.0238 71.7978 18.5235C71.7978 15.0231 68.9556 12.1855 65.4497 12.1855C61.9437 12.1855 59.1016 15.0231 59.1016 18.5235C59.1016 22.0238 61.9437 24.8614 65.4497 24.8614Z" stroke="#FFBB00" stroke-width="3" stroke-miterlimit="10"/>
</svg>
