<svg width="334" height="336" viewBox="0 0 334 336" fill="none" xmlns="http://www.w3.org/2000/svg">
<path d="M279.699 38.791L319.369 44.597C326.637 45.6443 331.68 52.3825 330.631 59.6386L296.644 294.366C295.595 301.622 288.846 306.657 281.578 305.609L279.699 304.948" stroke="#C4C4C4" stroke-width="5" stroke-miterlimit="10"/>
<path d="M279.395 53.9414L307.924 58.0384C311.883 58.6081 314.627 62.2793 314.056 66.2325L310.235 92.6157C309.664 96.5688 305.987 99.3079 302.028 98.7382L279.567 95.5216" stroke="#C4C4C4" stroke-width="5" stroke-miterlimit="10"/>
<path d="M56.4912 41.4023L14.4754 47.9622C7.2192 49.0958 2.25683 55.8915 3.39224 63.1361L40.0999 297.455C41.2353 304.699 48.0362 309.654 55.2982 308.52L56.0359 308.353" stroke="#C4C4C4" stroke-width="5" stroke-miterlimit="10"/>
<path d="M56.0377 98.1868L32.4477 101.904C28.494 102.52 24.788 99.821 24.1713 95.8736L20.0447 69.5365C19.428 65.5891 22.1311 61.8891 26.0848 61.2734L56.0434 56.5664" stroke="#C4C4C4" stroke-width="5" stroke-miterlimit="10"/>
<path d="M263.079 332.77H72.6531C63.4719 332.77 56.0312 325.341 56.0312 316.175V19.8257C56.0312 10.6592 63.4719 3.23047 72.6531 3.23047H263.079C272.26 3.23047 279.701 10.6592 279.701 19.8257V316.181C279.701 325.341 272.26 332.77 263.079 332.77Z" stroke="#FFBB00" stroke-width="5" stroke-miterlimit="10"/>
<path d="M96.7188 96.8398H239.192" stroke="#FFBB00" stroke-width="5" stroke-miterlimit="10" stroke-linecap="round"/>
<path d="M96.7188 115.438H239.192" stroke="#FFBB00" stroke-width="5" stroke-miterlimit="10" stroke-linecap="round"/>
<path d="M96.7188 153.668H239.192" stroke="#FFBB00" stroke-width="5" stroke-miterlimit="10" stroke-linecap="round"/>
<path d="M96.7188 172.266H239.192" stroke="#FFBB00" stroke-width="5" stroke-miterlimit="10" stroke-linecap="round"/>
<path d="M96.7188 190.871H239.192" stroke="#FFBB00" stroke-width="5" stroke-miterlimit="10" stroke-linecap="round"/>
<path d="M96.7188 228.066H239.192" stroke="#FFBB00" stroke-width="5" stroke-miterlimit="10" stroke-linecap="round"/>
<path d="M96.7188 247.699H201.937" stroke="#FFBB00" stroke-width="5" stroke-miterlimit="10" stroke-linecap="round"/>
<path d="M167.867 62.5514C176.964 62.5514 184.339 55.1884 184.339 46.1058C184.339 37.0231 176.964 29.6602 167.867 29.6602C158.769 29.6602 151.395 37.0231 151.395 46.1058C151.395 55.1884 158.769 62.5514 167.867 62.5514Z" stroke="#FFBB00" stroke-width="5" stroke-miterlimit="10"/>
</svg>
