<svg width="40" height="45" viewBox="0 0 40 45" fill="none" xmlns="http://www.w3.org/2000/svg">
<path fill-rule="evenodd" clip-rule="evenodd" d="M38.289 18.2652H1.72694C0.877707 18.2652 0.188477 17.576 0.188477 16.7268C0.188477 15.8775 0.877707 15.1883 1.72694 15.1883H38.289C39.1382 15.1883 39.8275 15.8775 39.8275 16.7268C39.8275 17.576 39.1382 18.2652 38.289 18.2652Z" fill="#9C9B9B"/>
<path fill-rule="evenodd" clip-rule="evenodd" d="M29.1307 26.2761C28.2814 26.2761 27.584 25.5869 27.584 24.7376C27.584 23.8884 28.263 23.1992 29.1122 23.1992H29.1307C29.9799 23.1992 30.6691 23.8884 30.6691 24.7376C30.6691 25.5869 29.9799 26.2761 29.1307 26.2761Z" fill="#9C9B9B"/>
<path fill-rule="evenodd" clip-rule="evenodd" d="M20.0281 26.2761C19.1789 26.2761 18.4814 25.5869 18.4814 24.7376C18.4814 23.8884 19.1604 23.1992 20.0097 23.1992H20.0281C20.8773 23.1992 21.5666 23.8884 21.5666 24.7376C21.5666 25.5869 20.8773 26.2761 20.0281 26.2761Z" fill="#9C9B9B"/>
<path fill-rule="evenodd" clip-rule="evenodd" d="M10.9076 26.2761C10.0584 26.2761 9.35889 25.5869 9.35889 24.7376C9.35889 23.8884 10.0399 23.1992 10.8891 23.1992H10.9076C11.7568 23.1992 12.4461 23.8884 12.4461 24.7376C12.4461 25.5869 11.7568 26.2761 10.9076 26.2761Z" fill="#9C9B9B"/>
<path fill-rule="evenodd" clip-rule="evenodd" d="M29.1307 34.2488C28.2814 34.2488 27.584 33.5596 27.584 32.7104C27.584 31.8611 28.263 31.1719 29.1122 31.1719H29.1307C29.9799 31.1719 30.6691 31.8611 30.6691 32.7104C30.6691 33.5596 29.9799 34.2488 29.1307 34.2488Z" fill="#9C9B9B"/>
<path fill-rule="evenodd" clip-rule="evenodd" d="M20.0281 34.2488C19.1789 34.2488 18.4814 33.5596 18.4814 32.7104C18.4814 31.8611 19.1604 31.1719 20.0097 31.1719H20.0281C20.8773 31.1719 21.5666 31.8611 21.5666 32.7104C21.5666 33.5596 20.8773 34.2488 20.0281 34.2488Z" fill="#9C9B9B"/>
<path fill-rule="evenodd" clip-rule="evenodd" d="M10.9076 34.2488C10.0584 34.2488 9.35889 33.5596 9.35889 32.7104C9.35889 31.8611 10.0399 31.1719 10.8891 31.1719H10.9076C11.7568 31.1719 12.4461 31.8611 12.4461 32.7104C12.4461 33.5596 11.7568 34.2488 10.9076 34.2488Z" fill="#9C9B9B"/>
<path fill-rule="evenodd" clip-rule="evenodd" d="M28.2933 9.82769C27.4441 9.82769 26.7549 9.13846 26.7549 8.28923V1.53846C26.7549 0.689231 27.4441 0 28.2933 0C29.1426 0 29.8318 0.689231 29.8318 1.53846V8.28923C29.8318 9.13846 29.1426 9.82769 28.2933 9.82769Z" fill="#9C9B9B"/>
<path fill-rule="evenodd" clip-rule="evenodd" d="M11.7225 9.82769C10.8733 9.82769 10.1841 9.13846 10.1841 8.28923V1.53846C10.1841 0.689231 10.8733 0 11.7225 0C12.5718 0 13.261 0.689231 13.261 1.53846V8.28923C13.261 9.13846 12.5718 9.82769 11.7225 9.82769Z" fill="#9C9B9B"/>
<mask id="mask0_285_1955" style="mask-type:alpha" maskUnits="userSpaceOnUse" x="0" y="3" width="40" height="42">
<path fill-rule="evenodd" clip-rule="evenodd" d="M0 3.23918H40V44.1026H0V3.23918Z" fill="white"/>
</mask>
<g mask="url(#mask0_285_1955)">
<path fill-rule="evenodd" clip-rule="evenodd" d="M11.3251 6.3161C6.00615 6.3161 3.07692 9.15303 3.07692 14.3038V32.8658C3.07692 38.1294 6.00615 41.0258 11.3251 41.0258H28.6749C33.9938 41.0258 36.9231 38.1828 36.9231 33.0217V14.3038C36.9313 11.7705 36.2503 9.80123 34.8985 8.44739C33.5077 7.05251 31.3641 6.3161 28.6933 6.3161H11.3251ZM28.6749 44.1028H11.3251C4.34051 44.1028 0 39.7971 0 32.8659V14.3038C0 7.47713 4.34051 3.23918 11.3251 3.23918H28.6933C32.199 3.23918 35.0974 4.28944 37.0769 6.27303C38.999 8.20328 40.0103 10.9787 40 14.3079V33.0217C40 39.8566 35.6595 44.1028 28.6749 44.1028Z" fill="#9C9B9B"/>
</g>
</svg>
