<svg width="40" height="40" viewBox="0 0 40 40" fill="none" xmlns="http://www.w3.org/2000/svg">
<path fill-rule="evenodd" clip-rule="evenodd" d="M11.33 3C6.27 3 3 6.466 3 11.832V28.168C3 33.534 6.27 37 11.33 37H28.666C33.728 37 37 33.534 37 28.168V11.832C37 6.466 33.73 3 28.668 3H11.33ZM28.666 40H11.33C4.552 40 0 35.244 0 28.168V11.832C0 4.756 4.552 0 11.33 0H28.668C35.446 0 40 4.756 40 11.832V28.168C40 35.244 35.446 40 28.666 40Z" fill="#9C9B9B"/>
<path fill-rule="evenodd" clip-rule="evenodd" d="M26.782 25.5352C26.52 25.5352 26.256 25.4672 26.014 25.3252L19.232 21.2792C18.78 21.0072 18.5 20.5172 18.5 19.9912V11.2672C18.5 10.4392 19.172 9.7672 20 9.7672C20.828 9.7672 21.5 10.4392 21.5 11.2672V19.1392L27.552 22.7452C28.262 23.1712 28.496 24.0912 28.072 24.8032C27.79 25.2732 27.292 25.5352 26.782 25.5352Z" fill="#9C9B9B"/>
</svg>
