<svg width="74" height="79" viewBox="0 0 74 79" fill="none" xmlns="http://www.w3.org/2000/svg">
<path d="M47.3916 43.5645V28.5831L36.8685 15.335L26.3454 28.5831V43.5645L17.166 48.2963V77.4731H36.8685H56.5709V48.2963L47.3916 43.5645Z" stroke="black" stroke-width="2" stroke-miterlimit="10"/>
<path d="M41.8701 77.4734H31.5156V65.2532C31.5156 62.4048 33.8324 60.0938 36.6929 60.0938C39.5511 60.0938 41.8701 62.4025 41.8701 65.2532V77.4734V77.4734Z" stroke="black" stroke-width="2" stroke-miterlimit="10"/>
<path d="M36.6927 38.8328C39.8809 38.8328 42.4655 36.2571 42.4655 33.08C42.4655 29.9028 39.8809 27.3271 36.6927 27.3271C33.5045 27.3271 30.9199 29.9028 30.9199 33.08C30.9199 36.2571 33.5045 38.8328 36.6927 38.8328Z" stroke="black" stroke-width="2" stroke-miterlimit="10"/>
<path d="M36.8672 15.3352V0" stroke="black" stroke-width="2" stroke-miterlimit="10"/>
<path d="M33.1094 4.76367H40.0505" stroke="black" stroke-width="2" stroke-miterlimit="10"/>
<path d="M66.6732 77.4729V59.6407L56.5703 54.7656" stroke="black" stroke-width="2" stroke-miterlimit="10"/>
<path d="M6.88672 77.4729V59.6407L16.9896 54.7656" stroke="black" stroke-width="2" stroke-miterlimit="10"/>
<path d="M0 77.4727H73.6146" stroke="black" stroke-width="2" stroke-miterlimit="10"/>
</svg>
