<svg width="59" height="59" viewBox="0 0 59 59" fill="none" xmlns="http://www.w3.org/2000/svg">
<path fill-rule="evenodd" clip-rule="evenodd" d="M0 29.4648C0 13.4486 13.2076 0.464844 29.5 0.464844C45.7924 0.464844 59 13.4486 59 29.4648C59 45.4811 45.7924 58.4648 29.5 58.4648C13.2076 58.4648 0 45.4811 0 29.4648ZM29.5015 13.9982C25.2285 13.9982 24.6923 14.0165 23.014 14.0916C21.3391 14.167 20.1958 14.4277 19.1954 14.8102C18.1606 15.2052 17.2828 15.7337 16.4083 16.5937C15.5331 17.4534 14.9955 18.3163 14.5923 19.3333C14.2023 20.317 13.9368 21.4413 13.8614 23.0872C13.7863 24.737 13.7667 25.2645 13.7667 29.465C13.7667 33.6655 13.7857 34.1911 13.8617 35.8409C13.9388 37.4875 14.2039 38.6114 14.5927 39.5948C14.9949 40.6121 15.5324 41.475 16.4073 42.3347C17.2815 43.195 18.1593 43.7248 19.1934 44.1198C20.1945 44.5023 21.3381 44.763 23.0127 44.8384C24.691 44.9135 25.2269 44.9318 29.4995 44.9318C33.7728 44.9318 34.3074 44.9135 35.9856 44.8384C37.6606 44.763 38.8052 44.5023 39.8063 44.1198C40.8407 43.7248 41.7172 43.195 42.5914 42.3347C43.4666 41.475 44.0042 40.6121 44.4073 39.5951C44.7941 38.6114 45.0596 37.4871 45.1383 35.8412C45.2137 34.1914 45.2333 33.6655 45.2333 29.465C45.2333 25.2645 45.2137 24.7373 45.1383 23.0875C45.0596 21.4409 44.7941 20.317 44.4073 19.3336C44.0042 18.3163 43.4666 17.4534 42.5914 16.5937C41.7162 15.7334 40.8411 15.2049 39.8053 14.8102C38.8023 14.4277 37.6583 14.167 35.9833 14.0916C34.3051 14.0165 33.7708 13.9982 29.4966 13.9982H29.5015Z" fill="white"/>
<path fill-rule="evenodd" clip-rule="evenodd" d="M28.09 16.7854C28.509 16.7848 28.9764 16.7854 29.5015 16.7854C33.7023 16.7854 34.2002 16.8003 35.8591 16.8744C37.3931 16.9433 38.2257 17.1953 38.7803 17.407C39.5145 17.6873 40.038 18.0225 40.5883 18.5638C41.139 19.1051 41.4799 19.6207 41.7657 20.3425C41.9811 20.887 42.2377 21.7055 42.3076 23.2135C42.3829 24.844 42.3993 25.3338 42.3993 29.4615C42.3993 33.5892 42.3829 34.079 42.3076 35.7094C42.2374 37.2174 41.9811 38.0359 41.7657 38.5804C41.4806 39.3022 41.139 39.8162 40.5883 40.3572C40.0377 40.8985 39.5149 41.2337 38.7803 41.514C38.2264 41.7267 37.3931 41.978 35.8591 42.0469C34.2005 42.1211 33.7023 42.1372 29.5015 42.1372C25.3003 42.1372 24.8024 42.1211 23.1438 42.0469C21.6098 41.9773 20.7773 41.7254 20.2223 41.5137C19.4881 41.2333 18.9636 40.8982 18.413 40.3569C17.8623 39.8155 17.5214 39.3013 17.2356 38.5792C17.0202 38.0346 16.7636 37.2161 16.6938 35.7081C16.6184 34.0777 16.6033 33.5879 16.6033 29.4576C16.6033 25.3273 16.6184 24.8401 16.6938 23.2096C16.7639 21.7016 17.0202 20.8832 17.2356 20.338C17.5207 19.6162 17.8623 19.1006 18.413 18.5593C18.9636 18.0179 19.4881 17.6828 20.2223 17.4018C20.7769 17.1892 21.6098 16.9378 23.1438 16.8686C24.5952 16.8041 25.1577 16.7848 28.09 16.7816V16.7854ZM37.8999 19.3536C36.8575 19.3536 36.0119 20.1839 36.0119 21.2089C36.0119 22.2336 36.8575 23.065 37.8999 23.065C38.9422 23.065 39.7879 22.2336 39.7879 21.2089C39.7879 20.1843 38.9422 19.3536 37.8999 19.3536ZM29.5015 21.5221C25.0394 21.5221 21.4217 25.0785 21.4217 29.465C21.4217 33.8515 25.0394 37.4063 29.5015 37.4063C33.9636 37.4063 37.58 33.8515 37.58 29.465C37.58 25.0785 33.9636 21.5221 29.5015 21.5221Z" fill="white"/>
<path fill-rule="evenodd" clip-rule="evenodd" d="M29.5015 24.3094C32.3978 24.3094 34.746 26.6175 34.746 29.465C34.746 32.3122 32.3978 34.6206 29.5015 34.6206C26.6049 34.6206 24.257 32.3122 24.257 29.465C24.257 26.6175 26.6049 24.3094 29.5015 24.3094Z" fill="white"/>
</svg>
