<svg width="57" height="58" viewBox="0 0 57 58" fill="none" xmlns="http://www.w3.org/2000/svg">
<path fill-rule="evenodd" clip-rule="evenodd" d="M28.5 0.464844C44.2401 0.464844 57 13.2247 57 28.9648C57 44.705 44.2401 57.4648 28.5 57.4648C12.7599 57.4648 0 44.705 0 28.9648C0 13.2247 12.7599 0.464844 28.5 0.464844ZM36.093 25.3529C35.9544 24.2268 35.6083 23.3426 34.9936 22.5594C34.1954 21.5509 33.1754 20.9469 31.6653 20.5887C30.6811 20.3499 30.2835 20.3773 29.9276 20.7025C29.596 21.0071 29.5313 21.6177 29.7847 22.0132C29.9629 22.3002 30.1684 22.403 30.7401 22.5152C31.5014 22.6553 32.0276 22.8371 32.5062 23.1108C33.522 23.6973 33.995 24.6152 34.0457 26.1011C34.0694 26.7989 34.1297 27.0134 34.3733 27.2608C34.825 27.7132 35.6288 27.6252 35.9698 27.0839C36.0949 26.8798 36.114 26.791 36.1272 26.3173C36.1359 26.024 36.1233 25.5874 36.093 25.3529ZM36.1065 18.4438C38.5217 20.3968 39.8711 23.1726 40.0717 26.6227C40.1561 27.9816 40.044 28.4242 39.5646 28.6763C39.132 28.9099 38.6419 28.833 38.3056 28.4813C38.0828 28.2526 37.9973 27.9397 38.0005 27.3858C38.0103 25.8542 37.6575 24.1438 37.0838 22.957C36.4197 21.5756 35.3933 20.4001 34.1021 19.5407C32.9711 18.7859 31.4743 18.276 30.023 18.149C29.0817 18.0667 28.7455 17.9073 28.5648 17.456C28.4529 17.186 28.4825 16.7193 28.6137 16.5103C28.7378 16.3175 29.0162 16.1044 29.2131 16.048C29.4217 15.9872 30.6376 16.0936 31.2981 16.2248C33.101 16.5918 34.7458 17.3464 36.1065 18.4438ZM44.4745 39.9092C44.4071 39.712 44.2496 39.4079 44.1371 39.2332C43.4283 38.1629 39.6204 35.1829 37.7192 34.2083C36.6336 33.6506 35.8292 33.4647 35.233 33.6393C34.5918 33.8197 34.2543 34.1181 33.1799 35.4533C32.7469 35.9884 32.3025 36.4898 32.1844 36.5686C31.8918 36.7715 31.3181 36.9349 30.9131 36.9349C29.9738 36.9292 28.2695 36.3208 26.9589 35.5208C25.9408 34.9012 24.6359 33.7915 23.6346 32.693C22.4534 31.4029 21.6491 30.265 21.0134 28.9806C20.1923 27.33 19.9841 26.3216 20.3272 25.5836C20.4116 25.3978 20.5241 25.2006 20.5747 25.1386C20.6253 25.0823 21.1541 24.6485 21.739 24.1753C22.8865 23.2628 23.0721 23.0543 23.2859 22.429C23.5558 21.6347 23.4828 20.8235 23.0665 20.0067C22.7459 19.387 21.9078 18.035 21.3003 17.1618C20.496 16.0127 18.4935 13.5566 18.0941 13.2241C17.3742 12.6383 16.4518 12.5368 15.4336 12.9312C14.3593 13.3481 12.3456 14.9705 11.485 16.1028C10.7088 17.1281 10.4107 17.8547 10.3657 18.8124C10.3263 19.601 10.3938 19.9278 10.8101 20.9362C14.0668 28.8453 18.9266 35.1603 25.6033 40.174C29.0907 42.7935 32.7074 44.7877 36.4592 46.151C38.6472 46.9453 39.5978 46.9847 40.7172 46.3313C41.1896 46.0496 42.3596 44.8497 43.0121 43.9765C44.0921 42.5231 44.4914 41.8528 44.6039 41.3176C44.6827 40.9514 44.6208 40.3149 44.4745 39.9092ZM43.0363 22.078C43.7215 23.8627 44.0501 25.4635 44.1221 27.4151C44.1336 27.8006 44.1282 28.507 44.1033 28.9855C44.0513 29.9027 44.0015 30.0849 43.7374 30.3276C43.313 30.7258 42.4857 30.6309 42.1719 30.151C42.0081 29.8935 41.9851 29.7049 42.0168 28.6332C42.1078 25.4633 41.4667 22.9812 39.9222 20.4993C38.0766 17.5217 35.316 15.5159 31.7262 14.5345C30.8107 14.2848 30.0392 14.1325 28.8394 13.971C28.0578 13.8687 27.8866 13.8254 27.6937 13.7067C27.111 13.3335 27.1032 12.3884 27.6841 12.0095C27.9839 11.8094 28.205 11.8005 29.1821 11.9256C32.0473 12.2837 34.604 13.1351 36.7048 14.4216C38.2106 15.345 39.16 16.1745 40.3824 17.6273C41.6753 19.1768 42.3599 20.3224 43.0363 22.078Z" fill="white"/>
</svg>
