<svg width="58" height="58" viewBox="0 0 58 58" fill="none" xmlns="http://www.w3.org/2000/svg">
<path fill-rule="evenodd" clip-rule="evenodd" d="M58 28.9648C58 44.7049 45.0162 57.4648 29 57.4648C12.9838 57.4648 0 44.7049 0 28.9648C0 13.2248 12.9838 0.464844 29 0.464844C45.0162 0.464844 58 13.2248 58 28.9648ZM19.4197 26.3541C16.5147 27.6006 13.5298 28.8815 10.8004 30.359C9.37518 31.3845 11.2694 32.1099 13.0465 32.7904C13.329 32.8986 13.6085 33.0056 13.8713 33.1124C14.09 33.1786 14.3123 33.2482 14.5377 33.3187C16.5142 33.9375 18.7179 34.6276 20.6368 33.5896C23.7888 31.8101 26.7634 29.7529 29.7358 27.6972C30.7096 27.0236 31.6831 26.3503 32.6626 25.687C32.7085 25.6581 32.7602 25.6251 32.8169 25.5891C33.6512 25.0575 35.5279 23.862 34.8337 25.5093C33.1923 27.2735 31.4341 28.8351 29.6664 30.4053C28.475 31.4635 27.2792 32.5256 26.112 33.6561C25.0954 34.4678 24.0397 36.1003 25.178 37.2371C27.8 39.0409 30.4629 40.801 33.1243 42.5602C33.9903 43.1325 34.8563 43.7049 35.7205 44.2787C37.1853 45.428 39.4744 44.4983 39.7965 42.7024C39.9396 41.8763 40.0834 41.0503 40.2272 40.2241C41.0218 35.6585 41.8167 31.0913 42.5188 26.5109C42.6143 25.7923 42.7224 25.0739 42.8307 24.3551C43.093 22.6129 43.3557 20.8686 43.4378 19.117C43.2263 17.369 41.0697 17.7534 39.8696 18.1465C33.7008 20.4533 27.5936 22.9312 21.5106 25.4527C20.8215 25.7527 20.123 26.0524 19.4197 26.3541Z" fill="white"/>
</svg>
