<svg width="44" height="44" viewBox="0 0 44 44" fill="none" xmlns="http://www.w3.org/2000/svg">
<path fill-rule="evenodd" clip-rule="evenodd" d="M22 44C9.84974 44 0 34.1503 0 22C0 9.84974 9.84974 0 22 0C34.1503 0 44 9.84974 44 22C44 34.1503 34.1503 44 22 44ZM22.7252 34.2398C29.9379 34.2369 35.8041 28.3692 35.807 21.158C35.8083 17.6626 34.4489 14.3759 31.979 11.9033C29.5092 9.43054 26.2246 8.06818 22.725 8.06667C15.5144 8.06667 9.64588 13.9349 9.64301 21.1477C9.64203 23.4534 10.2444 25.7038 11.3892 27.6878L9.53333 34.4667L16.4682 32.6475C18.379 33.6897 20.5303 34.2391 22.7197 34.2398H22.7252Z" fill="white"/>
<path fill-rule="evenodd" clip-rule="evenodd" d="M17.1159 29.9794L13.1192 31.0274L14.1859 27.132L13.9349 26.7326C12.8778 25.052 12.3195 23.1095 12.3203 21.1148C12.3226 15.2947 17.0598 10.5596 22.8847 10.5596C25.7052 10.5605 28.3566 11.6599 30.3503 13.6553C32.3441 15.6506 33.4414 18.3027 33.4403 21.1234C33.438 26.944 28.7008 31.6796 22.8805 31.6796H22.8762C20.9813 31.6788 19.1228 31.1699 17.5015 30.2082L17.1159 29.9794ZM29.2812 24.1443C29.2019 24.0119 28.9903 23.9325 28.6728 23.7736C28.3554 23.6147 26.7946 22.8471 26.5036 22.7411C26.2126 22.6352 26.0009 22.5823 25.7893 22.8999C25.5777 23.2176 24.9693 23.9325 24.7841 24.1443C24.599 24.356 24.4138 24.3826 24.0964 24.2237C23.779 24.0648 22.7561 23.7298 21.5435 22.6486C20.5997 21.8071 19.9626 20.7679 19.7775 20.4502C19.5923 20.1325 19.7577 19.9608 19.9166 19.8026C20.0595 19.6603 20.2341 19.4318 20.3928 19.2466C20.5515 19.0613 20.6045 18.9289 20.7103 18.7172C20.8161 18.5053 20.7632 18.3201 20.6838 18.1612C20.6045 18.0024 19.9696 16.4404 19.705 15.8049C19.4473 15.1861 19.1856 15.27 18.9908 15.2602C18.8058 15.2509 18.594 15.249 18.3823 15.249C18.1707 15.249 17.8268 15.3284 17.5358 15.6461C17.2448 15.9638 16.4247 16.7316 16.4247 18.2935C16.4247 19.8555 17.5622 21.3645 17.721 21.5762C17.8797 21.7881 19.9595 24.9934 23.1441 26.368C23.9015 26.695 24.4927 26.8902 24.9538 27.0365C25.7143 27.2781 26.4064 27.244 26.9533 27.1622C27.5633 27.0711 28.8315 26.3946 29.0962 25.6533C29.3606 24.9119 29.3606 24.2766 29.2812 24.1443Z" fill="white"/>
</svg>
